<?xml version="1.0" encoding="UTF-8"?>
<!DOCTYPE svg PUBLIC "-//W3C//DTD SVG 1.1//EN" "http://www.w3.org/Graphics/SVG/1.1/DTD/svg11.dtd">
<svg xmlns="http://www.w3.org/2000/svg" version="1.1" width="192px" height="155px" style="shape-rendering:geometricPrecision; text-rendering:geometricPrecision; image-rendering:optimizeQuality; fill-rule:evenodd; clip-rule:evenodd" xmlns:xlink="http://www.w3.org/1999/xlink">
<g><path style="opacity:1" fill="#fefefe" d="M -0.5,-0.5 C 2.83333,-0.5 6.16667,-0.5 9.5,-0.5C 9.5,9.16667 9.5,18.8333 9.5,28.5C 9.5,33.8333 9.5,39.1667 9.5,44.5C 9.35172,49.3188 10.0184,53.9855 11.5,58.5C 10.7784,58.0825 10.2784,57.4158 10,56.5C 9.50002,89.165 9.33335,121.832 9.5,154.5C 6.16667,154.5 2.83333,154.5 -0.5,154.5C -0.5,102.833 -0.5,51.1667 -0.5,-0.5 Z"/></g>
<g><path style="opacity:1" fill="#f4f5f4" d="M 9.5,-0.5 C 70.1667,-0.5 130.833,-0.5 191.5,-0.5C 191.5,51.1667 191.5,102.833 191.5,154.5C 130.833,154.5 70.1667,154.5 9.5,154.5C 9.33335,121.832 9.50002,89.165 10,56.5C 10.2784,57.4158 10.7784,58.0825 11.5,58.5C 12.522,60.5439 13.522,62.5439 14.5,64.5C 14.2865,66.1439 14.6198,67.6439 15.5,69C 14.3621,70.7343 13.8621,72.5676 14,74.5C 14.6667,73.8333 15.3333,73.1667 16,72.5C 18.474,76.56 20.6407,80.8933 22.5,85.5C 22.0233,86.4776 21.3567,87.3109 20.5,88C 22.6099,87.6534 24.6099,87.8201 26.5,88.5C 30.8013,95.8131 35.1346,103.146 39.5,110.5C 42.288,118.41 44.9546,126.41 47.5,134.5C 47.7425,140.184 48.2425,145.851 49,151.5C 53.5051,152.829 57.6718,152.162 61.5,149.5C 64.2431,147.436 67.2431,145.769 70.5,144.5C 71.391,143.89 72.391,143.557 73.5,143.5C 77.8054,143.018 81.1388,141.018 83.5,137.5C 85.1898,135.658 87.1898,134.325 89.5,133.5C 92.7373,132.251 96.0706,131.251 99.5,130.5C 102.525,126.151 105.858,122.151 109.5,118.5C 118.631,110.311 127.964,102.645 137.5,95.5C 139.5,94.5 141.5,93.5 143.5,92.5C 145.853,91.6597 147.853,90.3264 149.5,88.5C 154.368,84.6225 159.702,81.6225 165.5,79.5C 167.435,78.8505 169.435,78.5172 171.5,78.5C 175.581,76.4744 179.915,75.4744 184.5,75.5C 184.802,72.9407 184.468,70.6074 183.5,68.5C 180.663,63.4991 178.496,58.1658 177,52.5C 167.302,38.4371 158.636,23.7705 151,8.5C 149.644,7.61983 148.144,7.28649 146.5,7.5C 145.081,6.54885 143.415,6.21552 141.5,6.5C 134.011,5.34434 126.345,5.17767 118.5,6C 115.135,6.50531 112.135,7.67197 109.5,9.5C 105.786,9.59025 102.452,10.5902 99.5,12.5C 97.1016,12.2594 95.1016,12.9261 93.5,14.5C 92.8333,14.5 92.1667,14.5 91.5,14.5C 87.0643,15.4144 83.0643,17.081 79.5,19.5C 76.0532,20.6467 72.7199,21.98 69.5,23.5C 66.6681,24.1003 63.8348,24.7669 61,25.5C 59.9701,25.8361 59.4701,26.5028 59.5,27.5C 55.7858,27.5902 52.4525,28.5902 49.5,30.5C 42.9841,30.9694 36.4841,31.6361 30,32.5C 26.4774,32.2933 22.9774,31.96 19.5,31.5C 16.0171,30.7987 12.6838,29.7987 9.5,28.5C 9.5,18.8333 9.5,9.16667 9.5,-0.5 Z"/></g>
<g><path style="opacity:1" fill="#c2ddc8" d="M 141.5,6.5 C 130.613,5.81011 119.946,6.81011 109.5,9.5C 112.135,7.67197 115.135,6.50531 118.5,6C 126.345,5.17767 134.011,5.34434 141.5,6.5 Z"/></g>
<g><path style="opacity:1" fill="#0f8338" d="M 141.5,6.5 C 143.415,6.21552 145.081,6.54885 146.5,7.5C 144.833,7.5 143.167,7.5 141.5,7.5C 140.833,7.5 140.167,7.5 139.5,7.5C 137.143,7.33669 134.81,7.50335 132.5,8C 133.328,8.91471 134.328,9.58138 135.5,10C 134.5,10.8333 133.5,11.6667 132.5,12.5C 133.325,13.3857 134.325,13.719 135.5,13.5C 136.088,17.0062 137.922,19.6728 141,21.5C 141.667,23.5 142.333,25.5 143,27.5C 146.065,29.7694 149.232,31.9361 152.5,34C 151.5,34.3333 150.5,34.6667 149.5,35C 152.125,36.3757 152.125,37.5423 149.5,38.5C 145.958,38.8128 142.625,38.4794 139.5,37.5C 136.325,36.5713 132.991,35.738 129.5,35C 125.711,29.5379 121.044,25.2046 115.5,22C 112.597,18.2193 109.263,14.886 105.5,12C 103.575,12.1349 101.575,12.3016 99.5,12.5C 102.452,10.5902 105.786,9.59025 109.5,9.5C 119.946,6.81011 130.613,5.81011 141.5,6.5 Z"/></g>
<g><path style="opacity:1" fill="#92ca7d" d="M 91.5,14.5 C 91.1667,15.5 90.5,16.1667 89.5,16.5C 86.1295,17.5757 82.7961,18.5757 79.5,19.5C 83.0643,17.081 87.0643,15.4144 91.5,14.5 Z"/></g>
<g><path style="opacity:1" fill="#4ea62b" d="M 139.5,7.5 C 140.167,7.5 140.833,7.5 141.5,7.5C 144.162,9.34653 146.662,12.0132 149,15.5C 149.333,15.1667 149.667,14.8333 150,14.5C 149.879,17.9213 151.212,20.5879 154,22.5C 153.843,26.8268 155.51,30.1602 159,32.5C 160.009,34.0249 160.509,35.6916 160.5,37.5C 161.873,37.3433 163.207,37.51 164.5,38C 163.833,38.3333 163.167,38.6667 162.5,39C 164.808,44.595 168.141,49.595 172.5,54C 171.941,54.7247 171.608,55.5581 171.5,56.5C 174.185,61.7333 176.185,67.2333 177.5,73C 176.944,73.3826 176.611,73.8826 176.5,74.5C 176.158,75.3382 175.492,75.6716 174.5,75.5C 173.307,75.0296 172.64,74.0296 172.5,72.5C 171.859,68.4598 171.025,64.4598 170,60.5C 166.882,55.2602 164.048,49.9269 161.5,44.5C 160.07,44.5792 158.736,44.2458 157.5,43.5C 156.478,43.8555 155.811,44.5222 155.5,45.5C 154.609,46.1098 153.609,46.4431 152.5,46.5C 153.812,44.5212 155.479,42.8545 157.5,41.5C 156.051,40.8281 154.718,40.1614 153.5,39.5C 155.199,39.6602 156.866,39.4935 158.5,39C 156.558,35.6186 154.725,32.1186 153,28.5C 150.667,27.1667 148.333,25.8333 146,24.5C 143.064,19.059 140.898,13.3923 139.5,7.5 Z"/></g>
<g><path style="opacity:1" fill="#1f972f" d="M 139.5,7.5 C 140.898,13.3923 143.064,19.059 146,24.5C 148.333,25.8333 150.667,27.1667 153,28.5C 154.725,32.1186 156.558,35.6186 158.5,39C 156.866,39.4935 155.199,39.6602 153.5,39.5C 151.901,39.7678 150.568,39.4345 149.5,38.5C 152.125,37.5423 152.125,36.3757 149.5,35C 150.5,34.6667 151.5,34.3333 152.5,34C 149.232,31.9361 146.065,29.7694 143,27.5C 142.333,25.5 141.667,23.5 141,21.5C 137.922,19.6728 136.088,17.0062 135.5,13.5C 134.325,13.719 133.325,13.3857 132.5,12.5C 133.5,11.6667 134.5,10.8333 135.5,10C 134.328,9.58138 133.328,8.91471 132.5,8C 134.81,7.50335 137.143,7.33669 139.5,7.5 Z"/></g>
<g><path style="opacity:1" fill="#68b52c" d="M 89.5,16.5 C 89.5774,17.7498 90.244,18.5831 91.5,19C 90.8333,19.3333 90.1667,19.6667 89.5,20C 93.1763,22.5033 96.843,25.0033 100.5,27.5C 107.454,28.9201 113.788,31.2534 119.5,34.5C 107.006,34.0486 94.673,32.3819 82.5,29.5C 79.1554,29.5112 77.4887,31.1779 77.5,34.5C 76.8333,34.8333 76.1667,35.1667 75.5,35.5C 75.7852,33.712 75.4519,32.0453 74.5,30.5C 71.6464,28.9848 69.9798,26.6514 69.5,23.5C 72.7199,21.98 76.0532,20.6467 79.5,19.5C 82.7961,18.5757 86.1295,17.5757 89.5,16.5 Z"/></g>
<g><path style="opacity:1" fill="#2ba332" d="M 125.5,35.5 C 123.265,35.7947 121.265,35.4614 119.5,34.5C 113.788,31.2534 107.454,28.9201 100.5,27.5C 96.843,25.0033 93.1763,22.5033 89.5,20C 90.1667,19.6667 90.8333,19.3333 91.5,19C 90.244,18.5831 89.5774,17.7498 89.5,16.5C 90.5,16.1667 91.1667,15.5 91.5,14.5C 92.1667,14.5 92.8333,14.5 93.5,14.5C 95.8695,14.1489 98.2028,13.9822 100.5,14C 99.9781,14.5613 99.6448,15.228 99.5,16C 100.954,17.7134 102.788,18.8801 105,19.5C 105.45,21.519 106.283,23.3523 107.5,25C 112.214,27.0893 116.881,29.0893 121.5,31C 122.699,32.6943 124.032,34.1943 125.5,35.5 Z"/></g>
<g><path style="opacity:1" fill="#1c9235" d="M 139.5,37.5 C 137.5,37.5 135.5,37.5 133.5,37.5C 131.236,36.7814 128.903,36.448 126.5,36.5C 126.167,36.5 125.833,36.5 125.5,36.5C 125.5,36.1667 125.5,35.8333 125.5,35.5C 124.032,34.1943 122.699,32.6943 121.5,31C 116.881,29.0893 112.214,27.0893 107.5,25C 106.283,23.3523 105.45,21.519 105,19.5C 102.788,18.8801 100.954,17.7134 99.5,16C 99.6448,15.228 99.9781,14.5613 100.5,14C 98.2028,13.9822 95.8695,14.1489 93.5,14.5C 95.1016,12.9261 97.1016,12.2594 99.5,12.5C 101.575,12.3016 103.575,12.1349 105.5,12C 109.263,14.886 112.597,18.2193 115.5,22C 121.044,25.2046 125.711,29.5379 129.5,35C 132.991,35.738 136.325,36.5713 139.5,37.5 Z"/></g>
<g><path style="opacity:1" fill="#048134" d="M 59.5,27.5 C 59.1193,28.9311 58.1193,29.7645 56.5,30C 60.6418,33.4704 64.8084,36.9704 69,40.5C 69.49,41.7932 69.6567,43.1266 69.5,44.5C 67.3328,46.8302 65.6662,49.4968 64.5,52.5C 61.2972,54.1907 58.2972,56.1907 55.5,58.5C 54.9041,57.2839 54.7374,55.9506 55,54.5C 54,55.8333 53,55.8333 52,54.5C 51.7811,53.062 51.2811,51.7287 50.5,50.5C 45.1171,44.7867 39.7838,39.12 34.5,33.5C 39.7699,33.2368 44.7699,32.2368 49.5,30.5C 52.4525,28.5902 55.7858,27.5902 59.5,27.5 Z"/></g>
<g><path style="opacity:1" fill="#3ea032" d="M 69.5,23.5 C 69.9798,26.6514 71.6464,28.9848 74.5,30.5C 75.4519,32.0453 75.7852,33.712 75.5,35.5C 74.8333,36.8333 74.1667,38.1667 73.5,39.5C 71.9263,40.9842 70.593,42.6508 69.5,44.5C 69.6567,43.1266 69.49,41.7932 69,40.5C 64.8084,36.9704 60.6418,33.4704 56.5,30C 58.1193,29.7645 59.1193,28.9311 59.5,27.5C 59.4701,26.5028 59.9701,25.8361 61,25.5C 63.8348,24.7669 66.6681,24.1003 69.5,23.5 Z"/></g>
<g><path style="opacity:1" fill="#6fb67b" d="M 49.5,30.5 C 44.7699,32.2368 39.7699,33.2368 34.5,33.5C 32.8333,33.5 31.1667,33.5 29.5,33.5C 27.8333,33.5 26.1667,33.5 24.5,33.5C 23.8333,33.5 23.1667,33.5 22.5,33.5C 21.5,32.8333 20.5,32.1667 19.5,31.5C 22.9774,31.96 26.4774,32.2933 30,32.5C 36.4841,31.6361 42.9841,30.9694 49.5,30.5 Z"/></g>
<g><path style="opacity:1" fill="#5e7e7a" d="M 91.5,39.5 C 97.1387,38.2518 102.805,38.7518 108.5,41C 109.056,41.3826 109.389,41.8826 109.5,42.5C 103.668,40.5426 97.6678,39.5426 91.5,39.5 Z"/></g>
<g><path style="opacity:1" fill="#d9b102" d="M 126.5,36.5 C 128.903,36.448 131.236,36.7814 133.5,37.5C 135.879,41.5199 138.545,45.1866 141.5,48.5C 143.554,48.3653 145.221,49.032 146.5,50.5C 145.2,53.4323 143.2,55.7656 140.5,57.5C 139.106,55.0486 138.272,52.3819 138,49.5C 135.821,47.6518 133.987,45.4852 132.5,43C 131.552,42.5172 130.552,42.3505 129.5,42.5C 128.794,40.3284 127.794,38.3284 126.5,36.5 Z"/></g>
<g><path style="opacity:1" fill="#e6c20a" d="M 77.5,34.5 C 78.5676,35.4345 79.901,35.7678 81.5,35.5C 81.31,37.9589 82.31,39.6255 84.5,40.5C 84.5,40.8333 84.5,41.1667 84.5,41.5C 82.9731,41.427 81.9731,42.0937 81.5,43.5C 80.8333,43.5 80.1667,43.5 79.5,43.5C 77.8467,42.3955 76.18,42.2288 74.5,43C 73.6634,41.9887 73.33,40.8221 73.5,39.5C 74.1667,38.1667 74.8333,36.8333 75.5,35.5C 76.1667,35.1667 76.8333,34.8333 77.5,34.5 Z"/></g>
<g><path style="opacity:1" fill="#556e74" d="M 90.5,39.5 C 88.8984,41.0739 86.8984,41.7406 84.5,41.5C 84.5,41.1667 84.5,40.8333 84.5,40.5C 86.4352,39.8505 88.4352,39.5172 90.5,39.5 Z"/></g>
<g><path style="opacity:1" fill="#5a6e66" d="M 84.5,41.5 C 84.5,41.8333 84.5,42.1667 84.5,42.5C 83.609,43.1098 82.609,43.4431 81.5,43.5C 81.9731,42.0937 82.9731,41.427 84.5,41.5 Z"/></g>
<g><path style="opacity:1" fill="#ebd515" d="M 119.5,34.5 C 121.265,35.4614 123.265,35.7947 125.5,35.5C 125.5,35.8333 125.5,36.1667 125.5,36.5C 121.952,36.0949 118.619,36.5949 115.5,38C 117.351,38.8372 119.184,39.6705 121,40.5C 121.554,42.6096 122.388,44.6096 123.5,46.5C 123.081,47.6721 122.415,48.6721 121.5,49.5C 125.568,51.8351 127.235,55.1684 126.5,59.5C 128.373,63.9624 129.706,68.2957 130.5,72.5C 127.726,80.2754 124.06,87.6087 119.5,94.5C 118.585,92.2459 117.252,90.2459 115.5,88.5C 117.252,86.7541 118.585,84.7541 119.5,82.5C 119.893,80.7162 120.559,79.0495 121.5,77.5C 122.117,77.3893 122.617,77.056 123,76.5C 124.537,70.47 124.704,64.47 123.5,58.5C 123.88,56.302 123.213,54.6354 121.5,53.5C 121.573,51.9731 120.906,50.9731 119.5,50.5C 116.936,46.8831 113.603,44.2164 109.5,42.5C 109.389,41.8826 109.056,41.3826 108.5,41C 102.805,38.7518 97.1387,38.2518 91.5,39.5C 91.1667,39.5 90.8333,39.5 90.5,39.5C 88.4352,39.5172 86.4352,39.8505 84.5,40.5C 82.31,39.6255 81.31,37.9589 81.5,35.5C 79.901,35.7678 78.5676,35.4345 77.5,34.5C 77.4887,31.1779 79.1554,29.5112 82.5,29.5C 94.673,32.3819 107.006,34.0486 119.5,34.5 Z"/></g>
<g><path style="opacity:1" fill="#6cb72b" d="M 9.5,28.5 C 12.6838,29.7987 16.0171,30.7987 19.5,31.5C 20.5,32.1667 21.5,32.8333 22.5,33.5C 20.8762,33.3601 19.7096,34.0267 19,35.5C 17.31,40.4157 18.9766,43.4157 24,44.5C 27.6346,51.4289 31.6346,58.0956 36,64.5C 39.0643,69.0664 42.8976,72.7331 47.5,75.5C 46.6019,77.9052 45.1019,79.9052 43,81.5C 42.5172,82.448 42.3505,83.448 42.5,84.5C 39.5185,86.1164 38.5185,88.4497 39.5,91.5C 44.0332,94.541 49.0332,96.2076 54.5,96.5C 54.6107,97.1174 54.944,97.6174 55.5,98C 58.5867,98.2589 61.5867,98.7589 64.5,99.5C 67.5,100.167 70.5,100.833 73.5,101.5C 69.6494,100.971 66.1494,101.638 63,103.5C 62.6667,102.5 62.3333,101.5 62,100.5C 60.6932,101.772 59.1932,102.772 57.5,103.5C 58.325,104.386 59.325,104.719 60.5,104.5C 60.7889,110.245 60.2889,115.912 59,121.5C 58.5,121 58,120.5 57.5,120C 54.443,119.744 51.443,119.244 48.5,118.5C 47.8333,120.167 47.1667,121.833 46.5,123.5C 45.3378,118.872 44.3378,114.206 43.5,109.5C 42.2638,110.246 40.9305,110.579 39.5,110.5C 35.1346,103.146 30.8013,95.8131 26.5,88.5C 23.0078,80.1823 19.0078,72.1823 14.5,64.5C 13.4313,57.5583 11.7646,50.8917 9.5,44.5C 9.5,39.1667 9.5,33.8333 9.5,28.5 Z"/></g>
<g><path style="opacity:1" fill="#c59f05" d="M 133.5,37.5 C 135.5,37.5 137.5,37.5 139.5,37.5C 142.625,38.4794 145.958,38.8128 149.5,38.5C 150.568,39.4345 151.901,39.7678 153.5,39.5C 154.718,40.1614 156.051,40.8281 157.5,41.5C 155.479,42.8545 153.812,44.5212 152.5,46.5C 151.167,46.5 150.5,47.1667 150.5,48.5C 149.508,48.3284 148.842,48.6618 148.5,49.5C 147.833,49.8333 147.167,50.1667 146.5,50.5C 145.221,49.032 143.554,48.3653 141.5,48.5C 138.545,45.1866 135.879,41.5199 133.5,37.5 Z"/></g>
<g><path style="opacity:1" fill="#0f4c9d" d="M 90.5,39.5 C 90.8333,39.5 91.1667,39.5 91.5,39.5C 97.6678,39.5426 103.668,40.5426 109.5,42.5C 113.603,44.2164 116.936,46.8831 119.5,50.5C 119.427,52.0269 120.094,53.0269 121.5,53.5C 114.629,54.8129 107.629,54.8129 100.5,53.5C 99.7025,53.9569 99.3691,54.6236 99.5,55.5C 98.1667,55.5 96.8333,55.5 95.5,55.5C 96.0906,54.8485 96.7573,54.1818 97.5,53.5C 96.7643,51.4595 95.9309,49.4595 95,47.5C 94.6667,47.8333 94.3333,48.1667 94,48.5C 92.7581,47.1279 91.2581,46.1279 89.5,45.5C 88.6143,44.675 88.281,43.675 88.5,42.5C 87.1667,42.5 85.8333,42.5 84.5,42.5C 84.5,42.1667 84.5,41.8333 84.5,41.5C 86.8984,41.7406 88.8984,41.0739 90.5,39.5 Z"/></g>
<g><path style="opacity:1" fill="#6eb637" d="M 141.5,7.5 C 143.167,7.5 144.833,7.5 146.5,7.5C 148.144,7.28649 149.644,7.61983 151,8.5C 158.636,23.7705 167.302,38.4371 177,52.5C 178.496,58.1658 180.663,63.4991 183.5,68.5C 183.5,70.5 183.5,72.5 183.5,74.5C 181.167,74.5 178.833,74.5 176.5,74.5C 176.611,73.8826 176.944,73.3826 177.5,73C 176.185,67.2333 174.185,61.7333 171.5,56.5C 171.608,55.5581 171.941,54.7247 172.5,54C 168.141,49.595 164.808,44.595 162.5,39C 163.167,38.6667 163.833,38.3333 164.5,38C 163.207,37.51 161.873,37.3433 160.5,37.5C 160.509,35.6916 160.009,34.0249 159,32.5C 155.51,30.1602 153.843,26.8268 154,22.5C 151.212,20.5879 149.879,17.9213 150,14.5C 149.667,14.8333 149.333,15.1667 149,15.5C 146.662,12.0132 144.162,9.34653 141.5,7.5 Z"/></g>
<g><path style="opacity:1" fill="#5aad2b" d="M 22.5,33.5 C 23.1667,33.5 23.8333,33.5 24.5,33.5C 25.1894,37.7087 27.356,41.042 31,43.5C 32,45.8333 33,48.1667 34,50.5C 40.6569,56.4426 46.4902,63.1092 51.5,70.5C 50.8763,72.754 49.543,74.4206 47.5,75.5C 42.8976,72.7331 39.0643,69.0664 36,64.5C 31.6346,58.0956 27.6346,51.4289 24,44.5C 18.9766,43.4157 17.31,40.4157 19,35.5C 19.7096,34.0267 20.8762,33.3601 22.5,33.5 Z"/></g>
<g><path style="opacity:1" fill="#d2e6c6" d="M 9.5,44.5 C 11.7646,50.8917 13.4313,57.5583 14.5,64.5C 13.522,62.5439 12.522,60.5439 11.5,58.5C 10.0184,53.9855 9.35172,49.3188 9.5,44.5 Z"/></g>
<g><path style="opacity:1" fill="#6a7b72" d="M 119.5,50.5 C 120.906,50.9731 121.573,51.9731 121.5,53.5C 120.094,53.0269 119.427,52.0269 119.5,50.5 Z"/></g>
<g><path style="opacity:1" fill="#058136" d="M 165.5,79.5 C 159.702,81.6225 154.368,84.6225 149.5,88.5C 147.216,88.9752 145.216,89.9752 143.5,91.5C 143.48,89.857 144.147,88.5237 145.5,87.5C 145.48,79.6366 145.48,71.8033 145.5,64C 144.552,63.5172 143.552,63.3505 142.5,63.5C 142.338,61.4727 142.505,59.4727 143,57.5C 145.47,55.2093 147.304,52.5426 148.5,49.5C 148.842,48.6618 149.508,48.3284 150.5,48.5C 152.166,47.3336 153.833,47.3336 155.5,48.5C 156.206,51.6667 157.372,55.0001 159,58.5C 159.462,62.4503 160.296,66.2836 161.5,70C 159.137,72.9323 158.471,76.0989 159.5,79.5C 161.5,79.5 163.5,79.5 165.5,79.5 Z"/></g>
<g><path style="opacity:1" fill="#103888" d="M 84.5,42.5 C 85.8333,42.5 87.1667,42.5 88.5,42.5C 88.281,43.675 88.6143,44.675 89.5,45.5C 91.2581,46.1279 92.7581,47.1279 94,48.5C 94.3333,48.1667 94.6667,47.8333 95,47.5C 95.9309,49.4595 96.7643,51.4595 97.5,53.5C 96.7573,54.1818 96.0906,54.8485 95.5,55.5C 94.5084,55.3284 93.8417,55.6618 93.5,56.5C 90.4064,56.5974 87.7398,57.5974 85.5,59.5C 84.8333,59.5 84.1667,59.5 83.5,59.5C 85.914,58.2233 86.0807,56.5566 84,54.5C 82.6124,55.5536 81.1124,55.7203 79.5,55C 78.3056,53.2728 78.3056,51.4395 79.5,49.5C 78.2011,50.09 77.3678,51.09 77,52.5C 75.8545,51.3157 74.6879,51.3157 73.5,52.5C 74.7693,48.9464 76.7693,45.9464 79.5,43.5C 80.1667,43.5 80.8333,43.5 81.5,43.5C 82.609,43.4431 83.609,43.1098 84.5,42.5 Z"/></g>
<g><path style="opacity:1" fill="#a5bcb3" d="M 121.5,53.5 C 123.213,54.6354 123.88,56.302 123.5,58.5C 122.5,58.5 121.5,58.5 120.5,58.5C 120.5,57.5 120.5,56.5 120.5,55.5C 113.5,55.5 106.5,55.5 99.5,55.5C 99.3691,54.6236 99.7025,53.9569 100.5,53.5C 107.629,54.8129 114.629,54.8129 121.5,53.5 Z"/></g>
<g><path style="opacity:1" fill="#80ae89" d="M 95.5,55.5 C 96.8333,55.5 98.1667,55.5 99.5,55.5C 106.5,55.5 113.5,55.5 120.5,55.5C 120.5,56.5 120.5,57.5 120.5,58.5C 113.313,58.1755 106.313,58.5088 99.5,59.5C 97.5,59.5 95.5,59.5 93.5,59.5C 93.5,58.5 93.5,57.5 93.5,56.5C 93.8417,55.6618 94.5084,55.3284 95.5,55.5 Z"/></g>
<g><path style="opacity:1" fill="#121873" d="M 83.5,59.5 C 80.6689,60.0787 78.3356,61.412 76.5,63.5C 74.9731,63.427 73.9731,64.0937 73.5,65.5C 71.5977,62.6627 70.931,59.3293 71.5,55.5C 72.1667,54.5 72.8333,53.5 73.5,52.5C 74.6879,51.3157 75.8545,51.3157 77,52.5C 77.3678,51.09 78.2011,50.09 79.5,49.5C 78.3056,51.4395 78.3056,53.2728 79.5,55C 81.1124,55.7203 82.6124,55.5536 84,54.5C 86.0807,56.5566 85.914,58.2233 83.5,59.5 Z"/></g>
<g><path style="opacity:1" fill="#24992f" d="M 174.5,75.5 C 173.791,76.404 172.791,76.7373 171.5,76.5C 169.833,76.5 168.167,76.5 166.5,76.5C 164.254,69.2769 162.754,61.9436 162,54.5C 160.113,52.9739 159.113,50.9739 159,48.5C 158.241,46.9371 157.074,45.9371 155.5,45.5C 155.811,44.5222 156.478,43.8555 157.5,43.5C 158.736,44.2458 160.07,44.5792 161.5,44.5C 164.048,49.9269 166.882,55.2602 170,60.5C 171.025,64.4598 171.859,68.4598 172.5,72.5C 172.64,74.0296 173.307,75.0296 174.5,75.5 Z"/></g>
<g><path style="opacity:1" fill="#19922e" d="M 29.5,33.5 C 31.1667,33.5 32.8333,33.5 34.5,33.5C 39.7838,39.12 45.1171,44.7867 50.5,50.5C 51.2811,51.7287 51.7811,53.062 52,54.5C 53,55.8333 54,55.8333 55,54.5C 54.7374,55.9506 54.9041,57.2839 55.5,58.5C 58.2972,56.1907 61.2972,54.1907 64.5,52.5C 63.4728,54.184 62.4728,55.8506 61.5,57.5C 60.1667,59.1667 58.8333,60.8333 57.5,62.5C 55.1432,62.6633 52.8098,62.4966 50.5,62C 47.5001,58.0447 44.0001,54.5447 40,51.5C 39.4818,48.9774 38.1485,46.9774 36,45.5C 35.6667,43.8333 35.3333,42.1667 35,40.5C 31.805,39.1486 29.9717,36.8153 29.5,33.5 Z"/></g>
<g><path style="opacity:1" fill="#3ba02d" d="M 24.5,33.5 C 26.1667,33.5 27.8333,33.5 29.5,33.5C 29.9717,36.8153 31.805,39.1486 35,40.5C 35.3333,42.1667 35.6667,43.8333 36,45.5C 38.1485,46.9774 39.4818,48.9774 40,51.5C 44.0001,54.5447 47.5001,58.0447 50.5,62C 52.8098,62.4966 55.1432,62.6633 57.5,62.5C 55.9138,64.6705 54.5804,67.0038 53.5,69.5C 52.8333,69.8333 52.1667,70.1667 51.5,70.5C 46.4902,63.1092 40.6569,56.4426 34,50.5C 33,48.1667 32,45.8333 31,43.5C 27.356,41.042 25.1894,37.7087 24.5,33.5 Z"/></g>
<g><path style="opacity:1" fill="#52687e" d="M 83.5,59.5 C 84.1667,59.5 84.8333,59.5 85.5,59.5C 85.5,59.8333 85.5,60.1667 85.5,60.5C 82.7024,61.9532 79.7024,62.9532 76.5,63.5C 78.3356,61.412 80.6689,60.0787 83.5,59.5 Z"/></g>
<g><path style="opacity:1" fill="#7b9691" d="M 93.5,56.5 C 93.5,57.5 93.5,58.5 93.5,59.5C 95.5,59.5 97.5,59.5 99.5,59.5C 96.8289,60.2979 93.9956,60.9646 91,61.5C 89.6362,62.3707 88.4695,63.3707 87.5,64.5C 86.8333,64.5 86.1667,64.5 85.5,64.5C 86.6857,63.0387 86.6857,61.7054 85.5,60.5C 85.5,60.1667 85.5,59.8333 85.5,59.5C 87.7398,57.5974 90.4064,56.5974 93.5,56.5 Z"/></g>
<g><path style="opacity:1" fill="#4f415f" d="M 71.5,55.5 C 70.931,59.3293 71.5977,62.6627 73.5,65.5C 73.5,65.8333 73.5,66.1667 73.5,66.5C 72.5,66.5 71.5,66.5 70.5,66.5C 70.185,62.6286 70.5184,58.9619 71.5,55.5 Z"/></g>
<g><path style="opacity:1" fill="#144697" d="M 99.5,59.5 C 106.5,59.5 113.5,59.5 120.5,59.5C 120.5,60.5 120.5,61.5 120.5,62.5C 119.5,62.5 118.5,62.5 117.5,62.5C 117.626,64.1998 118.293,65.6998 119.5,67C 118.968,69.0197 117.635,69.853 115.5,69.5C 115.296,71.6854 114.63,73.6854 113.5,75.5C 110.857,75.1489 108.191,74.8155 105.5,74.5C 104.833,73.8333 104.167,73.1667 103.5,72.5C 104.853,71.4763 105.52,70.143 105.5,68.5C 102.918,68.0254 100.918,68.6921 99.5,70.5C 98.0882,68.7697 98.4215,67.2697 100.5,66C 98.4817,65.4954 96.4817,64.9954 94.5,64.5C 92.1667,64.5 89.8333,64.5 87.5,64.5C 88.4695,63.3707 89.6362,62.3707 91,61.5C 93.9956,60.9646 96.8289,60.2979 99.5,59.5 Z"/></g>
<g><path style="opacity:1" fill="#c9ac05" d="M 61.5,57.5 C 61.3398,59.1992 61.5065,60.8659 62,62.5C 65.8432,67.3597 69.3432,72.5263 72.5,78C 70.9342,83.1536 72.4342,87.3202 77,90.5C 77.3333,92.5 77.6667,94.5 78,96.5C 79.6753,97.5955 80.842,99.0955 81.5,101C 89.8267,101.5 98.16,101.666 106.5,101.5C 109.833,101.5 113.167,101.5 116.5,101.5C 106.347,102.494 96.0135,102.828 85.5,102.5C 83.5,102.5 81.5,102.5 79.5,102.5C 77.7354,101.539 75.7354,101.205 73.5,101.5C 70.5,100.833 67.5,100.167 64.5,99.5C 67.8499,99.665 71.1832,99.4983 74.5,99C 74.1667,98.6667 73.8333,98.3333 73.5,98C 76.4788,93.7618 75.4788,90.5952 70.5,88.5C 69.8754,84.0928 69.042,79.7594 68,75.5C 64.6667,71.8333 61.3333,68.1667 58,64.5C 57.5,65 57,65.5 56.5,66C 57.624,66.2492 58.624,66.7492 59.5,67.5C 56.7136,67.2795 54.7136,67.9462 53.5,69.5C 54.5804,67.0038 55.9138,64.6705 57.5,62.5C 58.8333,60.8333 60.1667,59.1667 61.5,57.5 Z"/></g>
<g><path style="opacity:1" fill="#53806a" d="M 85.5,60.5 C 86.6857,61.7054 86.6857,63.0387 85.5,64.5C 82.2938,65.4541 79.2938,66.7875 76.5,68.5C 74.8212,68.7148 73.8212,68.0481 73.5,66.5C 73.5,66.1667 73.5,65.8333 73.5,65.5C 73.9731,64.0937 74.9731,63.427 76.5,63.5C 79.7024,62.9532 82.7024,61.9532 85.5,60.5 Z"/></g>
<g><path style="opacity:1" fill="#f0cd02" d="M 125.5,36.5 C 125.833,36.5 126.167,36.5 126.5,36.5C 127.794,38.3284 128.794,40.3284 129.5,42.5C 130.552,42.3505 131.552,42.5172 132.5,43C 133.987,45.4852 135.821,47.6518 138,49.5C 138.272,52.3819 139.106,55.0486 140.5,57.5C 140.167,58.8333 139.833,60.1667 139.5,61.5C 136.185,64.1251 133.851,67.4584 132.5,71.5C 131.833,71.8333 131.167,72.1667 130.5,72.5C 129.706,68.2957 128.373,63.9624 126.5,59.5C 127.235,55.1684 125.568,51.8351 121.5,49.5C 122.415,48.6721 123.081,47.6721 123.5,46.5C 122.388,44.6096 121.554,42.6096 121,40.5C 119.184,39.6705 117.351,38.8372 115.5,38C 118.619,36.5949 121.952,36.0949 125.5,36.5 Z"/></g>
<g><path style="opacity:1" fill="#0d8a33" d="M 155.5,45.5 C 157.074,45.9371 158.241,46.9371 159,48.5C 159.113,50.9739 160.113,52.9739 162,54.5C 162.754,61.9436 164.254,69.2769 166.5,76.5C 168.167,76.5 169.833,76.5 171.5,76.5C 171.5,77.1667 171.5,77.8333 171.5,78.5C 169.435,78.5172 167.435,78.8505 165.5,79.5C 163.5,79.5 161.5,79.5 159.5,79.5C 158.471,76.0989 159.137,72.9323 161.5,70C 160.296,66.2836 159.462,62.4503 159,58.5C 157.372,55.0001 156.206,51.6667 155.5,48.5C 153.833,47.3336 152.166,47.3336 150.5,48.5C 150.5,47.1667 151.167,46.5 152.5,46.5C 153.609,46.4431 154.609,46.1098 155.5,45.5 Z"/></g>
<g><path style="opacity:1" fill="#989a93" d="M 70.5,66.5 C 71.5,66.5 72.5,66.5 73.5,66.5C 73.8212,68.0481 74.8212,68.7148 76.5,68.5C 74.8608,69.4725 73.5274,70.8058 72.5,72.5C 72.5,73.1667 72.5,73.8333 72.5,74.5C 70.9605,72.1617 70.2938,69.4951 70.5,66.5 Z"/></g>
<g><path style="opacity:1" fill="#555687" d="M 85.5,64.5 C 84.1525,66.4803 82.1525,67.647 79.5,68C 78.1341,69.5998 77.1341,71.4332 76.5,73.5C 75.8076,72.9747 75.3076,72.3081 75,71.5C 74.3292,72.2524 73.4959,72.5858 72.5,72.5C 73.5274,70.8058 74.8608,69.4725 76.5,68.5C 79.2938,66.7875 82.2938,65.4541 85.5,64.5 Z"/></g>
<g><path style="opacity:1" fill="#dfecd3" d="M 14.5,64.5 C 19.0078,72.1823 23.0078,80.1823 26.5,88.5C 24.6099,87.8201 22.6099,87.6534 20.5,88C 21.3567,87.3109 22.0233,86.4776 22.5,85.5C 20.6407,80.8933 18.474,76.56 16,72.5C 15.3333,73.1667 14.6667,73.8333 14,74.5C 13.8621,72.5676 14.3621,70.7343 15.5,69C 14.6198,67.6439 14.2865,66.1439 14.5,64.5 Z"/></g>
<g><path style="opacity:1" fill="#151973" d="M 85.5,64.5 C 86.1667,64.5 86.8333,64.5 87.5,64.5C 89.8333,64.5 92.1667,64.5 94.5,64.5C 92.9581,65.1635 91.2914,65.8302 89.5,66.5C 90.3467,67.8448 91.5134,68.8448 93,69.5C 96.0571,68.1477 96.8904,68.981 95.5,72C 98.2434,76.5604 97.5767,80.3937 93.5,83.5C 93.5,82.1667 93.5,80.8333 93.5,79.5C 92.1667,79.5 90.8333,79.5 89.5,79.5C 89.8333,81.5 90.1667,83.5 90.5,85.5C 93.2301,86.8166 96.0635,86.8166 99,85.5C 99.8699,86.1079 100.37,86.9412 100.5,88C 99.7665,89.7659 99.4332,91.5992 99.5,93.5C 97.1944,93.0074 94.861,92.6741 92.5,92.5C 91.1667,92.5 89.8333,92.5 88.5,92.5C 88.0269,91.0937 87.0269,90.427 85.5,90.5C 84.5,89.8333 83.5,89.1667 82.5,88.5C 81.1667,86.5 79.5,84.8333 77.5,83.5C 77.573,81.9731 76.9063,80.9731 75.5,80.5C 74.5,78.5 73.5,76.5 72.5,74.5C 72.5,73.8333 72.5,73.1667 72.5,72.5C 73.4959,72.5858 74.3292,72.2524 75,71.5C 75.3076,72.3081 75.8076,72.9747 76.5,73.5C 77.1341,71.4332 78.1341,69.5998 79.5,68C 82.1525,67.647 84.1525,66.4803 85.5,64.5 Z"/></g>
<g><path style="opacity:1" fill="#5578b1" d="M 99.5,59.5 C 106.313,58.5088 113.313,58.1755 120.5,58.5C 121.5,58.5 122.5,58.5 123.5,58.5C 124.704,64.47 124.537,70.47 123,76.5C 122.617,77.056 122.117,77.3893 121.5,77.5C 121.631,76.7611 121.464,76.0944 121,75.5C 119.887,76.7111 118.72,76.7111 117.5,75.5C 115.58,79.193 114.247,79.193 113.5,75.5C 114.63,73.6854 115.296,71.6854 115.5,69.5C 117.635,69.853 118.968,69.0197 119.5,67C 118.293,65.6998 117.626,64.1998 117.5,62.5C 118.5,62.5 119.5,62.5 120.5,62.5C 120.5,61.5 120.5,60.5 120.5,59.5C 113.5,59.5 106.5,59.5 99.5,59.5 Z"/></g>
<g><path style="opacity:1" fill="#e3bc02" d="M 64.5,99.5 C 61.5867,98.7589 58.5867,98.2589 55.5,98C 54.944,97.6174 54.6107,97.1174 54.5,96.5C 56.1667,96.5 57.8333,96.5 59.5,96.5C 58.9218,89.3179 56.5885,82.6513 52.5,76.5C 52.0431,75.7025 51.3764,75.3691 50.5,75.5C 51.5294,73.4832 52.5294,71.4832 53.5,69.5C 54.7136,67.9462 56.7136,67.2795 59.5,67.5C 58.624,66.7492 57.624,66.2492 56.5,66C 57,65.5 57.5,65 58,64.5C 61.3333,68.1667 64.6667,71.8333 68,75.5C 69.042,79.7594 69.8754,84.0928 70.5,88.5C 75.4788,90.5952 76.4788,93.7618 73.5,98C 73.8333,98.3333 74.1667,98.6667 74.5,99C 71.1832,99.4983 67.8499,99.665 64.5,99.5 Z"/></g>
<g><path style="opacity:1" fill="#b9d9a9" d="M 183.5,68.5 C 184.468,70.6074 184.802,72.9407 184.5,75.5C 179.915,75.4744 175.581,76.4744 171.5,78.5C 171.5,77.8333 171.5,77.1667 171.5,76.5C 172.791,76.7373 173.791,76.404 174.5,75.5C 175.492,75.6716 176.158,75.3382 176.5,74.5C 178.833,74.5 181.167,74.5 183.5,74.5C 183.5,72.5 183.5,70.5 183.5,68.5 Z"/></g>
<g><path style="opacity:1" fill="#acc312" d="M 53.5,69.5 C 52.5294,71.4832 51.5294,73.4832 50.5,75.5C 47.8333,78.5 45.1667,81.5 42.5,84.5C 42.3505,83.448 42.5172,82.448 43,81.5C 45.1019,79.9052 46.6019,77.9052 47.5,75.5C 49.543,74.4206 50.8763,72.754 51.5,70.5C 52.1667,70.1667 52.8333,69.8333 53.5,69.5 Z"/></g>
<g><path style="opacity:1" fill="#2a5097" d="M 113.5,75.5 C 114.247,79.193 115.58,79.193 117.5,75.5C 118.72,76.7111 119.887,76.7111 121,75.5C 121.464,76.0944 121.631,76.7611 121.5,77.5C 120.559,79.0495 119.893,80.7162 119.5,82.5C 118.167,83.5 116.833,84.5 115.5,85.5C 115.631,84.6236 115.298,83.9569 114.5,83.5C 112.293,85.3096 109.959,85.643 107.5,84.5C 109.045,83.5481 110.712,83.2148 112.5,83.5C 112.5,82.5 112.5,81.5 112.5,80.5C 109.203,80.6713 108.869,80.0046 111.5,78.5C 111,78.1667 110.5,77.8333 110,77.5C 107.88,78.4589 105.713,78.6256 103.5,78C 102.035,76.107 100.369,74.4404 98.5,73C 98.7432,72.0979 99.0766,71.2646 99.5,70.5C 100.918,68.6921 102.918,68.0254 105.5,68.5C 105.52,70.143 104.853,71.4763 103.5,72.5C 104.167,73.1667 104.833,73.8333 105.5,74.5C 108.191,74.8155 110.857,75.1489 113.5,75.5 Z"/></g>
<g><path style="opacity:1" fill="#6b6a98" d="M 93.5,83.5 C 93.1788,85.0481 92.1788,85.7148 90.5,85.5C 90.1667,83.5 89.8333,81.5 89.5,79.5C 90.8333,79.5 92.1667,79.5 93.5,79.5C 93.5,80.8333 93.5,82.1667 93.5,83.5 Z"/></g>
<g><path style="opacity:1" fill="#736047" d="M 75.5,80.5 C 76.9063,80.9731 77.573,81.9731 77.5,83.5C 76.0937,83.0269 75.427,82.0269 75.5,80.5 Z"/></g>
<g><path style="opacity:1" fill="#6f70a0" d="M 83.5,80.5 C 84.5,80.5 85.5,80.5 86.5,80.5C 86.5,81.5 86.5,82.5 86.5,83.5C 85.5,83.5 84.5,83.5 83.5,83.5C 83.5,82.5 83.5,81.5 83.5,80.5 Z"/></g>
<g><path style="opacity:1" fill="#f5dd02" d="M 50.5,75.5 C 51.3764,75.3691 52.0431,75.7025 52.5,76.5C 56.5885,82.6513 58.9218,89.3179 59.5,96.5C 57.8333,96.5 56.1667,96.5 54.5,96.5C 49.0332,96.2076 44.0332,94.541 39.5,91.5C 38.5185,88.4497 39.5185,86.1164 42.5,84.5C 45.1667,81.5 47.8333,78.5 50.5,75.5 Z"/></g>
<g><path style="opacity:1" fill="#826d42" d="M 77.5,83.5 C 79.5,84.8333 81.1667,86.5 82.5,88.5C 79.8333,87.8333 78.1667,86.1667 77.5,83.5 Z"/></g>
<g><path style="opacity:1" fill="#152f80" d="M 94.5,64.5 C 96.4817,64.9954 98.4817,65.4954 100.5,66C 98.4215,67.2697 98.0882,68.7697 99.5,70.5C 99.0766,71.2646 98.7432,72.0979 98.5,73C 100.369,74.4404 102.035,76.107 103.5,78C 105.713,78.6256 107.88,78.4589 110,77.5C 110.5,77.8333 111,78.1667 111.5,78.5C 108.869,80.0046 109.203,80.6713 112.5,80.5C 112.5,81.5 112.5,82.5 112.5,83.5C 110.712,83.2148 109.045,83.5481 107.5,84.5C 109.959,85.643 112.293,85.3096 114.5,83.5C 115.298,83.9569 115.631,84.6236 115.5,85.5C 113.833,87.5 112.167,89.5 110.5,91.5C 109.833,91.5 109.167,91.5 108.5,91.5C 106.973,91.427 105.973,92.0937 105.5,93.5C 102.236,94.3242 98.9023,94.6576 95.5,94.5C 94.5,93.8333 93.5,93.1667 92.5,92.5C 94.861,92.6741 97.1944,93.0074 99.5,93.5C 99.4332,91.5992 99.7665,89.7659 100.5,88C 100.37,86.9412 99.8699,86.1079 99,85.5C 96.0635,86.8166 93.2301,86.8166 90.5,85.5C 92.1788,85.7148 93.1788,85.0481 93.5,83.5C 97.5767,80.3937 98.2434,76.5604 95.5,72C 96.8904,68.981 96.0571,68.1477 93,69.5C 91.5134,68.8448 90.3467,67.8448 89.5,66.5C 91.2914,65.8302 92.9581,65.1635 94.5,64.5 Z"/></g>
<g><path style="opacity:1" fill="#afa441" d="M 119.5,82.5 C 118.585,84.7541 117.252,86.7541 115.5,88.5C 114.078,89.925 112.411,90.925 110.5,91.5C 112.167,89.5 113.833,87.5 115.5,85.5C 116.833,84.5 118.167,83.5 119.5,82.5 Z"/></g>
<g><path style="opacity:1" fill="#61ae26" d="M 132.5,71.5 C 132.756,73.7925 132.423,75.9592 131.5,78C 133.658,79.3117 133.991,80.9783 132.5,83C 131.552,83.4828 130.552,83.6495 129.5,83.5C 129.5,85.1667 129.5,86.8333 129.5,88.5C 127.263,89.449 124.929,90.1156 122.5,90.5C 122.539,93.089 121.539,95.089 119.5,96.5C 119.5,95.8333 119.5,95.1667 119.5,94.5C 124.06,87.6087 127.726,80.2754 130.5,72.5C 131.167,72.1667 131.833,71.8333 132.5,71.5 Z"/></g>
<g><path style="opacity:1" fill="#229931" d="M 148.5,49.5 C 147.304,52.5426 145.47,55.2093 143,57.5C 142.505,59.4727 142.338,61.4727 142.5,63.5C 143.552,63.3505 144.552,63.5172 145.5,64C 145.48,71.8033 145.48,79.6366 145.5,87.5C 144.147,88.5237 143.48,89.857 143.5,91.5C 143.5,91.8333 143.5,92.1667 143.5,92.5C 141.5,93.5 139.5,94.5 137.5,95.5C 137.196,91.7846 137.863,88.2846 139.5,85C 138.466,77.1497 138.466,69.3164 139.5,61.5C 139.833,60.1667 140.167,58.8333 140.5,57.5C 143.2,55.7656 145.2,53.4323 146.5,50.5C 147.167,50.1667 147.833,49.8333 148.5,49.5 Z"/></g>
<g><path style="opacity:1" fill="#8bc29e" d="M 149.5,88.5 C 147.853,90.3264 145.853,91.6597 143.5,92.5C 143.5,92.1667 143.5,91.8333 143.5,91.5C 145.216,89.9752 147.216,88.9752 149.5,88.5 Z"/></g>
<g><path style="opacity:1" fill="#664e4b" d="M 85.5,90.5 C 87.0269,90.427 88.0269,91.0937 88.5,92.5C 86.9731,92.573 85.9731,91.9063 85.5,90.5 Z"/></g>
<g><path style="opacity:1" fill="#e7c206" d="M 115.5,88.5 C 117.252,90.2459 118.585,92.2459 119.5,94.5C 119.5,95.1667 119.5,95.8333 119.5,96.5C 117.75,97.6594 116.75,99.326 116.5,101.5C 113.167,101.5 109.833,101.5 106.5,101.5C 105.048,100.698 103.382,100.198 101.5,100C 102.38,98.6439 102.714,97.1439 102.5,95.5C 106.034,95.6395 108.701,94.3061 110.5,91.5C 112.411,90.925 114.078,89.925 115.5,88.5 Z"/></g>
<g><path style="opacity:1" fill="#cba30b" d="M 73.5,39.5 C 73.33,40.8221 73.6634,41.9887 74.5,43C 76.18,42.2288 77.8467,42.3955 79.5,43.5C 76.7693,45.9464 74.7693,48.9464 73.5,52.5C 72.8333,53.5 72.1667,54.5 71.5,55.5C 70.5184,58.9619 70.185,62.6286 70.5,66.5C 70.2938,69.4951 70.9605,72.1617 72.5,74.5C 73.5,76.5 74.5,78.5 75.5,80.5C 75.427,82.0269 76.0937,83.0269 77.5,83.5C 78.1667,86.1667 79.8333,87.8333 82.5,88.5C 83.5,89.1667 84.5,89.8333 85.5,90.5C 85.9731,91.9063 86.9731,92.573 88.5,92.5C 90.4385,94.1628 92.7718,94.8294 95.5,94.5C 98.9023,94.6576 102.236,94.3242 105.5,93.5C 107.027,93.573 108.027,92.9063 108.5,91.5C 109.167,91.5 109.833,91.5 110.5,91.5C 108.701,94.3061 106.034,95.6395 102.5,95.5C 102.714,97.1439 102.38,98.6439 101.5,100C 103.382,100.198 105.048,100.698 106.5,101.5C 98.16,101.666 89.8267,101.5 81.5,101C 80.842,99.0955 79.6753,97.5955 78,96.5C 77.6667,94.5 77.3333,92.5 77,90.5C 72.4342,87.3202 70.9342,83.1536 72.5,78C 69.3432,72.5263 65.8432,67.3597 62,62.5C 61.5065,60.8659 61.3398,59.1992 61.5,57.5C 62.4728,55.8506 63.4728,54.184 64.5,52.5C 65.6662,49.4968 67.3328,46.8302 69.5,44.5C 70.593,42.6508 71.9263,40.9842 73.5,39.5 Z"/></g>
<g><path style="opacity:1" fill="#5a4146" d="M 88.5,92.5 C 89.8333,92.5 91.1667,92.5 92.5,92.5C 93.5,93.1667 94.5,93.8333 95.5,94.5C 92.7718,94.8294 90.4385,94.1628 88.5,92.5 Z"/></g>
<g><path style="opacity:1" fill="#716a5e" d="M 108.5,91.5 C 108.027,92.9063 107.027,93.573 105.5,93.5C 105.973,92.0937 106.973,91.427 108.5,91.5 Z"/></g>
<g><path style="opacity:1" fill="#3ca12f" d="M 139.5,61.5 C 138.466,69.3164 138.466,77.1497 139.5,85C 137.863,88.2846 137.196,91.7846 137.5,95.5C 127.964,102.645 118.631,110.311 109.5,118.5C 106.122,120.895 102.789,123.229 99.5,125.5C 98.5,125.5 97.5,125.5 96.5,125.5C 95.9547,122.002 96.788,119.002 99,116.5C 99.499,112.179 99.6657,107.846 99.5,103.5C 94.8333,103.5 90.1667,103.5 85.5,103.5C 85.5,103.167 85.5,102.833 85.5,102.5C 96.0135,102.828 106.347,102.494 116.5,101.5C 116.75,99.326 117.75,97.6594 119.5,96.5C 121.539,95.089 122.539,93.089 122.5,90.5C 124.929,90.1156 127.263,89.449 129.5,88.5C 129.5,86.8333 129.5,85.1667 129.5,83.5C 130.552,83.6495 131.552,83.4828 132.5,83C 133.991,80.9783 133.658,79.3117 131.5,78C 132.423,75.9592 132.756,73.7925 132.5,71.5C 133.851,67.4584 136.185,64.1251 139.5,61.5 Z"/></g>
<g><path style="opacity:1" fill="#058135" d="M 85.5,103.5 C 90.1667,103.5 94.8333,103.5 99.5,103.5C 99.6657,107.846 99.499,112.179 99,116.5C 96.788,119.002 95.9547,122.002 96.5,125.5C 97.5,125.5 98.5,125.5 99.5,125.5C 96.4552,128.547 93.1219,131.213 89.5,133.5C 87.1898,134.325 85.1898,135.658 83.5,137.5C 81.3718,138.957 79.0384,139.957 76.5,140.5C 76.8212,138.952 77.8212,138.285 79.5,138.5C 80.18,135.938 80.3467,133.271 80,130.5C 81.9756,129.457 82.4756,128.123 81.5,126.5C 82.3829,125.452 83.0496,124.285 83.5,123C 82.9861,117.466 82.9861,111.799 83.5,106C 82.3774,104.956 81.0441,104.29 79.5,104C 81.4727,103.505 83.4727,103.338 85.5,103.5 Z"/></g>
<g><path style="opacity:1" fill="#52aa2c" d="M 73.5,101.5 C 75.7354,101.205 77.7354,101.539 79.5,102.5C 78.1667,102.5 76.8333,102.5 75.5,102.5C 72.0901,102.457 68.7568,102.957 65.5,104C 67.7155,106.502 68.7155,109.502 68.5,113C 67.5529,119.622 66.0529,126.122 64,132.5C 59.6293,138.386 54.796,143.052 49.5,146.5C 49.6558,142.236 48.9891,138.236 47.5,134.5C 44.9546,126.41 42.288,118.41 39.5,110.5C 40.9305,110.579 42.2638,110.246 43.5,109.5C 44.3378,114.206 45.3378,118.872 46.5,123.5C 47.1667,121.833 47.8333,120.167 48.5,118.5C 51.443,119.244 54.443,119.744 57.5,120C 58,120.5 58.5,121 59,121.5C 60.2889,115.912 60.7889,110.245 60.5,104.5C 59.325,104.719 58.325,104.386 57.5,103.5C 59.1932,102.772 60.6932,101.772 62,100.5C 62.3333,101.5 62.6667,102.5 63,103.5C 66.1494,101.638 69.6494,100.971 73.5,101.5 Z"/></g>
<g><path style="opacity:1" fill="#3aa02e" d="M 75.5,102.5 C 74.7435,104.267 74.0769,106.1 73.5,108C 76.2793,116.595 75.9459,125.095 72.5,133.5C 71.6919,133.808 71.0253,134.308 70.5,135C 69.4785,137.936 69.4785,141.103 70.5,144.5C 67.2431,145.769 64.2431,147.436 61.5,149.5C 57.5341,150.162 53.5341,150.495 49.5,150.5C 49.5,149.167 49.5,147.833 49.5,146.5C 54.796,143.052 59.6293,138.386 64,132.5C 66.0529,126.122 67.5529,119.622 68.5,113C 68.7155,109.502 67.7155,106.502 65.5,104C 68.7568,102.957 72.0901,102.457 75.5,102.5 Z"/></g>
<g><path style="opacity:1" fill="#cfe4d2" d="M 109.5,118.5 C 105.858,122.151 102.525,126.151 99.5,130.5C 96.0706,131.251 92.7373,132.251 89.5,133.5C 93.1219,131.213 96.4552,128.547 99.5,125.5C 102.789,123.229 106.122,120.895 109.5,118.5 Z"/></g>
<g><path style="opacity:1" fill="#1c9531" d="M 75.5,102.5 C 76.8333,102.5 78.1667,102.5 79.5,102.5C 81.5,102.5 83.5,102.5 85.5,102.5C 85.5,102.833 85.5,103.167 85.5,103.5C 83.4727,103.338 81.4727,103.505 79.5,104C 81.0441,104.29 82.3774,104.956 83.5,106C 82.9861,111.799 82.9861,117.466 83.5,123C 83.0496,124.285 82.3829,125.452 81.5,126.5C 82.4756,128.123 81.9756,129.457 80,130.5C 80.3467,133.271 80.18,135.938 79.5,138.5C 77.8212,138.285 76.8212,138.952 76.5,140.5C 75.3065,141.272 74.3065,142.272 73.5,143.5C 72.391,143.557 71.391,143.89 70.5,144.5C 69.4785,141.103 69.4785,137.936 70.5,135C 71.0253,134.308 71.6919,133.808 72.5,133.5C 75.9459,125.095 76.2793,116.595 73.5,108C 74.0769,106.1 74.7435,104.267 75.5,102.5 Z"/></g>
<g><path style="opacity:1" fill="#abd1b5" d="M 83.5,137.5 C 81.1388,141.018 77.8054,143.018 73.5,143.5C 74.3065,142.272 75.3065,141.272 76.5,140.5C 79.0384,139.957 81.3718,138.957 83.5,137.5 Z"/></g>
<g><path style="opacity:1" fill="#aed6a9" d="M 47.5,134.5 C 48.9891,138.236 49.6558,142.236 49.5,146.5C 49.5,147.833 49.5,149.167 49.5,150.5C 53.5341,150.495 57.5341,150.162 61.5,149.5C 57.6718,152.162 53.5051,152.829 49,151.5C 48.2425,145.851 47.7425,140.184 47.5,134.5 Z"/></g>
</svg>
