<?xml version="1.0" encoding="UTF-8"?>
<!DOCTYPE svg PUBLIC "-//W3C//DTD SVG 1.1//EN" "http://www.w3.org/Graphics/SVG/1.1/DTD/svg11.dtd">
<svg xmlns="http://www.w3.org/2000/svg" version="1.1" width="192px" height="155px" style="shape-rendering:geometricPrecision; text-rendering:geometricPrecision; image-rendering:optimizeQuality; fill-rule:evenodd; clip-rule:evenodd" xmlns:xlink="http://www.w3.org/1999/xlink">
<g><path style="opacity:1" fill="#fefefe" d="M 183.5,-0.5 C 186.167,-0.5 188.833,-0.5 191.5,-0.5C 191.5,51.1667 191.5,102.833 191.5,154.5C 188.833,154.5 186.167,154.5 183.5,154.5C 183.5,127.833 183.5,101.167 183.5,74.5C 182.5,74.5 181.5,74.5 180.5,74.5C 181.167,73.8333 181.833,73.1667 182.5,72.5C 183.498,48.3391 183.831,24.0057 183.5,-0.5 Z"/></g>
<g><path style="opacity:1" fill="#f5f5f4" d="M -0.5,-0.5 C 60.8333,-0.5 122.167,-0.5 183.5,-0.5C 183.831,24.0057 183.498,48.3391 182.5,72.5C 182.721,69.7212 182.388,67.0545 181.5,64.5C 181.975,61.6874 180.975,59.6874 178.5,58.5C 177.506,55.3435 176.172,52.3435 174.5,49.5C 174.573,47.9731 173.906,46.9731 172.5,46.5C 172.5,46.1667 172.5,45.8333 172.5,45.5C 172.421,44.0695 172.754,42.7362 173.5,41.5C 172.603,41.3309 171.603,40.9976 170.5,40.5C 171.024,38.5469 172.024,36.8802 173.5,35.5C 171.167,35.3333 168.833,35.1667 166.5,35C 166.833,34.6667 167.167,34.3333 167.5,34C 166.604,31.821 165.271,29.9876 163.5,28.5C 163.709,27.914 164.043,27.414 164.5,27C 162.956,26.7104 161.623,26.0437 160.5,25C 161.956,24.5774 162.456,23.7441 162,22.5C 160.488,21.7433 159.154,20.7433 158,19.5C 156.382,15.9317 155.049,12.265 154,8.5C 153.667,9.16667 153.333,9.83333 153,10.5C 152.695,8.44324 152.695,6.44324 153,4.5C 148.378,4.6095 143.545,4.6095 138.5,4.5C 129.686,4.03908 121.019,4.70575 112.5,6.5C 109.572,6.56513 106.905,7.2318 104.5,8.5C 103.391,8.55688 102.391,8.89022 101.5,9.5C 99.597,9.79586 97.9303,10.4625 96.5,11.5C 80.5196,16.7036 64.5196,22.037 48.5,27.5C 42.6424,27.837 36.8091,28.5037 31,29.5C 23.0353,28.3374 15.202,27.0041 7.5,25.5C 7.1765,32.0221 7.50984,38.3554 8.5,44.5C 9.91301,47.2186 10.5797,50.2186 10.5,53.5C 10.6197,56.5779 11.6197,59.2446 13.5,61.5C 13.4021,63.5529 14.0687,65.2196 15.5,66.5C 15.2594,68.8984 15.9261,70.8984 17.5,72.5C 18.6005,73.6049 19.2671,74.9382 19.5,76.5C 19.427,78.0269 20.0937,79.0269 21.5,79.5C 20.9428,84.9023 22.9428,88.9023 27.5,91.5C 30.5926,95.3472 32.9259,99.6805 34.5,104.5C 34.427,106.027 35.0937,107.027 36.5,107.5C 36.5,108.167 36.8333,108.5 37.5,108.5C 40.3784,114.934 42.7117,121.601 44.5,128.5C 45.1495,130.435 45.4828,132.435 45.5,134.5C 45.5,135.833 45.5,137.167 45.5,138.5C 43.955,137.77 43.1216,136.437 43,134.5C 43.2632,139.816 43.2632,145.149 43,150.5C 42.8184,147.774 42.3184,145.107 41.5,142.5C 41.1667,142.833 40.8333,143.167 40.5,143.5C 40.907,147.076 40.907,150.742 40.5,154.5C 26.8333,154.5 13.1667,154.5 -0.5,154.5C -0.5,102.833 -0.5,51.1667 -0.5,-0.5 Z"/></g>
<g><path style="opacity:1" fill="#444341" d="M 66.5,23.5 C 66.0926,24.7503 66.7593,25.917 68.5,27C 76.6834,32.3501 83.35,39.1834 88.5,47.5C 88.44,48.0431 88.1067,48.3764 87.5,48.5C 83.2833,45.1083 78.95,41.9416 74.5,39C 70.6041,33.6023 65.9374,29.1023 60.5,25.5C 62.2143,24.2616 64.2143,23.595 66.5,23.5 Z"/></g>
<g><path style="opacity:1" fill="#736e6d" d="M 46.5,28.5 C 43.2006,30.4835 39.5339,31.4835 35.5,31.5C 34.1667,31.5 32.8333,31.5 31.5,31.5C 27.1667,31.5 22.8333,31.5 18.5,31.5C 17.448,31.3505 16.448,31.5172 15.5,32C 19.0419,41.9187 23.5419,51.4187 29,60.5C 31.7912,62.2994 33.9579,64.6328 35.5,67.5C 37.0453,68.4519 38.712,68.7852 40.5,68.5C 39.8333,69.1667 39.1667,69.8333 38.5,70.5C 31.5,70.5 24.5,70.5 17.5,70.5C 17.3404,68.847 16.6737,67.5137 15.5,66.5C 14.0687,65.2196 13.4021,63.5529 13.5,61.5C 13.6545,58.284 12.6545,55.6174 10.5,53.5C 10.5797,50.2186 9.91301,47.2186 8.5,44.5C 8.5,38.5 8.5,32.5 8.5,26.5C 11.4647,27.6448 14.4647,28.8114 17.5,30C 27.2765,30.9498 36.9432,30.4498 46.5,28.5 Z"/></g>
<g><path style="opacity:1" fill="#2d2a28" d="M 60.5,25.5 C 65.9374,29.1023 70.6041,33.6023 74.5,39C 78.95,41.9416 83.2833,45.1083 87.5,48.5C 88.1067,48.3764 88.44,48.0431 88.5,47.5C 89.5,47.5 90.5,47.5 91.5,47.5C 90.7095,48.4013 89.7095,49.0679 88.5,49.5C 85.5881,50.4289 82.9214,51.7622 80.5,53.5C 81.4832,51.7088 82.8165,50.2088 84.5,49C 81.8093,48.0503 79.1426,47.3837 76.5,47C 70.951,41.8508 65.951,36.1842 61.5,30C 59.3476,28.5873 57.0143,27.7539 54.5,27.5C 56.2143,26.2616 58.2143,25.595 60.5,25.5 Z"/></g>
<g><path style="opacity:1" fill="#ac3730" d="M 115.5,36.5 C 114.5,37.1667 113.5,37.8333 112.5,38.5C 111.432,39.4345 110.099,39.7678 108.5,39.5C 108.5,39.1667 108.5,38.8333 108.5,38.5C 110.558,37.0669 112.892,36.4003 115.5,36.5 Z"/></g>
<g><path style="opacity:1" fill="#656363" d="M 18.5,31.5 C 17.0392,34.5364 17.8725,35.5364 21,34.5C 22.6667,38.5 24.3333,42.5 26,46.5C 32.0179,51.2157 36.0179,57.2157 38,64.5C 39.7456,66.4567 41.9122,67.4567 44.5,67.5C 44.5,67.8333 44.5,68.1667 44.5,68.5C 43.1667,68.5 41.8333,68.5 40.5,68.5C 38.712,68.7852 37.0453,68.4519 35.5,67.5C 33.9579,64.6328 31.7912,62.2994 29,60.5C 23.5419,51.4187 19.0419,41.9187 15.5,32C 16.448,31.5172 17.448,31.3505 18.5,31.5 Z"/></g>
<g><path style="opacity:1" fill="#d61410" d="M 152.5,29.5 C 155.609,29.2641 158.609,29.5975 161.5,30.5C 164.996,34.8187 167.996,39.4854 170.5,44.5C 170.427,46.0269 171.094,47.0269 172.5,47.5C 172.5,48.1667 172.5,48.8333 172.5,49.5C 172.167,49.5 171.833,49.5 171.5,49.5C 169.833,49.5 168.167,49.5 166.5,49.5C 164.473,49.6621 162.473,49.4955 160.5,49C 161.167,48.6667 161.833,48.3333 162.5,48C 160.396,45.9576 159.229,43.4576 159,40.5C 157.552,37.545 155.385,35.545 152.5,34.5C 152.5,32.8333 152.5,31.1667 152.5,29.5 Z"/></g>
<g><path style="opacity:1" fill="#bb0306" d="M 152.5,29.5 C 152.5,31.1667 152.5,32.8333 152.5,34.5C 155.385,35.545 157.552,37.545 159,40.5C 159.229,43.4576 160.396,45.9576 162.5,48C 161.833,48.3333 161.167,48.6667 160.5,49C 162.473,49.4955 164.473,49.6621 166.5,49.5C 163.997,50.3705 161.33,51.0372 158.5,51.5C 158.5,50.5 158.5,49.5 158.5,48.5C 156.856,48.7135 155.356,48.3802 154,47.5C 153.173,41.9424 151.34,36.9424 148.5,32.5C 147.448,32.6495 146.448,32.4828 145.5,32C 147.743,30.8638 150.076,30.0305 152.5,29.5 Z"/></g>
<g><path style="opacity:1" fill="#ac0403" d="M 148.5,28.5 C 152.167,28.5 155.833,28.5 159.5,28.5C 160.833,28.5 161.5,29.1667 161.5,30.5C 158.609,29.5975 155.609,29.2641 152.5,29.5C 150.076,30.0305 147.743,30.8638 145.5,32C 146.448,32.4828 147.448,32.6495 148.5,32.5C 151.34,36.9424 153.173,41.9424 154,47.5C 155.356,48.3802 156.856,48.7135 158.5,48.5C 158.5,49.5 158.5,50.5 158.5,51.5C 157.07,52.5375 155.403,53.2041 153.5,53.5C 148.907,54.0636 144.574,55.397 140.5,57.5C 137.923,51.3773 134.59,45.5439 130.5,40C 125.901,37.133 120.901,35.9664 115.5,36.5C 115.5,35.8333 115.833,35.5 116.5,35.5C 118.698,35.1249 120.698,34.4582 122.5,33.5C 123.5,33.5 124.5,33.5 125.5,33.5C 133.383,32.2756 141.05,30.6089 148.5,28.5 Z"/></g>
<g><path style="opacity:1" fill="#751a13" d="M 143.5,28.5 C 145.167,28.5 146.833,28.5 148.5,28.5C 141.05,30.6089 133.383,32.2756 125.5,33.5C 125.833,32.8333 126.167,32.1667 126.5,31.5C 132.146,30.3924 137.812,29.3924 143.5,28.5 Z"/></g>
<g><path style="opacity:1" fill="#0a0909" d="M 54.5,27.5 C 57.0143,27.7539 59.3476,28.5873 61.5,30C 65.951,36.1842 70.951,41.8508 76.5,47C 79.1426,47.3837 81.8093,48.0503 84.5,49C 82.8165,50.2088 81.4832,51.7088 80.5,53.5C 79.8333,53.8333 79.1667,54.1667 78.5,54.5C 75.0125,55.4076 72.0125,57.0743 69.5,59.5C 67.7839,59.6287 66.1172,59.962 64.5,60.5C 63.1667,60.5 61.8333,60.5 60.5,60.5C 58.9891,59.4975 57.3224,58.8308 55.5,58.5C 55.6567,57.1266 55.49,55.7932 55,54.5C 47.726,46.888 40.226,39.7214 32.5,33C 33.7375,32.7679 34.7375,32.2679 35.5,31.5C 39.5339,31.4835 43.2006,30.4835 46.5,28.5C 47.1667,28.5 47.8333,28.5 48.5,28.5C 50.5648,28.4828 52.5648,28.1495 54.5,27.5 Z"/></g>
<g><path style="opacity:1" fill="#e2ddd2" d="M 48.5,27.5 C 48.5,27.8333 48.5,28.1667 48.5,28.5C 47.8333,28.5 47.1667,28.5 46.5,28.5C 36.9432,30.4498 27.2765,30.9498 17.5,30C 14.4647,28.8114 11.4647,27.6448 8.5,26.5C 8.5,32.5 8.5,38.5 8.5,44.5C 7.50984,38.3554 7.1765,32.0221 7.5,25.5C 15.202,27.0041 23.0353,28.3374 31,29.5C 36.8091,28.5037 42.6424,27.837 48.5,27.5 Z"/></g>
<g><path style="opacity:1" fill="#595757" d="M 66.5,23.5 C 67.6009,22.4017 68.9343,22.235 70.5,23C 73.7774,26.6568 77.1107,30.3235 80.5,34C 84.8183,36.9788 89.1516,39.9788 93.5,43C 93.8333,43.3333 94.1667,43.6667 94.5,44C 92.5743,44.4224 91.5743,45.5891 91.5,47.5C 90.5,47.5 89.5,47.5 88.5,47.5C 83.35,39.1834 76.6834,32.3501 68.5,27C 66.7593,25.917 66.0926,24.7503 66.5,23.5 Z"/></g>
<g><path style="opacity:1" fill="#504e4d" d="M 104.5,8.5 C 105.167,8.5 105.833,8.5 106.5,8.5C 106.5,8.83333 106.5,9.16667 106.5,9.5C 104.534,10.2545 104.2,11.4212 105.5,13C 104.5,13.3333 103.5,13.6667 102.5,14C 105.946,16.5615 108.946,19.5615 111.5,23C 111.355,23.772 111.022,24.4387 110.5,25C 111.274,27.405 111.774,29.905 112,32.5C 113.31,33.8969 114.81,34.8969 116.5,35.5C 115.833,35.5 115.5,35.8333 115.5,36.5C 112.892,36.4003 110.558,37.0669 108.5,38.5C 107.127,38.6567 105.793,38.49 104.5,38C 102.789,36.2243 100.789,35.0576 98.5,34.5C 103.515,34.1368 103.682,32.8034 99,30.5C 98.7489,28.567 98.2489,26.7337 97.5,25C 97.6245,22.8997 97.9578,20.5664 98.5,18C 98.3248,16.3419 97.6582,15.0086 96.5,14C 98.3617,12.6343 100.028,11.1343 101.5,9.5C 102.391,8.89022 103.391,8.55688 104.5,8.5 Z"/></g>
<g><path style="opacity:1" fill="#413c3b" d="M 106.5,9.5 C 106.5,10.8333 106.5,12.1667 106.5,13.5C 108.722,13.178 110.556,13.8446 112,15.5C 113.651,18.8022 115.318,22.1356 117,25.5C 117.497,28.146 117.664,30.8127 117.5,33.5C 119.167,33.5 120.833,33.5 122.5,33.5C 120.698,34.4582 118.698,35.1249 116.5,35.5C 114.81,34.8969 113.31,33.8969 112,32.5C 111.774,29.905 111.274,27.405 110.5,25C 111.022,24.4387 111.355,23.772 111.5,23C 108.946,19.5615 105.946,16.5615 102.5,14C 103.5,13.6667 104.5,13.3333 105.5,13C 104.2,11.4212 104.534,10.2545 106.5,9.5 Z"/></g>
<g><path style="opacity:1" fill="#716f6d" d="M 96.5,11.5 C 95.7387,12.3909 94.7387,13.0576 93.5,13.5C 92.6143,14.325 92.281,15.325 92.5,16.5C 91.5,16.5 90.5,16.5 89.5,16.5C 89.5,17.8333 89.5,19.1667 89.5,20.5C 84.5786,20.1349 84.2453,21.1349 88.5,23.5C 87.1667,24.8333 87.1667,26.1667 88.5,27.5C 92.449,29.1412 95.7823,31.4746 98.5,34.5C 100.789,35.0576 102.789,36.2243 104.5,38C 105.793,38.49 107.127,38.6567 108.5,38.5C 108.5,38.8333 108.5,39.1667 108.5,39.5C 104.691,40.332 101.357,41.9986 98.5,44.5C 95.9785,45.0115 93.6451,46.0115 91.5,47.5C 91.5743,45.5891 92.5743,44.4224 94.5,44C 94.1667,43.6667 93.8333,43.3333 93.5,43C 89.1516,39.9788 84.8183,36.9788 80.5,34C 77.1107,30.3235 73.7774,26.6568 70.5,23C 68.9343,22.235 67.6009,22.4017 66.5,23.5C 64.2143,23.595 62.2143,24.2616 60.5,25.5C 58.2143,25.595 56.2143,26.2616 54.5,27.5C 52.5648,28.1495 50.5648,28.4828 48.5,28.5C 48.5,28.1667 48.5,27.8333 48.5,27.5C 64.5196,22.037 80.5196,16.7036 96.5,11.5 Z"/></g>
<g><path style="opacity:1" fill="#242222" d="M 130.5,6.5 C 132.591,6.31845 134.591,6.65178 136.5,7.5C 139.273,12.3448 141.773,17.3448 144,22.5C 146.874,23.5322 148.374,25.5322 148.5,28.5C 146.833,28.5 145.167,28.5 143.5,28.5C 142.785,22.8491 140.618,17.8491 137,13.5C 136,13.1667 135,12.8333 134,12.5C 133.517,11.552 133.351,10.552 133.5,9.5C 132.127,9.65668 130.793,9.49001 129.5,9C 130.252,8.32924 130.586,7.4959 130.5,6.5 Z"/></g>
<g><path style="opacity:1" fill="#4a3f39" d="M 138.5,4.5 C 138.5,4.83333 138.5,5.16667 138.5,5.5C 138.5,6.5 138.5,7.5 138.5,8.5C 140.942,8.11923 141.609,8.7859 140.5,10.5C 141.09,11.7989 142.09,12.6322 143.5,13C 143.167,13.3333 142.833,13.6667 142.5,14C 143.793,14.49 145.127,14.6567 146.5,14.5C 147.882,18.4698 149.382,22.4698 151,26.5C 153.381,27.435 155.881,27.7683 158.5,27.5C 159.167,27.5 159.5,27.8333 159.5,28.5C 155.833,28.5 152.167,28.5 148.5,28.5C 148.374,25.5322 146.874,23.5322 144,22.5C 141.773,17.3448 139.273,12.3448 136.5,7.5C 134.591,6.65178 132.591,6.31845 130.5,6.5C 124.464,6.35988 118.464,6.69322 112.5,7.5C 112.5,7.16667 112.5,6.83333 112.5,6.5C 121.019,4.70575 129.686,4.03908 138.5,4.5 Z"/></g>
<g><path style="opacity:1" fill="#252322" d="M 106.5,8.5 C 106.833,8.5 107.167,8.5 107.5,8.5C 113.163,14.6142 118.496,21.1142 123.5,28C 122.833,28.3333 122.167,28.6667 121.5,29C 123.503,29.3345 125.17,30.1679 126.5,31.5C 126.167,32.1667 125.833,32.8333 125.5,33.5C 124.5,33.5 123.5,33.5 122.5,33.5C 120.833,33.5 119.167,33.5 117.5,33.5C 117.664,30.8127 117.497,28.146 117,25.5C 115.318,22.1356 113.651,18.8022 112,15.5C 110.556,13.8446 108.722,13.178 106.5,13.5C 106.5,12.1667 106.5,10.8333 106.5,9.5C 106.5,9.16667 106.5,8.83333 106.5,8.5 Z"/></g>
<g><path style="opacity:1" fill="#5b5857" d="M 138.5,5.5 C 141.85,5.33499 145.183,5.50166 148.5,6C 149.056,6.38258 149.389,6.88258 149.5,7.5C 151.255,13.3052 153.589,18.9719 156.5,24.5C 156.957,25.2975 157.624,25.6309 158.5,25.5C 158.5,26.1667 158.5,26.8333 158.5,27.5C 155.881,27.7683 153.381,27.435 151,26.5C 149.382,22.4698 147.882,18.4698 146.5,14.5C 145.127,14.6567 143.793,14.49 142.5,14C 142.833,13.6667 143.167,13.3333 143.5,13C 142.09,12.6322 141.09,11.7989 140.5,10.5C 141.609,8.7859 140.942,8.11923 138.5,8.5C 138.5,7.5 138.5,6.5 138.5,5.5 Z"/></g>
<g><path style="opacity:1" fill="#efe9de" d="M 138.5,5.5 C 138.5,5.16667 138.5,4.83333 138.5,4.5C 143.545,4.6095 148.378,4.6095 153,4.5C 152.695,6.44324 152.695,8.44324 153,10.5C 153.333,9.83333 153.667,9.16667 154,8.5C 155.049,12.265 156.382,15.9317 158,19.5C 159.154,20.7433 160.488,21.7433 162,22.5C 162.456,23.7441 161.956,24.5774 160.5,25C 161.623,26.0437 162.956,26.7104 164.5,27C 164.043,27.414 163.709,27.914 163.5,28.5C 165.271,29.9876 166.604,31.821 167.5,34C 167.167,34.3333 166.833,34.6667 166.5,35C 168.833,35.1667 171.167,35.3333 173.5,35.5C 172.024,36.8802 171.024,38.5469 170.5,40.5C 171.603,40.9976 172.603,41.3309 173.5,41.5C 172.754,42.7362 172.421,44.0695 172.5,45.5C 171.833,45.1667 171.167,44.8333 170.5,44.5C 167.996,39.4854 164.996,34.8187 161.5,30.5C 161.5,29.1667 160.833,28.5 159.5,28.5C 159.5,27.8333 159.167,27.5 158.5,27.5C 158.5,26.8333 158.5,26.1667 158.5,25.5C 155.977,19.1199 152.977,13.1199 149.5,7.5C 149.389,6.88258 149.056,6.38258 148.5,6C 145.183,5.50166 141.85,5.33499 138.5,5.5 Z"/></g>
<g><path style="opacity:1" fill="#666464" d="M 101.5,9.5 C 100.028,11.1343 98.3617,12.6343 96.5,14C 97.6582,15.0086 98.3248,16.3419 98.5,18C 97.9578,20.5664 97.6245,22.8997 97.5,25C 98.2489,26.7337 98.7489,28.567 99,30.5C 103.682,32.8034 103.515,34.1368 98.5,34.5C 95.7823,31.4746 92.449,29.1412 88.5,27.5C 87.1667,26.1667 87.1667,24.8333 88.5,23.5C 84.2453,21.1349 84.5786,20.1349 89.5,20.5C 89.5,19.1667 89.5,17.8333 89.5,16.5C 90.5,16.5 91.5,16.5 92.5,16.5C 92.281,15.325 92.6143,14.325 93.5,13.5C 94.7387,13.0576 95.7387,12.3909 96.5,11.5C 97.9303,10.4625 99.597,9.79586 101.5,9.5 Z"/></g>
<g><path style="opacity:1" fill="#90887e" d="M 149.5,7.5 C 152.977,13.1199 155.977,19.1199 158.5,25.5C 157.624,25.6309 156.957,25.2975 156.5,24.5C 153.589,18.9719 151.255,13.3052 149.5,7.5 Z"/></g>
<g><path style="opacity:1" fill="#0a0909" d="M 130.5,6.5 C 130.586,7.4959 130.252,8.32924 129.5,9C 130.793,9.49001 132.127,9.65668 133.5,9.5C 133.351,10.552 133.517,11.552 134,12.5C 135,12.8333 136,13.1667 137,13.5C 140.618,17.8491 142.785,22.8491 143.5,28.5C 137.812,29.3924 132.146,30.3924 126.5,31.5C 125.17,30.1679 123.503,29.3345 121.5,29C 122.167,28.6667 122.833,28.3333 123.5,28C 118.496,21.1142 113.163,14.6142 107.5,8.5C 109.216,8.37133 110.883,8.038 112.5,7.5C 118.464,6.69322 124.464,6.35988 130.5,6.5 Z"/></g>
<g><path style="opacity:1" fill="#8b867b" d="M 112.5,6.5 C 112.5,6.83333 112.5,7.16667 112.5,7.5C 110.883,8.038 109.216,8.37133 107.5,8.5C 107.167,8.5 106.833,8.5 106.5,8.5C 105.833,8.5 105.167,8.5 104.5,8.5C 106.905,7.2318 109.572,6.56513 112.5,6.5 Z"/></g>
<g><path style="opacity:1" fill="#c50a09" d="M 115.5,36.5 C 120.901,35.9664 125.901,37.133 130.5,40C 134.59,45.5439 137.923,51.3773 140.5,57.5C 140.5,57.8333 140.5,58.1667 140.5,58.5C 138.847,58.6596 137.514,59.3263 136.5,60.5C 134.517,60.1568 133.183,60.8235 132.5,62.5C 130.5,63.1667 128.5,63.8333 126.5,64.5C 126.561,62.4078 127.561,60.9078 129.5,60C 127.043,58.4877 127.043,57.1544 129.5,56C 125.844,52.8913 123.177,49.058 121.5,44.5C 118.487,42.4816 115.487,40.4816 112.5,38.5C 113.5,37.8333 114.5,37.1667 115.5,36.5 Z"/></g>
<g><path style="opacity:1" fill="#ca312d" d="M 108.5,39.5 C 105.938,41.3254 103.438,43.3254 101,45.5C 100.329,44.7476 99.4959,44.4142 98.5,44.5C 101.357,41.9986 104.691,40.332 108.5,39.5 Z"/></g>
<g><path style="opacity:1" fill="#302d2b" d="M 25.5,32.5 C 27.1667,32.5 28.8333,32.5 30.5,32.5C 31.1283,35.09 32.295,37.4234 34,39.5C 39.7937,45.9217 44.9604,52.7551 49.5,60C 52.2175,60.6533 54.8842,61.4866 57.5,62.5C 59.0296,62.3601 60.0296,61.6935 60.5,60.5C 61.8333,60.5 63.1667,60.5 64.5,60.5C 63.9423,61.7899 62.9423,62.6232 61.5,63C 57.192,64.3267 52.8586,65.4934 48.5,66.5C 44.4286,58.5624 39.2619,51.2291 33,44.5C 30.3144,40.641 27.8144,36.641 25.5,32.5 Z"/></g>
<g><path style="opacity:1" fill="#e66a5c" d="M 170.5,44.5 C 171.167,44.8333 171.833,45.1667 172.5,45.5C 172.5,45.8333 172.5,46.1667 172.5,46.5C 172.5,46.8333 172.5,47.1667 172.5,47.5C 171.094,47.0269 170.427,46.0269 170.5,44.5 Z"/></g>
<g><path style="opacity:1" fill="#1c1b1a" d="M 31.5,31.5 C 32.8333,31.5 34.1667,31.5 35.5,31.5C 34.7375,32.2679 33.7375,32.7679 32.5,33C 40.226,39.7214 47.726,46.888 55,54.5C 55.49,55.7932 55.6567,57.1266 55.5,58.5C 57.3224,58.8308 58.9891,59.4975 60.5,60.5C 60.0296,61.6935 59.0296,62.3601 57.5,62.5C 54.8842,61.4866 52.2175,60.6533 49.5,60C 44.9604,52.7551 39.7937,45.9217 34,39.5C 32.295,37.4234 31.1283,35.09 30.5,32.5C 31.1667,32.5 31.5,32.1667 31.5,31.5 Z"/></g>
<g><path style="opacity:1" fill="#dd030f" d="M 112.5,38.5 C 115.487,40.4816 118.487,42.4816 121.5,44.5C 123.177,49.058 125.844,52.8913 129.5,56C 127.043,57.1544 127.043,58.4877 129.5,60C 127.561,60.9078 126.561,62.4078 126.5,64.5C 124.611,65.604 122.945,66.9373 121.5,68.5C 120.391,68.5569 119.391,68.8902 118.5,69.5C 115.692,69.6933 113.025,70.36 110.5,71.5C 110.5,70.1667 110.5,68.8333 110.5,67.5C 108.61,67.7035 107.11,67.0368 106,65.5C 103.966,61.3328 101.799,57.3328 99.5,53.5C 98.1266,53.6567 96.7932,53.49 95.5,53C 98.022,51.3141 97.6887,49.9808 94.5,49C 95.7332,47.3333 97.0665,45.8333 98.5,44.5C 99.4959,44.4142 100.329,44.7476 101,45.5C 103.438,43.3254 105.938,41.3254 108.5,39.5C 110.099,39.7678 111.432,39.4345 112.5,38.5 Z"/></g>
<g><path style="opacity:1" fill="#f5c791" d="M 172.5,46.5 C 173.906,46.9731 174.573,47.9731 174.5,49.5C 174.167,49.5 173.833,49.5 173.5,49.5C 173.167,49.5 172.833,49.5 172.5,49.5C 172.5,48.8333 172.5,48.1667 172.5,47.5C 172.5,47.1667 172.5,46.8333 172.5,46.5 Z"/></g>
<g><path style="opacity:1" fill="#464543" d="M 25.5,32.5 C 27.8144,36.641 30.3144,40.641 33,44.5C 39.2619,51.2291 44.4286,58.5624 48.5,66.5C 46.8561,66.7135 45.3561,66.3802 44,65.5C 35.6367,55.2766 28.1367,44.4432 21.5,33C 22.7932,32.51 24.1266,32.3433 25.5,32.5 Z"/></g>
<g><path style="opacity:1" fill="#cb080b" d="M 98.5,44.5 C 97.0665,45.8333 95.7332,47.3333 94.5,49C 97.6887,49.9808 98.022,51.3141 95.5,53C 96.7932,53.49 98.1266,53.6567 99.5,53.5C 101.799,57.3328 103.966,61.3328 106,65.5C 107.11,67.0368 108.61,67.7035 110.5,67.5C 110.5,68.8333 110.5,70.1667 110.5,71.5C 113.025,70.36 115.692,69.6933 118.5,69.5C 116.131,70.69 114.131,72.3567 112.5,74.5C 110.847,74.6596 109.514,75.3263 108.5,76.5C 106.246,77.4151 104.246,78.7484 102.5,80.5C 100.317,79.4626 99.984,77.9626 101.5,76C 100.66,74.8288 99.8271,73.6621 99,72.5C 98.4646,74.2705 97.6313,74.6039 96.5,73.5C 96.8333,72.8333 97.1667,72.1667 97.5,71.5C 95.6333,68.5209 93.9667,65.5209 92.5,62.5C 90.9488,59.4372 88.7821,56.7705 86,54.5C 85.5172,53.552 85.3505,52.552 85.5,51.5C 87.1788,51.7148 88.1788,51.0481 88.5,49.5C 89.7095,49.0679 90.7095,48.4013 91.5,47.5C 93.6451,46.0115 95.9785,45.0115 98.5,44.5 Z"/></g>
<g><path style="opacity:1" fill="#c68f03" d="M 153.5,53.5 C 153.511,55.0174 154.177,56.1841 155.5,57C 152.998,59.212 149.998,60.0453 146.5,59.5C 147.859,57.9907 147.359,57.324 145,57.5C 143.467,57.7728 141.967,58.1062 140.5,58.5C 140.5,58.1667 140.5,57.8333 140.5,57.5C 144.574,55.397 148.907,54.0636 153.5,53.5 Z"/></g>
<g><path style="opacity:1" fill="#b6b1a3" d="M 10.5,53.5 C 12.6545,55.6174 13.6545,58.284 13.5,61.5C 11.6197,59.2446 10.6197,56.5779 10.5,53.5 Z"/></g>
<g><path style="opacity:1" fill="#761b11" d="M 78.5,54.5 C 76.3494,57.4152 73.3494,59.0819 69.5,59.5C 72.0125,57.0743 75.0125,55.4076 78.5,54.5 Z"/></g>
<g><path style="opacity:1" fill="#a90503" d="M 88.5,49.5 C 88.1788,51.0481 87.1788,51.7148 85.5,51.5C 85.3505,52.552 85.5172,53.552 86,54.5C 88.7821,56.7705 90.9488,59.4372 92.5,62.5C 92.631,63.2389 92.4643,63.9056 92,64.5C 89.3542,61.0198 86.5209,57.6865 83.5,54.5C 82.6919,54.8076 82.0253,55.3076 81.5,56C 84.9526,57.7282 86.7859,60.5615 87,64.5C 87.3333,63.8333 87.6667,63.1667 88,62.5C 90.7395,67.0672 92.4062,71.7339 93,76.5C 94.2975,75.2164 95.4642,75.3831 96.5,77C 94.842,77.7253 94.342,78.892 95,80.5C 96.0495,79.4829 97.2161,79.3162 98.5,80C 98.1667,80.3333 97.8333,80.6667 97.5,81C 98.448,81.4828 99.448,81.6495 100.5,81.5C 100.5,81.8333 100.5,82.1667 100.5,82.5C 93.9978,87.2547 86.9978,91.2547 79.5,94.5C 75.767,88.6933 72.767,82.36 70.5,75.5C 68.6841,74.1851 67.0175,72.6851 65.5,71C 66.4581,69.8525 66.1247,68.8525 64.5,68C 60.8312,65.5014 56.8312,65.168 52.5,67C 55.0972,67.7792 55.0972,68.2792 52.5,68.5C 49.8333,68.5 47.1667,68.5 44.5,68.5C 44.5,68.1667 44.5,67.8333 44.5,67.5C 46.099,67.7678 47.4324,67.4345 48.5,66.5C 52.8586,65.4934 57.192,64.3267 61.5,63C 62.9423,62.6232 63.9423,61.7899 64.5,60.5C 66.1172,59.962 67.7839,59.6287 69.5,59.5C 73.3494,59.0819 76.3494,57.4152 78.5,54.5C 79.1667,54.1667 79.8333,53.8333 80.5,53.5C 82.9214,51.7622 85.5881,50.4289 88.5,49.5 Z"/></g>
<g><path style="opacity:1" fill="#d9b104" d="M 162.5,52.5 C 164.7,57.9407 166.2,63.6074 167,69.5C 167.465,70.9308 168.299,72.0975 169.5,73C 168.748,73.6708 168.414,74.5041 168.5,75.5C 168.5,75.8333 168.5,76.1667 168.5,76.5C 167.5,76.5 166.5,76.5 165.5,76.5C 165.918,75.7784 166.584,75.2784 167.5,75C 165.866,74.5065 164.199,74.3398 162.5,74.5C 162.384,68.1846 161.384,62.018 159.5,56C 159.707,54.0503 160.707,52.8836 162.5,52.5 Z"/></g>
<g><path style="opacity:1" fill="#caa004" d="M 166.5,49.5 C 168.167,49.5 169.833,49.5 171.5,49.5C 168.592,50.816 165.592,51.816 162.5,52.5C 160.707,52.8836 159.707,54.0503 159.5,56C 161.384,62.018 162.384,68.1846 162.5,74.5C 164.199,74.3398 165.866,74.5065 167.5,75C 166.584,75.2784 165.918,75.7784 165.5,76.5C 162.036,78.3173 158.702,80.3173 155.5,82.5C 153.313,83.758 150.98,84.758 148.5,85.5C 147.5,85.5 146.5,85.5 145.5,85.5C 145.686,81.552 146.352,77.7187 147.5,74C 146.263,69.1541 145.93,64.3207 146.5,59.5C 149.998,60.0453 152.998,59.212 155.5,57C 154.177,56.1841 153.511,55.0174 153.5,53.5C 155.403,53.2041 157.07,52.5375 158.5,51.5C 161.33,51.0372 163.997,50.3705 166.5,49.5 Z"/></g>
<g><path style="opacity:1" fill="#e6bf05" d="M 171.5,49.5 C 171.833,49.5 172.167,49.5 172.5,49.5C 172.833,49.5 173.167,49.5 173.5,49.5C 172.517,50.8503 171.184,51.8503 169.5,52.5C 171.752,59.625 174.752,66.2917 178.5,72.5C 177.209,72.2627 176.209,72.596 175.5,73.5C 175.5,73.8333 175.5,74.1667 175.5,74.5C 173.139,74.6741 170.806,75.0074 168.5,75.5C 168.414,74.5041 168.748,73.6708 169.5,73C 168.299,72.0975 167.465,70.9308 167,69.5C 166.2,63.6074 164.7,57.9407 162.5,52.5C 165.592,51.816 168.592,50.816 171.5,49.5 Z"/></g>
<g><path style="opacity:1" fill="#f6e023" d="M 173.5,49.5 C 173.833,49.5 174.167,49.5 174.5,49.5C 176.172,52.3435 177.506,55.3435 178.5,58.5C 178.621,61.1048 179.621,63.1048 181.5,64.5C 182.388,67.0545 182.721,69.7212 182.5,72.5C 180.194,72.9926 177.861,73.3259 175.5,73.5C 176.209,72.596 177.209,72.2627 178.5,72.5C 174.752,66.2917 171.752,59.625 169.5,52.5C 171.184,51.8503 172.517,50.8503 173.5,49.5 Z"/></g>
<g><path style="opacity:1" fill="#575554" d="M 18.5,31.5 C 22.8333,31.5 27.1667,31.5 31.5,31.5C 31.5,32.1667 31.1667,32.5 30.5,32.5C 28.8333,32.5 27.1667,32.5 25.5,32.5C 24.1266,32.3433 22.7932,32.51 21.5,33C 28.1367,44.4432 35.6367,55.2766 44,65.5C 45.3561,66.3802 46.8561,66.7135 48.5,66.5C 47.4324,67.4345 46.099,67.7678 44.5,67.5C 41.9122,67.4567 39.7456,66.4567 38,64.5C 36.0179,57.2157 32.0179,51.2157 26,46.5C 24.3333,42.5 22.6667,38.5 21,34.5C 17.8725,35.5364 17.0392,34.5364 18.5,31.5 Z"/></g>
<g><path style="opacity:1" fill="#f7f0b8" d="M 178.5,58.5 C 180.975,59.6874 181.975,61.6874 181.5,64.5C 179.621,63.1048 178.621,61.1048 178.5,58.5 Z"/></g>
<g><path style="opacity:1" fill="#b60304" d="M 92.5,62.5 C 93.9667,65.5209 95.6333,68.5209 97.5,71.5C 97.1667,72.1667 96.8333,72.8333 96.5,73.5C 97.6313,74.6039 98.4646,74.2705 99,72.5C 99.8271,73.6621 100.66,74.8288 101.5,76C 99.984,77.9626 100.317,79.4626 102.5,80.5C 101.833,80.8333 101.167,81.1667 100.5,81.5C 99.448,81.6495 98.448,81.4828 97.5,81C 97.8333,80.6667 98.1667,80.3333 98.5,80C 97.2161,79.3162 96.0495,79.4829 95,80.5C 94.342,78.892 94.842,77.7253 96.5,77C 95.4642,75.3831 94.2975,75.2164 93,76.5C 92.4062,71.7339 90.7395,67.0672 88,62.5C 87.6667,63.1667 87.3333,63.8333 87,64.5C 86.7859,60.5615 84.9526,57.7282 81.5,56C 82.0253,55.3076 82.6919,54.8076 83.5,54.5C 86.5209,57.6865 89.3542,61.0198 92,64.5C 92.4643,63.9056 92.631,63.2389 92.5,62.5 Z"/></g>
<g><path style="opacity:1" fill="#f1ce01" d="M 132.5,62.5 C 134.451,62.2267 135.951,62.8934 137,64.5C 137.652,67.594 137.318,70.594 136,73.5C 133.668,78.5852 131.335,83.5852 129,88.5C 126.281,92.4141 123.281,96.0808 120,99.5C 119.667,99.8333 119.333,100.167 119,100.5C 117.287,98.8071 115.287,97.4738 113,96.5C 112.792,93.002 111.959,89.6687 110.5,86.5C 111.901,85.0662 112.568,83.7329 112.5,82.5C 115.195,82.933 117.362,84.2663 119,86.5C 121.667,85.1667 123.667,83.1667 125,80.5C 126.776,76.8788 127.943,73.3788 128.5,70C 128.266,68.2676 127.266,67.4342 125.5,67.5C 124.151,67.8457 122.817,68.179 121.5,68.5C 122.945,66.9373 124.611,65.604 126.5,64.5C 128.5,63.8333 130.5,63.1667 132.5,62.5 Z"/></g>
<g><path style="opacity:1" fill="#d9b89c" d="M 15.5,66.5 C 16.6737,67.5137 17.3404,68.847 17.5,70.5C 17.5,71.1667 17.5,71.8333 17.5,72.5C 15.9261,70.8984 15.2594,68.8984 15.5,66.5 Z"/></g>
<g><path style="opacity:1" fill="#e20d11" d="M 60.5,103.5 C 59.8333,104.167 59.1667,104.833 58.5,105.5C 54.9219,105.549 51.5885,106.215 48.5,107.5C 45.0381,108.482 41.3714,108.815 37.5,108.5C 36.8333,108.5 36.5,108.167 36.5,107.5C 36.573,105.973 35.9063,104.973 34.5,104.5C 32.9259,99.6805 30.5926,95.3472 27.5,91.5C 25.8616,87.2303 23.8616,83.2303 21.5,79.5C 21.573,77.9731 20.9063,76.9731 19.5,76.5C 19.2671,74.9382 18.6005,73.6049 17.5,72.5C 17.5,71.8333 17.5,71.1667 17.5,70.5C 24.5,70.5 31.5,70.5 38.5,70.5C 40.4008,70.5668 42.2341,70.2335 44,69.5C 45.8261,70.0104 45.9928,70.8438 44.5,72C 45.8029,72.2098 47.1362,72.0431 48.5,71.5C 51.2459,72.3248 52.2459,73.8248 51.5,76C 53.7867,80.0724 55.9533,84.239 58,88.5C 58.4966,90.8098 58.6633,93.1432 58.5,95.5C 59.5,95.5 60.5,95.5 61.5,95.5C 61.33,96.8221 61.6634,97.9887 62.5,99C 60.8934,100.049 60.2267,101.549 60.5,103.5 Z"/></g>
<g><path style="opacity:1" fill="#bf0207" d="M 79.5,94.5 C 77.8333,95.8333 76.1667,97.1667 74.5,98.5C 72.5,99.1667 70.5,99.8333 68.5,100.5C 68.607,98.0968 67.607,96.2635 65.5,95C 66.3081,94.6924 66.9747,94.1924 67.5,93.5C 64.8619,89.889 63.0285,85.889 62,81.5C 60.098,78.3954 57.598,75.8954 54.5,74C 55.624,73.7508 56.624,73.2508 57.5,72.5C 55.1737,71.8553 53.507,70.522 52.5,68.5C 55.0972,68.2792 55.0972,67.7792 52.5,67C 56.8312,65.168 60.8312,65.5014 64.5,68C 66.1247,68.8525 66.4581,69.8525 65.5,71C 67.0175,72.6851 68.6841,74.1851 70.5,75.5C 72.767,82.36 75.767,88.6933 79.5,94.5 Z"/></g>
<g><path style="opacity:1" fill="#f5d702" d="M 112.5,82.5 C 112.043,79.6907 112.043,77.024 112.5,74.5C 114.131,72.3567 116.131,70.69 118.5,69.5C 119.391,68.8902 120.391,68.5569 121.5,68.5C 122.817,68.179 124.151,67.8457 125.5,67.5C 127.266,67.4342 128.266,68.2676 128.5,70C 127.943,73.3788 126.776,76.8788 125,80.5C 123.667,83.1667 121.667,85.1667 119,86.5C 117.362,84.2663 115.195,82.933 112.5,82.5 Z"/></g>
<g><path style="opacity:1" fill="#cf070c" d="M 40.5,68.5 C 41.8333,68.5 43.1667,68.5 44.5,68.5C 47.1667,68.5 49.8333,68.5 52.5,68.5C 53.507,70.522 55.1737,71.8553 57.5,72.5C 56.624,73.2508 55.624,73.7508 54.5,74C 57.598,75.8954 60.098,78.3954 62,81.5C 63.0285,85.889 64.8619,89.889 67.5,93.5C 66.9747,94.1924 66.3081,94.6924 65.5,95C 67.607,96.2635 68.607,98.0968 68.5,100.5C 67.8333,101.167 67.1667,101.833 66.5,102.5C 64.5648,103.15 62.5648,103.483 60.5,103.5C 60.2267,101.549 60.8934,100.049 62.5,99C 61.6634,97.9887 61.33,96.8221 61.5,95.5C 60.5,95.5 59.5,95.5 58.5,95.5C 58.6633,93.1432 58.4966,90.8098 58,88.5C 55.9533,84.239 53.7867,80.0724 51.5,76C 52.2459,73.8248 51.2459,72.3248 48.5,71.5C 47.1362,72.0431 45.8029,72.2098 44.5,72C 45.9928,70.8438 45.8261,70.0104 44,69.5C 42.2341,70.2335 40.4008,70.5668 38.5,70.5C 39.1667,69.8333 39.8333,69.1667 40.5,68.5 Z"/></g>
<g><path style="opacity:1" fill="#f5ecb5" d="M 182.5,72.5 C 181.833,73.1667 181.167,73.8333 180.5,74.5C 178.833,74.5 177.167,74.5 175.5,74.5C 175.5,74.1667 175.5,73.8333 175.5,73.5C 177.861,73.3259 180.194,72.9926 182.5,72.5 Z"/></g>
<g><path style="opacity:1" fill="#d7ae07" d="M 146.5,59.5 C 145.93,64.3207 146.263,69.1541 147.5,74C 146.352,77.7187 145.686,81.552 145.5,85.5C 146.5,85.5 147.5,85.5 148.5,85.5C 146.469,87.5224 144.135,89.1891 141.5,90.5C 137.757,88.9946 137.59,86.9946 141,84.5C 143.313,76.9317 143.813,69.265 142.5,61.5C 141.583,60.8728 140.583,60.5394 139.5,60.5C 138.5,60.5 137.5,60.5 136.5,60.5C 137.514,59.3263 138.847,58.6596 140.5,58.5C 141.967,58.1062 143.467,57.7728 145,57.5C 147.359,57.324 147.859,57.9907 146.5,59.5 Z"/></g>
<g><path style="opacity:1" fill="#eee3a4" d="M 175.5,74.5 C 173.485,75.9238 171.152,76.5905 168.5,76.5C 168.5,76.1667 168.5,75.8333 168.5,75.5C 170.806,75.0074 173.139,74.6741 175.5,74.5 Z"/></g>
<g><path style="opacity:1" fill="#ed8e72" d="M 19.5,76.5 C 20.9063,76.9731 21.573,77.9731 21.5,79.5C 20.0937,79.0269 19.427,78.0269 19.5,76.5 Z"/></g>
<g><path style="opacity:1" fill="#f0e4c5" d="M 165.5,76.5 C 166.5,76.5 167.5,76.5 168.5,76.5C 168.5,77.5 168.5,78.5 168.5,79.5C 163.901,79.6498 159.568,80.6498 155.5,82.5C 158.702,80.3173 162.036,78.3173 165.5,76.5 Z"/></g>
<g><path style="opacity:1" fill="#f5f5f4" d="M 175.5,74.5 C 177.167,74.5 178.833,74.5 180.5,74.5C 181.5,74.5 182.5,74.5 183.5,74.5C 183.5,101.167 183.5,127.833 183.5,154.5C 135.833,154.5 88.1667,154.5 40.5,154.5C 40.907,150.742 40.907,147.076 40.5,143.5C 40.8333,143.167 41.1667,142.833 41.5,142.5C 42.3184,145.107 42.8184,147.774 43,150.5C 43.2632,145.149 43.2632,139.816 43,134.5C 43.1216,136.437 43.955,137.77 45.5,138.5C 46.1667,142.5 46.8333,146.5 47.5,150.5C 49.4147,150.784 51.0813,150.451 52.5,149.5C 54.4352,148.85 56.4352,148.517 58.5,148.5C 62.1645,148.498 65.1645,147.165 67.5,144.5C 68.391,143.89 69.391,143.557 70.5,143.5C 72.258,143.123 73.9246,142.456 75.5,141.5C 76.086,141.709 76.586,142.043 77,142.5C 77.4101,141.099 77.9101,139.766 78.5,138.5C 83.8333,134.5 89.1667,130.5 94.5,126.5C 110.167,114.5 125.833,102.5 141.5,90.5C 144.135,89.1891 146.469,87.5224 148.5,85.5C 150.98,84.758 153.313,83.758 155.5,82.5C 159.568,80.6498 163.901,79.6498 168.5,79.5C 168.5,78.5 168.5,77.5 168.5,76.5C 171.152,76.5905 173.485,75.9238 175.5,74.5 Z"/></g>
<g><path style="opacity:1" fill="#f5d4bc" d="M 21.5,79.5 C 23.8616,83.2303 25.8616,87.2303 27.5,91.5C 22.9428,88.9023 20.9428,84.9023 21.5,79.5 Z"/></g>
<g><path style="opacity:1" fill="#e9c401" d="M 136.5,60.5 C 137.5,60.5 138.5,60.5 139.5,60.5C 138.086,62.1385 138.42,63.4718 140.5,64.5C 138.471,69.3628 137.971,74.3628 139,79.5C 137.277,82.3358 135.444,85.1692 133.5,88C 134.167,88.6667 134.833,89.3333 135.5,90C 130.3,90.2829 129.633,91.7829 133.5,94.5C 131.956,95.6224 130.623,95.289 129.5,93.5C 124.75,95.417 121.083,98.5836 118.5,103C 116.616,103.216 114.949,103.883 113.5,105C 114.973,105.71 115.64,106.876 115.5,108.5C 112.731,108.46 110.398,108.127 108.5,107.5C 109.259,99.8233 109.259,91.9899 108.5,84C 108.022,82.3576 107.022,81.1909 105.5,80.5C 106.5,79.1667 107.5,77.8333 108.5,76.5C 109.514,75.3263 110.847,74.6596 112.5,74.5C 112.043,77.024 112.043,79.6907 112.5,82.5C 112.568,83.7329 111.901,85.0662 110.5,86.5C 111.959,89.6687 112.792,93.002 113,96.5C 115.287,97.4738 117.287,98.8071 119,100.5C 119.333,100.167 119.667,99.8333 120,99.5C 123.281,96.0808 126.281,92.4141 129,88.5C 131.335,83.5852 133.668,78.5852 136,73.5C 137.318,70.594 137.652,67.594 137,64.5C 135.951,62.8934 134.451,62.2267 132.5,62.5C 133.183,60.8235 134.517,60.1568 136.5,60.5 Z"/></g>
<g><path style="opacity:1" fill="#e4be12" d="M 139.5,60.5 C 140.583,60.5394 141.583,60.8728 142.5,61.5C 143.813,69.265 143.313,76.9317 141,84.5C 137.59,86.9946 137.757,88.9946 141.5,90.5C 125.833,102.5 110.167,114.5 94.5,126.5C 94.5,125.833 94.5,125.167 94.5,124.5C 95.9082,122.69 97.0749,120.69 98,118.5C 98.2492,119.624 98.7492,120.624 99.5,121.5C 99.3222,120.044 100.156,118.711 102,117.5C 103.156,118.993 103.99,118.826 104.5,117C 104.012,115.416 103.012,114.249 101.5,113.5C 104.379,104.043 105.546,94.376 105,84.5C 100.35,83.9551 100.517,82.6218 105.5,80.5C 107.022,81.1909 108.022,82.3576 108.5,84C 109.259,91.9899 109.259,99.8233 108.5,107.5C 110.398,108.127 112.731,108.46 115.5,108.5C 115.64,106.876 114.973,105.71 113.5,105C 114.949,103.883 116.616,103.216 118.5,103C 121.083,98.5836 124.75,95.417 129.5,93.5C 130.623,95.289 131.956,95.6224 133.5,94.5C 129.633,91.7829 130.3,90.2829 135.5,90C 134.833,89.3333 134.167,88.6667 133.5,88C 135.444,85.1692 137.277,82.3358 139,79.5C 137.971,74.3628 138.471,69.3628 140.5,64.5C 138.42,63.4718 138.086,62.1385 139.5,60.5 Z"/></g>
<g><path style="opacity:1" fill="#dcb302" d="M 108.5,76.5 C 107.5,77.8333 106.5,79.1667 105.5,80.5C 100.517,82.6218 100.35,83.9551 105,84.5C 105.546,94.376 104.379,104.043 101.5,113.5C 103.012,114.249 104.012,115.416 104.5,117C 103.99,118.826 103.156,118.993 102,117.5C 100.156,118.711 99.3222,120.044 99.5,121.5C 98.7492,120.624 98.2492,119.624 98,118.5C 97.0749,120.69 95.9082,122.69 94.5,124.5C 93.7611,124.631 93.0944,124.464 92.5,124C 94.2366,119.924 95.7366,115.424 97,110.5C 98.8657,101.081 100.032,91.7472 100.5,82.5C 100.5,82.1667 100.5,81.8333 100.5,81.5C 101.167,81.1667 101.833,80.8333 102.5,80.5C 104.246,78.7484 106.246,77.4151 108.5,76.5 Z"/></g>
<g><path style="opacity:1" fill="#e6c005" d="M 66.5,102.5 C 68.8583,102.253 70.8583,102.919 72.5,104.5C 72.7974,113.219 72.2974,121.886 71,130.5C 70.5048,132.99 69.0048,134.49 66.5,135C 67.8333,135.667 69.1667,136.333 70.5,137C 69.0267,137.71 68.3601,138.876 68.5,140.5C 69.791,140.263 70.791,140.596 71.5,141.5C 70.6618,141.842 70.3284,142.508 70.5,143.5C 69.391,143.557 68.391,143.89 67.5,144.5C 64.0884,145.075 61.0884,146.408 58.5,148.5C 56.4352,148.517 54.4352,148.85 52.5,149.5C 51.1667,149.5 49.8333,149.5 48.5,149.5C 48.5,146.5 48.5,143.5 48.5,140.5C 50.5273,140.662 52.5273,140.495 54.5,140C 64.7474,130.516 67.914,119.016 64,105.5C 62.3745,105.146 60.5412,105.146 58.5,105.5C 59.1667,104.833 59.8333,104.167 60.5,103.5C 62.5648,103.483 64.5648,103.15 66.5,102.5 Z"/></g>
<g><path style="opacity:1" fill="#d4aa01" d="M 77.5,137.5 C 76.0047,137.585 75.0047,136.919 74.5,135.5C 78.7455,129.35 80.4122,122.517 79.5,115C 79.4558,111.069 78.7891,107.402 77.5,104C 81.1658,103.61 81.3324,102.443 78,100.5C 76.3963,101.649 74.7297,101.649 73,100.5C 72.5,100.833 72,101.167 71.5,101.5C 72.1272,102.417 72.4606,103.417 72.5,104.5C 70.8583,102.919 68.8583,102.253 66.5,102.5C 67.1667,101.833 67.8333,101.167 68.5,100.5C 70.5,99.8333 72.5,99.1667 74.5,98.5C 76.5466,98.4889 78.5466,98.1556 80.5,97.5C 82.3299,97.5796 83.6633,98.413 84.5,100C 84.4267,107.282 83.7601,114.615 82.5,122C 82.6032,123.561 82.9366,125.061 83.5,126.5C 80.3678,129.576 78.3678,133.243 77.5,137.5 Z"/></g>
<g><path style="opacity:1" fill="#deb602" d="M 77.5,137.5 C 77.5,137.833 77.5,138.167 77.5,138.5C 75.5,139.5 73.5,140.5 71.5,141.5C 70.791,140.596 69.791,140.263 68.5,140.5C 68.3601,138.876 69.0267,137.71 70.5,137C 69.1667,136.333 67.8333,135.667 66.5,135C 69.0048,134.49 70.5048,132.99 71,130.5C 72.2974,121.886 72.7974,113.219 72.5,104.5C 72.4606,103.417 72.1272,102.417 71.5,101.5C 72,101.167 72.5,100.833 73,100.5C 74.7297,101.649 76.3963,101.649 78,100.5C 81.3324,102.443 81.1658,103.61 77.5,104C 78.7891,107.402 79.4558,111.069 79.5,115C 80.4122,122.517 78.7455,129.35 74.5,135.5C 75.0047,136.919 76.0047,137.585 77.5,137.5 Z"/></g>
<g><path style="opacity:1" fill="#caa005" d="M 100.5,82.5 C 100.032,91.7472 98.8657,101.081 97,110.5C 95.7366,115.424 94.2366,119.924 92.5,124C 93.0944,124.464 93.7611,124.631 94.5,124.5C 94.5,125.167 94.5,125.833 94.5,126.5C 89.1667,130.5 83.8333,134.5 78.5,138.5C 78.1667,138.5 77.8333,138.5 77.5,138.5C 77.5,138.167 77.5,137.833 77.5,137.5C 78.3678,133.243 80.3678,129.576 83.5,126.5C 82.9366,125.061 82.6032,123.561 82.5,122C 83.7601,114.615 84.4267,107.282 84.5,100C 83.6633,98.413 82.3299,97.5796 80.5,97.5C 78.5466,98.1556 76.5466,98.4889 74.5,98.5C 76.1667,97.1667 77.8333,95.8333 79.5,94.5C 86.9978,91.2547 93.9978,87.2547 100.5,82.5 Z"/></g>
<g><path style="opacity:1" fill="#f09d77" d="M 34.5,104.5 C 35.9063,104.973 36.573,105.973 36.5,107.5C 35.0937,107.027 34.427,106.027 34.5,104.5 Z"/></g>
<g><path style="opacity:1" fill="#f5da07" d="M 44.5,128.5 C 42.7117,121.601 40.3784,114.934 37.5,108.5C 41.3714,108.815 45.0381,108.482 48.5,107.5C 51.5788,107.74 54.5788,107.407 57.5,106.5C 58.5,107 59.5,107.5 60.5,108C 62.1999,115.531 60.3666,122.364 55,128.5C 52.5059,126.099 50.1726,126.099 48,128.5C 47.1307,123.492 46.4641,123.825 46,129.5C 45.6174,128.944 45.1174,128.611 44.5,128.5 Z"/></g>
<g><path style="opacity:1" fill="#eecd06" d="M 48.5,140.5 C 48.1667,140.5 47.8333,140.5 47.5,140.5C 47.405,138.214 46.7384,136.214 45.5,134.5C 45.4828,132.435 45.1495,130.435 44.5,128.5C 45.1174,128.611 45.6174,128.944 46,129.5C 46.4641,123.825 47.1307,123.492 48,128.5C 50.1726,126.099 52.5059,126.099 55,128.5C 60.3666,122.364 62.1999,115.531 60.5,108C 59.5,107.5 58.5,107 57.5,106.5C 54.5788,107.407 51.5788,107.74 48.5,107.5C 51.5885,106.215 54.9219,105.549 58.5,105.5C 60.5412,105.146 62.3745,105.146 64,105.5C 67.914,119.016 64.7474,130.516 54.5,140C 52.5273,140.495 50.5273,140.662 48.5,140.5 Z"/></g>
<g><path style="opacity:1" fill="#f0e3bb" d="M 77.5,138.5 C 77.8333,138.5 78.1667,138.5 78.5,138.5C 77.9101,139.766 77.4101,141.099 77,142.5C 76.586,142.043 76.086,141.709 75.5,141.5C 73.9246,142.456 72.258,143.123 70.5,143.5C 70.3284,142.508 70.6618,141.842 71.5,141.5C 73.5,140.5 75.5,139.5 77.5,138.5 Z"/></g>
<g><path style="opacity:1" fill="#f4e7be" d="M 45.5,134.5 C 46.7384,136.214 47.405,138.214 47.5,140.5C 47.5,143.833 47.5,147.167 47.5,150.5C 46.8333,146.5 46.1667,142.5 45.5,138.5C 45.5,137.167 45.5,135.833 45.5,134.5 Z"/></g>
<g><path style="opacity:1" fill="#ebd66b" d="M 47.5,140.5 C 47.8333,140.5 48.1667,140.5 48.5,140.5C 48.5,143.5 48.5,146.5 48.5,149.5C 49.8333,149.5 51.1667,149.5 52.5,149.5C 51.0813,150.451 49.4147,150.784 47.5,150.5C 47.5,147.167 47.5,143.833 47.5,140.5 Z"/></g>
<g><path style="opacity:1" fill="#f7e7c2" d="M 67.5,144.5 C 65.1645,147.165 62.1645,148.498 58.5,148.5C 61.0884,146.408 64.0884,145.075 67.5,144.5 Z"/></g>
</svg>
