<?xml version="1.0" encoding="UTF-8"?>
<!DOCTYPE svg PUBLIC "-//W3C//DTD SVG 1.1//EN" "http://www.w3.org/Graphics/SVG/1.1/DTD/svg11.dtd">
<svg xmlns="http://www.w3.org/2000/svg" version="1.1" width="192px" height="155px" style="shape-rendering:geometricPrecision; text-rendering:geometricPrecision; image-rendering:optimizeQuality; fill-rule:evenodd; clip-rule:evenodd" xmlns:xlink="http://www.w3.org/1999/xlink">
<g><path style="opacity:1" fill="#f5f4f4" d="M -0.5,-0.5 C 63.5,-0.5 127.5,-0.5 191.5,-0.5C 191.5,51.1667 191.5,102.833 191.5,154.5C 127.5,154.5 63.5,154.5 -0.5,154.5C -0.5,102.833 -0.5,51.1667 -0.5,-0.5 Z"/></g>
<g><path style="opacity:1" fill="#ba0206" d="M 126.5,5.5 C 132.5,5.5 138.5,5.5 144.5,5.5C 145.167,6.16667 145.833,6.83333 146.5,7.5C 144.22,7.2537 142.22,7.2537 140.5,7.5C 141.364,9.19652 142.697,10.3632 144.5,11C 138.008,12.0174 138.008,13.1841 144.5,14.5C 144.5,16.1667 144.5,17.8333 144.5,19.5C 146.696,19.5652 148.696,20.2319 150.5,21.5C 149.757,22.1818 149.091,22.8485 148.5,23.5C 145.5,23.5 142.5,23.5 139.5,23.5C 137.611,22.678 135.611,21.8447 133.5,21C 134.833,19.6667 134.833,18.3333 133.5,17C 131.285,15.9562 128.952,15.2895 126.5,15C 130.237,14.0009 130.237,12.6675 126.5,11C 124.5,10.6667 122.5,10.3333 120.5,10C 122.961,9.02896 124.961,7.52896 126.5,5.5 Z"/></g>
<g><path style="opacity:1" fill="#e45659" d="M 144.5,5.5 C 150.915,4.90952 154.249,7.90952 154.5,14.5C 152.553,12.7838 151.219,10.6171 150.5,8C 149.207,7.50999 147.873,7.34332 146.5,7.5C 145.833,6.83333 145.167,6.16667 144.5,5.5 Z"/></g>
<g><path style="opacity:1" fill="#ca7772" d="M 115.5,6.5 C 112.47,8.12999 109.137,9.12999 105.5,9.5C 105.611,8.88258 105.944,8.38258 106.5,8C 109.478,7.30404 112.478,6.80404 115.5,6.5 Z"/></g>
<g><path style="opacity:1" fill="#a50c04" d="M 126.5,5.5 C 124.961,7.52896 122.961,9.02896 120.5,10C 122.5,10.3333 124.5,10.6667 126.5,11C 130.237,12.6675 130.237,14.0009 126.5,15C 128.952,15.2895 131.285,15.9562 133.5,17C 134.833,18.3333 134.833,19.6667 133.5,21C 135.611,21.8447 137.611,22.678 139.5,23.5C 139.03,24.6935 138.03,25.3601 136.5,25.5C 130.647,25.996 124.981,26.996 119.5,28.5C 120.209,27.596 121.209,27.2627 122.5,27.5C 122.657,26.1266 122.49,24.7932 122,23.5C 118.182,21.8476 115.348,19.1809 113.5,15.5C 111.363,14.9202 109.53,13.9202 108,12.5C 107.586,12.9574 107.086,13.2907 106.5,13.5C 105.859,12.0065 104.859,11.0065 103.5,10.5C 103.842,9.66175 104.508,9.32842 105.5,9.5C 109.137,9.12999 112.47,8.12999 115.5,6.5C 119.135,5.88575 122.802,5.55241 126.5,5.5 Z"/></g>
<g><path style="opacity:1" fill="#b50b08" d="M 103.5,10.5 C 104.859,11.0065 105.859,12.0065 106.5,13.5C 107.086,13.2907 107.586,12.9574 108,12.5C 109.53,13.9202 111.363,14.9202 113.5,15.5C 115.348,19.1809 118.182,21.8476 122,23.5C 122.49,24.7932 122.657,26.1266 122.5,27.5C 121.209,27.2627 120.209,27.596 119.5,28.5C 119.5,28.8333 119.5,29.1667 119.5,29.5C 117.102,29.2594 115.102,29.9261 113.5,31.5C 112.833,31.5 112.167,31.5 111.5,31.5C 111.611,30.8826 111.944,30.3826 112.5,30C 111.167,29.6667 109.833,29.3333 108.5,29C 108.957,28.586 109.291,28.086 109.5,27.5C 107.5,26.5 105.5,25.5 103.5,24.5C 100.903,20.7311 97.5694,17.8978 93.5,16C 94.1667,15.6667 94.8333,15.3333 95.5,15C 92.4929,14.6987 89.4929,14.8654 86.5,15.5C 91.8468,13.076 97.5134,11.4093 103.5,10.5 Z"/></g>
<g><path style="opacity:1" fill="#d51212" d="M 146.5,7.5 C 147.873,7.34332 149.207,7.50999 150.5,8C 151.219,10.6171 152.553,12.7838 154.5,14.5C 156.128,17.419 157.462,20.419 158.5,23.5C 155.167,23.5 151.833,23.5 148.5,23.5C 149.091,22.8485 149.757,22.1818 150.5,21.5C 148.696,20.2319 146.696,19.5652 144.5,19.5C 144.5,17.8333 144.5,16.1667 144.5,14.5C 138.008,13.1841 138.008,12.0174 144.5,11C 142.697,10.3632 141.364,9.19652 140.5,7.5C 142.22,7.2537 144.22,7.2537 146.5,7.5 Z"/></g>
<g><path style="opacity:1" fill="#de050f" d="M 99.5,35.5 C 98.8333,36.1667 98.1667,36.8333 97.5,37.5C 95.9382,37.7329 94.6049,38.3995 93.5,39.5C 90.8284,40.5014 88.1618,41.5014 85.5,42.5C 84.448,42.6495 83.448,42.4828 82.5,42C 83.6721,41.5814 84.6721,40.9147 85.5,40C 82.48,38.3004 79.48,36.6337 76.5,35C 75,32.1667 72.8333,30 70,28.5C 69.5172,27.552 69.3505,26.552 69.5,25.5C 68.1266,25.6567 66.7932,25.49 65.5,25C 68.0254,24.5762 70.0254,23.4095 71.5,21.5C 73.8695,21.1489 76.2028,20.9822 78.5,21C 77.8333,21.3333 77.1667,21.6667 76.5,22C 78.2072,22.1953 79.8739,22.1953 81.5,22C 80.6721,22.9147 79.6721,23.5814 78.5,24C 82.8593,23.1625 87.1927,23.4958 91.5,25C 90.6919,25.3076 90.0253,25.8076 89.5,26.5C 91.8244,27.6622 94.1578,28.8289 96.5,30C 98.607,31.2635 99.607,33.0968 99.5,35.5 Z"/></g>
<g><path style="opacity:1" fill="#c6060b" d="M 71.5,21.5 C 70.0254,23.4095 68.0254,24.5762 65.5,25C 66.7932,25.49 68.1266,25.6567 69.5,25.5C 69.3505,26.552 69.5172,27.552 70,28.5C 72.8333,30 75,32.1667 76.5,35C 79.48,36.6337 82.48,38.3004 85.5,40C 84.6721,40.9147 83.6721,41.5814 82.5,42C 83.448,42.4828 84.448,42.6495 85.5,42.5C 83.3649,44.0709 81.0316,45.4043 78.5,46.5C 77.8333,46.5 77.1667,46.5 76.5,46.5C 72.2531,42.0942 68.2531,37.5942 64.5,33C 64.8333,32.6667 65.1667,32.3333 65.5,32C 64.552,31.5172 63.552,31.3505 62.5,31.5C 62.5792,30.0695 62.2458,28.7362 61.5,27.5C 62.7701,26.7124 63.7701,25.7124 64.5,24.5C 66.5093,22.9348 68.8427,21.9348 71.5,21.5 Z"/></g>
<g><path style="opacity:1" fill="#ce090e" d="M 111.5,31.5 C 108.843,31.9348 106.509,32.9348 104.5,34.5C 102.883,35.038 101.216,35.3713 99.5,35.5C 99.607,33.0968 98.607,31.2635 96.5,30C 94.1578,28.8289 91.8244,27.6622 89.5,26.5C 90.0253,25.8076 90.6919,25.3076 91.5,25C 87.1927,23.4958 82.8593,23.1625 78.5,24C 79.6721,23.5814 80.6721,22.9147 81.5,22C 79.8739,22.1953 78.2072,22.1953 76.5,22C 77.1667,21.6667 77.8333,21.3333 78.5,21C 76.2028,20.9822 73.8695,21.1489 71.5,21.5C 76.3098,19.2702 81.3098,17.2702 86.5,15.5C 89.4929,14.8654 92.4929,14.6987 95.5,15C 94.8333,15.3333 94.1667,15.6667 93.5,16C 97.5694,17.8978 100.903,20.7311 103.5,24.5C 105.5,25.5 107.5,26.5 109.5,27.5C 109.291,28.086 108.957,28.586 108.5,29C 109.833,29.3333 111.167,29.6667 112.5,30C 111.944,30.3826 111.611,30.8826 111.5,31.5 Z"/></g>
<g><path style="opacity:1" fill="#c99c01" d="M 139.5,23.5 C 142.5,23.5 145.5,23.5 148.5,23.5C 151.833,23.5 155.167,23.5 158.5,23.5C 159.167,23.5 159.5,23.8333 159.5,24.5C 156.5,24.5 153.5,24.5 150.5,24.5C 149.5,24.5 148.5,24.5 147.5,24.5C 145.345,24.372 143.345,24.872 141.5,26C 150.195,34.2299 156.195,44.0633 159.5,55.5C 161.409,56.3482 163.409,56.6816 165.5,56.5C 165.5,56.8333 165.5,57.1667 165.5,57.5C 159.031,58.633 152.697,60.2996 146.5,62.5C 142.94,54.2202 138.607,46.2202 133.5,38.5C 129.829,33.8075 125.163,30.8075 119.5,29.5C 119.5,29.1667 119.5,28.8333 119.5,28.5C 124.981,26.996 130.647,25.996 136.5,25.5C 138.03,25.3601 139.03,24.6935 139.5,23.5 Z"/></g>
<g><path style="opacity:1" fill="#c67a74" d="M 49.5,28.5 C 47.4855,29.9238 45.1522,30.5905 42.5,30.5C 44.5145,29.0762 46.8478,28.4095 49.5,28.5 Z"/></g>
<g><path style="opacity:1" fill="#e9c411" d="M 147.5,24.5 C 148.5,24.5 149.5,24.5 150.5,24.5C 154.221,25.7363 156.388,28.4029 157,32.5C 161.748,39.6557 166.748,46.6557 172,53.5C 173.726,54.5762 175.559,54.7429 177.5,54C 176.177,53.1841 175.511,52.0174 175.5,50.5C 177.727,51.4006 178.727,53.0672 178.5,55.5C 176.167,55.5 173.833,55.5 171.5,55.5C 164.833,51.5275 161.166,45.5275 160.5,37.5C 159.448,37.6495 158.448,37.4828 157.5,37C 155.217,31.9021 151.884,27.7355 147.5,24.5 Z"/></g>
<g><path style="opacity:1" fill="#d83d40" d="M 13.5,28.5 C 20.5974,31.0219 27.9307,32.0219 35.5,31.5C 33.3926,32.4682 31.0593,32.8016 28.5,32.5C 25.1667,32.5 21.8333,32.5 18.5,32.5C 16.8333,31.1667 15.1667,29.8333 13.5,28.5 Z"/></g>
<g><path style="opacity:1" fill="#ab0403" d="M 64.5,24.5 C 63.7701,25.7124 62.7701,26.7124 61.5,27.5C 62.2458,28.7362 62.5792,30.0695 62.5,31.5C 63.552,31.3505 64.552,31.5172 65.5,32C 65.1667,32.3333 64.8333,32.6667 64.5,33C 68.2531,37.5942 72.2531,42.0942 76.5,46.5C 74.572,48.4741 72.2387,49.9741 69.5,51C 63.3591,53.428 57.3591,55.928 51.5,58.5C 49.5648,59.1495 47.5648,59.4828 45.5,59.5C 45.4894,57.9826 44.8228,56.8159 43.5,56C 44.5,55.6667 45.5,55.3333 46.5,55C 38.8659,48.8597 32.8659,41.3597 28.5,32.5C 31.0593,32.8016 33.3926,32.4682 35.5,31.5C 37.861,31.3259 40.1944,30.9926 42.5,30.5C 45.1522,30.5905 47.4855,29.9238 49.5,28.5C 54.2757,26.7211 59.2757,25.3877 64.5,24.5 Z"/></g>
<g><path style="opacity:1" fill="#efc601" d="M 140.5,66.5 C 137.724,67.0891 135.39,68.4224 133.5,70.5C 133.586,68.323 134.253,66.323 135.5,64.5C 132.957,51.2188 126.291,40.7188 115.5,33C 111.766,32.86 108.099,33.36 104.5,34.5C 106.509,32.9348 108.843,31.9348 111.5,31.5C 112.167,31.5 112.833,31.5 113.5,31.5C 115.939,30.9475 118.273,30.9475 120.5,31.5C 124.151,35.6516 127.984,39.6516 132,43.5C 135.937,50.8157 138.77,58.4823 140.5,66.5 Z"/></g>
<g><path style="opacity:1" fill="#d20a0c" d="M 18.5,32.5 C 21.8333,32.5 25.1667,32.5 28.5,32.5C 32.8659,41.3597 38.8659,48.8597 46.5,55C 45.5,55.3333 44.5,55.6667 43.5,56C 44.8228,56.8159 45.4894,57.9826 45.5,59.5C 43.5,60.1667 41.5,60.8333 39.5,61.5C 32.1667,61.5 24.8333,61.5 17.5,61.5C 16.5,61.5 15.5,61.5 14.5,61.5C 14.5,61.1667 14.5,60.8333 14.5,60.5C 19.4115,61.0257 24.0782,60.3591 28.5,58.5C 31.4063,60.9794 34.4063,61.1461 37.5,59C 35.5273,58.5045 33.5273,58.3379 31.5,58.5C 28.4166,50.3394 24.2499,42.6727 19,35.5C 18.5172,34.552 18.3505,33.552 18.5,32.5 Z"/></g>
<g><path style="opacity:1" fill="#fae301" d="M 97.5,44.5 C 96.1667,44.5 94.8333,44.5 93.5,44.5C 92.438,42.7659 92.438,41.0992 93.5,39.5C 94.6049,38.3995 95.9382,37.7329 97.5,37.5C 100.313,37.2296 102.979,36.7296 105.5,36C 109.634,39.0735 114.134,43.2401 119,48.5C 122.54,55.2965 124.374,62.2965 124.5,69.5C 123.757,68.0921 122.923,66.7588 122,65.5C 120.632,67.4935 120.132,69.4935 120.5,71.5C 120.302,68.2148 118.635,66.5482 115.5,66.5C 112.051,58.6509 106.884,51.9843 100,46.5C 99.9252,44.065 99.0919,43.3984 97.5,44.5 Z"/></g>
<g><path style="opacity:1" fill="#e20412" d="M 13.5,28.5 C 15.1667,29.8333 16.8333,31.1667 18.5,32.5C 18.3505,33.552 18.5172,34.552 19,35.5C 24.2499,42.6727 28.4166,50.3394 31.5,58.5C 33.5273,58.3379 35.5273,58.5045 37.5,59C 34.4063,61.1461 31.4063,60.9794 28.5,58.5C 24.0782,60.3591 19.4115,61.0257 14.5,60.5C 13.5592,58.9505 12.8925,57.2838 12.5,55.5C 12.9465,52.9899 12.2798,50.9899 10.5,49.5C 10.5,48.1667 10.5,46.8333 10.5,45.5C 10.5,39.8333 10.5,34.1667 10.5,28.5C 11.5,28.5 12.5,28.5 13.5,28.5 Z"/></g>
<g><path style="opacity:1" fill="#f8da01" d="M 133.5,70.5 C 129.833,72.5 126.167,74.5 122.5,76.5C 119.927,76.8515 117.594,76.3515 115.5,75C 115.957,74.586 116.291,74.086 116.5,73.5C 111.937,62.7753 105.27,53.6086 96.5,46C 97.056,45.6174 97.3893,45.1174 97.5,44.5C 99.0919,43.3984 99.9252,44.065 100,46.5C 106.884,51.9843 112.051,58.6509 115.5,66.5C 118.635,66.5482 120.302,68.2148 120.5,71.5C 120.132,69.4935 120.632,67.4935 122,65.5C 122.923,66.7588 123.757,68.0921 124.5,69.5C 124.374,62.2965 122.54,55.2965 119,48.5C 114.134,43.2401 109.634,39.0735 105.5,36C 102.979,36.7296 100.313,37.2296 97.5,37.5C 98.1667,36.8333 98.8333,36.1667 99.5,35.5C 101.216,35.3713 102.883,35.038 104.5,34.5C 108.099,33.36 111.766,32.86 115.5,33C 126.291,40.7188 132.957,51.2188 135.5,64.5C 134.253,66.323 133.586,68.323 133.5,70.5 Z"/></g>
<g><path style="opacity:1" fill="#f4db1e" d="M 150.5,24.5 C 153.5,24.5 156.5,24.5 159.5,24.5C 165.757,32.6168 171.091,41.2834 175.5,50.5C 175.511,52.0174 176.177,53.1841 177.5,54C 175.559,54.7429 173.726,54.5762 172,53.5C 166.748,46.6557 161.748,39.6557 157,32.5C 156.388,28.4029 154.221,25.7363 150.5,24.5 Z"/></g>
<g><path style="opacity:1" fill="#ec7078" d="M 13.5,28.5 C 12.5,28.5 11.5,28.5 10.5,28.5C 10.5,34.1667 10.5,39.8333 10.5,45.5C 9.50984,39.3554 9.1765,33.0221 9.5,26.5C 11.3797,26.2291 12.713,26.8958 13.5,28.5 Z"/></g>
<g><path style="opacity:1" fill="#d7ad01" d="M 147.5,24.5 C 151.884,27.7355 155.217,31.9021 157.5,37C 158.448,37.4828 159.448,37.6495 160.5,37.5C 161.166,45.5275 164.833,51.5275 171.5,55.5C 169.735,56.4614 167.735,56.7947 165.5,56.5C 163.409,56.6816 161.409,56.3482 159.5,55.5C 156.195,44.0633 150.195,34.2299 141.5,26C 143.345,24.872 145.345,24.372 147.5,24.5 Z"/></g>
<g><path style="opacity:1" fill="#e0b601" d="M 119.5,29.5 C 125.163,30.8075 129.829,33.8075 133.5,38.5C 138.607,46.2202 142.94,54.2202 146.5,62.5C 145.167,63.1667 144.167,64.1667 143.5,65.5C 142.391,65.5569 141.391,65.8902 140.5,66.5C 138.77,58.4823 135.937,50.8157 132,43.5C 127.984,39.6516 124.151,35.6516 120.5,31.5C 118.273,30.9475 115.939,30.9475 113.5,31.5C 115.102,29.9261 117.102,29.2594 119.5,29.5 Z"/></g>
<g><path style="opacity:1" fill="#ee898f" d="M 10.5,49.5 C 12.2798,50.9899 12.9465,52.9899 12.5,55.5C 10.9261,53.8984 10.2594,51.8984 10.5,49.5 Z"/></g>
<g><path style="opacity:1" fill="#c69405" d="M 76.5,46.5 C 77.1667,46.5 77.8333,46.5 78.5,46.5C 77.7981,48.5575 77.4647,50.5575 77.5,52.5C 78.1925,53.5178 78.8592,54.5178 79.5,55.5C 75.4809,55.6458 71.4809,55.9791 67.5,56.5C 67.1692,58.3224 66.5025,59.9891 65.5,61.5C 64.5543,63.1321 63.5543,64.7988 62.5,66.5C 63.1272,67.4168 63.4606,68.4168 63.5,69.5C 61.1556,69.4938 59.8223,68.3271 59.5,66C 60.0297,63.7927 61.0297,61.7927 62.5,60C 61.0267,59.2904 60.3601,58.1238 60.5,56.5C 57.5739,57.4608 54.5739,58.1274 51.5,58.5C 57.3591,55.928 63.3591,53.428 69.5,51C 72.2387,49.9741 74.572,48.4741 76.5,46.5 Z"/></g>
<g><path style="opacity:1" fill="#b38110" d="M 91.5,64.5 C 89.4482,65.0527 89.1148,66.0527 90.5,67.5C 90.5,68.8333 89.8333,69.5 88.5,69.5C 87.1429,68.4097 86.1429,67.0764 85.5,65.5C 83.8422,59.4516 85.6755,58.1183 91,61.5C 91.4828,62.448 91.6495,63.448 91.5,64.5 Z"/></g>
<g><path style="opacity:1" fill="#fbe50a" d="M 14.5,61.5 C 15.5,61.5 16.5,61.5 17.5,61.5C 22.9386,63.6722 28.6052,64.0055 34.5,62.5C 39.5809,69.8266 44.5809,77.3266 49.5,85C 49.0426,85.414 48.7093,85.914 48.5,86.5C 52.6521,92.336 54.6521,98.836 54.5,106C 52.263,107.858 50.4296,110.024 49,112.5C 48.5034,110.19 48.3367,107.857 48.5,105.5C 47.1779,105.67 46.0113,105.337 45,104.5C 44.8295,106.715 44.1628,108.715 43,110.5C 42.4391,107.71 41.1058,105.377 39,103.5C 40.3697,107.973 41.5364,112.64 42.5,117.5C 35.6163,104.069 28.4497,90.7359 21,77.5C 19.0114,72.0394 16.8447,66.7061 14.5,61.5 Z"/></g>
<g><path style="opacity:1" fill="#f5d901" d="M 34.5,62.5 C 37.6318,62.7837 40.6318,63.617 43.5,65C 48.4347,69.9325 52.6014,75.4325 56,81.5C 57.0113,82.3366 58.1779,82.67 59.5,82.5C 59.433,86.6858 60.433,90.5191 62.5,94C 62.1667,94.3333 61.8333,94.6667 61.5,95C 62.1285,97.8184 63.1285,100.485 64.5,103C 63.706,105.024 64.0393,107.024 65.5,109C 64.0027,110.871 62.0027,111.871 59.5,112C 60.6843,113.145 60.6843,114.312 59.5,115.5C 58.1667,115.833 56.8333,116.167 55.5,116.5C 51.2022,117.2 46.8689,117.533 42.5,117.5C 41.5364,112.64 40.3697,107.973 39,103.5C 41.1058,105.377 42.4391,107.71 43,110.5C 44.1628,108.715 44.8295,106.715 45,104.5C 46.0113,105.337 47.1779,105.67 48.5,105.5C 48.3367,107.857 48.5034,110.19 49,112.5C 50.4296,110.024 52.263,107.858 54.5,106C 54.6521,98.836 52.6521,92.336 48.5,86.5C 48.7093,85.914 49.0426,85.414 49.5,85C 44.5809,77.3266 39.5809,69.8266 34.5,62.5 Z"/></g>
<g><path style="opacity:1" fill="#cb110f" d="M 171.5,55.5 C 173.833,55.5 176.167,55.5 178.5,55.5C 180.585,57.6845 181.585,60.3511 181.5,63.5C 181.84,66.1441 181.173,68.4775 179.5,70.5C 180.397,70.6691 181.397,71.0024 182.5,71.5C 179.932,72.8676 177.599,72.5342 175.5,70.5C 171.862,71.5415 171.529,73.2082 174.5,75.5C 172.167,76.1667 169.833,76.8333 167.5,77.5C 166.167,77.5 164.833,77.5 163.5,77.5C 163.8,72.9014 163.467,68.4014 162.5,64C 163.069,61.568 164.069,59.4013 165.5,57.5C 165.5,57.1667 165.5,56.8333 165.5,56.5C 167.735,56.7947 169.735,56.4614 171.5,55.5 Z"/></g>
<g><path style="opacity:1" fill="#aa6c11" d="M 79.5,55.5 C 81.5561,56.5929 82.5561,58.4262 82.5,61C 82.3708,62.9806 81.7042,64.6472 80.5,66C 81.448,66.4828 82.448,66.6495 83.5,66.5C 82.0998,67.1001 81.0998,68.1001 80.5,69.5C 79.5,69.5 78.5,69.5 77.5,69.5C 76.7961,67.6558 75.4628,67.1558 73.5,68C 71.9625,69.7073 70.2959,71.2073 68.5,72.5C 67.713,70.8958 66.3797,70.2291 64.5,70.5C 63.8333,70.5 63.5,70.1667 63.5,69.5C 65.7288,68.9447 67.3954,67.6114 68.5,65.5C 69.086,65.7093 69.586,66.0426 70,66.5C 71.1772,62.5082 69.6772,60.8416 65.5,61.5C 66.5025,59.9891 67.1692,58.3224 67.5,56.5C 71.4809,55.9791 75.4809,55.6458 79.5,55.5 Z"/></g>
<g><path style="opacity:1" fill="#a33407" d="M 75.5,57.5 C 77.1667,57.5 78.8333,57.5 80.5,57.5C 80.5,59.1667 80.5,60.8333 80.5,62.5C 78.2655,62.3801 76.0989,62.7135 74,63.5C 71.9803,62.9681 71.147,61.6348 71.5,59.5C 73.4832,59.8432 74.8166,59.1765 75.5,57.5 Z"/></g>
<g><path style="opacity:1" fill="#a90e06" d="M 165.5,57.5 C 164.069,59.4013 163.069,61.568 162.5,64C 163.467,68.4014 163.8,72.9014 163.5,77.5C 164.833,77.5 166.167,77.5 167.5,77.5C 165.063,79.4557 162.396,81.1224 159.5,82.5C 158.127,82.3433 156.793,82.51 155.5,83C 151.92,85.2774 148.586,87.7774 145.5,90.5C 144.167,90.8333 142.833,91.1667 141.5,91.5C 142.044,89.4205 142.878,87.4205 144,85.5C 144.207,81.9106 144.707,78.4106 145.5,75C 143.699,74.6827 143.366,74.016 144.5,73C 142.744,72.7978 141.078,72.2978 139.5,71.5C 141.608,70.0562 143.941,69.3896 146.5,69.5C 146.5,68.5 146.5,67.5 146.5,66.5C 145.209,66.7373 144.209,66.404 143.5,65.5C 144.167,64.1667 145.167,63.1667 146.5,62.5C 152.697,60.2996 159.031,58.633 165.5,57.5 Z"/></g>
<g><path style="opacity:1" fill="#b23907" d="M 65.5,61.5 C 69.6772,60.8416 71.1772,62.5082 70,66.5C 69.586,66.0426 69.086,65.7093 68.5,65.5C 67.3954,67.6114 65.7288,68.9447 63.5,69.5C 63.4606,68.4168 63.1272,67.4168 62.5,66.5C 63.5543,64.7988 64.5543,63.1321 65.5,61.5 Z"/></g>
<g><path style="opacity:1" fill="#beb295" d="M 91.5,64.5 C 92.9063,64.9731 93.573,65.9731 93.5,67.5C 92.5,67.5 91.5,67.5 90.5,67.5C 89.1148,66.0527 89.4482,65.0527 91.5,64.5 Z"/></g>
<g><path style="opacity:1" fill="#efcf01" d="M 93.5,44.5 C 94.8333,44.5 96.1667,44.5 97.5,44.5C 97.3893,45.1174 97.056,45.6174 96.5,46C 105.27,53.6086 111.937,62.7753 116.5,73.5C 116.291,74.086 115.957,74.586 115.5,75C 117.594,76.3515 119.927,76.8515 122.5,76.5C 120.588,79.4611 117.921,81.4611 114.5,82.5C 112.566,80.703 110.233,79.703 107.5,79.5C 107.663,77.1432 107.497,74.8098 107,72.5C 104.479,69.1548 102.646,65.4882 101.5,61.5C 100.675,60.6143 99.675,60.281 98.5,60.5C 98.6495,59.448 98.4828,58.448 98,57.5C 95.772,54.3603 93.1053,51.6936 90,49.5C 89.5172,48.552 89.3505,47.552 89.5,46.5C 85.551,46.3068 85.551,45.8068 89.5,45C 88.5,44.6667 87.5,44.3333 86.5,44C 88.9633,42.0296 91.2966,42.1963 93.5,44.5 Z"/></g>
<g><path style="opacity:1" fill="#dbb202" d="M 63.5,69.5 C 63.5,70.1667 63.8333,70.5 64.5,70.5C 65.6942,72.4844 65.6942,74.4844 64.5,76.5C 63.5713,75.3112 63.238,73.9778 63.5,72.5C 60.4124,72.1966 58.7458,73.5299 58.5,76.5C 57.5028,76.5299 56.8361,76.0299 56.5,75C 59.843,70.2324 58.5097,67.7324 52.5,67.5C 49.4305,62.7642 45.0971,60.7642 39.5,61.5C 41.5,60.8333 43.5,60.1667 45.5,59.5C 47.5648,59.4828 49.5648,59.1495 51.5,58.5C 54.5739,58.1274 57.5739,57.4608 60.5,56.5C 60.3601,58.1238 61.0267,59.2904 62.5,60C 61.0297,61.7927 60.0297,63.7927 59.5,66C 59.8223,68.3271 61.1556,69.4938 63.5,69.5 Z"/></g>
<g><path style="opacity:1" fill="#b28578" d="M 83.5,66.5 C 83.8417,65.6618 84.5084,65.3284 85.5,65.5C 86.1429,67.0764 87.1429,68.4097 88.5,69.5C 88.5,70.1667 88.5,70.8333 88.5,71.5C 86.6666,69.8883 84.9999,68.2216 83.5,66.5 Z"/></g>
<g><path style="opacity:1" fill="#ddb408" d="M 93.5,39.5 C 92.438,41.0992 92.438,42.7659 93.5,44.5C 91.2966,42.1963 88.9633,42.0296 86.5,44C 87.5,44.3333 88.5,44.6667 89.5,45C 85.551,45.8068 85.551,46.3068 89.5,46.5C 89.3505,47.552 89.5172,48.552 90,49.5C 93.1053,51.6936 95.772,54.3603 98,57.5C 98.4828,58.448 98.6495,59.448 98.5,60.5C 99.675,60.281 100.675,60.6143 101.5,61.5C 102.646,65.4882 104.479,69.1548 107,72.5C 107.497,74.8098 107.663,77.1432 107.5,79.5C 110.233,79.703 112.566,80.703 114.5,82.5C 112.469,84.5224 110.135,86.1891 107.5,87.5C 105.847,87.3404 104.514,86.6737 103.5,85.5C 104.234,84.2921 104.567,82.9587 104.5,81.5C 103.432,80.5655 102.099,80.2322 100.5,80.5C 100.567,79.0413 100.234,77.7079 99.5,76.5C 99.8333,76.5 100.167,76.5 100.5,76.5C 102.035,73.6702 101.035,72.3369 97.5,72.5C 97.5,70.8333 97.5,69.1667 97.5,67.5C 96.1667,67.5 94.8333,67.5 93.5,67.5C 93.573,65.9731 92.9063,64.9731 91.5,64.5C 91.6495,63.448 91.4828,62.448 91,61.5C 85.6755,58.1183 83.8422,59.4516 85.5,65.5C 84.5084,65.3284 83.8417,65.6618 83.5,66.5C 82.448,66.6495 81.448,66.4828 80.5,66C 81.7042,64.6472 82.3708,62.9806 82.5,61C 82.5561,58.4262 81.5561,56.5929 79.5,55.5C 78.8592,54.5178 78.1925,53.5178 77.5,52.5C 77.4647,50.5575 77.7981,48.5575 78.5,46.5C 81.0316,45.4043 83.3649,44.0709 85.5,42.5C 88.1618,41.5014 90.8284,40.5014 93.5,39.5 Z"/></g>
<g><path style="opacity:1" fill="#b32f62" d="M 83.5,66.5 C 84.9999,68.2216 86.6666,69.8883 88.5,71.5C 89.9418,72.8195 90.6085,74.4862 90.5,76.5C 89.0413,76.4326 87.7079,76.7659 86.5,77.5C 85.5,77.5 84.5,77.5 83.5,77.5C 83.8808,75.0582 83.2141,74.3915 81.5,75.5C 80.7717,73.8068 79.7717,72.3068 78.5,71C 79.4158,70.7216 80.0825,70.2216 80.5,69.5C 81.0998,68.1001 82.0998,67.1001 83.5,66.5 Z"/></g>
<g><path style="opacity:1" fill="#da3c36" d="M 181.5,63.5 C 183.41,66.4525 184.41,69.7858 184.5,73.5C 181.211,74.3739 177.877,75.0405 174.5,75.5C 171.529,73.2082 171.862,71.5415 175.5,70.5C 177.599,72.5342 179.932,72.8676 182.5,71.5C 181.397,71.0024 180.397,70.6691 179.5,70.5C 181.173,68.4775 181.84,66.1441 181.5,63.5 Z"/></g>
<g><path style="opacity:1" fill="#b06f7c" d="M 77.5,69.5 C 78.5,69.5 79.5,69.5 80.5,69.5C 80.0825,70.2216 79.4158,70.7216 78.5,71C 79.7717,72.3068 80.7717,73.8068 81.5,75.5C 83.2141,74.3915 83.8808,75.0582 83.5,77.5C 84.5,77.5 85.5,77.5 86.5,77.5C 85.791,78.404 84.791,78.7373 83.5,78.5C 82.1667,78.5 80.8333,78.5 79.5,78.5C 78.8001,75.9373 77.8001,73.4373 76.5,71C 76.5699,70.2352 76.9033,69.7352 77.5,69.5 Z"/></g>
<g><path style="opacity:1" fill="#af310c" d="M 77.5,69.5 C 76.9033,69.7352 76.5699,70.2352 76.5,71C 77.8001,73.4373 78.8001,75.9373 79.5,78.5C 79.5172,80.5648 79.8505,82.5648 80.5,84.5C 79.8501,84.1961 79.1835,83.8627 78.5,83.5C 76.9713,84.7629 75.3046,85.7629 73.5,86.5C 72.8333,85.8333 72.1667,85.1667 71.5,84.5C 70.2329,82.9611 69.2329,81.2944 68.5,79.5C 68.0805,77.9064 67.4138,76.4064 66.5,75C 66.6387,73.699 67.3054,72.8656 68.5,72.5C 70.2959,71.2073 71.9625,69.7073 73.5,68C 75.4628,67.1558 76.7961,67.6558 77.5,69.5 Z"/></g>
<g><path style="opacity:1" fill="#cf960d" d="M 64.5,70.5 C 66.3797,70.2291 67.713,70.8958 68.5,72.5C 67.3054,72.8656 66.6387,73.699 66.5,75C 67.4138,76.4064 68.0805,77.9064 68.5,79.5C 68.5,80.8333 67.8333,81.5 66.5,81.5C 65.6149,78.6771 63.9483,78.0105 61.5,79.5C 59.8564,79.1898 58.8564,78.1898 58.5,76.5C 58.7458,73.5299 60.4124,72.1966 63.5,72.5C 63.238,73.9778 63.5713,75.3112 64.5,76.5C 65.6942,74.4844 65.6942,72.4844 64.5,70.5 Z"/></g>
<g><path style="opacity:1" fill="#ad6f0f" d="M 75.5,76.5 C 74.5,77.5 73.5,78.5 72.5,79.5C 71.5489,78.0813 71.2155,76.4147 71.5,74.5C 73.3797,74.2291 74.713,74.8958 75.5,76.5 Z"/></g>
<g><path style="opacity:1" fill="#c2aa99" d="M 95.5,75.5 C 97.099,75.2322 98.4324,75.5655 99.5,76.5C 100.234,77.7079 100.567,79.0413 100.5,80.5C 97.6333,80.6308 95.9666,79.2974 95.5,76.5C 95.5,76.1667 95.5,75.8333 95.5,75.5 Z"/></g>
<g><path style="opacity:1" fill="#6a5237" d="M 75.5,76.5 C 77.5622,77.5046 78.3955,79.1713 78,81.5C 75.4179,82.9608 73.5846,82.2941 72.5,79.5C 73.5,78.5 74.5,77.5 75.5,76.5 Z"/></g>
<g><path style="opacity:1" fill="#d8c0a1" d="M 66.5,81.5 C 66.0269,82.9063 65.0269,83.573 63.5,83.5C 62.3995,82.3951 61.7329,81.0618 61.5,79.5C 63.9483,78.0105 65.6149,78.6771 66.5,81.5 Z"/></g>
<g><path style="opacity:1" fill="#25264e" d="M 79.5,78.5 C 80.8333,78.5 82.1667,78.5 83.5,78.5C 84.3414,80.3792 84.6747,82.3792 84.5,84.5C 83.1667,84.5 81.8333,84.5 80.5,84.5C 79.8505,82.5648 79.5172,80.5648 79.5,78.5 Z"/></g>
<g><path style="opacity:1" fill="#cf641e" d="M 68.5,79.5 C 69.2329,81.2944 70.2329,82.9611 71.5,84.5C 70.209,84.2627 69.209,84.596 68.5,85.5C 66.8235,86.1834 66.1568,87.5168 66.5,89.5C 62.8191,88.7778 61.8191,86.7778 63.5,83.5C 65.0269,83.573 66.0269,82.9063 66.5,81.5C 67.8333,81.5 68.5,80.8333 68.5,79.5 Z"/></g>
<g><path style="opacity:1" fill="#3b6385" d="M 104.5,81.5 C 104.567,82.9587 104.234,84.2921 103.5,85.5C 101.883,86.038 100.216,86.3713 98.5,86.5C 98.6509,82.686 100.651,81.0193 104.5,81.5 Z"/></g>
<g><path style="opacity:1" fill="#e2bbb9" d="M 159.5,82.5 C 155.47,86.1845 150.803,88.8512 145.5,90.5C 148.586,87.7774 151.92,85.2774 155.5,83C 156.793,82.51 158.127,82.3433 159.5,82.5 Z"/></g>
<g><path style="opacity:1" fill="#ad530d" d="M 90.5,67.5 C 91.5,67.5 92.5,67.5 93.5,67.5C 94.8333,67.5 96.1667,67.5 97.5,67.5C 97.5,69.1667 97.5,70.8333 97.5,72.5C 101.035,72.3369 102.035,73.6702 100.5,76.5C 100.306,74.0882 98.9726,73.0882 96.5,73.5C 96.1662,70.7252 94.8329,70.0585 92.5,71.5C 92.8627,72.1835 93.1961,72.8501 93.5,73.5C 92.9569,73.56 92.6236,73.8933 92.5,74.5C 93.325,75.3857 94.325,75.719 95.5,75.5C 95.5,75.8333 95.5,76.1667 95.5,76.5C 94.6236,76.3691 93.9569,76.7025 93.5,77.5C 94.0521,79.3334 94.8855,81.0001 96,82.5C 97.1798,87.4907 95.3464,90.4907 90.5,91.5C 88.8653,92.8146 87.1986,92.8146 85.5,91.5C 84.5713,92.6888 84.238,94.0222 84.5,95.5C 82.5,95.5 80.5,95.5 78.5,95.5C 76.9805,92.4747 75.3138,89.4747 73.5,86.5C 75.3046,85.7629 76.9713,84.7629 78.5,83.5C 79.1835,83.8627 79.8501,84.1961 80.5,84.5C 81.8333,84.5 83.1667,84.5 84.5,84.5C 84.6747,82.3792 84.3414,80.3792 83.5,78.5C 84.791,78.7373 85.791,78.404 86.5,77.5C 87.7079,76.7659 89.0413,76.4326 90.5,76.5C 90.6085,74.4862 89.9418,72.8195 88.5,71.5C 88.5,70.8333 88.5,70.1667 88.5,69.5C 89.8333,69.5 90.5,68.8333 90.5,67.5 Z"/></g>
<g><path style="opacity:1" fill="#b62519" d="M 93.5,73.5 C 94.5,73.5 95.5,73.5 96.5,73.5C 98.9726,73.0882 100.306,74.0882 100.5,76.5C 100.167,76.5 99.8333,76.5 99.5,76.5C 98.4324,75.5655 97.099,75.2322 95.5,75.5C 94.325,75.719 93.325,75.3857 92.5,74.5C 92.6236,73.8933 92.9569,73.56 93.5,73.5 Z"/></g>
<g><path style="opacity:1" fill="#ba867f" d="M 96.5,73.5 C 95.5,73.5 94.5,73.5 93.5,73.5C 93.1961,72.8501 92.8627,72.1835 92.5,71.5C 94.8329,70.0585 96.1662,70.7252 96.5,73.5 Z"/></g>
<g><path style="opacity:1" fill="#d39f91" d="M 68.5,85.5 C 69.1667,85.5 69.5,85.8333 69.5,86.5C 69.1436,88.1898 68.1436,89.1898 66.5,89.5C 66.1568,87.5168 66.8235,86.1834 68.5,85.5 Z"/></g>
<g><path style="opacity:1" fill="#cb4124" d="M 69.5,86.5 C 71.1765,87.1834 71.8432,88.5168 71.5,90.5C 69.8958,91.287 69.2291,92.6203 69.5,94.5C 68.8106,95.7736 67.9772,95.7736 67,94.5C 66.5065,92.8659 66.3398,91.1992 66.5,89.5C 68.1436,89.1898 69.1436,88.1898 69.5,86.5 Z"/></g>
<g><path style="opacity:1" fill="#d7c7bb" d="M 71.5,90.5 C 73.0739,92.1016 73.7406,94.1016 73.5,96.5C 72.5,96.5 71.5,96.5 70.5,96.5C 70.6716,95.5084 70.3382,94.8417 69.5,94.5C 69.2291,92.6203 69.8958,91.287 71.5,90.5 Z"/></g>
<g><path style="opacity:1" fill="#e9c506" d="M 17.5,61.5 C 24.8333,61.5 32.1667,61.5 39.5,61.5C 45.0971,60.7642 49.4305,62.7642 52.5,67.5C 58.5097,67.7324 59.843,70.2324 56.5,75C 56.8361,76.0299 57.5028,76.5299 58.5,76.5C 58.8564,78.1898 59.8564,79.1898 61.5,79.5C 61.7329,81.0618 62.3995,82.3951 63.5,83.5C 61.8191,86.7778 62.8191,88.7778 66.5,89.5C 66.3398,91.1992 66.5065,92.8659 67,94.5C 67.9772,95.7736 68.8106,95.7736 69.5,94.5C 70.3382,94.8417 70.6716,95.5084 70.5,96.5C 70.2053,98.7354 70.5386,100.735 71.5,102.5C 71.5,103.5 71.5,104.5 71.5,105.5C 77.2526,105.862 77.586,106.862 72.5,108.5C 71.7025,108.957 71.3691,109.624 71.5,110.5C 71.5,110.833 71.5,111.167 71.5,111.5C 67.1586,111.962 63.1586,113.296 59.5,115.5C 60.6843,114.312 60.6843,113.145 59.5,112C 62.0027,111.871 64.0027,110.871 65.5,109C 64.0393,107.024 63.706,105.024 64.5,103C 63.1285,100.485 62.1285,97.8184 61.5,95C 61.8333,94.6667 62.1667,94.3333 62.5,94C 60.433,90.5191 59.433,86.6858 59.5,82.5C 58.1779,82.67 57.0113,82.3366 56,81.5C 52.6014,75.4325 48.4347,69.9325 43.5,65C 40.6318,63.617 37.6318,62.7837 34.5,62.5C 28.6052,64.0055 22.9386,63.6722 17.5,61.5 Z"/></g>
<g><path style="opacity:1" fill="#c8090c" d="M 143.5,65.5 C 144.209,66.404 145.209,66.7373 146.5,66.5C 146.5,67.5 146.5,68.5 146.5,69.5C 143.941,69.3896 141.608,70.0562 139.5,71.5C 141.078,72.2978 142.744,72.7978 144.5,73C 143.366,74.016 143.699,74.6827 145.5,75C 144.707,78.4106 144.207,81.9106 144,85.5C 142.878,87.4205 142.044,89.4205 141.5,91.5C 129.689,100.918 118.022,110.584 106.5,120.5C 103.63,121.433 101.296,123.1 99.5,125.5C 98.8333,125.5 98.1667,125.5 97.5,125.5C 96.9033,125.265 96.5699,124.765 96.5,124C 98.1307,117.369 100.131,110.869 102.5,104.5C 101.81,100.945 101.477,97.4451 101.5,94C 102.381,93.2917 103.047,92.4584 103.5,91.5C 105.139,90.5275 106.473,89.1942 107.5,87.5C 110.135,86.1891 112.469,84.5224 114.5,82.5C 117.921,81.4611 120.588,79.4611 122.5,76.5C 126.167,74.5 129.833,72.5 133.5,70.5C 135.39,68.4224 137.724,67.0891 140.5,66.5C 141.391,65.8902 142.391,65.5569 143.5,65.5 Z"/></g>
<g><path style="opacity:1" fill="#caa012" d="M 95.5,76.5 C 95.9666,79.2974 97.6333,80.6308 100.5,80.5C 102.099,80.2322 103.432,80.5655 104.5,81.5C 100.651,81.0193 98.6509,82.686 98.5,86.5C 100.216,86.3713 101.883,86.038 103.5,85.5C 104.514,86.6737 105.847,87.3404 107.5,87.5C 106.473,89.1942 105.139,90.5275 103.5,91.5C 96.825,95.5383 90.4917,99.8716 84.5,104.5C 80.3259,106.752 75.9926,108.752 71.5,110.5C 71.3691,109.624 71.7025,108.957 72.5,108.5C 77.586,106.862 77.2526,105.862 71.5,105.5C 71.5,104.5 71.5,103.5 71.5,102.5C 70.5386,100.735 70.2053,98.7354 70.5,96.5C 71.5,96.5 72.5,96.5 73.5,96.5C 73.7406,94.1016 73.0739,92.1016 71.5,90.5C 71.8432,88.5168 71.1765,87.1834 69.5,86.5C 69.5,85.8333 69.1667,85.5 68.5,85.5C 69.209,84.596 70.209,84.2627 71.5,84.5C 72.1667,85.1667 72.8333,85.8333 73.5,86.5C 75.3138,89.4747 76.9805,92.4747 78.5,95.5C 82.0535,96.6517 85.7202,96.485 89.5,95C 90.3366,93.9887 90.67,92.8221 90.5,91.5C 95.3464,90.4907 97.1798,87.4907 96,82.5C 94.8855,81.0001 94.0521,79.3334 93.5,77.5C 93.9569,76.7025 94.6236,76.3691 95.5,76.5 Z"/></g>
<g><path style="opacity:1" fill="#496f89" d="M 71.5,102.5 C 72.119,98.446 74.2857,97.1127 78,98.5C 78.4828,99.448 78.6495,100.448 78.5,101.5C 76.5165,101.383 74.8498,102.05 73.5,103.5C 72.8165,103.137 72.1499,102.804 71.5,102.5 Z"/></g>
<g><path style="opacity:1" fill="#9c6808" d="M 90.5,91.5 C 90.67,92.8221 90.3366,93.9887 89.5,95C 85.7202,96.485 82.0535,96.6517 78.5,95.5C 80.5,95.5 82.5,95.5 84.5,95.5C 84.238,94.0222 84.5713,92.6888 85.5,91.5C 87.1986,92.8146 88.8653,92.8146 90.5,91.5 Z"/></g>
<g><path style="opacity:1" fill="#bd0e0c" d="M 84.5,104.5 C 82.149,107.14 80.649,110.14 80,113.5C 81.3333,112.833 82.6667,112.167 84,111.5C 84.7144,117.62 83.5477,123.62 80.5,129.5C 81.376,130.251 82.376,130.751 83.5,131C 82.5868,132.414 82.5868,133.914 83.5,135.5C 81.8608,136.473 80.5274,137.806 79.5,139.5C 75.1899,140.988 71.1899,142.988 67.5,145.5C 64.6027,146.129 61.936,147.129 59.5,148.5C 56.4557,150.011 53.1224,150.678 49.5,150.5C 49.5,147.167 49.5,143.833 49.5,140.5C 50.4682,142.607 50.8016,144.941 50.5,147.5C 54.1419,146.92 57.8086,146.42 61.5,146C 59.3921,145.64 57.3921,144.973 55.5,144C 56.5,143.5 57.5,143 58.5,142.5C 62.1837,141.343 66.1837,141.343 70.5,142.5C 70.178,140.278 70.8446,138.444 72.5,137C 70.0684,135.913 70.4017,135.413 73.5,135.5C 73.5792,134.07 73.2458,132.736 72.5,131.5C 73.5312,130.3 74.3645,128.966 75,127.5C 75.1971,122.914 75.6971,118.414 76.5,114C 75.451,113.508 74.451,113.674 73.5,114.5C 72.2888,113.726 72.2888,112.893 73.5,112C 72.9056,111.536 72.2389,111.369 71.5,111.5C 71.5,111.167 71.5,110.833 71.5,110.5C 75.9926,108.752 80.3259,106.752 84.5,104.5 Z"/></g>
<g><path style="opacity:1" fill="#a80503" d="M 103.5,91.5 C 103.047,92.4584 102.381,93.2917 101.5,94C 101.477,97.4451 101.81,100.945 102.5,104.5C 100.131,110.869 98.1307,117.369 96.5,124C 96.5699,124.765 96.9033,125.265 97.5,125.5C 93.8694,129.31 89.8694,132.643 85.5,135.5C 84.8333,135.5 84.1667,135.5 83.5,135.5C 82.5868,133.914 82.5868,132.414 83.5,131C 82.376,130.751 81.376,130.251 80.5,129.5C 83.5477,123.62 84.7144,117.62 84,111.5C 82.6667,112.167 81.3333,112.833 80,113.5C 80.649,110.14 82.149,107.14 84.5,104.5C 90.4917,99.8716 96.825,95.5383 103.5,91.5 Z"/></g>
<g><path style="opacity:1" fill="#e8730b" d="M 55.5,116.5 C 51.6015,117.932 47.6015,118.932 43.5,119.5C 42.6618,119.158 42.3284,118.492 42.5,117.5C 46.8689,117.533 51.2022,117.2 55.5,116.5 Z"/></g>
<g><path style="opacity:1" fill="#cd040c" d="M 71.5,111.5 C 72.2389,111.369 72.9056,111.536 73.5,112C 72.2888,112.893 72.2888,113.726 73.5,114.5C 74.451,113.674 75.451,113.508 76.5,114C 75.6971,118.414 75.1971,122.914 75,127.5C 74.3645,128.966 73.5312,130.3 72.5,131.5C 73.2458,132.736 73.5792,134.07 73.5,135.5C 70.4017,135.413 70.0684,135.913 72.5,137C 70.8446,138.444 70.178,140.278 70.5,142.5C 66.1837,141.343 62.1837,141.343 58.5,142.5C 57.5,143 56.5,143.5 55.5,144C 57.3921,144.973 59.3921,145.64 61.5,146C 57.8086,146.42 54.1419,146.92 50.5,147.5C 50.8016,144.941 50.4682,142.607 49.5,140.5C 49.1098,136.382 47.7765,132.715 45.5,129.5C 45.0405,126.123 44.3739,122.789 43.5,119.5C 47.6015,118.932 51.6015,117.932 55.5,116.5C 56.8333,116.167 58.1667,115.833 59.5,115.5C 63.1586,113.296 67.1586,111.962 71.5,111.5 Z"/></g>
<g><path style="opacity:1" fill="#e59c9f" d="M 106.5,120.5 C 104.704,122.9 102.37,124.567 99.5,125.5C 101.296,123.1 103.63,121.433 106.5,120.5 Z"/></g>
<g><path style="opacity:1" fill="#d7928e" d="M 83.5,135.5 C 84.1667,135.5 84.8333,135.5 85.5,135.5C 83.8525,137.326 81.8525,138.66 79.5,139.5C 80.5274,137.806 81.8608,136.473 83.5,135.5 Z"/></g>
<g><path style="opacity:1" fill="#e79b9e" d="M 45.5,129.5 C 47.7765,132.715 49.1098,136.382 49.5,140.5C 49.5,143.833 49.5,147.167 49.5,150.5C 48.4487,143.571 47.1153,136.571 45.5,129.5 Z"/></g>
<g><path style="opacity:1" fill="#e49490" d="M 67.5,145.5 C 65.3826,147.655 62.716,148.655 59.5,148.5C 61.936,147.129 64.6027,146.129 67.5,145.5 Z"/></g>
</svg>
