<?xml version="1.0" encoding="UTF-8"?>
<!DOCTYPE svg PUBLIC "-//W3C//DTD SVG 1.1//EN" "http://www.w3.org/Graphics/SVG/1.1/DTD/svg11.dtd">
<svg xmlns="http://www.w3.org/2000/svg" version="1.1" width="192px" height="155px" style="shape-rendering:geometricPrecision; text-rendering:geometricPrecision; image-rendering:optimizeQuality; fill-rule:evenodd; clip-rule:evenodd" xmlns:xlink="http://www.w3.org/1999/xlink">
<g><path style="opacity:1" fill="#f4f4f4" d="M -0.5,-0.5 C 63.5,-0.5 127.5,-0.5 191.5,-0.5C 191.5,51.1667 191.5,102.833 191.5,154.5C 127.5,154.5 63.5,154.5 -0.5,154.5C -0.5,102.833 -0.5,51.1667 -0.5,-0.5 Z"/></g>
<g><path style="opacity:1" fill="#c86956" d="M 137.5,5.5 C 137.5,5.83333 137.5,6.16667 137.5,6.5C 132.637,6.18054 127.97,6.51388 123.5,7.5C 120.167,7.5 116.833,7.5 113.5,7.5C 121.257,5.73149 129.257,5.06482 137.5,5.5 Z"/></g>
<g><path style="opacity:1" fill="#efbdb7" d="M 137.5,6.5 C 137.5,6.16667 137.5,5.83333 137.5,5.5C 141.182,5.3347 144.848,5.50137 148.5,6C 150.171,7.84254 151.171,10.0092 151.5,12.5C 150.143,11.4097 149.143,10.0764 148.5,8.5C 148.5,7.83333 148.167,7.5 147.5,7.5C 144.375,6.52056 141.042,6.18723 137.5,6.5 Z"/></g>
<g><path style="opacity:1" fill="#af0103" d="M 137.5,6.5 C 141.042,6.18723 144.375,6.52056 147.5,7.5C 142.5,7.5 137.5,7.5 132.5,7.5C 132.5,8.5 132.5,9.5 132.5,10.5C 136.161,10.3501 137.161,11.8501 135.5,15C 139.372,19.0474 142.705,23.5474 145.5,28.5C 146.603,28.9976 147.603,29.3309 148.5,29.5C 147.48,31.4325 147.313,33.4325 148,35.5C 148.333,35.1667 148.667,34.8333 149,34.5C 152.318,41.4749 155.818,48.3082 159.5,55C 158.742,56.3639 159.242,57.5305 161,58.5C 161.445,64.1798 161.945,69.8465 162.5,75.5C 162.5,76.5 162.5,77.5 162.5,78.5C 158.964,77.2421 155.297,76.4087 151.5,76C 153.134,75.5065 154.801,75.3398 156.5,75.5C 156.305,71.4526 156.638,67.4526 157.5,63.5C 157.297,61.7923 156.464,60.459 155,59.5C 154.667,56.8333 154.333,54.1667 154,51.5C 147.918,38.4233 139.252,27.4233 128,18.5C 127.517,17.552 127.351,16.552 127.5,15.5C 122.206,15.3178 122.206,14.8178 127.5,14C 126.01,12.228 124.343,12.0613 122.5,13.5C 121.289,12.7261 121.289,11.8928 122.5,11C 120.744,10.7978 119.078,10.2978 117.5,9.5C 119.631,8.83129 121.631,8.16462 123.5,7.5C 127.97,6.51388 132.637,6.18054 137.5,6.5 Z"/></g>
<g><path style="opacity:1" fill="#dfb4aa" d="M 103.5,9.5 C 102.432,10.4345 101.099,10.7678 99.5,10.5C 99.5,12.1667 99.5,13.8333 99.5,15.5C 98.6942,14.0028 98.0276,12.3361 97.5,10.5C 99.396,9.53443 101.396,9.2011 103.5,9.5 Z"/></g>
<g><path style="opacity:1" fill="#a50302" d="M 113.5,7.5 C 116.833,7.5 120.167,7.5 123.5,7.5C 121.631,8.16462 119.631,8.83129 117.5,9.5C 119.078,10.2978 120.744,10.7978 122.5,11C 121.289,11.8928 121.289,12.7261 122.5,13.5C 124.343,12.0613 126.01,12.228 127.5,14C 122.206,14.8178 122.206,15.3178 127.5,15.5C 127.351,16.552 127.517,17.552 128,18.5C 139.252,27.4233 147.918,38.4233 154,51.5C 154.333,54.1667 154.667,56.8333 155,59.5C 156.464,60.459 157.297,61.7923 157.5,63.5C 156.638,67.4526 156.305,71.4526 156.5,75.5C 154.801,75.3398 153.134,75.5065 151.5,76C 155.297,76.4087 158.964,77.2421 162.5,78.5C 162.5,77.5 162.5,76.5 162.5,75.5C 164.216,75.6287 165.883,75.962 167.5,76.5C 165.924,77.1429 164.59,78.1429 163.5,79.5C 160.351,79.4152 157.684,80.4152 155.5,82.5C 153.973,82.427 152.973,83.0937 152.5,84.5C 151.292,85.2341 149.959,85.5674 148.5,85.5C 147.086,83.8615 147.42,82.5282 149.5,81.5C 148.975,80.8076 148.308,80.3076 147.5,80C 147.616,78.7318 147.949,77.3985 148.5,76C 147.636,70.5532 146.803,65.0532 146,59.5C 143.731,54.6263 141.731,49.6263 140,44.5C 133.536,36.7006 126.702,29.2006 119.5,22C 117.024,20.6912 115.024,18.8579 113.5,16.5C 112.271,15.7189 110.938,15.2189 109.5,15C 111.833,14.6667 114.167,14.3333 116.5,14C 113.014,13.6811 109.68,12.8478 106.5,11.5C 106.5,12.5 106.5,13.5 106.5,14.5C 104.533,14.7394 102.699,14.4061 101,13.5C 100.251,14.635 100.417,15.635 101.5,16.5C 103.432,15.3705 103.766,15.7038 102.5,17.5C 101.662,17.8417 101.328,18.5084 101.5,19.5C 100.833,18.8333 100.167,18.1667 99.5,17.5C 99.5,16.8333 99.5,16.1667 99.5,15.5C 99.5,13.8333 99.5,12.1667 99.5,10.5C 101.099,10.7678 102.432,10.4345 103.5,9.5C 106.833,8.83333 110.167,8.16667 113.5,7.5 Z"/></g>
<g><path style="opacity:1" fill="#b00103" d="M 148.5,85.5 C 148.167,86.1667 147.833,86.8333 147.5,87.5C 145.517,88.4706 143.517,89.4706 141.5,90.5C 143.752,81.1691 143.919,71.5024 142,61.5C 136.763,50.1714 129.929,40.0047 121.5,31C 119.5,30 117.5,29 115.5,28C 114.5,26.3333 113.5,24.6667 112.5,23C 108.624,21.9009 105.291,20.0676 102.5,17.5C 103.766,15.7038 103.432,15.3705 101.5,16.5C 100.417,15.635 100.251,14.635 101,13.5C 102.699,14.4061 104.533,14.7394 106.5,14.5C 106.5,13.5 106.5,12.5 106.5,11.5C 109.68,12.8478 113.014,13.6811 116.5,14C 114.167,14.3333 111.833,14.6667 109.5,15C 110.938,15.2189 112.271,15.7189 113.5,16.5C 115.024,18.8579 117.024,20.6912 119.5,22C 126.702,29.2006 133.536,36.7006 140,44.5C 141.731,49.6263 143.731,54.6263 146,59.5C 146.803,65.0532 147.636,70.5532 148.5,76C 147.949,77.3985 147.616,78.7318 147.5,80C 148.308,80.3076 148.975,80.8076 149.5,81.5C 147.42,82.5282 147.086,83.8615 148.5,85.5 Z"/></g>
<g><path style="opacity:1" fill="#fbfafa" d="M 103.5,30.5 C 104.146,34.2032 105.812,37.2032 108.5,39.5C 109.338,39.8417 109.672,40.5084 109.5,41.5C 109.149,44.8116 110.482,47.145 113.5,48.5C 113.427,50.0269 114.094,51.0269 115.5,51.5C 117.083,53.6626 118.416,55.9959 119.5,58.5C 119.579,59.9305 119.246,61.2638 118.5,62.5C 119.262,62.9106 120.262,63.0773 121.5,63C 119.561,63.9078 118.561,65.4078 118.5,67.5C 121.5,67.1667 122.833,68.5 122.5,71.5C 121.167,71.5 119.833,71.5 118.5,71.5C 118.657,72.8734 118.49,74.2068 118,75.5C 112.051,67.8502 106.551,59.8502 101.5,51.5C 90.3371,42.1691 79.3371,32.6691 68.5,23C 74.4807,18.1709 81.1474,16.8376 88.5,19C 91.9538,23.87 96.2871,26.87 101.5,28C 102.066,28.9947 102.733,29.828 103.5,30.5 Z"/></g>
<g><path style="opacity:1" fill="#de9d93" d="M 99.5,17.5 C 100.167,18.1667 100.833,18.8333 101.5,19.5C 101.993,21.8056 102.326,24.139 102.5,26.5C 100.69,23.855 99.6896,20.855 99.5,17.5 Z"/></g>
<g><path style="opacity:1" fill="#7f9dcb" d="M 16.5,30.5 C 13.8333,30.1667 11.1667,29.8333 8.5,29.5C 8.5,34.8333 8.5,40.1667 8.5,45.5C 7.51114,40.0247 7.1778,34.358 7.5,28.5C 7.7352,27.9033 8.2352,27.5699 9,27.5C 11.8193,27.9821 14.3193,28.9821 16.5,30.5 Z"/></g>
<g><path style="opacity:1" fill="#c1050a" d="M 147.5,7.5 C 148.167,7.5 148.5,7.83333 148.5,8.5C 146.801,8.33982 145.134,8.50649 143.5,9C 144.328,9.91471 145.328,10.5814 146.5,11C 144.582,12.7702 144.082,14.9369 145,17.5C 149.64,22.1219 152.14,27.7886 152.5,34.5C 153.5,34.5 154.5,34.5 155.5,34.5C 156.835,38.3053 157.668,42.3053 158,46.5C 162.707,53.4537 165.541,61.1204 166.5,69.5C 168.078,70.2978 169.744,70.7978 171.5,71C 168.956,72.0985 168.956,73.2652 171.5,74.5C 172.696,74.1543 172.696,73.6543 171.5,73C 173.473,72.5045 175.473,72.3379 177.5,72.5C 178.5,72.5 179.5,72.5 180.5,72.5C 180.007,70.1944 179.674,67.861 179.5,65.5C 181.223,67.78 181.889,70.4467 181.5,73.5C 176.761,74.185 172.094,75.185 167.5,76.5C 165.883,75.962 164.216,75.6287 162.5,75.5C 161.945,69.8465 161.445,64.1798 161,58.5C 159.242,57.5305 158.742,56.3639 159.5,55C 155.818,48.3082 152.318,41.4749 149,34.5C 148.667,34.8333 148.333,35.1667 148,35.5C 147.313,33.4325 147.48,31.4325 148.5,29.5C 147.603,29.3309 146.603,28.9976 145.5,28.5C 142.705,23.5474 139.372,19.0474 135.5,15C 137.161,11.8501 136.161,10.3501 132.5,10.5C 132.5,9.5 132.5,8.5 132.5,7.5C 137.5,7.5 142.5,7.5 147.5,7.5 Z"/></g>
<g><path style="opacity:1" fill="#03479b" d="M 21.5,32.5 C 25.1667,32.5 28.8333,32.5 32.5,32.5C 32.5,32.8333 32.5,33.1667 32.5,33.5C 28.2984,33.1832 24.2984,33.5166 20.5,34.5C 19.3,38.4477 20.6333,41.4477 24.5,43.5C 25.8044,48.6745 28.6378,53.0078 33,56.5C 34.1798,61.0141 36.8465,64.3474 41,66.5C 42.4416,69.0496 43.6083,71.7163 44.5,74.5C 45.325,75.3857 46.325,75.719 47.5,75.5C 48.1771,79.3748 50.0104,82.7082 53,85.5C 54.043,89.9203 55.3764,94.2536 57,98.5C 58.2573,104.769 58.7573,111.102 58.5,117.5C 57.448,117.351 56.448,117.517 55.5,118C 57.2112,119.133 57.7112,120.633 57,122.5C 51.5976,120.7 50.7643,121.533 54.5,125C 51.6234,125.725 48.9567,125.225 46.5,123.5C 46.1667,123.833 45.8333,124.167 45.5,124.5C 47.0409,128.154 47.3742,131.82 46.5,135.5C 45.8333,134.167 45.1667,132.833 44.5,131.5C 44.0405,128.123 43.3739,124.789 42.5,121.5C 43.0808,115.887 43.0808,110.554 42.5,105.5C 44.4669,106.682 45.8003,106.015 46.5,103.5C 47.8415,105.005 49.5082,105.672 51.5,105.5C 51.5,104.5 51.5,103.5 51.5,102.5C 47.5464,101.193 46.5464,98.5261 48.5,94.5C 45.0208,90.9826 43.1874,86.6493 43,81.5C 40.8149,79.4598 38.3149,78.1264 35.5,77.5C 35.0899,72.5182 33.9232,67.5182 32,62.5C 30.6413,60.3078 28.8079,58.6411 26.5,57.5C 25.3845,56.4016 25.3845,55.2349 26.5,54C 24.9772,52.1461 23.1438,50.6461 21,49.5C 18.05,44.9288 16.2166,39.9288 15.5,34.5C 17.0225,32.7175 19.0225,32.0508 21.5,32.5 Z"/></g>
<g><path style="opacity:1" fill="#9396b4" d="M 48.5,28.5 C 49.209,27.596 50.209,27.2627 51.5,27.5C 52.5,27.5 53.5,27.5 54.5,27.5C 55.2952,31.4764 55.9619,35.4764 56.5,39.5C 56.1667,39.5 55.8333,39.5 55.5,39.5C 54.6745,35.8641 54.0078,32.1974 53.5,28.5C 51.8333,28.5 50.1667,28.5 48.5,28.5 Z"/></g>
<g><path style="opacity:1" fill="#094ea0" d="M 16.5,30.5 C 18.1667,31.1667 19.8333,31.8333 21.5,32.5C 19.0225,32.0508 17.0225,32.7175 15.5,34.5C 16.2166,39.9288 18.05,44.9288 21,49.5C 23.1438,50.6461 24.9772,52.1461 26.5,54C 25.3845,55.2349 25.3845,56.4016 26.5,57.5C 28.8079,58.6411 30.6413,60.3078 32,62.5C 33.9232,67.5182 35.0899,72.5182 35.5,77.5C 38.3149,78.1264 40.8149,79.4598 43,81.5C 43.1874,86.6493 45.0208,90.9826 48.5,94.5C 46.5464,98.5261 47.5464,101.193 51.5,102.5C 51.5,103.5 51.5,104.5 51.5,105.5C 49.5082,105.672 47.8415,105.005 46.5,103.5C 45.8003,106.015 44.4669,106.682 42.5,105.5C 43.0808,110.554 43.0808,115.887 42.5,121.5C 41.8333,120.5 41.1667,119.5 40.5,118.5C 40.2451,116.033 39.2451,114.033 37.5,112.5C 34.8691,107.953 32.5357,103.286 30.5,98.5C 30.2451,96.0326 29.2451,94.0326 27.5,92.5C 22.0356,83.9042 17.3689,74.9042 13.5,65.5C 11.5193,58.9107 9.85268,52.2441 8.5,45.5C 8.5,40.1667 8.5,34.8333 8.5,29.5C 11.1667,29.8333 13.8333,30.1667 16.5,30.5 Z"/></g>
<g><path style="opacity:1" fill="#013d8f" d="M 20.5,34.5 C 23.0593,34.1984 25.3926,34.5318 27.5,35.5C 28.7536,42.3489 32.2536,47.6822 38,51.5C 39.4836,55.1323 41.4836,58.4656 44,61.5C 48.3513,66.071 52.5179,70.7377 56.5,75.5C 59.2254,82.3698 62.5588,88.8698 66.5,95C 66.1667,95.3333 65.8333,95.6667 65.5,96C 69.1089,108.765 68.9422,121.265 65,133.5C 63.7453,134.211 62.5786,135.044 61.5,136C 62.8213,137.545 62.4879,138.711 60.5,139.5C 57.7874,136.786 56.9541,137.453 58,141.5C 60.6898,141.25 63.5231,140.583 66.5,139.5C 66.2022,136.664 66.8689,136.164 68.5,138C 67.2721,139.49 67.2721,140.99 68.5,142.5C 68.1667,143.167 67.8333,143.833 67.5,144.5C 66.5084,144.328 65.8417,144.662 65.5,145.5C 61.3411,146.664 57.3411,147.997 53.5,149.5C 51.8333,149.5 50.1667,149.5 48.5,149.5C 48.1491,145.316 47.4824,141.316 46.5,137.5C 46.5,136.833 46.5,136.167 46.5,135.5C 47.3742,131.82 47.0409,128.154 45.5,124.5C 45.8333,124.167 46.1667,123.833 46.5,123.5C 48.9567,125.225 51.6234,125.725 54.5,125C 50.7643,121.533 51.5976,120.7 57,122.5C 57.7112,120.633 57.2112,119.133 55.5,118C 56.448,117.517 57.448,117.351 58.5,117.5C 58.7573,111.102 58.2573,104.769 57,98.5C 55.3764,94.2536 54.043,89.9203 53,85.5C 50.0104,82.7082 48.1771,79.3748 47.5,75.5C 46.325,75.719 45.325,75.3857 44.5,74.5C 43.6083,71.7163 42.4416,69.0496 41,66.5C 36.8465,64.3474 34.1798,61.0141 33,56.5C 28.6378,53.0078 25.8044,48.6745 24.5,43.5C 20.6333,41.4477 19.3,38.4477 20.5,34.5 Z"/></g>
<g><path style="opacity:1" fill="#013587" d="M 27.5,35.5 C 29.0174,35.5106 30.1841,36.1772 31,37.5C 37.1401,47.3233 44.4735,56.3233 53,64.5C 58.3596,71.2417 63.5262,78.075 68.5,85C 68.0426,85.414 67.7093,85.914 67.5,86.5C 76.516,101.417 77.8494,117.417 71.5,134.5C 71.8555,135.522 72.5222,136.189 73.5,136.5C 74.7079,137.234 76.0413,137.567 77.5,137.5C 77.1667,138.167 76.8333,138.833 76.5,139.5C 74.0221,140.883 71.3554,141.883 68.5,142.5C 67.2721,140.99 67.2721,139.49 68.5,138C 66.8689,136.164 66.2022,136.664 66.5,139.5C 63.5231,140.583 60.6898,141.25 58,141.5C 56.9541,137.453 57.7874,136.786 60.5,139.5C 62.4879,138.711 62.8213,137.545 61.5,136C 62.5786,135.044 63.7453,134.211 65,133.5C 68.9422,121.265 69.1089,108.765 65.5,96C 65.8333,95.6667 66.1667,95.3333 66.5,95C 62.5588,88.8698 59.2254,82.3698 56.5,75.5C 52.5179,70.7377 48.3513,66.071 44,61.5C 41.4836,58.4656 39.4836,55.1323 38,51.5C 32.2536,47.6822 28.7536,42.3489 27.5,35.5 Z"/></g>
<g><path style="opacity:1" fill="#d7d7d7" d="M 51.5,27.5 C 53.2646,26.5386 55.2646,26.2053 57.5,26.5C 61.652,28.8099 65.152,32.1432 68,36.5C 70.0795,38.1233 72.2462,39.6233 74.5,41C 81,47.5 87.5,54 94,60.5C 99.4846,69.7461 102.651,79.7461 103.5,90.5C 102.247,100.616 100.747,110.949 99,121.5C 98.2828,122.044 97.7828,122.711 97.5,123.5C 97.5323,125.619 96.5323,126.952 94.5,127.5C 94.6655,123.486 94.4988,119.486 94,115.5C 93.3076,114.975 92.8076,114.308 92.5,113.5C 94.2339,109.964 95.5673,106.297 96.5,102.5C 96.2052,100.029 95.2052,97.8627 93.5,96C 94.5784,95.3261 95.2451,94.3261 95.5,93C 95.1155,84.6238 92.9488,76.7905 89,69.5C 84.8285,64.9014 81.1618,59.9014 78,54.5C 72.3131,50.1405 66.9798,45.4738 62,40.5C 60.6882,39.2148 58.8549,39.2148 56.5,40.5C 56.5,40.1667 56.5,39.8333 56.5,39.5C 55.9619,35.4764 55.2952,31.4764 54.5,27.5C 53.5,27.5 52.5,27.5 51.5,27.5 Z"/></g>
<g><path style="opacity:1" fill="#cb040c" d="M 127.5,70.5 C 125.316,66.1189 122.65,62.1189 119.5,58.5C 118.416,55.9959 117.083,53.6626 115.5,51.5C 115.573,49.9731 114.906,48.9731 113.5,48.5C 112.532,45.8997 111.199,43.5664 109.5,41.5C 109.672,40.5084 109.338,39.8417 108.5,39.5C 107.167,35.8333 105.833,32.1667 104.5,28.5C 104.56,27.9569 104.893,27.6236 105.5,27.5C 106.833,28.5 108.167,29.5 109.5,30.5C 111.329,29.7176 112.829,30.3843 114,32.5C 114.202,34.2556 114.702,35.9223 115.5,37.5C 116.192,36.9747 116.692,36.3081 117,35.5C 120.925,37.4445 123.592,40.4445 125,44.5C 128.651,47.2796 131.484,50.7796 133.5,55C 132.743,57.8476 133.743,60.181 136.5,62C 133.741,64.4837 134.074,65.6503 137.5,65.5C 137.66,67.1992 137.494,68.8659 137,70.5C 135.551,69.3859 134.217,68.3859 133,67.5C 132.333,70.1667 131.667,70.1667 131,67.5C 130.517,68.448 130.351,69.448 130.5,70.5C 129.5,70.5 128.5,70.5 127.5,70.5 Z"/></g>
<g><path style="opacity:1" fill="#efad9f" d="M 103.5,28.5 C 103.833,28.5 104.167,28.5 104.5,28.5C 105.833,32.1667 107.167,35.8333 108.5,39.5C 105.812,37.2032 104.146,34.2032 103.5,30.5C 103.5,29.8333 103.5,29.1667 103.5,28.5 Z"/></g>
<g><path style="opacity:1" fill="#0c2378" d="M 44.5,30.5 C 42.9192,32.0863 40.9192,33.0863 38.5,33.5C 36.5143,37.6683 37.8476,40.1683 42.5,41C 46.3123,46.6459 50.979,51.4792 56.5,55.5C 57.1924,54.9747 57.6924,54.3081 58,53.5C 59.5158,56.0515 60.3491,55.7181 60.5,52.5C 61.8831,55.5942 63.5498,58.5942 65.5,61.5C 65.427,63.0269 66.0937,64.0269 67.5,64.5C 67.5,64.8333 67.5,65.1667 67.5,65.5C 67.427,67.0269 68.0937,68.0269 69.5,68.5C 69.5,68.8333 69.5,69.1667 69.5,69.5C 69.719,70.675 69.3857,71.675 68.5,72.5C 62.0331,67.3746 56.6998,61.3746 52.5,54.5C 48.8579,52.0251 45.3579,49.3585 42,46.5C 38.6361,42.3039 35.4694,37.9706 32.5,33.5C 32.5,33.1667 32.5,32.8333 32.5,32.5C 36.4543,31.6187 40.4543,30.9521 44.5,30.5 Z"/></g>
<g><path style="opacity:1" fill="#131871" d="M 48.5,28.5 C 50.1667,28.5 51.8333,28.5 53.5,28.5C 54.0078,32.1974 54.6745,35.8641 55.5,39.5C 55.2594,41.8984 55.9261,43.8984 57.5,45.5C 57.643,48.3852 58.643,50.7185 60.5,52.5C 60.3491,55.7181 59.5158,56.0515 58,53.5C 57.6924,54.3081 57.1924,54.9747 56.5,55.5C 50.979,51.4792 46.3123,46.6459 42.5,41C 37.8476,40.1683 36.5143,37.6683 38.5,33.5C 40.9192,33.0863 42.9192,32.0863 44.5,30.5C 45.8333,29.8333 47.1667,29.1667 48.5,28.5 Z"/></g>
<g><path style="opacity:1" fill="#484285" d="M 55.5,39.5 C 55.8333,39.5 56.1667,39.5 56.5,39.5C 56.5,39.8333 56.5,40.1667 56.5,40.5C 57.3007,42.0418 57.634,43.7085 57.5,45.5C 55.9261,43.8984 55.2594,41.8984 55.5,39.5 Z"/></g>
<g><path style="opacity:1" fill="#f3b9ae" d="M 109.5,41.5 C 111.199,43.5664 112.532,45.8997 113.5,48.5C 110.482,47.145 109.149,44.8116 109.5,41.5 Z"/></g>
<g><path style="opacity:1" fill="#cf040d" d="M 148.5,8.5 C 149.143,10.0764 150.143,11.4097 151.5,12.5C 152.833,15.8333 154.167,19.1667 155.5,22.5C 155.5,25.1667 155.5,27.8333 155.5,30.5C 156.5,30.5 157.5,30.5 158.5,30.5C 160.29,34.0437 161.956,37.7104 163.5,41.5C 162.572,42.7678 162.405,44.1011 163,45.5C 165.094,47.9213 166.76,50.588 168,53.5C 168.893,52.2888 169.726,52.2888 170.5,53.5C 170.291,54.086 169.957,54.586 169.5,55C 170.667,55.5 171.5,56.3333 172,57.5C 172.567,60.1677 173.067,62.8344 173.5,65.5C 174.822,65.67 175.989,65.3366 177,64.5C 176.405,66.5479 176.905,68.5479 178.5,70.5C 178.137,71.1835 177.804,71.8501 177.5,72.5C 175.473,72.3379 173.473,72.5045 171.5,73C 172.696,73.6543 172.696,74.1543 171.5,74.5C 168.956,73.2652 168.956,72.0985 171.5,71C 169.744,70.7978 168.078,70.2978 166.5,69.5C 165.541,61.1204 162.707,53.4537 158,46.5C 157.668,42.3053 156.835,38.3053 155.5,34.5C 154.5,34.5 153.5,34.5 152.5,34.5C 152.14,27.7886 149.64,22.1219 145,17.5C 144.082,14.9369 144.582,12.7702 146.5,11C 145.328,10.5814 144.328,9.91471 143.5,9C 145.134,8.50649 146.801,8.33982 148.5,8.5 Z"/></g>
<g><path style="opacity:1" fill="#042b7f" d="M 20.5,34.5 C 24.2984,33.5166 28.2984,33.1832 32.5,33.5C 35.4694,37.9706 38.6361,42.3039 42,46.5C 45.3579,49.3585 48.8579,52.0251 52.5,54.5C 56.6998,61.3746 62.0331,67.3746 68.5,72.5C 69.3857,71.675 69.719,70.675 69.5,69.5C 71.3264,71.1475 72.6597,73.1475 73.5,75.5C 73.427,77.0269 74.0937,78.0269 75.5,78.5C 77.0075,80.1815 78.0075,82.1815 78.5,84.5C 78.7376,86.4044 79.7376,87.7377 81.5,88.5C 81.5,88.8333 81.5,89.1667 81.5,89.5C 81.427,91.0269 82.0937,92.0269 83.5,92.5C 83.5,92.8333 83.5,93.1667 83.5,93.5C 83.427,95.0269 84.0937,96.0269 85.5,96.5C 86.5375,97.9303 87.2041,99.597 87.5,101.5C 85.8868,101.056 84.7202,100.056 84,98.5C 80.9595,101.503 80.7928,104.669 83.5,108C 82.6608,116.313 80.4941,124.479 77,132.5C 75.6244,133.705 74.4577,135.038 73.5,136.5C 72.5222,136.189 71.8555,135.522 71.5,134.5C 77.8494,117.417 76.516,101.417 67.5,86.5C 67.7093,85.914 68.0426,85.414 68.5,85C 63.5262,78.075 58.3596,71.2417 53,64.5C 44.4735,56.3233 37.1401,47.3233 31,37.5C 30.1841,36.1772 29.0174,35.5106 27.5,35.5C 25.3926,34.5318 23.0593,34.1984 20.5,34.5 Z"/></g>
<g><path style="opacity:1" fill="#c7c7c9" d="M 94.5,127.5 C 94.4142,128.496 94.7476,129.329 95.5,130C 92.846,130.941 90.1794,131.774 87.5,132.5C 88.2623,130.738 89.5956,129.738 91.5,129.5C 92.7943,127.952 93.4609,125.952 93.5,123.5C 93.4954,121.304 93.162,119.304 92.5,117.5C 91.9822,111.8 90.3156,106.467 87.5,101.5C 87.2041,99.597 86.5375,97.9303 85.5,96.5C 85.573,94.9731 84.9063,93.9731 83.5,93.5C 83.5,93.1667 83.5,92.8333 83.5,92.5C 83.573,90.9731 82.9063,89.9731 81.5,89.5C 81.5,89.1667 81.5,88.8333 81.5,88.5C 81.2624,86.5956 80.2624,85.2623 78.5,84.5C 78.0075,82.1815 77.0075,80.1815 75.5,78.5C 75.573,76.9731 74.9063,75.9731 73.5,75.5C 72.6597,73.1475 71.3264,71.1475 69.5,69.5C 69.5,69.1667 69.5,68.8333 69.5,68.5C 69.573,66.9731 68.9063,65.9731 67.5,65.5C 67.5,65.1667 67.5,64.8333 67.5,64.5C 67.573,62.9731 66.9063,61.9731 65.5,61.5C 63.5498,58.5942 61.8831,55.5942 60.5,52.5C 60.2413,49.7282 59.2413,47.3949 57.5,45.5C 57.634,43.7085 57.3007,42.0418 56.5,40.5C 58.8549,39.2148 60.6882,39.2148 62,40.5C 66.9798,45.4738 72.3131,50.1405 78,54.5C 81.1618,59.9014 84.8285,64.9014 89,69.5C 92.9488,76.7905 95.1155,84.6238 95.5,93C 95.2451,94.3261 94.5784,95.3261 93.5,96C 95.2052,97.8627 96.2052,100.029 96.5,102.5C 95.5673,106.297 94.2339,109.964 92.5,113.5C 92.8076,114.308 93.3076,114.975 94,115.5C 94.4988,119.486 94.6655,123.486 94.5,127.5 Z"/></g>
<g><path style="opacity:1" fill="#bf060a" d="M 102.5,17.5 C 105.291,20.0676 108.624,21.9009 112.5,23C 113.5,24.6667 114.5,26.3333 115.5,28C 117.5,29 119.5,30 121.5,31C 129.929,40.0047 136.763,50.1714 142,61.5C 143.919,71.5024 143.752,81.1691 141.5,90.5C 140.22,91.9313 138.553,92.5979 136.5,92.5C 136.5,91.5 136.5,90.5 136.5,89.5C 136.065,86.8427 135.065,84.5093 133.5,82.5C 132.404,79.9684 131.071,77.6351 129.5,75.5C 128.691,73.9724 128.024,72.3057 127.5,70.5C 128.5,70.5 129.5,70.5 130.5,70.5C 130.351,69.448 130.517,68.448 131,67.5C 131.667,70.1667 132.333,70.1667 133,67.5C 134.217,68.3859 135.551,69.3859 137,70.5C 137.494,68.8659 137.66,67.1992 137.5,65.5C 134.074,65.6503 133.741,64.4837 136.5,62C 133.743,60.181 132.743,57.8476 133.5,55C 131.484,50.7796 128.651,47.2796 125,44.5C 123.592,40.4445 120.925,37.4445 117,35.5C 116.692,36.3081 116.192,36.9747 115.5,37.5C 114.702,35.9223 114.202,34.2556 114,32.5C 112.829,30.3843 111.329,29.7176 109.5,30.5C 108.167,29.5 106.833,28.5 105.5,27.5C 104.893,27.6236 104.56,27.9569 104.5,28.5C 104.167,28.5 103.833,28.5 103.5,28.5C 103.672,27.5084 103.338,26.8417 102.5,26.5C 102.326,24.139 101.993,21.8056 101.5,19.5C 101.328,18.5084 101.662,17.8417 102.5,17.5 Z"/></g>
<g><path style="opacity:1" fill="#f29586" d="M 113.5,48.5 C 114.906,48.9731 115.573,49.9731 115.5,51.5C 114.094,51.0269 113.427,50.0269 113.5,48.5 Z"/></g>
<g><path style="opacity:1" fill="#434182" d="M 57.5,45.5 C 59.2413,47.3949 60.2413,49.7282 60.5,52.5C 58.643,50.7185 57.643,48.3852 57.5,45.5 Z"/></g>
<g><path style="opacity:1" fill="#f3b1aa" d="M 173.5,51.5 C 175.913,52.6798 176.913,54.6798 176.5,57.5C 174.992,55.8185 173.992,53.8185 173.5,51.5 Z"/></g>
<g><path style="opacity:1" fill="#d2dbe8" d="M 7.5,28.5 C 7.1778,34.358 7.51114,40.0247 8.5,45.5C 9.85268,52.2441 11.5193,58.9107 13.5,65.5C 12.5416,65.0472 11.7083,64.3805 11,63.5C 10.6667,64.1667 10.3333,64.8333 10,65.5C 8.20355,62.919 8.03688,60.2523 9.5,57.5C 6.52322,47.92 5.85656,38.2533 7.5,28.5 Z"/></g>
<g><path style="opacity:1" fill="#e0191a" d="M 155.5,22.5 C 161.738,31.9661 167.738,41.6328 173.5,51.5C 173.992,53.8185 174.992,55.8185 176.5,57.5C 178.097,59.8478 179.097,62.5145 179.5,65.5C 179.674,67.861 180.007,70.1944 180.5,72.5C 179.5,72.5 178.5,72.5 177.5,72.5C 177.804,71.8501 178.137,71.1835 178.5,70.5C 176.905,68.5479 176.405,66.5479 177,64.5C 175.989,65.3366 174.822,65.67 173.5,65.5C 173.067,62.8344 172.567,60.1677 172,57.5C 171.5,56.3333 170.667,55.5 169.5,55C 169.957,54.586 170.291,54.086 170.5,53.5C 169.726,52.2888 168.893,52.2888 168,53.5C 166.76,50.588 165.094,47.9213 163,45.5C 162.405,44.1011 162.572,42.7678 163.5,41.5C 161.956,37.7104 160.29,34.0437 158.5,30.5C 157.5,30.5 156.5,30.5 155.5,30.5C 155.5,27.8333 155.5,25.1667 155.5,22.5 Z"/></g>
<g><path style="opacity:1" fill="#707aa6" d="M 65.5,61.5 C 66.9063,61.9731 67.573,62.9731 67.5,64.5C 66.0937,64.0269 65.427,63.0269 65.5,61.5 Z"/></g>
<g><path style="opacity:1" fill="#60659c" d="M 67.5,65.5 C 68.9063,65.9731 69.573,66.9731 69.5,68.5C 68.0937,68.0269 67.427,67.0269 67.5,65.5 Z"/></g>
<g><path style="opacity:1" fill="#616a9c" d="M 73.5,75.5 C 74.9063,75.9731 75.573,76.9731 75.5,78.5C 74.0937,78.0269 73.427,77.0269 73.5,75.5 Z"/></g>
<g><path style="opacity:1" fill="#d68e8c" d="M 155.5,82.5 C 155.027,83.9063 154.027,84.573 152.5,84.5C 152.973,83.0937 153.973,82.427 155.5,82.5 Z"/></g>
<g><path style="opacity:1" fill="#d5675c" d="M 133.5,82.5 C 135.065,84.5093 136.065,86.8427 136.5,89.5C 136.167,89.5 135.833,89.5 135.5,89.5C 134.434,87.2986 133.767,84.9653 133.5,82.5 Z"/></g>
<g><path style="opacity:1" fill="#e8d0c8" d="M 163.5,79.5 C 160.214,81.155 157.214,83.3217 154.5,86C 152.323,87.2022 149.989,87.7022 147.5,87.5C 147.833,86.8333 148.167,86.1667 148.5,85.5C 149.959,85.5674 151.292,85.2341 152.5,84.5C 154.027,84.573 155.027,83.9063 155.5,82.5C 157.684,80.4152 160.351,79.4152 163.5,79.5 Z"/></g>
<g><path style="opacity:1" fill="#5b6397" d="M 78.5,84.5 C 80.2624,85.2623 81.2624,86.5956 81.5,88.5C 79.7376,87.7377 78.7376,86.4044 78.5,84.5 Z"/></g>
<g><path style="opacity:1" fill="#60659b" d="M 81.5,89.5 C 82.9063,89.9731 83.573,90.9731 83.5,92.5C 82.0937,92.0269 81.427,91.0269 81.5,89.5 Z"/></g>
<g><path style="opacity:1" fill="#e6c6c2" d="M 147.5,87.5 C 146.847,88.8068 146.18,90.1401 145.5,91.5C 143,92.3589 140.667,93.3589 138.5,94.5C 135.916,93.9517 134.916,92.285 135.5,89.5C 135.833,89.5 136.167,89.5 136.5,89.5C 136.5,90.5 136.5,91.5 136.5,92.5C 138.553,92.5979 140.22,91.9313 141.5,90.5C 143.517,89.4706 145.517,88.4706 147.5,87.5 Z"/></g>
<g><path style="opacity:1" fill="#5f6396" d="M 83.5,93.5 C 84.9063,93.9731 85.573,94.9731 85.5,96.5C 84.0937,96.0269 83.427,95.0269 83.5,93.5 Z"/></g>
<g><path style="opacity:1" fill="#7697c9" d="M 27.5,92.5 C 29.2451,94.0326 30.2451,96.0326 30.5,98.5C 28.461,97.089 27.461,95.089 27.5,92.5 Z"/></g>
<g><path style="opacity:1" fill="#111a73" d="M 87.5,101.5 C 90.3156,106.467 91.9822,111.8 92.5,117.5C 92.7633,121.6 92.4299,125.6 91.5,129.5C 89.5956,129.738 88.2623,130.738 87.5,132.5C 86.5084,132.328 85.8417,132.662 85.5,133.5C 83.0786,135.238 80.4119,136.571 77.5,137.5C 76.0413,137.567 74.7079,137.234 73.5,136.5C 74.4577,135.038 75.6244,133.705 77,132.5C 80.4941,124.479 82.6608,116.313 83.5,108C 80.7928,104.669 80.9595,101.503 84,98.5C 84.7202,100.056 85.8868,101.056 87.5,101.5 Z"/></g>
<g><path style="opacity:1" fill="#e7e8e7" d="M 129.5,75.5 C 131.071,77.6351 132.404,79.9684 133.5,82.5C 133.767,84.9653 134.434,87.2986 135.5,89.5C 134.916,92.285 135.916,93.9517 138.5,94.5C 134.365,97.4051 130.032,100.072 125.5,102.5C 117.293,111.045 107.96,118.045 97.5,123.5C 97.7828,122.711 98.2828,122.044 99,121.5C 100.747,110.949 102.247,100.616 103.5,90.5C 102.651,79.7461 99.4846,69.7461 94,60.5C 87.5,54 81,47.5 74.5,41C 72.2462,39.6233 70.0795,38.1233 68,36.5C 65.152,32.1432 61.652,28.8099 57.5,26.5C 59.9796,24.883 62.6463,24.5497 65.5,25.5C 69.1836,31.0486 73.8503,35.5486 79.5,39C 90.9163,48.3402 100.083,59.5069 107,72.5C 105.928,75.1762 106.595,77.5095 109,79.5C 109.771,82.8591 110.605,86.1925 111.5,89.5C 111.291,90.086 110.957,90.586 110.5,91C 112.266,93.096 113.599,95.4293 114.5,98C 116.377,98.5758 118.211,98.4091 120,97.5C 122.301,95.5081 124.634,93.5081 127,91.5C 127.333,91.8333 127.667,92.1667 128,92.5C 128.145,88.4952 128.978,84.6619 130.5,81C 129.767,79.2341 129.433,77.4008 129.5,75.5 Z"/></g>
<g><path style="opacity:1" fill="#7b97cd" d="M 37.5,112.5 C 39.2451,114.033 40.2451,116.033 40.5,118.5C 38.7549,116.967 37.7549,114.967 37.5,112.5 Z"/></g>
<g><path style="opacity:1" fill="#97a9d1" d="M 40.5,118.5 C 41.1667,119.5 41.8333,120.5 42.5,121.5C 43.3739,124.789 44.0405,128.123 44.5,131.5C 42.3902,127.498 41.0569,123.165 40.5,118.5 Z"/></g>
<g><path style="opacity:1" fill="#7880ad" d="M 92.5,117.5 C 93.162,119.304 93.4954,121.304 93.5,123.5C 93.4609,125.952 92.7943,127.952 91.5,129.5C 92.4299,125.6 92.7633,121.6 92.5,117.5 Z"/></g>
<g><path style="opacity:1" fill="#b7b7cf" d="M 85.5,133.5 C 83.652,137.256 80.652,139.256 76.5,139.5C 76.8333,138.833 77.1667,138.167 77.5,137.5C 80.4119,136.571 83.0786,135.238 85.5,133.5 Z"/></g>
<g><path style="opacity:1" fill="#b7c3dd" d="M 44.5,131.5 C 45.1667,132.833 45.8333,134.167 46.5,135.5C 46.5,136.167 46.5,136.833 46.5,137.5C 46.5,140.167 46.5,142.833 46.5,145.5C 45.0285,141.081 44.3618,136.414 44.5,131.5 Z"/></g>
<g><path style="opacity:1" fill="#9ca4c5" d="M 76.5,139.5 C 74.2842,142.444 71.2842,144.111 67.5,144.5C 67.8333,143.833 68.1667,143.167 68.5,142.5C 71.3554,141.883 74.0221,140.883 76.5,139.5 Z"/></g>
<g><path style="opacity:1" fill="#94a2cb" d="M 65.5,145.5 C 62.1643,148.486 58.1643,149.819 53.5,149.5C 57.3411,147.997 61.3411,146.664 65.5,145.5 Z"/></g>
<g><path style="opacity:1" fill="#4461a3" d="M 46.5,137.5 C 47.4824,141.316 48.1491,145.316 48.5,149.5C 50.1667,149.5 51.8333,149.5 53.5,149.5C 51.3926,150.468 49.0593,150.802 46.5,150.5C 46.5,148.833 46.5,147.167 46.5,145.5C 46.5,142.833 46.5,140.167 46.5,137.5 Z"/></g>
</svg>
