<?xml version="1.0" encoding="UTF-8"?>
<!DOCTYPE svg PUBLIC "-//W3C//DTD SVG 1.1//EN" "http://www.w3.org/Graphics/SVG/1.1/DTD/svg11.dtd">
<svg xmlns="http://www.w3.org/2000/svg" version="1.1" width="192px" height="155px" style="shape-rendering:geometricPrecision; text-rendering:geometricPrecision; image-rendering:optimizeQuality; fill-rule:evenodd; clip-rule:evenodd" xmlns:xlink="http://www.w3.org/1999/xlink">
<g><path style="opacity:1" fill="#f4f5f5" d="M -0.5,-0.5 C 63.5,-0.5 127.5,-0.5 191.5,-0.5C 191.5,51.1667 191.5,102.833 191.5,154.5C 127.5,154.5 63.5,154.5 -0.5,154.5C -0.5,102.833 -0.5,51.1667 -0.5,-0.5 Z"/></g>
<g><path style="opacity:1" fill="#c7c6c9" d="M 133.5,8.5 C 126.548,8.90464 119.881,10.5713 113.5,13.5C 112.833,13.5 112.167,13.5 111.5,13.5C 112.62,11.4252 113.62,9.2585 114.5,7C 119.11,5.70954 123.777,5.37621 128.5,6C 127.377,7.04373 126.044,7.71039 124.5,8C 127.482,8.49796 130.482,8.66463 133.5,8.5 Z"/></g>
<g><path style="opacity:1" fill="#dddddd" d="M 145.5,8.5 C 141.5,8.5 137.5,8.5 133.5,8.5C 130.482,8.66463 127.482,8.49796 124.5,8C 126.044,7.71039 127.377,7.04373 128.5,6C 123.777,5.37621 119.11,5.70954 114.5,7C 113.62,9.2585 112.62,11.4252 111.5,13.5C 108.422,13.6197 105.755,14.6197 103.5,16.5C 102.167,16.8333 100.833,17.1667 99.5,17.5C 99.9528,16.5416 100.619,15.7083 101.5,15C 101.167,14.6667 100.833,14.3333 100.5,14C 101.448,13.5172 102.448,13.3505 103.5,13.5C 103.5,11.8333 103.5,10.1667 103.5,8.5C 116.09,3.86389 129.09,2.36389 142.5,4C 143.815,5.39459 143.481,6.39459 141.5,7C 143.058,7.21003 144.391,7.71003 145.5,8.5 Z"/></g>
<g><path style="opacity:1" fill="#6b72a6" d="M 133.5,8.5 C 137.5,8.5 141.5,8.5 145.5,8.5C 148.187,8.33591 150.854,8.50258 153.5,9C 155.437,9.12162 156.77,9.95496 157.5,11.5C 153.936,10.5773 150.269,10.244 146.5,10.5C 143.5,10.5 140.5,10.5 137.5,10.5C 129.366,10.5671 121.366,11.5671 113.5,13.5C 119.881,10.5713 126.548,8.90464 133.5,8.5 Z"/></g>
<g><path style="opacity:1" fill="#033084" d="M 137.5,10.5 C 140.5,10.5 143.5,10.5 146.5,10.5C 148.663,11.4691 150.996,12.3024 153.5,13C 152.376,13.2492 151.376,13.7492 150.5,14.5C 152.5,15.3333 154.5,16.1667 156.5,17C 152.975,17.1787 149.641,17.6787 146.5,18.5C 145.5,18.5 144.5,18.5 143.5,18.5C 142.895,16.9743 141.729,15.9743 140,15.5C 139.517,14.552 139.351,13.552 139.5,12.5C 137.007,12.8693 136.34,12.2027 137.5,10.5 Z"/></g>
<g><path style="opacity:1" fill="#697bae" d="M 111.5,13.5 C 109.245,15.3803 106.578,16.3803 103.5,16.5C 105.755,14.6197 108.422,13.6197 111.5,13.5 Z"/></g>
<g><path style="opacity:1" fill="#101975" d="M 137.5,10.5 C 136.34,12.2027 137.007,12.8693 139.5,12.5C 139.351,13.552 139.517,14.552 140,15.5C 141.729,15.9743 142.895,16.9743 143.5,18.5C 141.435,18.5172 139.435,18.8505 137.5,19.5C 132.404,19.0439 127.738,20.0439 123.5,22.5C 121.565,23.1495 119.565,23.4828 117.5,23.5C 116.761,23.631 116.094,23.4643 115.5,23C 116.624,22.7508 117.624,22.2508 118.5,21.5C 115.046,20.199 111.713,18.699 108.5,17C 110.431,16.0978 112.097,14.9312 113.5,13.5C 121.366,11.5671 129.366,10.5671 137.5,10.5 Z"/></g>
<g><path style="opacity:1" fill="#184c9a" d="M 146.5,10.5 C 150.269,10.244 153.936,10.5773 157.5,11.5C 158.11,12.391 158.443,13.391 158.5,14.5C 158.539,15.5832 158.873,16.5832 159.5,17.5C 155.217,18.4922 150.884,18.8256 146.5,18.5C 149.641,17.6787 152.975,17.1787 156.5,17C 154.5,16.1667 152.5,15.3333 150.5,14.5C 151.376,13.7492 152.376,13.2492 153.5,13C 150.996,12.3024 148.663,11.4691 146.5,10.5 Z"/></g>
<g><path style="opacity:1" fill="#95a9cd" d="M 98.5,17.5 C 98.1667,18.1667 97.8333,18.8333 97.5,19.5C 96.1667,19.5 94.8333,19.5 93.5,19.5C 94.9303,18.4625 96.597,17.7959 98.5,17.5 Z"/></g>
<g><path style="opacity:1" fill="#4262a4" d="M 103.5,16.5 C 101.967,18.2451 99.9674,19.2451 97.5,19.5C 97.8333,18.8333 98.1667,18.1667 98.5,17.5C 98.8333,17.5 99.1667,17.5 99.5,17.5C 100.833,17.1667 102.167,16.8333 103.5,16.5 Z"/></g>
<g><path style="opacity:1" fill="#5b5992" d="M 137.5,19.5 C 135.167,20.1667 132.833,20.8333 130.5,21.5C 128.236,22.2186 125.903,22.552 123.5,22.5C 127.738,20.0439 132.404,19.0439 137.5,19.5 Z"/></g>
<g><path style="opacity:1" fill="#9ea4bc" d="M 158.5,14.5 C 159.965,15.4057 160.965,16.739 161.5,18.5C 156.683,19.1669 152.017,19.8335 147.5,20.5C 141.828,20.7599 136.161,21.0932 130.5,21.5C 132.833,20.8333 135.167,20.1667 137.5,19.5C 139.435,18.8505 141.435,18.5172 143.5,18.5C 144.5,18.5 145.5,18.5 146.5,18.5C 150.884,18.8256 155.217,18.4922 159.5,17.5C 158.873,16.5832 158.539,15.5832 158.5,14.5 Z"/></g>
<g><path style="opacity:1" fill="#0c3a90" d="M 111.5,13.5 C 112.167,13.5 112.833,13.5 113.5,13.5C 112.097,14.9312 110.431,16.0978 108.5,17C 111.713,18.699 115.046,20.199 118.5,21.5C 117.624,22.2508 116.624,22.7508 115.5,23C 116.094,23.4643 116.761,23.631 117.5,23.5C 117.167,24.1667 116.833,24.8333 116.5,25.5C 114.901,25.2322 113.568,25.5655 112.5,26.5C 110.139,26.6741 107.806,27.0074 105.5,27.5C 102.797,27.0481 100.13,26.3815 97.5,25.5C 98.0253,24.8076 98.6919,24.3076 99.5,24C 97.4588,22.2589 95.2921,22.0922 93,23.5C 92.8333,23.1667 92.6667,22.8333 92.5,22.5C 94.3596,21.6751 96.0262,20.6751 97.5,19.5C 99.9674,19.2451 101.967,18.2451 103.5,16.5C 106.578,16.3803 109.245,15.3803 111.5,13.5 Z"/></g>
<g><path style="opacity:1" fill="#416cad" d="M 91.5,21.5 C 88.0009,24.2461 84.0009,25.9127 79.5,26.5C 79.5,26.1667 79.5,25.8333 79.5,25.5C 83.3172,23.59 87.3172,22.2567 91.5,21.5 Z"/></g>
<g><path style="opacity:1" fill="#0d489a" d="M 93.5,19.5 C 94.8333,19.5 96.1667,19.5 97.5,19.5C 96.0262,20.6751 94.3596,21.6751 92.5,22.5C 92.6667,22.8333 92.8333,23.1667 93,23.5C 95.2921,22.0922 97.4588,22.2589 99.5,24C 98.6919,24.3076 98.0253,24.8076 97.5,25.5C 100.13,26.3815 102.797,27.0481 105.5,27.5C 103.924,28.1429 102.59,29.1429 101.5,30.5C 97.8487,31.6589 94.5154,33.3256 91.5,35.5C 89.302,35.1201 87.6354,35.7868 86.5,37.5C 85.391,37.5569 84.391,37.8902 83.5,38.5C 81.0326,38.7549 79.0326,39.7549 77.5,41.5C 76.8333,41.5 76.1667,41.5 75.5,41.5C 75.5,40.1667 75.5,38.8333 75.5,37.5C 76.8734,37.6567 78.2068,37.49 79.5,37C 77.8256,33.4813 75.159,31.3146 71.5,30.5C 71.5,30.1667 71.5,29.8333 71.5,29.5C 73.8984,29.7406 75.8984,29.0739 77.5,27.5C 77.8417,26.6618 78.5084,26.3284 79.5,26.5C 84.0009,25.9127 88.0009,24.2461 91.5,21.5C 92.1667,20.8333 92.8333,20.1667 93.5,19.5 Z"/></g>
<g><path style="opacity:1" fill="#3d5f9c" d="M 77.5,27.5 C 75.8984,29.0739 73.8984,29.7406 71.5,29.5C 73.1016,27.9261 75.1016,27.2594 77.5,27.5 Z"/></g>
<g><path style="opacity:1" fill="#8ba2cd" d="M 112.5,26.5 C 112.5,26.8333 112.5,27.1667 112.5,27.5C 108.777,28.2967 105.11,29.2967 101.5,30.5C 102.59,29.1429 103.924,28.1429 105.5,27.5C 107.806,27.0074 110.139,26.6741 112.5,26.5 Z"/></g>
<g><path style="opacity:1" fill="#dcdddd" d="M 79.5,25.5 C 79.5,25.8333 79.5,26.1667 79.5,26.5C 78.5084,26.3284 77.8417,26.6618 77.5,27.5C 75.1016,27.2594 73.1016,27.9261 71.5,29.5C 70.1667,29.5 68.8333,29.5 67.5,29.5C 64.0757,29.3152 60.909,28.3152 58,26.5C 53.2999,28.2167 48.4666,29.3833 43.5,30C 41.9559,30.2896 40.6226,30.9563 39.5,32C 42.241,33.8963 42.5743,35.7297 40.5,37.5C 38.5,37.5 36.5,37.5 34.5,37.5C 33.341,35.4701 32.6743,33.1368 32.5,30.5C 44.4598,29.0679 56.1265,26.4012 67.5,22.5C 70.4722,22.3534 72.3055,23.6867 73,26.5C 75.0408,25.5769 77.2075,25.2436 79.5,25.5 Z"/></g>
<g><path style="opacity:1" fill="#c9cacc" d="M 67.5,29.5 C 66.4097,30.8571 65.0764,31.8571 63.5,32.5C 62.391,32.5569 61.391,32.8902 60.5,33.5C 56.8371,33.9518 53.1704,34.4518 49.5,35C 48.6195,35.7083 47.9528,36.5416 47.5,37.5C 46.1667,37.5 44.8333,37.5 43.5,37.5C 42.5,37.5 41.5,37.5 40.5,37.5C 42.5743,35.7297 42.241,33.8963 39.5,32C 40.6226,30.9563 41.9559,30.2896 43.5,30C 48.4666,29.3833 53.2999,28.2167 58,26.5C 60.909,28.3152 64.0757,29.3152 67.5,29.5 Z"/></g>
<g><path style="opacity:1" fill="#505b94" d="M 67.5,29.5 C 68.8333,29.5 70.1667,29.5 71.5,29.5C 71.5,29.8333 71.5,30.1667 71.5,30.5C 68.9963,31.6392 66.3297,32.3059 63.5,32.5C 65.0764,31.8571 66.4097,30.8571 67.5,29.5 Z"/></g>
<g><path style="opacity:1" fill="#dddede" d="M 147.5,21.5 C 151.226,21.1774 154.893,21.5108 158.5,22.5C 159.833,25.1667 159.833,27.8333 158.5,30.5C 160.167,31.1667 161.833,31.8333 163.5,32.5C 163.069,33.2935 162.735,34.1268 162.5,35C 165.29,41.3792 168.457,47.5459 172,53.5C 172.684,54.7839 172.517,55.9505 171.5,57C 172.448,57.4828 173.448,57.6495 174.5,57.5C 173.432,58.4345 172.099,58.7678 170.5,58.5C 168.801,58.6602 167.134,58.4935 165.5,58C 166.198,57.0293 166.198,55.8626 165.5,54.5C 164.167,52.5 162.833,50.5 161.5,48.5C 162.52,46.5675 162.687,44.5675 162,42.5C 160.666,39.159 158.832,36.159 156.5,33.5C 155.749,34.376 155.249,35.376 155,36.5C 154.683,34.6992 154.016,34.3659 153,35.5C 151.076,30.8654 149.243,26.1988 147.5,21.5 Z"/></g>
<g><path style="opacity:1" fill="#8484aa" d="M 60.5,33.5 C 59.5,34.1667 58.5,34.8333 57.5,35.5C 54.0968,35.8511 50.7635,36.5178 47.5,37.5C 47.9528,36.5416 48.6195,35.7083 49.5,35C 53.1704,34.4518 56.8371,33.9518 60.5,33.5 Z"/></g>
<g><path style="opacity:1" fill="#cbcbcc" d="M 147.5,20.5 C 147.5,20.8333 147.5,21.1667 147.5,21.5C 149.243,26.1988 151.076,30.8654 153,35.5C 154.016,34.3659 154.683,34.6992 155,36.5C 155.249,35.376 155.749,34.376 156.5,33.5C 158.832,36.159 160.666,39.159 162,42.5C 162.687,44.5675 162.52,46.5675 161.5,48.5C 162.833,50.5 164.167,52.5 165.5,54.5C 166.198,55.8626 166.198,57.0293 165.5,58C 167.134,58.4935 168.801,58.6602 170.5,58.5C 170.5,58.8333 170.5,59.1667 170.5,59.5C 166.292,59.677 162.626,61.0103 159.5,63.5C 157.5,64.1667 155.5,64.8333 153.5,65.5C 153.167,65.5 152.833,65.5 152.5,65.5C 152.477,62.5429 151.477,60.0429 149.5,58C 149.833,57.6667 150.167,57.3333 150.5,57C 149.751,55.2663 149.251,53.433 149,51.5C 146.481,47.7586 144.647,43.7586 143.5,39.5C 142.022,39.762 140.689,39.4287 139.5,38.5C 140.811,37.7425 141.311,36.7425 141,35.5C 136.145,34.9893 132.645,32.4893 130.5,28C 130.833,27.6667 131.167,27.3333 131.5,27C 128.5,26.6667 125.5,26.3333 122.5,26C 123.888,25.1107 123.722,24.6107 122,24.5C 120.234,25.2335 118.401,25.5668 116.5,25.5C 116.833,24.8333 117.167,24.1667 117.5,23.5C 119.565,23.4828 121.565,23.1495 123.5,22.5C 125.903,22.552 128.236,22.2186 130.5,21.5C 136.161,21.0932 141.828,20.7599 147.5,20.5 Z"/></g>
<g><path style="opacity:1" fill="#7d9ac0" d="M 91.5,35.5 C 90.5,36.1667 89.5,36.8333 88.5,37.5C 87.8333,37.5 87.1667,37.5 86.5,37.5C 87.6354,35.7868 89.302,35.1201 91.5,35.5 Z"/></g>
<g><path style="opacity:1" fill="#adb7d3" d="M 13.5,36.5 C 14.0968,35.8614 14.9302,35.528 16,35.5C 22.0388,37.2086 28.2054,37.8752 34.5,37.5C 36.5,37.5 38.5,37.5 40.5,37.5C 41.5,37.5 42.5,37.5 43.5,37.5C 42.4324,38.4345 41.099,38.7678 39.5,38.5C 30.6888,38.961 22.0221,38.2943 13.5,36.5 Z"/></g>
<g><path style="opacity:1" fill="#0b267b" d="M 71.5,30.5 C 75.159,31.3146 77.8256,33.4813 79.5,37C 78.2068,37.49 76.8734,37.6567 75.5,37.5C 75.5,38.8333 75.5,40.1667 75.5,41.5C 75.1583,42.3382 74.4916,42.6716 73.5,42.5C 72.9157,40.7431 71.749,39.4098 70,38.5C 67.755,37.8629 65.5883,37.0296 63.5,36C 64.7112,35.1072 64.7112,34.2739 63.5,33.5C 62.2807,34.2634 61.2807,35.2634 60.5,36.5C 59.5832,35.8728 58.5832,35.5394 57.5,35.5C 58.5,34.8333 59.5,34.1667 60.5,33.5C 61.391,32.8902 62.391,32.5569 63.5,32.5C 66.3297,32.3059 68.9963,31.6392 71.5,30.5 Z"/></g>
<g><path style="opacity:1" fill="#697aa8" d="M 83.5,38.5 C 81.9674,40.2451 79.9674,41.2451 77.5,41.5C 79.0326,39.7549 81.0326,38.7549 83.5,38.5 Z"/></g>
<g><path style="opacity:1" fill="#124c9c" d="M 13.5,36.5 C 22.0221,38.2943 30.6888,38.961 39.5,38.5C 38.5707,39.3149 37.5707,40.1482 36.5,41C 41.993,45.213 40.993,47.3796 33.5,47.5C 38.4056,47.714 43.5722,47.714 49,47.5C 50.8001,48.3784 52.6334,49.045 54.5,49.5C 54.1667,50.1667 53.8333,50.8333 53.5,51.5C 50.8478,51.4095 48.5145,52.0762 46.5,53.5C 44.5,53.5 42.5,53.5 40.5,53.5C 32.4659,53.6982 24.4659,53.3649 16.5,52.5C 16.3713,50.7839 16.038,49.1172 15.5,47.5C 15.6633,45.1432 15.4966,42.8098 15,40.5C 14.6174,39.944 14.1174,39.6107 13.5,39.5C 13.5,38.5 13.5,37.5 13.5,36.5 Z"/></g>
<g><path style="opacity:1" fill="#f2f3f3" d="M 112.5,27.5 C 116.352,27.4887 118.185,29.4887 118,33.5C 118.49,32.2068 118.657,30.8734 118.5,29.5C 121.808,28.9738 123.974,30.3072 125,33.5C 125.414,33.0426 125.914,32.7093 126.5,32.5C 128.297,34.1311 129.464,36.1311 130,38.5C 130.219,37.062 130.719,35.7287 131.5,34.5C 135.424,38.3502 137.091,43.0168 136.5,48.5C 138.167,48.5 139.833,48.5 141.5,48.5C 142.856,53.1103 144.523,57.6103 146.5,62C 146.18,63.6532 145.18,64.6532 143.5,65C 144.167,65.6667 144.833,66.3333 145.5,67C 143.5,67.3333 141.5,67.6667 139.5,68C 140.973,68.7096 141.64,69.8762 141.5,71.5C 141.5,71.8333 141.5,72.1667 141.5,72.5C 140.508,72.3284 139.842,72.6618 139.5,73.5C 137.973,73.427 136.973,74.0937 136.5,75.5C 134.973,75.427 133.973,76.0937 133.5,77.5C 132.833,77.8333 132.167,78.1667 131.5,78.5C 129.596,78.7376 128.262,79.7376 127.5,81.5C 125.246,82.1237 123.579,83.457 122.5,85.5C 121.833,85.5 121.167,85.5 120.5,85.5C 119.504,85.5858 118.671,85.2524 118,84.5C 118.614,79.5978 118.448,74.9311 117.5,70.5C 117.833,69.8333 118.167,69.1667 118.5,68.5C 119.833,67.8333 121.167,67.1667 122.5,66.5C 124.929,66.1156 127.263,65.449 129.5,64.5C 129.616,61.0897 127.95,59.7564 124.5,60.5C 124.027,59.0937 123.027,58.427 121.5,58.5C 119.195,57.6771 117.195,56.3437 115.5,54.5C 115.5,50.1667 115.5,45.8333 115.5,41.5C 112.084,41.5275 109.084,42.5275 106.5,44.5C 104.973,44.427 103.973,45.0937 103.5,46.5C 101.315,46.2964 99.3146,45.6298 97.5,44.5C 95.1475,43.6597 93.1475,42.3264 91.5,40.5C 91.5,40.1667 91.5,39.8333 91.5,39.5C 90.5,38.8333 89.5,38.1667 88.5,37.5C 89.5,36.8333 90.5,36.1667 91.5,35.5C 94.5154,33.3256 97.8487,31.6589 101.5,30.5C 105.11,29.2967 108.777,28.2967 112.5,27.5 Z"/></g>
<g><path style="opacity:1" fill="#dedede" d="M 152.5,65.5 C 151.5,65.8333 150.833,66.5 150.5,67.5C 147.127,68.0659 144.127,69.3993 141.5,71.5C 141.64,69.8762 140.973,68.7096 139.5,68C 141.5,67.6667 143.5,67.3333 145.5,67C 144.833,66.3333 144.167,65.6667 143.5,65C 145.18,64.6532 146.18,63.6532 146.5,62C 144.523,57.6103 142.856,53.1103 141.5,48.5C 139.833,48.5 138.167,48.5 136.5,48.5C 137.091,43.0168 135.424,38.3502 131.5,34.5C 130.719,35.7287 130.219,37.062 130,38.5C 129.464,36.1311 128.297,34.1311 126.5,32.5C 125.914,32.7093 125.414,33.0426 125,33.5C 123.974,30.3072 121.808,28.9738 118.5,29.5C 118.657,30.8734 118.49,32.2068 118,33.5C 118.185,29.4887 116.352,27.4887 112.5,27.5C 112.5,27.1667 112.5,26.8333 112.5,26.5C 113.568,25.5655 114.901,25.2322 116.5,25.5C 118.401,25.5668 120.234,25.2335 122,24.5C 123.722,24.6107 123.888,25.1107 122.5,26C 125.5,26.3333 128.5,26.6667 131.5,27C 131.167,27.3333 130.833,27.6667 130.5,28C 132.645,32.4893 136.145,34.9893 141,35.5C 141.311,36.7425 140.811,37.7425 139.5,38.5C 140.689,39.4287 142.022,39.762 143.5,39.5C 144.647,43.7586 146.481,47.7586 149,51.5C 149.251,53.433 149.751,55.2663 150.5,57C 150.167,57.3333 149.833,57.6667 149.5,58C 151.477,60.0429 152.477,62.5429 152.5,65.5 Z"/></g>
<g><path style="opacity:1" fill="#111770" d="M 73.5,42.5 C 72.0697,43.5375 70.403,44.2041 68.5,44.5C 66.7376,44.6427 65.0709,44.3094 63.5,43.5C 61.8888,44.3202 61.2222,45.6536 61.5,47.5C 60.5,47.5 59.5,47.5 58.5,47.5C 58.5,46.5 58.5,45.5 58.5,44.5C 52.7255,44.2259 47.3922,42.7259 42.5,40C 44.744,39.9504 46.4107,39.1171 47.5,37.5C 50.7635,36.5178 54.0968,35.8511 57.5,35.5C 58.5832,35.5394 59.5832,35.8728 60.5,36.5C 61.2807,35.2634 62.2807,34.2634 63.5,33.5C 64.7112,34.2739 64.7112,35.1072 63.5,36C 65.5883,37.0296 67.755,37.8629 70,38.5C 71.749,39.4098 72.9157,40.7431 73.5,42.5 Z"/></g>
<g><path style="opacity:1" fill="#6387bf" d="M 13.5,39.5 C 14.1174,39.6107 14.6174,39.944 15,40.5C 15.4966,42.8098 15.6633,45.1432 15.5,47.5C 14.2318,45.0948 13.5651,42.4282 13.5,39.5 Z"/></g>
<g><path style="opacity:1" fill="#d2d3d3" d="M 86.5,37.5 C 87.1667,37.5 87.8333,37.5 88.5,37.5C 89.5,38.1667 90.5,38.8333 91.5,39.5C 90.1667,39.5 88.8333,39.5 87.5,39.5C 87.5,44.5 87.5,49.5 87.5,54.5C 87.1667,54.5 86.8333,54.5 86.5,54.5C 85.0689,54.1193 84.2355,53.1193 84,51.5C 82.6218,53.2134 80.9552,54.5467 79,55.5C 78.487,53.4794 77.3203,51.9794 75.5,51C 76.3081,50.6924 76.9747,50.1924 77.5,49.5C 76.2974,46.8401 76.2974,44.1735 77.5,41.5C 79.9674,41.2451 81.9674,40.2451 83.5,38.5C 84.391,37.8902 85.391,37.5569 86.5,37.5 Z"/></g>
<g><path style="opacity:1" fill="#abb7cf" d="M 91.5,39.5 C 91.5,39.8333 91.5,40.1667 91.5,40.5C 90.5,40.5 89.5,40.5 88.5,40.5C 88.5,44.8333 88.5,49.1667 88.5,53.5C 88.5,54.1667 88.1667,54.5 87.5,54.5C 87.5,49.5 87.5,44.5 87.5,39.5C 88.8333,39.5 90.1667,39.5 91.5,39.5 Z"/></g>
<g><path style="opacity:1" fill="#143181" d="M 43.5,37.5 C 44.8333,37.5 46.1667,37.5 47.5,37.5C 46.4107,39.1171 44.744,39.9504 42.5,40C 47.3922,42.7259 52.7255,44.2259 58.5,44.5C 58.5,45.5 58.5,46.5 58.5,47.5C 59.5,47.5 60.5,47.5 61.5,47.5C 61.2222,45.6536 61.8888,44.3202 63.5,43.5C 65.0709,44.3094 66.7376,44.6427 68.5,44.5C 66.636,46.0138 64.636,47.3472 62.5,48.5C 59.8333,48.8333 57.1667,49.1667 54.5,49.5C 52.6334,49.045 50.8001,48.3784 49,47.5C 43.5722,47.714 38.4056,47.714 33.5,47.5C 40.993,47.3796 41.993,45.213 36.5,41C 37.5707,40.1482 38.5707,39.3149 39.5,38.5C 41.099,38.7678 42.4324,38.4345 43.5,37.5 Z"/></g>
<g><path style="opacity:1" fill="#9d9fb7" d="M 62.5,48.5 C 62.6495,49.552 62.4828,50.552 62,51.5C 59.2043,50.3213 56.3709,50.3213 53.5,51.5C 53.8333,50.8333 54.1667,50.1667 54.5,49.5C 57.1667,49.1667 59.8333,48.8333 62.5,48.5 Z"/></g>
<g><path style="opacity:1" fill="#263e88" d="M 92.5,48.5 C 92.5,49.5 92.5,50.5 92.5,51.5C 93.8333,51.5 95.1667,51.5 96.5,51.5C 97.8333,51.5 98.5,52.1667 98.5,53.5C 97.8333,54.5 97.1667,55.5 96.5,56.5C 95.5041,56.4142 94.6708,56.7476 94,57.5C 93.5026,60.146 93.3359,62.8127 93.5,65.5C 92.9348,63.6136 91.9348,61.9469 90.5,60.5C 89.8281,61.9492 89.1614,63.2825 88.5,64.5C 88.5,63.5 88.5,62.5 88.5,61.5C 87.5,61.5 86.5,61.5 85.5,61.5C 87.2785,60.3303 88.2785,58.6636 88.5,56.5C 86.7839,56.6287 85.1172,56.962 83.5,57.5C 84.3065,56.2719 85.3065,55.2719 86.5,54.5C 86.8333,54.5 87.1667,54.5 87.5,54.5C 88.1667,54.5 88.5,54.1667 88.5,53.5C 89.4511,52.0813 89.7845,50.4147 89.5,48.5C 90.5,48.5 91.5,48.5 92.5,48.5 Z"/></g>
<g><path style="opacity:1" fill="#7896c7" d="M 115.5,54.5 C 114.834,50.6475 114.167,46.6475 113.5,42.5C 111.382,43.9459 109.049,44.6126 106.5,44.5C 109.084,42.5275 112.084,41.5275 115.5,41.5C 115.5,45.8333 115.5,50.1667 115.5,54.5 Z"/></g>
<g><path style="opacity:1" fill="#25549f" d="M 91.5,40.5 C 93.1475,42.3264 95.1475,43.6597 97.5,44.5C 98.9196,47.3489 100.92,48.0156 103.5,46.5C 105.027,46.573 106.027,45.9063 106.5,44.5C 109.049,44.6126 111.382,43.9459 113.5,42.5C 114.167,46.6475 114.834,50.6475 115.5,54.5C 117.195,56.3437 119.195,57.6771 121.5,58.5C 121.973,59.9063 122.973,60.573 124.5,60.5C 125.398,61.1577 126.398,61.8243 127.5,62.5C 125.79,63.8872 124.123,65.2206 122.5,66.5C 121.167,67.1667 119.833,67.8333 118.5,68.5C 118.167,68.5 117.833,68.5 117.5,68.5C 116.047,67.1751 116.381,66.3418 118.5,66C 116.576,65.8208 114.909,65.6541 113.5,65.5C 114.358,62.3805 115.358,59.3805 116.5,56.5C 115.5,56.5 114.5,56.5 113.5,56.5C 113.077,60.7468 112.077,64.7468 110.5,68.5C 110.5,64.8333 110.5,61.1667 110.5,57.5C 108.09,56.6165 105.757,55.4498 103.5,54C 101.866,53.5065 100.199,53.3398 98.5,53.5C 98.5,52.1667 97.8333,51.5 96.5,51.5C 96.3066,48.4299 94.9733,47.4299 92.5,48.5C 91.5,48.5 90.5,48.5 89.5,48.5C 89.7845,50.4147 89.4511,52.0813 88.5,53.5C 88.5,49.1667 88.5,44.8333 88.5,40.5C 89.5,40.5 90.5,40.5 91.5,40.5 Z"/></g>
<g><path style="opacity:1" fill="#7588b7" d="M 96.5,51.5 C 95.1667,51.5 93.8333,51.5 92.5,51.5C 92.5,50.5 92.5,49.5 92.5,48.5C 94.9733,47.4299 96.3066,48.4299 96.5,51.5 Z"/></g>
<g><path style="opacity:1" fill="#9bb4d2" d="M 107.5,48.5 C 108.5,48.5 109.5,48.5 110.5,48.5C 110.5,49.5 110.5,50.5 110.5,51.5C 109.5,51.5 108.5,51.5 107.5,51.5C 107.5,50.5 107.5,49.5 107.5,48.5 Z"/></g>
<g><path style="opacity:1" fill="#8699ba" d="M 97.5,44.5 C 99.3146,45.6298 101.315,46.2964 103.5,46.5C 100.92,48.0156 98.9196,47.3489 97.5,44.5 Z"/></g>
<g><path style="opacity:1" fill="#7198c2" d="M 106.5,44.5 C 106.027,45.9063 105.027,46.573 103.5,46.5C 103.973,45.0937 104.973,44.427 106.5,44.5 Z"/></g>
<g><path style="opacity:1" fill="#cecece" d="M 70.5,66.5 C 68.9705,65.9332 67.4705,65.2666 66,64.5C 64.1925,60.3855 62.3592,56.3855 60.5,52.5C 59.448,52.3505 58.448,52.5172 57.5,53C 58.6956,53.6543 58.6956,54.1543 57.5,54.5C 56.2638,53.7542 54.9305,53.4208 53.5,53.5C 51.3743,52.8968 49.0409,52.8968 46.5,53.5C 48.5145,52.0762 50.8478,51.4095 53.5,51.5C 56.3709,50.3213 59.2043,50.3213 62,51.5C 62.4828,50.552 62.6495,49.552 62.5,48.5C 64.1667,48.5 65.8333,48.5 67.5,48.5C 67.3118,50.1033 67.8118,51.4366 69,52.5C 69.7429,50.5594 69.5762,48.7261 68.5,47C 70.5364,46.5464 72.3697,45.7131 74,44.5C 74.5,44.8333 75,45.1667 75.5,45.5C 74.8333,46.1667 74.1667,46.8333 73.5,47.5C 74.8333,48.8333 74.8333,50.1667 73.5,51.5C 74.898,53.1303 75.898,54.9637 76.5,57C 74.709,59.1062 74.0423,61.6062 74.5,64.5C 72.5168,64.1568 71.1834,64.8235 70.5,66.5 Z"/></g>
<g><path style="opacity:1" fill="#6d8ebf" d="M 16.5,52.5 C 24.4659,53.3649 32.4659,53.6982 40.5,53.5C 35.0247,54.4889 29.358,54.8222 23.5,54.5C 20.8478,54.5905 18.5145,53.9238 16.5,52.5 Z"/></g>
<g><path style="opacity:1" fill="#dadada" d="M 70.5,66.5 C 72.1667,66.5 73.8333,66.5 75.5,66.5C 75.2786,67.7348 74.6119,68.7348 73.5,69.5C 77.0817,73.6545 79.9151,78.3212 82,83.5C 82.9195,83.9302 83.7528,84.2635 84.5,84.5C 83.8333,85.1667 83.1667,85.8333 82.5,86.5C 84.4414,88.3159 85.1081,90.3159 84.5,92.5C 85.2531,94.7534 86.5864,96.5867 88.5,98C 87.6634,99.0113 87.33,100.178 87.5,101.5C 91.1233,101.649 91.4566,102.816 88.5,105C 88.7432,105.902 89.0766,106.735 89.5,107.5C 87.7952,109.192 85.7952,110.525 83.5,111.5C 83.2504,110.078 82.417,109.078 81,108.5C 80.7272,103.191 79.7272,97.8578 78,92.5C 76.3097,88.4598 74.643,84.4598 73,80.5C 69.4687,77.9746 67.1354,74.6412 66,70.5C 64.5587,69.13 62.892,68.13 61,67.5C 60.6667,66.1667 60.3333,64.8333 60,63.5C 59.7104,65.0441 59.0437,66.3774 58,67.5C 56.1893,62.9208 54.6893,58.2542 53.5,53.5C 54.9305,53.4208 56.2638,53.7542 57.5,54.5C 58.6956,54.1543 58.6956,53.6543 57.5,53C 58.448,52.5172 59.448,52.3505 60.5,52.5C 62.3592,56.3855 64.1925,60.3855 66,64.5C 67.4705,65.2666 68.9705,65.9332 70.5,66.5 Z"/></g>
<g><path style="opacity:1" fill="#504c88" d="M 83.5,57.5 C 82.3406,59.2503 80.674,60.2503 78.5,60.5C 79.4856,58.5923 81.1523,57.5923 83.5,57.5 Z"/></g>
<g><path style="opacity:1" fill="#4f73ae" d="M 174.5,57.5 C 177.833,57.5 181.167,57.5 184.5,57.5C 184.5,58.5 184.5,59.5 184.5,60.5C 183.601,59.5285 182.434,58.8618 181,58.5C 177.542,59.2865 174.042,59.6198 170.5,59.5C 170.5,59.1667 170.5,58.8333 170.5,58.5C 172.099,58.7678 173.432,58.4345 174.5,57.5 Z"/></g>
<g><path style="opacity:1" fill="#7196c8" d="M 121.5,58.5 C 123.027,58.427 124.027,59.0937 124.5,60.5C 122.973,60.573 121.973,59.9063 121.5,58.5 Z"/></g>
<g><path style="opacity:1" fill="#fcfcfc" d="M 37.5,60.5 C 38.404,61.209 38.7373,62.209 38.5,63.5C 39.5,63.5 40.5,63.5 41.5,63.5C 41.3433,64.8734 41.51,66.2068 42,67.5C 44.7349,70.5743 47.7349,73.241 51,75.5C 51.6172,76.4491 51.4506,77.2825 50.5,78C 56.554,86.7144 59.8874,96.7144 60.5,108C 59.8333,108.667 59.1667,109.333 58.5,110C 54.7778,110.238 51.1111,110.738 47.5,111.5C 39.3092,101.916 32.9759,91.2498 28.5,79.5C 41.805,79.6937 43.1384,75.527 32.5,67C 34.1341,66.5065 35.8008,66.3398 37.5,66.5C 37.5,64.5 37.5,62.5 37.5,60.5 Z"/></g>
<g><path style="opacity:1" fill="#7a81ad" d="M 170.5,59.5 C 169.5,60.1667 168.5,60.8333 167.5,61.5C 166.209,61.2627 165.209,61.596 164.5,62.5C 162.784,62.6287 161.117,62.962 159.5,63.5C 162.626,61.0103 166.292,59.677 170.5,59.5 Z"/></g>
<g><path style="opacity:1" fill="#b1b0c3" d="M 96.5,56.5 C 95.4113,60.0779 95.2446,63.7446 96,67.5C 97.6268,68.5323 98.7934,69.8656 99.5,71.5C 96.1667,70.8333 94.1667,68.8333 93.5,65.5C 93.3359,62.8127 93.5026,60.146 94,57.5C 94.6708,56.7476 95.5041,56.4142 96.5,56.5 Z"/></g>
<g><path style="opacity:1" fill="#dddddf" d="M 98.5,53.5 C 100.199,53.3398 101.866,53.5065 103.5,54C 105.757,55.4498 108.09,56.6165 110.5,57.5C 110.5,61.1667 110.5,64.8333 110.5,68.5C 108.147,69.3403 106.147,70.6736 104.5,72.5C 102.784,72.3713 101.117,72.038 99.5,71.5C 98.7934,69.8656 97.6268,68.5323 96,67.5C 95.2446,63.7446 95.4113,60.0779 96.5,56.5C 97.1667,55.5 97.8333,54.5 98.5,53.5 Z"/></g>
<g><path style="opacity:1" fill="#9bafd3" d="M 115.5,61.5 C 116.5,61.5 117.5,61.5 118.5,61.5C 118.5,62.5 118.5,63.5 118.5,64.5C 117.5,64.5 116.5,64.5 115.5,64.5C 115.5,63.5 115.5,62.5 115.5,61.5 Z"/></g>
<g><path style="opacity:1" fill="#c0c0c6" d="M 75.5,41.5 C 76.1667,41.5 76.8333,41.5 77.5,41.5C 76.2974,44.1735 76.2974,46.8401 77.5,49.5C 76.9747,50.1924 76.3081,50.6924 75.5,51C 77.3203,51.9794 78.487,53.4794 79,55.5C 80.9552,54.5467 82.6218,53.2134 84,51.5C 84.2355,53.1193 85.0689,54.1193 86.5,54.5C 85.3065,55.2719 84.3065,56.2719 83.5,57.5C 81.1523,57.5923 79.4856,58.5923 78.5,60.5C 75.2855,60.9865 74.9522,61.9865 77.5,63.5C 78.2623,65.2624 79.5956,66.2624 81.5,66.5C 81.8417,67.3382 82.5084,67.6716 83.5,67.5C 83.9731,68.9063 84.9731,69.573 86.5,69.5C 87.7298,71.2972 88.3964,73.2972 88.5,75.5C 87.6219,77.8729 85.9552,78.7062 83.5,78C 85.8075,77.6458 86.1408,76.6458 84.5,75C 85.0223,74.0497 85.689,73.2164 86.5,72.5C 86.1667,72.1667 85.8333,71.8333 85.5,71.5C 81.2449,74.2773 79.5782,72.944 80.5,67.5C 78.7085,67.634 77.0418,67.3007 75.5,66.5C 73.8333,66.5 72.1667,66.5 70.5,66.5C 71.1834,64.8235 72.5168,64.1568 74.5,64.5C 74.0423,61.6062 74.709,59.1062 76.5,57C 75.898,54.9637 74.898,53.1303 73.5,51.5C 74.8333,50.1667 74.8333,48.8333 73.5,47.5C 74.1667,46.8333 74.8333,46.1667 75.5,45.5C 75,45.1667 74.5,44.8333 74,44.5C 72.3697,45.7131 70.5364,46.5464 68.5,47C 69.5762,48.7261 69.7429,50.5594 69,52.5C 67.8118,51.4366 67.3118,50.1033 67.5,48.5C 65.8333,48.5 64.1667,48.5 62.5,48.5C 64.636,47.3472 66.636,46.0138 68.5,44.5C 70.403,44.2041 72.0697,43.5375 73.5,42.5C 74.4916,42.6716 75.1583,42.3382 75.5,41.5 Z"/></g>
<g><path style="opacity:1" fill="#676690" d="M 77.5,63.5 C 79.4044,63.7376 80.7377,64.7376 81.5,66.5C 79.5956,66.2624 78.2623,65.2624 77.5,63.5 Z"/></g>
<g><path style="opacity:1" fill="#191b73" d="M 85.5,61.5 C 84.4655,63.817 85.4655,64.817 88.5,64.5C 89.1614,63.2825 89.8281,61.9492 90.5,60.5C 91.9348,61.9469 92.9348,63.6136 93.5,65.5C 94.1667,68.8333 96.1667,70.8333 99.5,71.5C 102.223,73.8848 105.223,75.8848 108.5,77.5C 108.649,78.552 108.483,79.552 108,80.5C 106.322,78.4468 104.489,78.1134 102.5,79.5C 100.77,80.0256 99.4363,81.0256 98.5,82.5C 96.2163,82.9752 94.2163,83.9752 92.5,85.5C 90.8616,81.0874 89.8616,76.4208 89.5,71.5C 89.0269,70.0937 88.0269,69.427 86.5,69.5C 86.0269,68.0937 85.0269,67.427 83.5,67.5C 82.5084,67.6716 81.8417,67.3382 81.5,66.5C 80.7377,64.7376 79.4044,63.7376 77.5,63.5C 74.9522,61.9865 75.2855,60.9865 78.5,60.5C 80.674,60.2503 82.3406,59.2503 83.5,57.5C 85.1172,56.962 86.7839,56.6287 88.5,56.5C 88.2785,58.6636 87.2785,60.3303 85.5,61.5 Z"/></g>
<g><path style="opacity:1" fill="#807ea6" d="M 85.5,61.5 C 86.5,61.5 87.5,61.5 88.5,61.5C 88.5,62.5 88.5,63.5 88.5,64.5C 85.4655,64.817 84.4655,63.817 85.5,61.5 Z"/></g>
<g><path style="opacity:1" fill="#c8d3e8" d="M 124.5,60.5 C 127.95,59.7564 129.616,61.0897 129.5,64.5C 127.263,65.449 124.929,66.1156 122.5,66.5C 124.123,65.2206 125.79,63.8872 127.5,62.5C 126.398,61.8243 125.398,61.1577 124.5,60.5 Z"/></g>
<g><path style="opacity:1" fill="#7879a3" d="M 152.5,65.5 C 152.833,65.5 153.167,65.5 153.5,65.5C 153.027,66.9063 152.027,67.573 150.5,67.5C 150.833,66.5 151.5,65.8333 152.5,65.5 Z"/></g>
<g><path style="opacity:1" fill="#1c4b9a" d="M 184.5,60.5 C 185.338,60.8417 185.672,61.5084 185.5,62.5C 185.649,63.552 185.483,64.552 185,65.5C 183.378,66.0989 181.878,66.7656 180.5,67.5C 178.139,67.6741 175.806,68.0074 173.5,68.5C 174.949,66.8356 176.949,66.0023 179.5,66C 180.451,65.2825 180.617,64.4491 180,63.5C 177.768,62.5917 175.601,61.5917 173.5,60.5C 171.547,61.1556 169.547,61.4889 167.5,61.5C 168.5,60.8333 169.5,60.1667 170.5,59.5C 174.042,59.6198 177.542,59.2865 181,58.5C 182.434,58.8618 183.601,59.5285 184.5,60.5 Z"/></g>
<g><path style="opacity:1" fill="#a3b4d5" d="M 185.5,62.5 C 187.176,66.8332 185.509,68.4998 180.5,67.5C 181.878,66.7656 183.378,66.0989 185,65.5C 185.483,64.552 185.649,63.552 185.5,62.5 Z"/></g>
<g><path style="opacity:1" fill="#cfd0d0" d="M 75.5,66.5 C 77.0418,67.3007 78.7085,67.634 80.5,67.5C 79.5782,72.944 81.2449,74.2773 85.5,71.5C 85.8333,71.8333 86.1667,72.1667 86.5,72.5C 85.689,73.2164 85.0223,74.0497 84.5,75C 86.1408,76.6458 85.8075,77.6458 83.5,78C 85.9552,78.7062 87.6219,77.8729 88.5,75.5C 88.1832,79.7016 88.5166,83.7016 89.5,87.5C 90.791,87.7373 91.791,87.404 92.5,86.5C 94.9663,85.7023 96.9663,84.369 98.5,82.5C 100.764,81.7814 103.097,81.448 105.5,81.5C 108.45,82.3084 111.117,83.6418 113.5,85.5C 114.209,86.404 115.209,86.7373 116.5,86.5C 116.179,80.9738 116.512,75.6405 117.5,70.5C 118.448,74.9311 118.614,79.5978 118,84.5C 118.671,85.2524 119.504,85.5858 120.5,85.5C 120.167,86.1667 119.833,86.8333 119.5,87.5C 118.833,87.5 118.5,87.8333 118.5,88.5C 116.368,88.5544 115.035,89.5544 114.5,91.5C 109.196,94.8122 104.196,98.4788 99.5,102.5C 96.8021,102.845 94.8021,104.178 93.5,106.5C 92.8333,106.833 92.1667,107.167 91.5,107.5C 90.8333,107.5 90.1667,107.5 89.5,107.5C 89.0766,106.735 88.7432,105.902 88.5,105C 91.4566,102.816 91.1233,101.649 87.5,101.5C 87.33,100.178 87.6634,99.0113 88.5,98C 86.5864,96.5867 85.2531,94.7534 84.5,92.5C 85.1081,90.3159 84.4414,88.3159 82.5,86.5C 83.1667,85.8333 83.8333,85.1667 84.5,84.5C 83.7528,84.2635 82.9195,83.9302 82,83.5C 79.9151,78.3212 77.0817,73.6545 73.5,69.5C 74.6119,68.7348 75.2786,67.7348 75.5,66.5 Z"/></g>
<g><path style="opacity:1" fill="#082f84" d="M 173.5,68.5 C 170.687,68.0246 168.687,69.0246 167.5,71.5C 166.833,71.5 166.167,71.5 165.5,71.5C 166.791,70.5272 166.791,69.5272 165.5,68.5C 166.376,67.7492 167.376,67.2492 168.5,67C 167.717,64.8816 166.384,63.3816 164.5,62.5C 165.209,61.596 166.209,61.2627 167.5,61.5C 169.547,61.4889 171.547,61.1556 173.5,60.5C 175.601,61.5917 177.768,62.5917 180,63.5C 180.617,64.4491 180.451,65.2825 179.5,66C 176.949,66.0023 174.949,66.8356 173.5,68.5 Z"/></g>
<g><path style="opacity:1" fill="#706e98" d="M 83.5,67.5 C 85.0269,67.427 86.0269,68.0937 86.5,69.5C 84.9731,69.573 83.9731,68.9063 83.5,67.5 Z"/></g>
<g><path style="opacity:1" fill="#6878aa" d="M 150.5,67.5 C 150.5,67.8333 150.5,68.1667 150.5,68.5C 147.503,69.8281 144.503,71.1614 141.5,72.5C 141.5,72.1667 141.5,71.8333 141.5,71.5C 144.127,69.3993 147.127,68.0659 150.5,67.5 Z"/></g>
<g><path style="opacity:1" fill="#51619a" d="M 173.5,68.5 C 171.544,69.4918 169.544,70.4918 167.5,71.5C 168.687,69.0246 170.687,68.0246 173.5,68.5 Z"/></g>
<g><path style="opacity:1" fill="#e5e7e6" d="M 53.5,53.5 C 54.6893,58.2542 56.1893,62.9208 58,67.5C 59.0437,66.3774 59.7104,65.0441 60,63.5C 60.3333,64.8333 60.6667,66.1667 61,67.5C 62.892,68.13 64.5587,69.13 66,70.5C 67.1354,74.6412 69.4687,77.9746 73,80.5C 74.643,84.4598 76.3097,88.4598 78,92.5C 79.7272,97.8578 80.7272,103.191 81,108.5C 82.417,109.078 83.2504,110.078 83.5,111.5C 83.5,111.833 83.5,112.167 83.5,112.5C 78.9024,113.465 74.9024,115.465 71.5,118.5C 70.8333,118.5 70.1667,118.5 69.5,118.5C 70.3759,116.02 71.7092,113.853 73.5,112C 72.552,111.517 71.552,111.351 70.5,111.5C 71.1465,106.173 70.6465,100.84 69,95.5C 64.5421,88.2496 60.8755,80.583 58,72.5C 55.8526,71.8875 53.686,71.2208 51.5,70.5C 50.0182,66.2608 48.8516,61.9275 48,57.5C 39.8055,55.9884 31.6388,54.9884 23.5,54.5C 29.358,54.8222 35.0247,54.4889 40.5,53.5C 42.5,53.5 44.5,53.5 46.5,53.5C 49.0409,52.8968 51.3743,52.8968 53.5,53.5 Z"/></g>
<g><path style="opacity:1" fill="#5b74a3" d="M 110.5,68.5 C 109.198,70.8218 107.198,72.1551 104.5,72.5C 106.147,70.6736 108.147,69.3403 110.5,68.5 Z"/></g>
<g><path style="opacity:1" fill="#141a73" d="M 164.5,62.5 C 166.384,63.3816 167.717,64.8816 168.5,67C 167.376,67.2492 166.376,67.7492 165.5,68.5C 166.791,69.5272 166.791,70.5272 165.5,71.5C 164.833,72.1667 164.167,72.8333 163.5,73.5C 159.505,74.0007 155.838,75.3341 152.5,77.5C 151.761,77.631 151.094,77.4643 150.5,77C 149.262,74.0927 149.262,71.2594 150.5,68.5C 150.5,68.1667 150.5,67.8333 150.5,67.5C 152.027,67.573 153.027,66.9063 153.5,65.5C 155.5,64.8333 157.5,64.1667 159.5,63.5C 161.117,62.962 162.784,62.6287 164.5,62.5 Z"/></g>
<g><path style="opacity:1" fill="#6581b4" d="M 139.5,73.5 C 139.027,74.9063 138.027,75.573 136.5,75.5C 136.973,74.0937 137.973,73.427 139.5,73.5 Z"/></g>
<g><path style="opacity:1" fill="#898aa5" d="M 96.5,74.5 C 97.8333,75.5 97.8333,76.5 96.5,77.5C 93.8333,76.5 93.8333,75.5 96.5,74.5 Z"/></g>
<g><path style="opacity:1" fill="#6d80b8" d="M 136.5,75.5 C 136.167,76.5 135.5,77.1667 134.5,77.5C 134.167,77.5 133.833,77.5 133.5,77.5C 133.973,76.0937 134.973,75.427 136.5,75.5 Z"/></g>
<g><path style="opacity:1" fill="#5c598e" d="M 96.5,74.5 C 93.8333,75.5 93.8333,76.5 96.5,77.5C 95.791,78.404 94.791,78.7373 93.5,78.5C 93.5,76.8333 93.5,75.1667 93.5,73.5C 94.791,73.2627 95.791,73.596 96.5,74.5 Z"/></g>
<g><path style="opacity:1" fill="#09358a" d="M 150.5,68.5 C 149.262,71.2594 149.262,74.0927 150.5,77C 151.094,77.4643 151.761,77.631 152.5,77.5C 152.5,77.8333 152.5,78.1667 152.5,78.5C 149.802,78.8449 147.802,80.1782 146.5,82.5C 144.973,82.427 143.973,83.0937 143.5,84.5C 142.167,84.8333 140.833,85.1667 139.5,85.5C 137.193,85.0137 135.027,85.0137 133,85.5C 133.73,82.9792 134.23,80.3126 134.5,77.5C 135.5,77.1667 136.167,76.5 136.5,75.5C 138.027,75.573 139.027,74.9063 139.5,73.5C 139.842,72.6618 140.508,72.3284 141.5,72.5C 144.503,71.1614 147.503,69.8281 150.5,68.5 Z"/></g>
<g><path style="opacity:1" fill="#9697b1" d="M 86.5,69.5 C 88.0269,69.427 89.0269,70.0937 89.5,71.5C 89.5,76.8333 89.5,82.1667 89.5,87.5C 88.5166,83.7016 88.1832,79.7016 88.5,75.5C 88.3964,73.2972 87.7298,71.2972 86.5,69.5 Z"/></g>
<g><path style="opacity:1" fill="#aaa8ba" d="M 163.5,73.5 C 161.97,75.3465 159.97,76.3465 157.5,76.5C 157.528,80.4837 155.861,81.4837 152.5,79.5C 152.5,79.1667 152.5,78.8333 152.5,78.5C 152.5,78.1667 152.5,77.8333 152.5,77.5C 155.838,75.3341 159.505,74.0007 163.5,73.5 Z"/></g>
<g><path style="opacity:1" fill="#1c4491" d="M 117.5,68.5 C 116.883,68.6107 116.383,68.944 116,69.5C 116.122,75.2599 115.289,80.5932 113.5,85.5C 111.117,83.6418 108.45,82.3084 105.5,81.5C 105.179,79.9519 104.179,79.2852 102.5,79.5C 104.489,78.1134 106.322,78.4468 108,80.5C 108.483,79.552 108.649,78.552 108.5,77.5C 105.223,75.8848 102.223,73.8848 99.5,71.5C 101.117,72.038 102.784,72.3713 104.5,72.5C 107.198,72.1551 109.198,70.8218 110.5,68.5C 112.077,64.7468 113.077,60.7468 113.5,56.5C 114.5,56.5 115.5,56.5 116.5,56.5C 115.358,59.3805 114.358,62.3805 113.5,65.5C 114.909,65.6541 116.576,65.8208 118.5,66C 116.381,66.3418 116.047,67.1751 117.5,68.5 Z"/></g>
<g><path style="opacity:1" fill="#7283b3" d="M 108.5,77.5 C 107.433,75.1205 108.433,74.1205 111.5,74.5C 111.5,75.5 111.5,76.5 111.5,77.5C 110.5,77.5 109.5,77.5 108.5,77.5 Z"/></g>
<g><path style="opacity:1" fill="#8299c2" d="M 117.5,68.5 C 117.833,68.5 118.167,68.5 118.5,68.5C 118.167,69.1667 117.833,69.8333 117.5,70.5C 116.512,75.6405 116.179,80.9738 116.5,86.5C 115.209,86.7373 114.209,86.404 113.5,85.5C 115.289,80.5932 116.122,75.2599 116,69.5C 116.383,68.944 116.883,68.6107 117.5,68.5 Z"/></g>
<g><path style="opacity:1" fill="#7d98c3" d="M 131.5,78.5 C 130.738,80.2624 129.404,81.2624 127.5,81.5C 128.262,79.7376 129.596,78.7376 131.5,78.5 Z"/></g>
<g><path style="opacity:1" fill="#a3a3be" d="M 102.5,79.5 C 104.179,79.2852 105.179,79.9519 105.5,81.5C 103.097,81.448 100.764,81.7814 98.5,82.5C 99.4363,81.0256 100.77,80.0256 102.5,79.5 Z"/></g>
<g><path style="opacity:1" fill="#7682ab" d="M 152.5,78.5 C 152.5,78.8333 152.5,79.1667 152.5,79.5C 150.544,80.4918 148.544,81.4918 146.5,82.5C 147.802,80.1782 149.802,78.8449 152.5,78.5 Z"/></g>
<g><path style="opacity:1" fill="#cfd0d3" d="M 180.5,67.5 C 178.622,68.2076 176.955,69.3743 175.5,71C 176.308,71.3076 176.975,71.8076 177.5,72.5C 168.183,77.4973 158.85,82.4973 149.5,87.5C 149.361,86.0809 148.861,84.7476 148,83.5C 146.644,84.3802 145.144,84.7135 143.5,84.5C 143.973,83.0937 144.973,82.427 146.5,82.5C 148.544,81.4918 150.544,80.4918 152.5,79.5C 155.861,81.4837 157.528,80.4837 157.5,76.5C 159.97,76.3465 161.97,75.3465 163.5,73.5C 164.167,72.8333 164.833,72.1667 165.5,71.5C 166.167,71.5 166.833,71.5 167.5,71.5C 169.544,70.4918 171.544,69.4918 173.5,68.5C 175.806,68.0074 178.139,67.6741 180.5,67.5 Z"/></g>
<g><path style="opacity:1" fill="#53508d" d="M 89.5,71.5 C 89.8616,76.4208 90.8616,81.0874 92.5,85.5C 92.5,85.8333 92.5,86.1667 92.5,86.5C 91.791,87.404 90.791,87.7373 89.5,87.5C 89.5,82.1667 89.5,76.8333 89.5,71.5 Z"/></g>
<g><path style="opacity:1" fill="#8483a2" d="M 98.5,82.5 C 96.9663,84.369 94.9663,85.7023 92.5,86.5C 92.5,86.1667 92.5,85.8333 92.5,85.5C 94.2163,83.9752 96.2163,82.9752 98.5,82.5 Z"/></g>
<g><path style="opacity:1" fill="#5f7db8" d="M 120.5,85.5 C 121.167,85.5 121.833,85.5 122.5,85.5C 122.027,86.9063 121.027,87.573 119.5,87.5C 119.833,86.8333 120.167,86.1667 120.5,85.5 Z"/></g>
<g><path style="opacity:1" fill="#7f95bc" d="M 143.5,84.5 C 140.373,87.8979 136.707,90.5646 132.5,92.5C 134.64,89.9387 136.973,87.6054 139.5,85.5C 140.833,85.1667 142.167,84.8333 143.5,84.5 Z"/></g>
<g><path style="opacity:1" fill="#7187b4" d="M 118.5,88.5 C 117.564,89.9744 116.23,90.9744 114.5,91.5C 115.035,89.5544 116.368,88.5544 118.5,88.5 Z"/></g>
<g><path style="opacity:1" fill="#113d8e" d="M 133.5,77.5 C 133.833,77.5 134.167,77.5 134.5,77.5C 134.23,80.3126 133.73,82.9792 133,85.5C 135.027,85.0137 137.193,85.0137 139.5,85.5C 136.973,87.6054 134.64,89.9387 132.5,92.5C 129.527,94.1468 126.86,96.1468 124.5,98.5C 122.205,99.1355 120.539,100.469 119.5,102.5C 118.833,102.5 118.5,102.833 118.5,103.5C 116.368,103.554 115.035,104.554 114.5,106.5C 113.29,106.932 112.29,107.599 111.5,108.5C 109.251,109.08 107.585,110.413 106.5,112.5C 105.391,112.557 104.391,112.89 103.5,113.5C 103.15,111.374 103.15,109.041 103.5,106.5C 105.484,106.617 107.15,105.95 108.5,104.5C 106.647,103.24 104.814,103.24 103,104.5C 102.552,102.591 103.385,101.424 105.5,101C 103.311,100.678 101.311,101.178 99.5,102.5C 104.196,98.4788 109.196,94.8122 114.5,91.5C 116.23,90.9744 117.564,89.9744 118.5,88.5C 118.5,87.8333 118.833,87.5 119.5,87.5C 121.027,87.573 122.027,86.9063 122.5,85.5C 123.579,83.457 125.246,82.1237 127.5,81.5C 129.404,81.2624 130.738,80.2624 131.5,78.5C 132.167,78.1667 132.833,77.8333 133.5,77.5 Z"/></g>
<g><path style="opacity:1" fill="#7a90bd" d="M 124.5,98.5 C 123.421,100.543 121.754,101.876 119.5,102.5C 120.539,100.469 122.205,99.1355 124.5,98.5 Z"/></g>
<g><path style="opacity:1" fill="#58548a" d="M 99.5,102.5 C 97.8525,104.326 95.8525,105.66 93.5,106.5C 94.8021,104.178 96.8021,102.845 99.5,102.5 Z"/></g>
<g><path style="opacity:1" fill="#778db6" d="M 118.5,103.5 C 117.564,104.974 116.23,105.974 114.5,106.5C 115.035,104.554 116.368,103.554 118.5,103.5 Z"/></g>
<g><path style="opacity:1" fill="#5a6298" d="M 89.5,107.5 C 90.1667,107.5 90.8333,107.5 91.5,107.5C 90.2178,109.18 88.5511,110.513 86.5,111.5C 85.609,112.11 84.609,112.443 83.5,112.5C 83.5,112.167 83.5,111.833 83.5,111.5C 85.7952,110.525 87.7952,109.192 89.5,107.5 Z"/></g>
<g><path style="opacity:1" fill="#7d91b9" d="M 111.5,108.5 C 110.415,110.587 108.749,111.92 106.5,112.5C 107.585,110.413 109.251,109.08 111.5,108.5 Z"/></g>
<g><path style="opacity:1" fill="#5169a7" d="M 83.5,112.5 C 80.0177,115.444 76.0177,117.444 71.5,118.5C 74.9024,115.465 78.9024,113.465 83.5,112.5 Z"/></g>
<g><path style="opacity:1" fill="#e2e4e5" d="M 149.5,87.5 C 144.173,91.1583 138.839,94.8249 133.5,98.5C 131.972,104.021 128.306,107.021 122.5,107.5C 117.789,113.029 112.123,117.362 105.5,120.5C 101.047,125.956 95.714,130.29 89.5,133.5C 91.0592,131.376 93.0592,129.709 95.5,128.5C 96.3857,127.675 96.719,126.675 96.5,125.5C 99.2063,124.311 101.54,122.478 103.5,120C 103.011,118.862 102.678,117.695 102.5,116.5C 104.139,115.527 105.473,114.194 106.5,112.5C 108.749,111.92 110.415,110.587 111.5,108.5C 112.29,107.599 113.29,106.932 114.5,106.5C 116.23,105.974 117.564,104.974 118.5,103.5C 118.5,102.833 118.833,102.5 119.5,102.5C 121.754,101.876 123.421,100.543 124.5,98.5C 126.86,96.1468 129.527,94.1468 132.5,92.5C 136.707,90.5646 140.373,87.8979 143.5,84.5C 145.144,84.7135 146.644,84.3802 148,83.5C 148.861,84.7476 149.361,86.0809 149.5,87.5 Z"/></g>
<g><path style="opacity:1" fill="#0e1973" d="M 103.5,113.5 C 101.527,114.806 99.8606,116.473 98.5,118.5C 96.1475,119.34 94.1475,120.674 92.5,122.5C 90.7162,122.893 89.0495,123.559 87.5,124.5C 85.4508,124.294 85.1175,123.461 86.5,122C 85.5,121 84.5,120 83.5,119C 85.2464,118.529 86.913,117.862 88.5,117C 86.0426,115.846 86.0426,114.512 88.5,113C 87.5842,112.722 86.9175,112.222 86.5,111.5C 88.5511,110.513 90.2178,109.18 91.5,107.5C 92.1667,107.167 92.8333,106.833 93.5,106.5C 95.8525,105.66 97.8525,104.326 99.5,102.5C 101.311,101.178 103.311,100.678 105.5,101C 103.385,101.424 102.552,102.591 103,104.5C 104.814,103.24 106.647,103.24 108.5,104.5C 107.15,105.95 105.484,106.617 103.5,106.5C 103.15,109.041 103.15,111.374 103.5,113.5 Z"/></g>
<g><path style="opacity:1" fill="#7d86af" d="M 106.5,112.5 C 105.473,114.194 104.139,115.527 102.5,116.5C 101.395,117.6 100.062,118.267 98.5,118.5C 99.8606,116.473 101.527,114.806 103.5,113.5C 104.391,112.89 105.391,112.557 106.5,112.5 Z"/></g>
<g><path style="opacity:1" fill="#093688" d="M 86.5,111.5 C 86.9175,112.222 87.5842,112.722 88.5,113C 86.0426,114.512 86.0426,115.846 88.5,117C 86.913,117.862 85.2464,118.529 83.5,119C 84.5,120 85.5,121 86.5,122C 85.1175,123.461 85.4508,124.294 87.5,124.5C 87.5,124.833 87.5,125.167 87.5,125.5C 83.268,127.463 79.268,129.797 75.5,132.5C 73.1055,133.015 70.7722,133.681 68.5,134.5C 66.3193,134.716 64.6526,133.883 63.5,132C 65.7695,131.242 67.9361,131.409 70,132.5C 70.8365,130.179 71.1699,127.845 71,125.5C 67.4427,124.674 63.9427,123.674 60.5,122.5C 60.5,122.167 60.5,121.833 60.5,121.5C 61.791,121.737 62.791,121.404 63.5,120.5C 66.5533,120.889 69.22,120.223 71.5,118.5C 76.0177,117.444 80.0177,115.444 83.5,112.5C 84.609,112.443 85.609,112.11 86.5,111.5 Z"/></g>
<g><path style="opacity:1" fill="#718abf" d="M 69.5,118.5 C 70.1667,118.5 70.8333,118.5 71.5,118.5C 69.22,120.223 66.5533,120.889 63.5,120.5C 65.3024,119.542 67.3024,118.875 69.5,118.5 Z"/></g>
<g><path style="opacity:1" fill="#8784aa" d="M 98.5,118.5 C 97.1979,120.822 95.1979,122.155 92.5,122.5C 94.1475,120.674 96.1475,119.34 98.5,118.5 Z"/></g>
<g><path style="opacity:1" fill="#6984b7" d="M 60.5,121.5 C 60.5,121.833 60.5,122.167 60.5,122.5C 57.2356,123.324 53.9023,123.658 50.5,123.5C 50.5,124.833 50.5,126.167 50.5,127.5C 49.5489,126.081 49.2155,124.415 49.5,122.5C 53.1981,122.448 56.8648,122.114 60.5,121.5 Z"/></g>
<g><path style="opacity:1" fill="#7d7ba3" d="M 92.5,122.5 C 91.5144,124.408 89.8477,125.408 87.5,125.5C 87.5,125.167 87.5,124.833 87.5,124.5C 89.0495,123.559 90.7162,122.893 92.5,122.5 Z"/></g>
<g><path style="opacity:1" fill="#cdcdcf" d="M 102.5,116.5 C 102.678,117.695 103.011,118.862 103.5,120C 101.54,122.478 99.2063,124.311 96.5,125.5C 96.719,126.675 96.3857,127.675 95.5,128.5C 93.0592,129.709 91.0592,131.376 89.5,133.5C 88.391,133.557 87.391,133.89 86.5,134.5C 85.448,134.649 84.448,134.483 83.5,134C 84.3802,132.644 84.7135,131.144 84.5,129.5C 85.5,128.167 86.5,126.833 87.5,125.5C 89.8477,125.408 91.5144,124.408 92.5,122.5C 95.1979,122.155 97.1979,120.822 98.5,118.5C 100.062,118.267 101.395,117.6 102.5,116.5 Z"/></g>
<g><path style="opacity:1" fill="#8f9abb" d="M 87.5,125.5 C 86.5,126.833 85.5,128.167 84.5,129.5C 81.5738,130.698 78.5738,131.698 75.5,132.5C 79.268,129.797 83.268,127.463 87.5,125.5 Z"/></g>
<g><path style="opacity:1" fill="#084193" d="M 60.5,122.5 C 63.9427,123.674 67.4427,124.674 71,125.5C 71.1699,127.845 70.8365,130.179 70,132.5C 67.9361,131.409 65.7695,131.242 63.5,132C 64.6526,133.883 66.3193,134.716 68.5,134.5C 67.5,135.167 66.5,135.833 65.5,136.5C 64.1667,136.833 62.8333,137.167 61.5,137.5C 58.5176,137.963 55.5176,138.296 52.5,138.5C 52.7489,134.542 52.0823,130.876 50.5,127.5C 50.5,126.167 50.5,124.833 50.5,123.5C 53.9023,123.658 57.2356,123.324 60.5,122.5 Z"/></g>
<g><path style="opacity:1" fill="#a8b8d3" d="M 50.5,127.5 C 52.0823,130.876 52.7489,134.542 52.5,138.5C 51.8333,137.5 51.1667,136.5 50.5,135.5C 50.5,132.833 50.5,130.167 50.5,127.5 Z"/></g>
<g><path style="opacity:1" fill="#9ba8c8" d="M 75.5,132.5 C 72.887,135.16 69.5537,136.493 65.5,136.5C 66.5,135.833 67.5,135.167 68.5,134.5C 70.7722,133.681 73.1055,133.015 75.5,132.5 Z"/></g>
<g><path style="opacity:1" fill="#e2e4e3" d="M 84.5,129.5 C 84.7135,131.144 84.3802,132.644 83.5,134C 84.448,134.483 85.448,134.649 86.5,134.5C 80.3307,139.088 73.6641,142.922 66.5,146C 62.3121,147.631 57.9788,148.464 53.5,148.5C 53.2819,143.916 52.2819,139.583 50.5,135.5C 51.1667,136.5 51.8333,137.5 52.5,138.5C 54.9664,139.634 57.633,139.801 60.5,139C 61.056,138.617 61.3893,138.117 61.5,137.5C 62.8333,137.167 64.1667,136.833 65.5,136.5C 69.5537,136.493 72.887,135.16 75.5,132.5C 78.5738,131.698 81.5738,130.698 84.5,129.5 Z"/></g>
<g><path style="opacity:1" fill="#a5b2cc" d="M 61.5,137.5 C 61.3893,138.117 61.056,138.617 60.5,139C 57.633,139.801 54.9664,139.634 52.5,138.5C 55.5176,138.296 58.5176,137.963 61.5,137.5 Z"/></g>
</svg>
