<?xml version="1.0" encoding="UTF-8"?>
<!DOCTYPE svg PUBLIC "-//W3C//DTD SVG 1.1//EN" "http://www.w3.org/Graphics/SVG/1.1/DTD/svg11.dtd">
<svg xmlns="http://www.w3.org/2000/svg" version="1.1" width="192px" height="155px" style="shape-rendering:geometricPrecision; text-rendering:geometricPrecision; image-rendering:optimizeQuality; fill-rule:evenodd; clip-rule:evenodd" xmlns:xlink="http://www.w3.org/1999/xlink">
<g><path style="opacity:1" fill="#f5f5f4" d="M -0.5,-0.5 C 63.5,-0.5 127.5,-0.5 191.5,-0.5C 191.5,20.5 191.5,41.5 191.5,62.5C 190.566,63.5676 190.232,64.901 190.5,66.5C 187.239,66.1005 186.572,67.2671 188.5,70C 188.316,71.3756 187.649,72.2089 186.5,72.5C 186.68,68.7144 185.68,65.381 183.5,62.5C 182.677,60.0128 181.677,57.6794 180.5,55.5C 180.975,52.6874 179.975,50.6874 177.5,49.5C 174.582,43.7557 171.082,38.4224 167,33.5C 162.868,26.231 159.035,18.8977 155.5,11.5C 155.445,6.7779 153.112,4.44457 148.5,4.5C 147.167,4.5 145.833,4.5 144.5,4.5C 139.833,4.5 135.167,4.5 130.5,4.5C 129.167,4.5 127.833,4.5 126.5,4.5C 120.793,5.00579 115.126,5.83913 109.5,7C 108.944,7.38258 108.611,7.88258 108.5,8.5C 106.901,8.23219 105.568,8.56552 104.5,9.5C 103.842,10.7933 103.508,12.2933 103.5,14C 103.336,16.5437 104.003,18.7103 105.5,20.5C 105.578,25.0014 107.245,28.6681 110.5,31.5C 113.521,41.2112 118.354,49.8779 125,57.5C 126.122,59.4068 126.955,61.4068 127.5,63.5C 127.92,65.0936 128.586,66.5936 129.5,68C 129.389,69.7215 128.889,69.8882 128,68.5C 126.85,70.7538 126.516,73.0871 127,75.5C 127.833,74.5 128.667,73.5 129.5,72.5C 130.192,73.0253 130.692,73.6919 131,74.5C 131.333,74.1667 131.667,73.8333 132,73.5C 132.667,75.8333 132.667,78.1667 132,80.5C 128.232,78.1107 126.399,79.444 126.5,84.5C 123.757,83.6742 121.257,82.3409 119,80.5C 115.113,67.5953 108.28,56.4286 98.5,47C 88.8309,39.1454 79.4976,30.8121 70.5,22C 66.9287,21.141 63.9287,21.9743 61.5,24.5C 58.9902,24.9267 56.6568,25.5933 54.5,26.5C 53.209,26.2627 52.209,26.596 51.5,27.5C 41.6846,30.5719 31.6846,31.2386 21.5,29.5C 20.609,28.8902 19.609,28.5569 18.5,28.5C 16.3546,27.1516 14.188,26.8182 12,27.5C 10.847,42.0701 13.1803,56.0701 19,69.5C 26.952,83.0773 34.6187,96.7439 42,110.5C 42.3852,115.006 43.8852,119.006 46.5,122.5C 47.3307,125.659 48.3307,128.659 49.5,131.5C 49.5,132.5 49.5,133.5 49.5,134.5C 49.3341,139.511 49.5007,144.511 50,149.5C 50.3879,150.428 51.0546,151.095 52,151.5C 53.1618,150.813 54.3284,150.647 55.5,151C 54.3659,152.016 54.6992,152.683 56.5,153C 54.2922,153.191 52.2922,153.691 50.5,154.5C 33.5,154.5 16.5,154.5 -0.5,154.5C -0.5,102.833 -0.5,51.1667 -0.5,-0.5 Z"/></g>
<g><path style="opacity:1" fill="#bd0409" d="M 130.5,4.5 C 135.167,4.5 139.833,4.5 144.5,4.5C 145.552,6.65509 144.886,6.98842 142.5,5.5C 142.167,6 141.833,6.5 141.5,7C 142.682,8.73513 144.349,9.73513 146.5,10C 143.962,12.3592 144.629,13.8592 148.5,14.5C 148.291,15.086 147.957,15.586 147.5,16C 150.813,23.3179 155.646,29.4846 162,34.5C 162.115,39.7954 163.782,44.7954 167,49.5C 169.282,55.0652 171.282,60.7319 173,66.5C 176.057,70.7737 180.223,72.4404 185.5,71.5C 184.539,68.5739 183.873,65.5739 183.5,62.5C 185.68,65.381 186.68,68.7144 186.5,72.5C 180.726,73.3602 175.059,74.6935 169.5,76.5C 167.707,65.5079 165.04,54.8412 161.5,44.5C 160.167,44.5 158.833,44.5 157.5,44.5C 156.98,40.4616 155.147,37.1283 152,34.5C 151.667,32.8333 151.333,31.1667 151,29.5C 143.867,21.2211 137.034,12.8878 130.5,4.5 Z"/></g>
<g><path style="opacity:1" fill="#e55658" d="M 148.5,4.5 C 153.112,4.44457 155.445,6.7779 155.5,11.5C 154.034,10.653 153.2,9.31966 153,7.5C 150.974,7.08527 149.474,6.08527 148.5,4.5 Z"/></g>
<g><path style="opacity:1" fill="#bd4b49" d="M 126.5,4.5 C 120.754,6.45167 114.754,7.785 108.5,8.5C 108.611,7.88258 108.944,7.38258 109.5,7C 115.126,5.83913 120.793,5.00579 126.5,4.5 Z"/></g>
<g><path style="opacity:1" fill="#a70102" d="M 126.5,4.5 C 127.833,4.5 129.167,4.5 130.5,4.5C 137.034,12.8878 143.867,21.2211 151,29.5C 151.333,31.1667 151.667,32.8333 152,34.5C 155.147,37.1283 156.98,40.4616 157.5,44.5C 158.833,44.5 160.167,44.5 161.5,44.5C 165.04,54.8412 167.707,65.5079 169.5,76.5C 165.644,78.4077 161.644,80.2411 157.5,82C 156.619,82.7083 155.953,83.5416 155.5,84.5C 150.712,87.2875 145.712,89.6208 140.5,91.5C 140.5,90.5 140.5,89.5 140.5,88.5C 145.517,87.1725 148.517,83.8392 149.5,78.5C 149.825,69.293 148.325,60.293 145,51.5C 141.285,45.7751 137.285,40.1084 133,34.5C 128.481,30.9784 124.315,27.145 120.5,23C 118.099,20.9376 115.433,19.2709 112.5,18C 111.299,17.0975 110.465,15.9308 110,14.5C 108.887,15.7111 107.72,15.7111 106.5,14.5C 105.702,14.9569 105.369,15.6236 105.5,16.5C 104.532,14.3926 104.198,12.0593 104.5,9.5C 105.568,8.56552 106.901,8.23219 108.5,8.5C 114.754,7.785 120.754,6.45167 126.5,4.5 Z"/></g>
<g><path style="opacity:1" fill="#b90206" d="M 140.5,88.5 C 138.382,84.3801 136.715,80.0468 135.5,75.5C 139.15,72.6506 139.483,69.3173 136.5,65.5C 136.709,64.914 137.043,64.414 137.5,64C 134.936,58.9676 132.769,53.801 131,48.5C 129.667,47.1667 128.333,45.8333 127,44.5C 126.311,45.3567 125.478,46.0233 124.5,46.5C 122.426,42.852 120.76,39.0187 119.5,35C 118.5,34.3333 117.5,34.3333 116.5,35C 117.731,36.1827 117.731,37.3493 116.5,38.5C 116.235,34.829 114.735,31.829 112,29.5C 111.283,30.0442 110.783,30.7109 110.5,31.5C 107.245,28.6681 105.578,25.0014 105.5,20.5C 105.5,19.1667 105.5,17.8333 105.5,16.5C 105.369,15.6236 105.702,14.9569 106.5,14.5C 107.72,15.7111 108.887,15.7111 110,14.5C 110.465,15.9308 111.299,17.0975 112.5,18C 115.433,19.2709 118.099,20.9376 120.5,23C 124.315,27.145 128.481,30.9784 133,34.5C 137.285,40.1084 141.285,45.7751 145,51.5C 148.325,60.293 149.825,69.293 149.5,78.5C 148.517,83.8392 145.517,87.1725 140.5,88.5 Z"/></g>
<g><path style="opacity:1" fill="#d08586" d="M 104.5,9.5 C 104.198,12.0593 104.532,14.3926 105.5,16.5C 105.5,17.8333 105.5,19.1667 105.5,20.5C 104.003,18.7103 103.336,16.5437 103.5,14C 103.508,12.2933 103.842,10.7933 104.5,9.5 Z"/></g>
<g><path style="opacity:1" fill="#6a9e7c" d="M 51.5,27.5 C 52.209,26.596 53.209,26.2627 54.5,26.5C 55.8333,26.5 57.1667,26.5 58.5,26.5C 58.2627,27.791 58.596,28.791 59.5,29.5C 59.5,31.1667 59.5,32.8333 59.5,34.5C 58.0762,32.4855 57.4095,30.1522 57.5,27.5C 55.5,27.5 53.5,27.5 51.5,27.5 Z"/></g>
<g><path style="opacity:1" fill="#cacaca" d="M 61.5,24.5 C 63.1992,24.3398 64.8659,24.5065 66.5,25C 72.383,31.3855 78.7164,37.2189 85.5,42.5C 91.3229,50.1316 97.1563,57.7983 103,65.5C 109,79.5114 112.167,94.0114 112.5,109C 113.022,109.95 113.689,110.784 114.5,111.5C 113.873,112.417 113.539,113.417 113.5,114.5C 108.88,118.108 104.213,121.775 99.5,125.5C 100.304,116.015 100.971,106.515 101.5,97C 102.021,85.585 99.1881,75.085 93,65.5C 85.8563,56.2124 77.8563,47.5457 69,39.5C 68.5396,35.0205 66.3729,31.5205 62.5,29C 61.4232,28.5304 60.4232,28.6971 59.5,29.5C 58.596,28.791 58.2627,27.791 58.5,26.5C 57.1667,26.5 55.8333,26.5 54.5,26.5C 56.6568,25.5933 58.9902,24.9267 61.5,24.5 Z"/></g>
<g><path style="opacity:1" fill="#15970b" d="M 18.5,28.5 C 19.344,30.7593 21.0107,31.7593 23.5,31.5C 25.0607,41.6746 29.5607,50.3413 37,57.5C 37.3333,58.8333 37.6667,60.1667 38,61.5C 42.4073,65.9146 46.074,70.9146 49,76.5C 54.2213,80.1601 57.2213,85.1601 58,91.5C 59.3159,98.0472 60.8159,104.547 62.5,111C 61.4218,115.573 58.7551,118.739 54.5,120.5C 53.0055,120.291 51.8388,119.624 51,118.5C 50.935,120.883 50.1017,121.55 48.5,120.5C 47.8182,121.243 47.1515,121.909 46.5,122.5C 43.8852,119.006 42.3852,115.006 42,110.5C 34.6187,96.7439 26.952,83.0773 19,69.5C 13.1803,56.0701 10.847,42.0701 12,27.5C 14.188,26.8182 16.3546,27.1516 18.5,28.5 Z"/></g>
<g><path style="opacity:1" fill="#d00a10" d="M 135.5,75.5 C 133.316,71.1189 130.65,67.1189 127.5,63.5C 126.955,61.4068 126.122,59.4068 125,57.5C 118.354,49.8779 113.521,41.2112 110.5,31.5C 110.783,30.7109 111.283,30.0442 112,29.5C 114.735,31.829 116.235,34.829 116.5,38.5C 117.731,37.3493 117.731,36.1827 116.5,35C 117.5,34.3333 118.5,34.3333 119.5,35C 120.76,39.0187 122.426,42.852 124.5,46.5C 125.478,46.0233 126.311,45.3567 127,44.5C 128.333,45.8333 129.667,47.1667 131,48.5C 132.769,53.801 134.936,58.9676 137.5,64C 137.043,64.414 136.709,64.914 136.5,65.5C 139.483,69.3173 139.15,72.6506 135.5,75.5 Z"/></g>
<g><path style="opacity:1" fill="#d50b12" d="M 144.5,4.5 C 145.833,4.5 147.167,4.5 148.5,4.5C 149.474,6.08527 150.974,7.08527 153,7.5C 153.2,9.31966 154.034,10.653 155.5,11.5C 159.035,18.8977 162.868,26.231 167,33.5C 171.082,38.4224 174.582,43.7557 177.5,49.5C 178.508,51.5439 179.508,53.5439 180.5,55.5C 181.677,57.6794 182.677,60.0128 183.5,62.5C 183.873,65.5739 184.539,68.5739 185.5,71.5C 180.223,72.4404 176.057,70.7737 173,66.5C 171.282,60.7319 169.282,55.0652 167,49.5C 163.782,44.7954 162.115,39.7954 162,34.5C 155.646,29.4846 150.813,23.3179 147.5,16C 147.957,15.586 148.291,15.086 148.5,14.5C 144.629,13.8592 143.962,12.3592 146.5,10C 144.349,9.73513 142.682,8.73513 141.5,7C 141.833,6.5 142.167,6 142.5,5.5C 144.886,6.98842 145.552,6.65509 144.5,4.5 Z"/></g>
<g><path style="opacity:1" fill="#dfdddd" d="M 127.5,63.5 C 130.65,67.1189 133.316,71.1189 135.5,75.5C 136.715,80.0468 138.382,84.3801 140.5,88.5C 140.5,89.5 140.5,90.5 140.5,91.5C 145.712,89.6208 150.712,87.2875 155.5,84.5C 153.008,87.4691 150.508,90.4691 148,93.5C 147.692,92.6919 147.192,92.0253 146.5,91.5C 139.031,96.2573 131.365,101.091 123.5,106C 120.321,109.078 116.988,111.912 113.5,114.5C 113.539,113.417 113.873,112.417 114.5,111.5C 113.689,110.784 113.022,109.95 112.5,109C 112.167,94.0114 109,79.5114 103,65.5C 97.1563,57.7983 91.3229,50.1316 85.5,42.5C 78.7164,37.2189 72.383,31.3855 66.5,25C 64.8659,24.5065 63.1992,24.3398 61.5,24.5C 63.9287,21.9743 66.9287,21.141 70.5,22C 79.4976,30.8121 88.8309,39.1454 98.5,47C 108.28,56.4286 115.113,67.5953 119,80.5C 121.257,82.3409 123.757,83.6742 126.5,84.5C 126.399,79.444 128.232,78.1107 132,80.5C 132.667,78.1667 132.667,75.8333 132,73.5C 131.667,73.8333 131.333,74.1667 131,74.5C 130.692,73.6919 130.192,73.0253 129.5,72.5C 128.667,73.5 127.833,74.5 127,75.5C 126.516,73.0871 126.85,70.7538 128,68.5C 128.889,69.8882 129.389,69.7215 129.5,68C 128.586,66.5936 127.92,65.0936 127.5,63.5 Z"/></g>
<g><path style="opacity:1" fill="#ec7b81" d="M 177.5,49.5 C 179.975,50.6874 180.975,52.6874 180.5,55.5C 179.508,53.5439 178.508,51.5439 177.5,49.5 Z"/></g>
<g><path style="opacity:1" fill="#b1b3b1" d="M 99.5,125.5 C 98.8333,125.833 98.1667,126.167 97.5,126.5C 97.0586,114.274 94.2253,102.607 89,91.5C 88.2917,90.6195 87.4584,89.9528 86.5,89.5C 85.2126,87.3635 84.3793,85.0301 84,82.5C 80.2842,76.3558 76.2842,70.3558 72,64.5C 68.6601,57.7981 65.3267,51.1315 62,44.5C 60.6476,41.2799 59.8143,37.9466 59.5,34.5C 59.5,32.8333 59.5,31.1667 59.5,29.5C 60.4232,28.6971 61.4232,28.5304 62.5,29C 66.3729,31.5205 68.5396,35.0205 69,39.5C 77.8563,47.5457 85.8563,56.2124 93,65.5C 99.1881,75.085 102.021,85.585 101.5,97C 100.971,106.515 100.304,116.015 99.5,125.5 Z"/></g>
<g><path style="opacity:1" fill="#03842b" d="M 27.5,31.5 C 30.7648,31.2991 33.4315,32.4657 35.5,35C 36.6667,37.5 38.5,39.3333 41,40.5C 42.5862,42.6705 43.9196,45.0038 45,47.5C 50.1667,52.3333 55.3333,57.1667 60.5,62C 59.5494,62.7175 59.3828,63.5509 60,64.5C 61,64.8333 62,65.1667 63,65.5C 68.725,73.325 73.725,81.6584 78,90.5C 79.0736,91.6184 80.2402,92.6184 81.5,93.5C 80.689,94.2164 80.0223,95.0497 79.5,96C 80.8749,98.3154 81.8749,100.815 82.5,103.5C 81.1939,107.365 81.1939,111.198 82.5,115C 81.4563,120.576 79.7897,125.91 77.5,131C 80.2594,133.484 79.926,134.65 76.5,134.5C 76.5,136.5 76.5,138.5 76.5,140.5C 69.4632,144.353 61.9632,147.353 54,149.5C 52.6739,149.245 51.6739,148.578 51,147.5C 50.5026,144.854 50.3359,142.187 50.5,139.5C 51.6464,141.475 53.313,142.975 55.5,144C 54.376,144.249 53.376,144.749 52.5,145.5C 54.6472,146.835 56.6472,146.669 58.5,145C 57.8333,144.667 57.1667,144.333 56.5,144C 59.99,141.476 63.1566,138.643 66,135.5C 68.9649,127.543 71.1316,119.376 72.5,111C 70.7789,105.621 69.6123,100.121 69,94.5C 66.3634,90.9284 64.6967,86.9284 64,82.5C 60.1301,77.9766 57.1301,72.9766 55,67.5C 51.9352,66.0644 49.7686,63.7311 48.5,60.5C 45.0815,59.5288 42.9149,56.8621 42,52.5C 41.6667,52.8333 41.3333,53.1667 41,53.5C 40.6667,52.1667 40.3333,50.8333 40,49.5C 36.5538,47.9499 34.5538,45.2832 34,41.5C 30.5637,38.9531 28.397,35.6198 27.5,31.5 Z"/></g>
<g><path style="opacity:1" fill="#f4f5f4" d="M 191.5,62.5 C 191.5,93.1667 191.5,123.833 191.5,154.5C 144.5,154.5 97.5,154.5 50.5,154.5C 52.2922,153.691 54.2922,153.191 56.5,153C 54.6992,152.683 54.3659,152.016 55.5,151C 54.3284,150.647 53.1618,150.813 52,151.5C 51.0546,151.095 50.3879,150.428 50,149.5C 49.5007,144.511 49.3341,139.511 49.5,134.5C 50.4511,135.919 50.7845,137.585 50.5,139.5C 50.3359,142.187 50.5026,144.854 51,147.5C 51.6739,148.578 52.6739,149.245 54,149.5C 61.9632,147.353 69.4632,144.353 76.5,140.5C 77.7095,140.068 78.7095,139.401 79.5,138.5C 85.7949,134.859 91.7949,130.859 97.5,126.5C 98.1667,126.167 98.8333,125.833 99.5,125.5C 104.213,121.775 108.88,118.108 113.5,114.5C 116.988,111.912 120.321,109.078 123.5,106C 131.365,101.091 139.031,96.2573 146.5,91.5C 147.192,92.0253 147.692,92.6919 148,93.5C 150.508,90.4691 153.008,87.4691 155.5,84.5C 155.953,83.5416 156.619,82.7083 157.5,82C 161.644,80.2411 165.644,78.4077 169.5,76.5C 175.059,74.6935 180.726,73.3602 186.5,72.5C 187.649,72.2089 188.316,71.3756 188.5,70C 186.572,67.2671 187.239,66.1005 190.5,66.5C 190.232,64.901 190.566,63.5676 191.5,62.5 Z"/></g>
<g><path style="opacity:1" fill="#07752d" d="M 51.5,27.5 C 53.5,27.5 55.5,27.5 57.5,27.5C 57.4095,30.1522 58.0762,32.4855 59.5,34.5C 59.8143,37.9466 60.6476,41.2799 62,44.5C 65.3267,51.1315 68.6601,57.7981 72,64.5C 76.2842,70.3558 80.2842,76.3558 84,82.5C 84.3793,85.0301 85.2126,87.3635 86.5,89.5C 87.9324,92.457 88.9324,95.6237 89.5,99C 88.785,106.17 87.9517,113.337 87,120.5C 84.1927,126.435 81.6927,132.435 79.5,138.5C 78.7095,139.401 77.7095,140.068 76.5,140.5C 76.5,138.5 76.5,136.5 76.5,134.5C 79.926,134.65 80.2594,133.484 77.5,131C 79.7897,125.91 81.4563,120.576 82.5,115C 81.1939,111.198 81.1939,107.365 82.5,103.5C 81.8749,100.815 80.8749,98.3154 79.5,96C 80.0223,95.0497 80.689,94.2164 81.5,93.5C 80.2402,92.6184 79.0736,91.6184 78,90.5C 73.725,81.6584 68.725,73.325 63,65.5C 62,65.1667 61,64.8333 60,64.5C 59.3828,63.5509 59.5494,62.7175 60.5,62C 55.3333,57.1667 50.1667,52.3333 45,47.5C 43.9196,45.0038 42.5862,42.6705 41,40.5C 38.5,39.3333 36.6667,37.5 35.5,35C 33.4315,32.4657 30.7648,31.2991 27.5,31.5C 26.8333,31.5 26.1667,31.5 25.5,31.5C 24.0048,31.0113 22.6715,30.3446 21.5,29.5C 31.6846,31.2386 41.6846,30.5719 51.5,27.5 Z"/></g>
<g><path style="opacity:1" fill="#028a21" d="M 25.5,31.5 C 26.1667,31.5 26.8333,31.5 27.5,31.5C 28.397,35.6198 30.5637,38.9531 34,41.5C 34.5538,45.2832 36.5538,47.9499 40,49.5C 40.3333,50.8333 40.6667,52.1667 41,53.5C 41.3333,53.1667 41.6667,52.8333 42,52.5C 42.9149,56.8621 45.0815,59.5288 48.5,60.5C 49.7686,63.7311 51.9352,66.0644 55,67.5C 57.1301,72.9766 60.1301,77.9766 64,82.5C 64.6967,86.9284 66.3634,90.9284 69,94.5C 69.6123,100.121 70.7789,105.621 72.5,111C 71.1316,119.376 68.9649,127.543 66,135.5C 63.1566,138.643 59.99,141.476 56.5,144C 57.1667,144.333 57.8333,144.667 58.5,145C 56.6472,146.669 54.6472,146.835 52.5,145.5C 53.376,144.749 54.376,144.249 55.5,144C 53.313,142.975 51.6464,141.475 50.5,139.5C 50.7845,137.585 50.4511,135.919 49.5,134.5C 49.5,133.5 49.5,132.5 49.5,131.5C 50.4474,133.455 51.7807,133.789 53.5,132.5C 54.3857,133.325 54.719,134.325 54.5,135.5C 55.675,135.719 56.675,135.386 57.5,134.5C 58.8393,131.623 60.6726,129.956 63,129.5C 65.6723,123.643 67.1723,117.476 67.5,111C 65.5947,105.668 64.428,100.168 64,94.5C 59.2596,82.9539 52.7596,72.6206 44.5,63.5C 43.2081,61.3334 42.3747,59.0001 42,56.5C 39.2633,55.0126 37.5967,52.6793 37,49.5C 35.3333,47.8333 33.6667,46.1667 32,44.5C 29.5601,40.2486 27.3934,35.9153 25.5,31.5 Z"/></g>
<g><path style="opacity:1" fill="#0a8f15" d="M 18.5,28.5 C 19.609,28.5569 20.609,28.8902 21.5,29.5C 22.6715,30.3446 24.0048,31.0113 25.5,31.5C 27.3934,35.9153 29.5601,40.2486 32,44.5C 33.6667,46.1667 35.3333,47.8333 37,49.5C 37.5967,52.6793 39.2633,55.0126 42,56.5C 42.3747,59.0001 43.2081,61.3334 44.5,63.5C 52.7596,72.6206 59.2596,82.9539 64,94.5C 64.428,100.168 65.5947,105.668 67.5,111C 67.1723,117.476 65.6723,123.643 63,129.5C 60.6726,129.956 58.8393,131.623 57.5,134.5C 56.675,135.386 55.675,135.719 54.5,135.5C 54.719,134.325 54.3857,133.325 53.5,132.5C 51.7807,133.789 50.4474,133.455 49.5,131.5C 48.3307,128.659 47.3307,125.659 46.5,122.5C 47.1515,121.909 47.8182,121.243 48.5,120.5C 50.1017,121.55 50.935,120.883 51,118.5C 51.8388,119.624 53.0055,120.291 54.5,120.5C 58.7551,118.739 61.4218,115.573 62.5,111C 60.8159,104.547 59.3159,98.0472 58,91.5C 57.2213,85.1601 54.2213,80.1601 49,76.5C 46.074,70.9146 42.4073,65.9146 38,61.5C 37.6667,60.1667 37.3333,58.8333 37,57.5C 29.5607,50.3413 25.0607,41.6746 23.5,31.5C 21.0107,31.7593 19.344,30.7593 18.5,28.5 Z"/></g>
<g><path style="opacity:1" fill="#0c6e2f" d="M 86.5,89.5 C 87.4584,89.9528 88.2917,90.6195 89,91.5C 94.2253,102.607 97.0586,114.274 97.5,126.5C 91.7949,130.859 85.7949,134.859 79.5,138.5C 81.6927,132.435 84.1927,126.435 87,120.5C 87.9517,113.337 88.785,106.17 89.5,99C 88.9324,95.6237 87.9324,92.457 86.5,89.5 Z"/></g>
</svg>
