<?xml version="1.0" encoding="UTF-8"?>
<!DOCTYPE svg PUBLIC "-//W3C//DTD SVG 1.1//EN" "http://www.w3.org/Graphics/SVG/1.1/DTD/svg11.dtd">
<svg xmlns="http://www.w3.org/2000/svg" version="1.1" width="192px" height="155px" style="shape-rendering:geometricPrecision; text-rendering:geometricPrecision; image-rendering:optimizeQuality; fill-rule:evenodd; clip-rule:evenodd" xmlns:xlink="http://www.w3.org/1999/xlink">
<g><path style="opacity:1" fill="#f5f5f5" d="M -0.5,-0.5 C 63.5,-0.5 127.5,-0.5 191.5,-0.5C 191.5,51.1667 191.5,102.833 191.5,154.5C 127.5,154.5 63.5,154.5 -0.5,154.5C -0.5,102.833 -0.5,51.1667 -0.5,-0.5 Z"/></g>
<g><path style="opacity:1" fill="#dfdfdf" d="M 140.5,4.5 C 143.119,4.23166 145.619,4.565 148,5.5C 158.734,23.9122 169.068,42.5789 179,61.5C 179.994,64.961 180.827,68.461 181.5,72C 177.862,74.7969 173.862,76.9636 169.5,78.5C 170.167,77.5 170.833,76.5 171.5,75.5C 172.822,75.67 173.989,75.3366 175,74.5C 175.078,72.3435 175.245,70.3435 175.5,68.5C 171.802,57.6893 167.968,47.0226 164,36.5C 162.748,34.9991 161.748,33.3325 161,31.5C 151.777,24.4213 144.944,15.4213 140.5,4.5 Z"/></g>
<g><path style="opacity:1" fill="#b3b3b3" d="M 161.5,81.5 C 158.694,83.1701 156.194,82.8368 154,80.5C 154.825,65.753 151.491,52.0864 144,39.5C 134.596,28.8032 124.762,19.3032 114.5,11C 115.167,10.6667 115.833,10.3333 116.5,10C 115.207,9.50999 113.873,9.34332 112.5,9.5C 112.694,8.03198 114.028,7.36531 116.5,7.5C 120.574,6.00958 124.574,6.17625 128.5,8C 124.5,8.66667 124.5,9.33333 128.5,10C 137.417,19.2433 145.917,28.7433 154,38.5C 158.807,46.1306 161.974,54.4639 163.5,63.5C 162.226,65.993 162.56,68.3263 164.5,70.5C 163.152,73.1647 162.819,75.8313 163.5,78.5C 162.807,79.5178 162.141,80.5178 161.5,81.5 Z"/></g>
<g><path style="opacity:1" fill="#bcbcbc" d="M 134.5,4.5 C 142.158,15.7888 150.325,26.7888 159,37.5C 165.945,49.2919 170.112,61.9585 171.5,75.5C 170.833,76.5 170.167,77.5 169.5,78.5C 166.69,79.1992 164.023,80.1992 161.5,81.5C 162.141,80.5178 162.807,79.5178 163.5,78.5C 162.819,75.8313 163.152,73.1647 164.5,70.5C 162.56,68.3263 162.226,65.993 163.5,63.5C 161.974,54.4639 158.807,46.1306 154,38.5C 145.917,28.7433 137.417,19.2433 128.5,10C 124.5,9.33333 124.5,8.66667 128.5,8C 124.574,6.17625 120.574,6.00958 116.5,7.5C 116.5,7.16667 116.5,6.83333 116.5,6.5C 122.355,4.93648 128.355,4.26982 134.5,4.5 Z"/></g>
<g><path style="opacity:1" fill="#c1c1c1" d="M 112.5,9.5 C 113.873,9.34332 115.207,9.50999 116.5,10C 115.833,10.3333 115.167,10.6667 114.5,11C 124.762,19.3032 134.596,28.8032 144,39.5C 151.491,52.0864 154.825,65.753 154,80.5C 156.194,82.8368 158.694,83.1701 161.5,81.5C 156.873,84.1494 152.207,86.816 147.5,89.5C 153.919,68.8258 149.753,50.1591 135,33.5C 128.294,27.1256 121.294,21.1256 114,15.5C 113.685,13.4144 113.185,11.4144 112.5,9.5 Z"/></g>
<g><path style="opacity:1" fill="#dcdcdb" d="M 88.5,35.5 C 85.94,36.3847 83.94,38.0514 82.5,40.5C 81.8333,40.5 81.1667,40.5 80.5,40.5C 79.0687,39.2196 78.4021,37.5529 78.5,35.5C 77.448,35.6495 76.448,35.4828 75.5,35C 72.5196,32.3487 69.853,29.3487 67.5,26C 66.255,25.2086 64.9217,24.7086 63.5,24.5C 63.9175,23.7784 64.5842,23.2784 65.5,23C 68.1667,22.3333 70.8333,22.3333 73.5,23C 77.7077,26.9879 81.2077,31.4879 84,36.5C 85.3561,35.6198 86.8561,35.2865 88.5,35.5 Z"/></g>
<g><path style="opacity:1" fill="#cccccc" d="M 63.5,24.5 C 64.9217,24.7086 66.255,25.2086 67.5,26C 69.853,29.3487 72.5196,32.3487 75.5,35C 76.448,35.4828 77.448,35.6495 78.5,35.5C 78.4021,37.5529 79.0687,39.2196 80.5,40.5C 80.1667,41.1667 79.8333,41.8333 79.5,42.5C 72.3368,39.0726 66.0035,34.4059 60.5,28.5C 56.8614,27.5397 53.1947,27.5397 49.5,28.5C 53.8885,26.566 58.5551,25.2327 63.5,24.5 Z"/></g>
<g><path style="opacity:1" fill="#fcfcfc" d="M 14.5,26.5 C 16.3904,26.2965 17.8904,26.9632 19,28.5C 26.7377,46.9972 36.7377,63.9972 49,79.5C 48.7612,83.1842 50.2612,85.8509 53.5,87.5C 53.9973,91.1934 54.9973,94.6934 56.5,98C 56.0216,100.226 55.355,102.392 54.5,104.5C 52.8839,103.885 51.5505,102.885 50.5,101.5C 48.0596,103.922 45.7263,103.922 43.5,101.5C 42.8076,102.025 42.3076,102.692 42,103.5C 38.4849,100.149 35.9849,96.6492 34.5,93C 30.4892,87.1315 26.9892,80.9648 24,74.5C 21.3333,67.8333 18.6667,61.1667 16,54.5C 13.522,45.2133 13.022,35.88 14.5,26.5 Z"/></g>
<g><path style="opacity:1" fill="#b7b6b6" d="M 79.5,42.5 C 79.5,42.8333 79.5,43.1667 79.5,43.5C 78.1667,44.1667 77.1667,45.1667 76.5,46.5C 73.9877,48.4784 72.4877,51.1451 72,54.5C 71.1849,59.3522 71.3516,64.0189 72.5,68.5C 73.1495,70.4352 73.4828,72.4352 73.5,74.5C 72.5,74.5 71.5,74.5 70.5,74.5C 69.5045,68.0419 68.1712,63.0419 66.5,59.5C 56.4276,51.5925 47.4276,42.4258 39.5,32C 40.8584,31.0656 42.1917,30.2323 43.5,29.5C 45.6208,29.6747 47.6208,29.3414 49.5,28.5C 53.1947,27.5397 56.8614,27.5397 60.5,28.5C 66.0035,34.4059 72.3368,39.0726 79.5,42.5 Z"/></g>
<g><path style="opacity:1" fill="#e6e6e6" d="M 39.5,29.5 C 38.791,30.404 37.791,30.7373 36.5,30.5C 33.5178,30.1044 30.8511,30.7711 28.5,32.5C 39.5007,48.4874 51.0007,64.1541 63,79.5C 72.0323,95.0492 74.0323,111.383 69,128.5C 67.5611,130.275 66.5611,132.275 66,134.5C 63.54,135.958 61.3734,137.791 59.5,140C 57.4815,139.848 55.4815,139.348 53.5,138.5C 53.5,142.167 53.5,145.833 53.5,149.5C 59.6009,148.245 65.6009,146.578 71.5,144.5C 65.7307,148.801 59.0641,150.635 51.5,150C 51.745,141.954 51.4117,133.788 50.5,125.5C 53.4475,125.223 56.2809,125.556 59,126.5C 60.6667,124.5 62.3333,122.5 64,120.5C 67.0759,107.501 65.4093,95.1675 59,83.5C 50.4141,70.4139 41.2474,57.7472 31.5,45.5C 28.7064,40.747 26.0398,35.9137 23.5,31C 28.7081,29.6033 34.0414,29.1033 39.5,29.5 Z"/></g>
<g><path style="opacity:1" fill="#e5666a" d="M 106.5,35.5 C 100.311,35.0349 94.3108,35.7015 88.5,37.5C 86.5,38.5 84.5,39.5 82.5,40.5C 83.94,38.0514 85.94,36.3847 88.5,35.5C 94.643,34.281 100.643,34.281 106.5,35.5 Z"/></g>
<g><path style="opacity:1" fill="#ee9e9d" d="M 109.5,35.5 C 111.967,35.7549 113.967,36.7549 115.5,38.5C 113.033,38.2451 111.033,37.2451 109.5,35.5 Z"/></g>
<g><path style="opacity:1" fill="#cfcfcf" d="M 134.5,4.5 C 136.5,4.5 138.5,4.5 140.5,4.5C 144.944,15.4213 151.777,24.4213 161,31.5C 161.748,33.3325 162.748,34.9991 164,36.5C 167.968,47.0226 171.802,57.6893 175.5,68.5C 175.245,70.3435 175.078,72.3435 175,74.5C 173.989,75.3366 172.822,75.67 171.5,75.5C 170.112,61.9585 165.945,49.2919 159,37.5C 150.325,26.7888 142.158,15.7888 134.5,4.5 Z"/></g>
<g><path style="opacity:1" fill="#cccccc" d="M 116.5,6.5 C 116.5,6.83333 116.5,7.16667 116.5,7.5C 114.028,7.36531 112.694,8.03198 112.5,9.5C 113.185,11.4144 113.685,13.4144 114,15.5C 121.294,21.1256 128.294,27.1256 135,33.5C 149.753,50.1591 153.919,68.8258 147.5,89.5C 147.5,89.8333 147.5,90.1667 147.5,90.5C 145.863,91.2178 144.197,91.3845 142.5,91C 147.458,80.9315 148.625,70.0982 146,58.5C 144.05,53.4781 142.217,48.4781 140.5,43.5C 137.088,41.255 134.588,38.255 133,34.5C 123.949,26.2785 115.115,17.9452 106.5,9.5C 109.472,7.35016 112.805,6.35016 116.5,6.5 Z"/></g>
<g><path style="opacity:1" fill="#c55255" d="M 80.5,40.5 C 81.1667,40.5 81.8333,40.5 82.5,40.5C 81.8333,41.8333 80.8333,42.8333 79.5,43.5C 79.5,43.1667 79.5,42.8333 79.5,42.5C 79.8333,41.8333 80.1667,41.1667 80.5,40.5 Z"/></g>
<g><path style="opacity:1" fill="#c5010a" d="M 88.5,37.5 C 87.9111,39.3519 87.2444,41.1852 86.5,43C 94.0209,45.3391 100.021,49.8391 104.5,56.5C 109.205,63.311 112.538,70.6443 114.5,78.5C 115.5,78.5 116.5,78.5 117.5,78.5C 117.5,79.5 117.5,80.5 117.5,81.5C 119.833,80.1667 122.167,80.1667 124.5,81.5C 123.833,82.8333 123.167,84.1667 122.5,85.5C 119.738,87.7247 116.738,89.7247 113.5,91.5C 110.753,91.8134 108.086,91.48 105.5,90.5C 108.319,87.9251 107.986,86.0918 104.5,85C 105.081,84.1074 105.415,83.1074 105.5,82C 103.752,74.8517 100.918,68.0183 97,61.5C 92.4689,58.6016 88.9689,54.7683 86.5,50C 83.1185,49.278 82.1185,47.4447 83.5,44.5C 83.1667,44.1667 82.8333,43.8333 82.5,43.5C 81.12,45.9767 80.12,45.9767 79.5,43.5C 80.8333,42.8333 81.8333,41.8333 82.5,40.5C 84.5,39.5 86.5,38.5 88.5,37.5 Z"/></g>
<g><path style="opacity:1" fill="#da0410" d="M 106.5,35.5 C 107.5,35.5 108.5,35.5 109.5,35.5C 111.033,37.2451 113.033,38.2451 115.5,38.5C 115.842,39.3382 116.508,39.6716 117.5,39.5C 119.5,41.5 121.5,43.5 123.5,45.5C 124.08,47.7488 125.413,49.4154 127.5,50.5C 129.267,52.7916 130.267,55.4582 130.5,58.5C 130.587,63.5365 130.254,68.5365 129.5,73.5C 127.833,76.1667 126.167,78.8333 124.5,81.5C 122.167,80.1667 119.833,80.1667 117.5,81.5C 117.5,80.5 117.5,79.5 117.5,78.5C 116.5,78.5 115.5,78.5 114.5,78.5C 112.538,70.6443 109.205,63.311 104.5,56.5C 100.021,49.8391 94.0209,45.3391 86.5,43C 87.2444,41.1852 87.9111,39.3519 88.5,37.5C 94.3108,35.7015 100.311,35.0349 106.5,35.5 Z"/></g>
<g><path style="opacity:1" fill="#dc484e" d="M 123.5,45.5 C 125.587,46.5846 126.92,48.2512 127.5,50.5C 125.413,49.4154 124.08,47.7488 123.5,45.5 Z"/></g>
<g><path style="opacity:1" fill="#d9d9d9" d="M 103.5,9.5 C 104.5,9.5 105.5,9.5 106.5,9.5C 115.115,17.9452 123.949,26.2785 133,34.5C 134.588,38.255 137.088,41.255 140.5,43.5C 142.217,48.4781 144.05,53.4781 146,58.5C 148.625,70.0982 147.458,80.9315 142.5,91C 144.197,91.3845 145.863,91.2178 147.5,90.5C 143.887,93.4488 139.887,95.9488 135.5,98C 128.019,105.227 120.019,111.727 111.5,117.5C 111.489,115.983 110.823,114.816 109.5,114C 110.456,110.606 110.789,107.106 110.5,103.5C 111.675,103.719 112.675,103.386 113.5,102.5C 112.311,101.571 110.978,101.238 109.5,101.5C 108.826,99.9755 107.826,98.6422 106.5,97.5C 107.624,96.1408 108.958,95.1408 110.5,94.5C 111.5,93.8333 112.5,93.1667 113.5,92.5C 113.5,92.1667 113.5,91.8333 113.5,91.5C 116.738,89.7247 119.738,87.7247 122.5,85.5C 120.94,87.1294 121.273,88.296 123.5,89C 122.007,90.3681 120.507,90.5348 119,89.5C 118.228,90.8491 117.061,91.6824 115.5,92C 117.059,92.9799 118.726,93.8133 120.5,94.5C 121.137,96.3031 122.303,97.6364 124,98.5C 127.595,94.9085 131.429,91.5752 135.5,88.5C 135.291,87.914 134.957,87.414 134.5,87C 141.97,80.9939 145.137,73.1605 144,63.5C 141.424,54.3514 137.758,45.6847 133,37.5C 123.194,28.1829 112.694,19.8496 101.5,12.5C 102.612,11.7348 103.279,10.7348 103.5,9.5 Z"/></g>
<g><path style="opacity:1" fill="#eae8e8" d="M 103.5,9.5 C 103.279,10.7348 102.612,11.7348 101.5,12.5C 112.694,19.8496 123.194,28.1829 133,37.5C 137.758,45.6847 141.424,54.3514 144,63.5C 145.137,73.1605 141.97,80.9939 134.5,87C 134.957,87.414 135.291,87.914 135.5,88.5C 131.429,91.5752 127.595,94.9085 124,98.5C 122.303,97.6364 121.137,96.3031 120.5,94.5C 118.726,93.8133 117.059,92.9799 115.5,92C 117.061,91.6824 118.228,90.8491 119,89.5C 120.507,90.5348 122.007,90.3681 123.5,89C 121.273,88.296 120.94,87.1294 122.5,85.5C 123.167,84.1667 123.833,82.8333 124.5,81.5C 126.167,78.8333 127.833,76.1667 129.5,73.5C 130.991,70.8136 131.657,67.8136 131.5,64.5C 131.495,62.3035 131.162,60.3035 130.5,58.5C 130.267,55.4582 129.267,52.7916 127.5,50.5C 126.92,48.2512 125.587,46.5846 123.5,45.5C 121.5,43.5 119.5,41.5 117.5,39.5C 119.044,39.7031 120.378,40.3698 121.5,41.5C 121.833,41.1667 122.167,40.8333 122.5,40.5C 120.064,38.4474 120.398,36.614 123.5,35C 113.755,28.7536 104.755,21.587 96.5,13.5C 98.5976,11.7965 100.931,10.4632 103.5,9.5 Z"/></g>
<g><path style="opacity:1" fill="#b05d5b" d="M 76.5,46.5 C 72.9901,53.3499 71.6568,60.6833 72.5,68.5C 71.3516,64.0189 71.1849,59.3522 72,54.5C 72.4877,51.1451 73.9877,48.4784 76.5,46.5 Z"/></g>
<g><path style="opacity:1" fill="#a70604" d="M 79.5,43.5 C 80.12,45.9767 81.12,45.9767 82.5,43.5C 82.8333,43.8333 83.1667,44.1667 83.5,44.5C 82.1185,47.4447 83.1185,49.278 86.5,50C 88.9689,54.7683 92.4689,58.6016 97,61.5C 100.918,68.0183 103.752,74.8517 105.5,82C 105.415,83.1074 105.081,84.1074 104.5,85C 107.986,86.0918 108.319,87.9251 105.5,90.5C 108.086,91.48 110.753,91.8134 113.5,91.5C 113.5,91.8333 113.5,92.1667 113.5,92.5C 111.302,92.1201 109.635,92.7868 108.5,94.5C 100.371,96.8378 93.0378,95.3378 86.5,90C 84.3826,88.2309 82.3826,86.3976 80.5,84.5C 78.6465,80.7792 76.3131,77.4459 73.5,74.5C 73.4828,72.4352 73.1495,70.4352 72.5,68.5C 71.6568,60.6833 72.9901,53.3499 76.5,46.5C 77.1667,45.1667 78.1667,44.1667 79.5,43.5 Z"/></g>
<g><path style="opacity:1" fill="#e98f92" d="M 130.5,58.5 C 131.162,60.3035 131.495,62.3035 131.5,64.5C 131.657,67.8136 130.991,70.8136 129.5,73.5C 130.254,68.5365 130.587,63.5365 130.5,58.5 Z"/></g>
<g><path style="opacity:1" fill="#d7d7d7" d="M 36.5,30.5 C 35.9094,31.1515 35.2427,31.8182 34.5,32.5C 41.8163,42.9749 49.983,52.6415 59,61.5C 62.4619,67.0192 65.4619,72.0192 68,76.5C 73.3,79.3664 75.1333,83.6998 73.5,89.5C 74.8333,90.1667 76.1667,90.8333 77.5,91.5C 77.2907,92.086 76.9574,92.586 76.5,93C 78,93.8333 79.1667,95 80,96.5C 83.7125,110.815 82.8792,124.815 77.5,138.5C 77.9569,139.298 78.6236,139.631 79.5,139.5C 77.1367,141.68 74.47,143.347 71.5,144.5C 65.6009,146.578 59.6009,148.245 53.5,149.5C 53.5,145.833 53.5,142.167 53.5,138.5C 55.4815,139.348 57.4815,139.848 59.5,140C 61.3734,137.791 63.54,135.958 66,134.5C 66.5611,132.275 67.5611,130.275 69,128.5C 74.0323,111.383 72.0323,95.0492 63,79.5C 51.0007,64.1541 39.5007,48.4874 28.5,32.5C 30.8511,30.7711 33.5178,30.1044 36.5,30.5 Z"/></g>
<g><path style="opacity:1" fill="#cb6a6c" d="M 113.5,92.5 C 112.5,93.1667 111.5,93.8333 110.5,94.5C 109.833,94.5 109.167,94.5 108.5,94.5C 109.635,92.7868 111.302,92.1201 113.5,92.5 Z"/></g>
<g><path style="opacity:1" fill="#c8c8c7" d="M 39.5,29.5 C 40.8333,29.5 42.1667,29.5 43.5,29.5C 42.1917,30.2323 40.8584,31.0656 39.5,32C 47.4276,42.4258 56.4276,51.5925 66.5,59.5C 68.1712,63.0419 69.5045,68.0419 70.5,74.5C 71.5,74.5 72.5,74.5 73.5,74.5C 76.3131,77.4459 78.6465,80.7792 80.5,84.5C 80.5598,87.2606 81.0598,89.9273 82,92.5C 82.3333,92.8333 82.6667,93.1667 83,93.5C 84.1139,89.5443 84.9473,89.5443 85.5,93.5C 86.8333,93.5 88.1667,93.5 89.5,93.5C 91.3098,108.687 88.9765,122.853 82.5,136C 84.9216,136.135 87.2549,135.635 89.5,134.5C 86.9961,137.643 83.6628,139.309 79.5,139.5C 78.6236,139.631 77.9569,139.298 77.5,138.5C 82.8792,124.815 83.7125,110.815 80,96.5C 79.1667,95 78,93.8333 76.5,93C 76.9574,92.586 77.2907,92.086 77.5,91.5C 76.1667,90.8333 74.8333,90.1667 73.5,89.5C 75.1333,83.6998 73.3,79.3664 68,76.5C 65.4619,72.0192 62.4619,67.0192 59,61.5C 49.983,52.6415 41.8163,42.9749 34.5,32.5C 35.2427,31.8182 35.9094,31.1515 36.5,30.5C 37.791,30.7373 38.791,30.404 39.5,29.5 Z"/></g>
<g><path style="opacity:1" fill="#b6b5b5" d="M 80.5,84.5 C 82.3826,86.3976 84.3826,88.2309 86.5,90C 93.0378,95.3378 100.371,96.8378 108.5,94.5C 109.167,94.5 109.833,94.5 110.5,94.5C 108.958,95.1408 107.624,96.1408 106.5,97.5C 107.826,98.6422 108.826,99.9755 109.5,101.5C 107.876,101.36 106.71,102.027 106,103.5C 105.224,109.229 104.057,114.562 102.5,119.5C 102.709,120.086 103.043,120.586 103.5,121C 101.787,122.378 100.453,124.045 99.5,126C 98.552,126.483 97.552,126.649 96.5,126.5C 96.5,127.5 96.5,128.5 96.5,129.5C 93.6298,130.433 91.2964,132.1 89.5,134.5C 87.2549,135.635 84.9216,136.135 82.5,136C 88.9765,122.853 91.3098,108.687 89.5,93.5C 88.1667,93.5 86.8333,93.5 85.5,93.5C 84.9473,89.5443 84.1139,89.5443 83,93.5C 82.6667,93.1667 82.3333,92.8333 82,92.5C 81.0598,89.9273 80.5598,87.2606 80.5,84.5 Z"/></g>
<g><path style="opacity:1" fill="#c8c8c8" d="M 109.5,101.5 C 110.978,101.238 112.311,101.571 113.5,102.5C 112.675,103.386 111.675,103.719 110.5,103.5C 110.789,107.106 110.456,110.606 109.5,114C 110.823,114.816 111.489,115.983 111.5,117.5C 106.486,121.593 101.486,125.593 96.5,129.5C 96.5,128.5 96.5,127.5 96.5,126.5C 97.552,126.649 98.552,126.483 99.5,126C 100.453,124.045 101.787,122.378 103.5,121C 103.043,120.586 102.709,120.086 102.5,119.5C 104.057,114.562 105.224,109.229 106,103.5C 106.71,102.027 107.876,101.36 109.5,101.5 Z"/></g>
</svg>
