<?xml version="1.0" encoding="UTF-8"?>
<!DOCTYPE svg PUBLIC "-//W3C//DTD SVG 1.1//EN" "http://www.w3.org/Graphics/SVG/1.1/DTD/svg11.dtd">
<svg xmlns="http://www.w3.org/2000/svg" version="1.1" width="192px" height="155px" style="shape-rendering:geometricPrecision; text-rendering:geometricPrecision; image-rendering:optimizeQuality; fill-rule:evenodd; clip-rule:evenodd" xmlns:xlink="http://www.w3.org/1999/xlink">
<g><path style="opacity:1" fill="#fdfdfd" d="M -0.5,-0.5 C 1.83333,-0.5 4.16667,-0.5 6.5,-0.5C 6.5,8.83333 6.5,18.1667 6.5,27.5C 8.58236,27.472 10.4157,28.1387 12,29.5C 13.6401,33.3921 14.9735,37.3921 16,41.5C 17,42.5 18,43.5 19,44.5C 20.4884,48.8101 22.4884,52.8101 25,56.5C 26.5,57.6667 28,58.8333 29.5,60C 28.2946,62.2342 28.9613,63.9008 31.5,65C 30.0267,65.7096 29.3601,66.8762 29.5,68.5C 30.5,68.5 31.5,68.5 32.5,68.5C 32.369,69.2389 32.5357,69.9056 33,70.5C 34.1455,69.3157 35.3121,69.3157 36.5,70.5C 35.5527,72.7578 36.5527,73.9245 39.5,74C 36.2577,74.2833 35.9244,75.1166 38.5,76.5C 38.2907,77.086 37.9574,77.586 37.5,78C 38.7659,78.3095 39.9326,78.8095 41,79.5C 42.2854,83.0696 44.1187,86.2363 46.5,89C 47.1825,93.6559 48.1825,98.1559 49.5,102.5C 45.5101,102.999 41.5101,103.499 37.5,104C 37,104.5 36.5,105 36,105.5C 22.1406,87.9384 12.4739,68.2717 7,46.5C 6.50001,82.4985 6.33335,118.498 6.5,154.5C 4.16667,154.5 1.83333,154.5 -0.5,154.5C -0.5,102.833 -0.5,51.1667 -0.5,-0.5 Z"/></g>
<g><path style="opacity:1" fill="#f5f5f5" d="M 6.5,-0.5 C 68.1667,-0.5 129.833,-0.5 191.5,-0.5C 191.5,29.5 191.5,59.5 191.5,89.5C 189.143,89.6633 186.81,89.4966 184.5,89C 185.939,88.0094 186.939,86.676 187.5,85C 186.142,79.9036 184.475,74.9036 182.5,70C 181.004,69.4926 179.837,69.9926 179,71.5C 176.977,69.2307 176.144,66.5641 176.5,63.5C 175.5,63.5 174.5,63.5 173.5,63.5C 171.013,57.1885 168.513,50.8552 166,44.5C 164.488,43.7433 163.154,42.7433 162,41.5C 155.042,30.583 148.875,19.2497 143.5,7.5C 141.78,6.06596 139.78,5.23263 137.5,5C 130.654,4.17935 123.987,4.34602 117.5,5.5C 113.466,5.51652 109.799,6.51652 106.5,8.5C 105.833,8.5 105.167,8.5 104.5,8.5C 100.075,8.578 96.4079,10.2447 93.5,13.5C 99.6112,16.916 103.611,21.916 105.5,28.5C 106.71,28.9321 107.71,29.5987 108.5,30.5C 109.171,31.8471 109.171,33.0138 108.5,34C 109.167,35.3333 110.167,36.3333 111.5,37C 110.5,37.5 109.5,38 108.5,38.5C 105.418,35.445 102.418,35.2783 99.5,38C 101.932,39.0875 101.598,39.5875 98.5,39.5C 94.1667,39.5 89.8333,39.5 85.5,39.5C 83.146,39.162 80.8127,38.662 78.5,38C 73.8333,33.3333 69.1667,28.6667 64.5,24C 62.8333,23.3333 61.1667,23.3333 59.5,24C 54.968,25.3218 50.6347,26.8218 46.5,28.5C 42.5236,29.2952 38.5236,29.9619 34.5,30.5C 28.8236,30.3339 23.1569,30.5006 17.5,31C 17.0426,31.414 16.7093,31.914 16.5,32.5C 22.2836,42.1041 27.9503,51.1041 33.5,59.5C 33.8333,61 34.1667,62.5 34.5,64C 34.4313,65.9855 33.7647,67.4855 32.5,68.5C 31.5,68.5 30.5,68.5 29.5,68.5C 29.3601,66.8762 30.0267,65.7096 31.5,65C 28.9613,63.9008 28.2946,62.2342 29.5,60C 28,58.8333 26.5,57.6667 25,56.5C 22.4884,52.8101 20.4884,48.8101 19,44.5C 18,43.5 17,42.5 16,41.5C 14.9735,37.3921 13.6401,33.3921 12,29.5C 10.4157,28.1387 8.58236,27.472 6.5,27.5C 6.5,18.1667 6.5,8.83333 6.5,-0.5 Z"/></g>
<g><path style="opacity:1" fill="#d9d9d9" d="M 130.5,5.5 C 135.28,4.64088 138.78,6.30755 141,10.5C 147.232,22.6314 154.232,34.298 162,45.5C 165.648,51.4507 168.148,57.7841 169.5,64.5C 170.873,64.3433 172.207,64.51 173.5,65C 172.944,67.2365 171.944,69.2365 170.5,71C 171.5,71.8333 172.5,72.6667 173.5,73.5C 173.043,74.2975 172.376,74.6309 171.5,74.5C 170.081,73.5489 168.415,73.2155 166.5,73.5C 166.297,71.6096 166.963,70.1096 168.5,69C 167.234,68.6905 166.067,68.1905 165,67.5C 163.813,60.6038 161.813,53.9372 159,47.5C 155.072,41.0908 151.739,34.4241 149,27.5C 142.967,21.7943 138.134,15.1277 134.5,7.5C 133.051,6.82811 131.718,6.16145 130.5,5.5 Z"/></g>
<g><path style="opacity:1" fill="#d5d5d5" d="M 104.5,8.5 C 106.024,12.3642 108.357,15.6975 111.5,18.5C 111.137,19.1835 110.804,19.8501 110.5,20.5C 109.168,22.1377 107.834,23.8044 106.5,25.5C 105.596,26.209 105.263,27.209 105.5,28.5C 103.611,21.916 99.6112,16.916 93.5,13.5C 96.4079,10.2447 100.075,8.578 104.5,8.5 Z"/></g>
<g><path style="opacity:1" fill="#2b1e1b" d="M 116.5,17.5 C 117.965,18.7368 119.632,19.7368 121.5,20.5C 122.866,23.8003 121.866,24.8003 118.5,23.5C 117.016,21.9263 115.349,20.593 113.5,19.5C 114.005,18.0815 115.005,17.4148 116.5,17.5 Z"/></g>
<g><path style="opacity:1" fill="#736a68" d="M 116.5,17.5 C 115.005,17.4148 114.005,18.0815 113.5,19.5C 115.349,20.593 117.016,21.9263 118.5,23.5C 121.866,24.8003 122.866,23.8003 121.5,20.5C 123.048,20.8212 123.715,21.8212 123.5,23.5C 124.791,23.2627 125.791,23.596 126.5,24.5C 122.865,24.6556 122.532,25.8223 125.5,28C 127.909,29.7068 130.575,30.5402 133.5,30.5C 132.5,32.1667 131.167,33.5 129.5,34.5C 129.5,34.8333 129.5,35.1667 129.5,35.5C 128.5,36.1667 127.5,36.8333 126.5,37.5C 126.586,36.5041 126.252,35.6708 125.5,35C 123.278,34.3054 121.111,33.4721 119,32.5C 117.699,32.6387 116.866,33.3054 116.5,34.5C 114.435,34.047 112.768,33.047 111.5,31.5C 113.355,31.728 114.188,31.0613 114,29.5C 111.815,27.4598 109.315,26.1264 106.5,25.5C 107.834,23.8044 109.168,22.1377 110.5,20.5C 112.084,19.0269 113.584,17.3602 115,15.5C 116.03,15.8361 116.53,16.5028 116.5,17.5 Z"/></g>
<g><path style="opacity:1" fill="#b1b0b0" d="M 135.5,23.5 C 135.389,24.1174 135.056,24.6174 134.5,25C 141.811,31.6565 147.644,39.4898 152,48.5C 152.45,50.519 153.283,52.3523 154.5,54C 154.722,57.2209 154.722,60.5542 154.5,64C 155.638,66.9573 156.971,69.7907 158.5,72.5C 156.234,73.3142 153.9,73.8142 151.5,74C 150.842,75.9045 149.675,77.4045 148,78.5C 146.416,77.1387 144.582,76.472 142.5,76.5C 138.833,76.5 135.167,76.5 131.5,76.5C 131.5,75.1667 131.5,73.8333 131.5,72.5C 131.216,70.5853 131.549,68.9187 132.5,67.5C 132.5,69.8333 132.5,72.1667 132.5,74.5C 133.919,75.4511 135.585,75.7845 137.5,75.5C 139.5,75.5 141.5,75.5 143.5,75.5C 144.833,75.5 146.167,75.5 147.5,75.5C 147.5,74.5 147.5,73.5 147.5,72.5C 148.404,71.791 148.737,70.791 148.5,69.5C 149.913,66.7814 150.58,63.7814 150.5,60.5C 150.5,58.8333 150.5,57.1667 150.5,55.5C 149.167,55.5 147.833,55.5 146.5,55.5C 145.833,55.1667 145.167,54.8333 144.5,54.5C 143.167,54.5 141.833,54.5 140.5,54.5C 139.609,53.8902 138.609,53.5569 137.5,53.5C 136.5,53.5 135.5,53.5 134.5,53.5C 136.631,52.6862 138.964,52.1862 141.5,52C 140.732,46.7959 138.399,42.4625 134.5,39C 134.833,38.6667 135.167,38.3333 135.5,38C 133.831,36.331 131.831,35.4977 129.5,35.5C 129.5,35.1667 129.5,34.8333 129.5,34.5C 131.167,33.5 132.5,32.1667 133.5,30.5C 131.827,27.8334 129.493,25.8334 126.5,24.5C 125.791,23.596 124.791,23.2627 123.5,23.5C 123.715,21.8212 123.048,20.8212 121.5,20.5C 119.632,19.7368 117.965,18.7368 116.5,17.5C 116.53,16.5028 116.03,15.8361 115,15.5C 113.584,17.3602 112.084,19.0269 110.5,20.5C 110.804,19.8501 111.137,19.1835 111.5,18.5C 108.357,15.6975 106.024,12.3642 104.5,8.5C 105.167,8.5 105.833,8.5 106.5,8.5C 111.14,7.60273 115.806,7.43607 120.5,8C 119.833,8.33333 119.167,8.66667 118.5,9C 125.764,11.7491 131.431,16.5824 135.5,23.5 Z"/></g>
<g><path style="opacity:1" fill="#261918" d="M 126.5,24.5 C 129.493,25.8334 131.827,27.8334 133.5,30.5C 130.575,30.5402 127.909,29.7068 125.5,28C 122.532,25.8223 122.865,24.6556 126.5,24.5 Z"/></g>
<g><path style="opacity:1" fill="#33302f" d="M 106.5,25.5 C 109.315,26.1264 111.815,27.4598 114,29.5C 114.188,31.0613 113.355,31.728 111.5,31.5C 110.391,31.4431 109.391,31.1098 108.5,30.5C 107.71,29.5987 106.71,28.9321 105.5,28.5C 105.263,27.209 105.596,26.209 106.5,25.5 Z"/></g>
<g><path style="opacity:1" fill="#291e1c" d="M 129.5,34.5 C 122.18,32.1788 115.847,28.3454 110.5,23C 110.833,22.5 111.167,22 111.5,21.5C 116.964,24.4676 122.297,27.6342 127.5,31C 128.823,31.8159 129.489,32.9826 129.5,34.5 Z"/></g>
<g><path style="opacity:1" fill="#b2b1b1" d="M 73.5,47.5 C 71.9565,49.9278 70.9565,52.5944 70.5,55.5C 68.6122,57.9878 67.9455,60.9878 68.5,64.5C 68.1706,67.2282 68.8372,69.5615 70.5,71.5C 71.1098,72.391 71.4431,73.391 71.5,74.5C 70.5,74.5 69.5,74.5 68.5,74.5C 68.5,73.1667 68.5,71.8333 68.5,70.5C 67.448,70.6495 66.448,70.4828 65.5,70C 62.3092,66.31 59.3092,62.4767 56.5,58.5C 55.8326,61.6417 55.166,64.6417 54.5,67.5C 54.5,65.5 54.5,63.5 54.5,61.5C 54.9272,57.1756 55.2605,52.8422 55.5,48.5C 54.1667,48.5 52.8333,48.5 51.5,48.5C 50.7777,47.4489 49.7777,46.7822 48.5,46.5C 48.1667,46.5 47.8333,46.5 47.5,46.5C 47.5,46.1667 47.5,45.8333 47.5,45.5C 49.3547,45.728 50.1881,45.0613 50,43.5C 46.006,39.3393 41.506,35.8393 36.5,33C 40.4826,30.5645 44.816,29.8978 49.5,31C 54.882,36.0521 60.5487,40.7188 66.5,45C 67.7717,46.3068 68.7717,47.8068 69.5,49.5C 70.2175,46.942 71.5509,46.2753 73.5,47.5 Z"/></g>
<g><path style="opacity:1" fill="#e0e0e0" d="M 34.5,30.5 C 32.0458,31.6206 29.3791,32.454 26.5,33C 30.8198,37.8455 34.4864,43.0122 37.5,48.5C 36.9084,51.1272 36.5751,53.7938 36.5,56.5C 35.3547,60.3112 35.1881,64.3112 36,68.5C 37.3561,69.3802 38.8561,69.7135 40.5,69.5C 40.5,68.5 40.5,67.5 40.5,66.5C 41.4345,67.5676 41.7678,68.901 41.5,70.5C 39.8333,70.5 38.1667,70.5 36.5,70.5C 35.3121,69.3157 34.1455,69.3157 33,70.5C 32.5357,69.9056 32.369,69.2389 32.5,68.5C 33.7647,67.4855 34.4313,65.9855 34.5,64C 34.1667,62.5 33.8333,61 33.5,59.5C 27.9503,51.1041 22.2836,42.1041 16.5,32.5C 16.7093,31.914 17.0426,31.414 17.5,31C 23.1569,30.5006 28.8236,30.3339 34.5,30.5 Z"/></g>
<g><path style="opacity:1" fill="#bebebd" d="M 76.5,44.5 C 76.1667,45.1667 75.8333,45.8333 75.5,46.5C 74.8333,46.8333 74.1667,47.1667 73.5,47.5C 71.5509,46.2753 70.2175,46.942 69.5,49.5C 68.7717,47.8068 67.7717,46.3068 66.5,45C 60.5487,40.7188 54.882,36.0521 49.5,31C 44.816,29.8978 40.4826,30.5645 36.5,33C 41.506,35.8393 46.006,39.3393 50,43.5C 50.1881,45.0613 49.3547,45.728 47.5,45.5C 45.7839,45.3713 44.1172,45.038 42.5,44.5C 42.1667,44.5 41.8333,44.5 41.5,44.5C 40.791,43.596 39.791,43.2627 38.5,43.5C 38.7845,45.4147 38.4511,47.0813 37.5,48.5C 34.4864,43.0122 30.8198,37.8455 26.5,33C 29.3791,32.454 32.0458,31.6206 34.5,30.5C 38.5236,29.9619 42.5236,29.2952 46.5,28.5C 49.8175,27.7791 53.1508,27.6124 56.5,28C 61.3795,33.708 66.3795,39.208 71.5,44.5C 73.0026,43.9478 74.6693,43.9478 76.5,44.5 Z"/></g>
<g><path style="opacity:1" fill="#26201e" d="M 126.5,37.5 C 125.791,38.404 124.791,38.7373 123.5,38.5C 121.879,36.058 119.546,34.7247 116.5,34.5C 116.866,33.3054 117.699,32.6387 119,32.5C 121.111,33.4721 123.278,34.3054 125.5,35C 126.252,35.6708 126.586,36.5041 126.5,37.5 Z"/></g>
<g><path style="opacity:1" fill="#625d5c" d="M 116.5,34.5 C 119.546,34.7247 121.879,36.058 123.5,38.5C 120.9,37.5324 118.566,36.1991 116.5,34.5 Z"/></g>
<g><path style="opacity:1" fill="#d6d5d4" d="M 85.5,39.5 C 84.5,40.1667 83.5,40.8333 82.5,41.5C 80.5,42.5 78.5,43.5 76.5,44.5C 74.6693,43.9478 73.0026,43.9478 71.5,44.5C 66.3795,39.208 61.3795,33.708 56.5,28C 53.1508,27.6124 49.8175,27.7791 46.5,28.5C 50.6347,26.8218 54.968,25.3218 59.5,24C 61.1667,23.3333 62.8333,23.3333 64.5,24C 69.1667,28.6667 73.8333,33.3333 78.5,38C 80.8127,38.662 83.146,39.162 85.5,39.5 Z"/></g>
<g><path style="opacity:1" fill="#c8c8c8" d="M 129.5,35.5 C 131.831,35.4977 133.831,36.331 135.5,38C 135.167,38.3333 134.833,38.6667 134.5,39C 138.399,42.4625 140.732,46.7959 141.5,52C 138.964,52.1862 136.631,52.6862 134.5,53.5C 133.646,57.5157 133.312,61.5157 133.5,65.5C 133.167,65.5 132.833,65.5 132.5,65.5C 132.666,60.1563 132.499,54.8229 132,49.5C 131.667,49.8333 131.333,50.1667 131,50.5C 129.943,45.6075 127.443,41.6075 123.5,38.5C 124.791,38.7373 125.791,38.404 126.5,37.5C 127.5,36.8333 128.5,36.1667 129.5,35.5 Z"/></g>
<g><path style="opacity:1" fill="#c6c6c6" d="M 117.5,5.5 C 121.833,5.5 126.167,5.5 130.5,5.5C 131.718,6.16145 133.051,6.82811 134.5,7.5C 138.134,15.1277 142.967,21.7943 149,27.5C 151.739,34.4241 155.072,41.0908 159,47.5C 161.813,53.9372 163.813,60.6038 165,67.5C 166.067,68.1905 167.234,68.6905 168.5,69C 166.963,70.1096 166.297,71.6096 166.5,73.5C 168.415,73.2155 170.081,73.5489 171.5,74.5C 168.805,75.428 166.472,76.7613 164.5,78.5C 162.167,79.1667 159.833,79.8333 157.5,80.5C 159.737,76.9209 161.07,72.9209 161.5,68.5C 160.109,62.0492 158.276,55.7159 156,49.5C 150.096,40.0962 143.262,31.4295 135.5,23.5C 131.431,16.5824 125.764,11.7491 118.5,9C 119.167,8.66667 119.833,8.33333 120.5,8C 115.806,7.43607 111.14,7.60273 106.5,8.5C 109.799,6.51652 113.466,5.51652 117.5,5.5 Z"/></g>
<g><path style="opacity:1" fill="#e63d42" d="M 85.5,39.5 C 89.8333,39.5 94.1667,39.5 98.5,39.5C 101.345,40.5384 104.012,41.8718 106.5,43.5C 104.609,42.4639 102.776,42.4639 101,43.5C 96.4099,40.4935 91.5765,39.8268 86.5,41.5C 85.1667,41.5 83.8333,41.5 82.5,41.5C 83.5,40.8333 84.5,40.1667 85.5,39.5 Z"/></g>
<g><path style="opacity:1" fill="#df0714" d="M 86.5,41.5 C 91.5765,39.8268 96.4099,40.4935 101,43.5C 102.776,42.4639 104.609,42.4639 106.5,43.5C 111.167,46.1667 114.833,49.8333 117.5,54.5C 117.672,55.4916 117.338,56.1583 116.5,56.5C 114.887,54.9121 112.887,53.9121 110.5,53.5C 106.148,52.7537 101.648,52.087 97,51.5C 95.3454,49.345 93.5121,47.345 91.5,45.5C 93.0777,44.7022 94.7444,44.2022 96.5,44C 93.1484,43.1621 89.8151,42.3288 86.5,41.5 Z"/></g>
<g><path style="opacity:1" fill="#f4f4f4" d="M 36.5,70.5 C 38.1667,70.5 39.8333,70.5 41.5,70.5C 44.3273,71.9583 47.3273,72.9583 50.5,73.5C 50.8333,73.5 51.1667,73.5 51.5,73.5C 51.5,74.1667 51.8333,74.5 52.5,74.5C 52.6427,76.2624 52.3094,77.9291 51.5,79.5C 54.0691,84.3609 56.7358,89.1942 59.5,94C 57,94.8333 56.8333,96 59,97.5C 59.4966,99.8098 59.6633,102.143 59.5,104.5C 58.8333,104.5 58.5,104.833 58.5,105.5C 57.0698,107.455 57.4031,109.121 59.5,110.5C 59.4142,111.496 59.7476,112.329 60.5,113C 59.5,114 58.5,115 57.5,116C 58.885,117.965 58.7184,119.798 57,121.5C 56.6667,120.833 56.3333,120.167 56,119.5C 55.654,121.218 55.154,122.885 54.5,124.5C 51.1718,124.505 47.8385,124.505 44.5,124.5C 44.1616,133.454 44.1616,142.454 44.5,151.5C 47.1873,151.664 49.854,151.497 52.5,151C 57.4349,148.637 62.6015,146.804 68,145.5C 69.0299,145.164 69.5299,144.497 69.5,143.5C 71.9295,141.055 74.5962,139.055 77.5,137.5C 82.362,134.237 87.362,131.237 92.5,128.5C 95.4923,125.878 98.4923,123.211 101.5,120.5C 108.392,115.096 115.392,109.93 122.5,105C 123.167,104 123.833,103 124.5,102C 128.276,100.112 131.943,98.2787 135.5,96.5C 136.821,93.1793 139.154,90.846 142.5,89.5C 147.334,86.2484 152.334,83.2484 157.5,80.5C 159.833,79.8333 162.167,79.1667 164.5,78.5C 165.15,78.1961 165.817,77.8627 166.5,77.5C 167.673,79.9791 167.673,82.4791 166.5,85C 166.903,86.4728 167.57,87.8061 168.5,89C 168.167,89.3333 167.833,89.6667 167.5,90C 168.69,92.1164 170.023,94.1164 171.5,96C 174.358,96.4087 176.691,95.4087 178.5,93C 179.329,91.1839 180.163,89.3506 181,87.5C 180.868,91.0328 182.535,93.0328 186,93.5C 187.444,91.8446 189.278,91.178 191.5,91.5C 191.5,112.5 191.5,133.5 191.5,154.5C 129.833,154.5 68.1667,154.5 6.5,154.5C 6.33335,118.498 6.50001,82.4985 7,46.5C 12.4739,68.2717 22.1406,87.9384 36,105.5C 36.5,105 37,104.5 37.5,104C 41.5101,103.499 45.5101,102.999 49.5,102.5C 48.1825,98.1559 47.1825,93.6559 46.5,89C 44.1187,86.2363 42.2854,83.0696 41,79.5C 39.9326,78.8095 38.7659,78.3095 37.5,78C 37.9574,77.586 38.2907,77.086 38.5,76.5C 35.9244,75.1166 36.2577,74.2833 39.5,74C 36.5527,73.9245 35.5527,72.7578 36.5,70.5 Z"/></g>
<g><path style="opacity:1" fill="#cb0310" d="M 82.5,41.5 C 83.8333,41.5 85.1667,41.5 86.5,41.5C 89.8151,42.3288 93.1484,43.1621 96.5,44C 94.7444,44.2022 93.0777,44.7022 91.5,45.5C 93.5121,47.345 95.3454,49.345 97,51.5C 101.648,52.087 106.148,52.7537 110.5,53.5C 106.958,53.1872 103.625,53.5206 100.5,54.5C 98.9382,54.7329 97.6049,55.3995 96.5,56.5C 94.7376,56.3573 93.0709,56.6906 91.5,57.5C 88.4565,55.0798 85.4565,52.5798 82.5,50C 83.1667,49.6667 83.8333,49.3333 84.5,49C 79.0267,47.4455 78.36,44.9455 82.5,41.5 Z"/></g>
<g><path style="opacity:1" fill="#f0eeee" d="M 108.5,30.5 C 109.391,31.1098 110.391,31.4431 111.5,31.5C 112.768,33.047 114.435,34.047 116.5,34.5C 118.566,36.1991 120.9,37.5324 123.5,38.5C 127.443,41.6075 129.943,45.6075 131,50.5C 131.333,50.1667 131.667,49.8333 132,49.5C 132.499,54.8229 132.666,60.1563 132.5,65.5C 132.5,66.1667 132.5,66.8333 132.5,67.5C 131.549,68.9187 131.216,70.5853 131.5,72.5C 129.36,75.9022 128.027,79.4022 127.5,83C 126.833,83.6667 126.167,83.6667 125.5,83C 124.333,81.1667 122.833,79.6667 121,78.5C 120.647,79.6716 120.813,80.8382 121.5,82C 120.484,84.1762 118.818,85.3429 116.5,85.5C 116.5,86.5 116.5,87.5 116.5,88.5C 119.278,88.9783 121.278,87.9783 122.5,85.5C 123.559,87.9993 122.559,89.3326 119.5,89.5C 117.077,90.4469 114.743,90.4469 112.5,89.5C 112.338,87.4727 112.505,85.4727 113,83.5C 114.481,82.5291 115.315,81.1958 115.5,79.5C 116.11,78.609 116.443,77.609 116.5,76.5C 118.445,74.6931 119.445,72.3598 119.5,69.5C 120.624,65.6703 120.624,62.0036 119.5,58.5C 119.771,56.6203 119.104,55.287 117.5,54.5C 114.833,49.8333 111.167,46.1667 106.5,43.5C 104.012,41.8718 101.345,40.5384 98.5,39.5C 101.598,39.5875 101.932,39.0875 99.5,38C 102.418,35.2783 105.418,35.445 108.5,38.5C 109.5,38 110.5,37.5 111.5,37C 110.167,36.3333 109.167,35.3333 108.5,34C 109.171,33.0138 109.171,31.8471 108.5,30.5 Z"/></g>
<g><path style="opacity:1" fill="#a20407" d="M 75.5,46.5 C 75.33,47.8221 75.6634,48.9887 76.5,50C 73.4363,53.1548 73.7697,54.4882 77.5,54C 78.9578,56.46 80.7911,58.6266 83,60.5C 84.2862,63.4055 85.2862,66.4055 86,69.5C 86.5502,64.9299 87.7168,64.5966 89.5,68.5C 90.1924,67.9747 90.6924,67.3081 91,66.5C 91.2321,67.7375 91.7321,68.7375 92.5,69.5C 92.1075,71.2838 91.4408,72.9505 90.5,74.5C 82.6889,78.3748 76.3555,76.7082 71.5,69.5C 71.7709,67.6203 71.1042,66.287 69.5,65.5C 69.5,65.1667 69.5,64.8333 69.5,64.5C 69.3677,61.4299 69.701,58.4299 70.5,55.5C 70.9565,52.5944 71.9565,49.9278 73.5,47.5C 74.1667,47.1667 74.8333,46.8333 75.5,46.5 Z"/></g>
<g><path style="opacity:1" fill="#1a1a19" d="M 41.5,44.5 C 41.8333,44.5 42.1667,44.5 42.5,44.5C 42.6054,48.5483 42.2721,52.5483 41.5,56.5C 40.0337,57.347 39.2004,58.6803 39,60.5C 38.8333,59.3333 38.6667,58.1667 38.5,57C 38.5955,52.3607 39.5955,48.1941 41.5,44.5 Z"/></g>
<g><path style="opacity:1" fill="#c47485" d="M 117.5,54.5 C 119.104,55.287 119.771,56.6203 119.5,58.5C 119.5,59.1667 119.167,59.5 118.5,59.5C 117.833,58.5 117.167,57.5 116.5,56.5C 117.338,56.1583 117.672,55.4916 117.5,54.5 Z"/></g>
<g><path style="opacity:1" fill="#291c1a" d="M 146.5,55.5 C 147.833,55.5 149.167,55.5 150.5,55.5C 150.5,57.1667 150.5,58.8333 150.5,60.5C 149.566,61.5676 149.232,62.901 149.5,64.5C 148.167,64.5 146.833,64.5 145.5,64.5C 145.508,61.4552 145.841,58.4552 146.5,55.5 Z"/></g>
<g><path style="opacity:1" fill="#074494" d="M 110.5,53.5 C 112.887,53.9121 114.887,54.9121 116.5,56.5C 117.167,57.5 117.833,58.5 118.5,59.5C 118.688,65.2859 118.022,70.9525 116.5,76.5C 116.443,77.609 116.11,78.609 115.5,79.5C 112.141,82.5285 108.808,85.5285 105.5,88.5C 104.391,88.5569 103.391,88.8902 102.5,89.5C 100.686,85.6301 102.019,83.9634 106.5,84.5C 104.849,78.7161 102.516,73.2161 99.5,68C 99.7355,67.1268 100.069,66.2935 100.5,65.5C 98.8827,65.3306 97.216,64.9972 95.5,64.5C 96.6528,60.861 98.3195,57.5277 100.5,54.5C 103.625,53.5206 106.958,53.1872 110.5,53.5 Z"/></g>
<g><path style="opacity:1" fill="#a85251" d="M 70.5,55.5 C 69.701,58.4299 69.3677,61.4299 69.5,64.5C 69.1667,64.5 68.8333,64.5 68.5,64.5C 67.9455,60.9878 68.6122,57.9878 70.5,55.5 Z"/></g>
<g><path style="opacity:1" fill="#b30206" d="M 82.5,41.5 C 78.36,44.9455 79.0267,47.4455 84.5,49C 83.8333,49.3333 83.1667,49.6667 82.5,50C 85.4565,52.5798 88.4565,55.0798 91.5,57.5C 93.0709,56.6906 94.7376,56.3573 96.5,56.5C 95.5368,61.0492 94.2035,65.3825 92.5,69.5C 91.7321,68.7375 91.2321,67.7375 91,66.5C 90.6924,67.3081 90.1924,67.9747 89.5,68.5C 87.7168,64.5966 86.5502,64.9299 86,69.5C 85.2862,66.4055 84.2862,63.4055 83,60.5C 80.7911,58.6266 78.9578,56.46 77.5,54C 73.7697,54.4882 73.4363,53.1548 76.5,50C 75.6634,48.9887 75.33,47.8221 75.5,46.5C 75.8333,45.8333 76.1667,45.1667 76.5,44.5C 78.5,43.5 80.5,42.5 82.5,41.5 Z"/></g>
<g><path style="opacity:1" fill="#808080" d="M 36.5,56.5 C 36.3347,60.1817 36.5014,63.8484 37,67.5C 37.414,67.9574 37.914,68.2907 38.5,68.5C 39.1818,67.7573 39.8485,67.0906 40.5,66.5C 40.5,67.5 40.5,68.5 40.5,69.5C 38.8561,69.7135 37.3561,69.3802 36,68.5C 35.1881,64.3112 35.3547,60.3112 36.5,56.5 Z"/></g>
<g><path style="opacity:1" fill="#252120" d="M 51.5,48.5 C 52.8333,48.5 54.1667,48.5 55.5,48.5C 55.2605,52.8422 54.9272,57.1756 54.5,61.5C 54.1307,65.7675 53.1307,69.7675 51.5,73.5C 51.1667,73.5 50.8333,73.5 50.5,73.5C 49.3434,65.172 49.6767,56.8387 51.5,48.5 Z"/></g>
<g><path style="opacity:1" fill="#3b3c3c" d="M 41.5,44.5 C 39.5955,48.1941 38.5955,52.3607 38.5,57C 38.6667,58.1667 38.8333,59.3333 39,60.5C 39.2004,58.6803 40.0337,57.347 41.5,56.5C 41.3841,59.8599 41.0508,63.1933 40.5,66.5C 39.8485,67.0906 39.1818,67.7573 38.5,68.5C 37.914,68.2907 37.414,67.9574 37,67.5C 36.5014,63.8484 36.3347,60.1817 36.5,56.5C 36.5751,53.7938 36.9084,51.1272 37.5,48.5C 38.4511,47.0813 38.7845,45.4147 38.5,43.5C 39.791,43.2627 40.791,43.596 41.5,44.5 Z"/></g>
<g><path style="opacity:1" fill="#143082" d="M 100.5,54.5 C 98.3195,57.5277 96.6528,60.861 95.5,64.5C 97.216,64.9972 98.8827,65.3306 100.5,65.5C 100.069,66.2935 99.7355,67.1268 99.5,68C 102.516,73.2161 104.849,78.7161 106.5,84.5C 102.019,83.9634 100.686,85.6301 102.5,89.5C 101.167,89.8333 99.8333,90.1667 98.5,90.5C 98.0632,87.1934 98.7298,84.1934 100.5,81.5C 100.013,78.2045 98.8459,75.2045 97,72.5C 96.2588,73.6405 95.4255,73.6405 94.5,72.5C 93.4777,72.8555 92.811,73.5222 92.5,74.5C 91.8333,74.5 91.1667,74.5 90.5,74.5C 91.4408,72.9505 92.1075,71.2838 92.5,69.5C 94.2035,65.3825 95.5368,61.0492 96.5,56.5C 97.6049,55.3995 98.9382,54.7329 100.5,54.5 Z"/></g>
<g><path style="opacity:1" fill="#85817f" d="M 134.5,53.5 C 134.5,56.5 134.5,59.5 134.5,62.5C 135.5,62.5 136.5,62.5 137.5,62.5C 137.5,59.5 137.5,56.5 137.5,53.5C 138.609,53.5569 139.609,53.8902 140.5,54.5C 140.037,57.4824 139.704,60.4824 139.5,63.5C 140.833,63.5 142.167,63.5 143.5,63.5C 143.704,60.4824 144.037,57.4824 144.5,54.5C 145.167,54.8333 145.833,55.1667 146.5,55.5C 145.841,58.4552 145.508,61.4552 145.5,64.5C 146.833,64.5 148.167,64.5 149.5,64.5C 149.232,62.901 149.566,61.5676 150.5,60.5C 150.58,63.7814 149.913,66.7814 148.5,69.5C 148.5,68.1667 148.5,66.8333 148.5,65.5C 146.5,65.5 144.5,65.5 142.5,65.5C 141.5,65.5 140.5,65.5 139.5,65.5C 138.215,68.5885 137.549,71.9219 137.5,75.5C 135.585,75.7845 133.919,75.4511 132.5,74.5C 133.833,74.5 135.167,74.5 136.5,74.5C 136.5,71.5 136.5,68.5 136.5,65.5C 135.5,65.5 134.5,65.5 133.5,65.5C 133.312,61.5157 133.646,57.5157 134.5,53.5 Z"/></g>
<g><path style="opacity:1" fill="#28201f" d="M 140.5,54.5 C 141.833,54.5 143.167,54.5 144.5,54.5C 144.037,57.4824 143.704,60.4824 143.5,63.5C 142.167,63.5 140.833,63.5 139.5,63.5C 139.704,60.4824 140.037,57.4824 140.5,54.5 Z"/></g>
<g><path style="opacity:1" fill="#1d1818" d="M 134.5,53.5 C 135.5,53.5 136.5,53.5 137.5,53.5C 137.5,56.5 137.5,59.5 137.5,62.5C 136.5,62.5 135.5,62.5 134.5,62.5C 134.5,59.5 134.5,56.5 134.5,53.5 Z"/></g>
<g><path style="opacity:1" fill="#690e2c" d="M 69.5,65.5 C 71.1042,66.287 71.7709,67.6203 71.5,69.5C 71.1667,69.5 70.8333,69.5 70.5,69.5C 70.1667,68.1667 69.8333,66.8333 69.5,65.5 Z"/></g>
<g><path style="opacity:1" fill="#282728" d="M 132.5,65.5 C 132.833,65.5 133.167,65.5 133.5,65.5C 134.5,65.5 135.5,65.5 136.5,65.5C 136.5,68.5 136.5,71.5 136.5,74.5C 135.167,74.5 133.833,74.5 132.5,74.5C 132.5,72.1667 132.5,69.8333 132.5,67.5C 132.5,66.8333 132.5,66.1667 132.5,65.5 Z"/></g>
<g><path style="opacity:1" fill="#cdcdcd" d="M 71.5,74.5 C 71.719,75.675 71.3857,76.675 70.5,77.5C 69.3801,76.1666 68.0468,75.6666 66.5,76C 67.158,77.9045 68.3247,79.4045 70,80.5C 70.711,82.8991 70.5443,85.2324 69.5,87.5C 70.3052,89.9154 71.3052,92.2487 72.5,94.5C 70.9052,95.4339 69.2385,95.4339 67.5,94.5C 65.7367,93.0462 64.4033,93.3796 63.5,95.5C 63.1667,95.5 62.8333,95.5 62.5,95.5C 62.5,94.5 62.5,93.5 62.5,92.5C 64.433,92.2714 66.0997,91.4381 67.5,90C 65.1592,85.1408 62.1592,80.6408 58.5,76.5C 57.2342,75.6376 55.9008,74.9709 54.5,74.5C 54.5,72.1667 54.5,69.8333 54.5,67.5C 55.166,64.6417 55.8326,61.6417 56.5,58.5C 59.3092,62.4767 62.3092,66.31 65.5,70C 66.448,70.4828 67.448,70.6495 68.5,70.5C 68.5,71.8333 68.5,73.1667 68.5,74.5C 69.5,74.5 70.5,74.5 71.5,74.5 Z"/></g>
<g><path style="opacity:1" fill="#6b6694" d="M 68.5,64.5 C 68.8333,64.5 69.1667,64.5 69.5,64.5C 69.5,64.8333 69.5,65.1667 69.5,65.5C 69.8333,66.8333 70.1667,68.1667 70.5,69.5C 70.5,70.1667 70.5,70.8333 70.5,71.5C 68.8372,69.5615 68.1706,67.2282 68.5,64.5 Z"/></g>
<g><path style="opacity:1" fill="#696261" d="M 139.5,65.5 C 139.726,68.2492 139.393,70.9159 138.5,73.5C 139.325,74.3857 140.325,74.719 141.5,74.5C 141.508,71.4552 141.841,68.4552 142.5,65.5C 144.5,65.5 146.5,65.5 148.5,65.5C 148.5,66.8333 148.5,68.1667 148.5,69.5C 148.737,70.791 148.404,71.791 147.5,72.5C 147.5,70.5 147.5,68.5 147.5,66.5C 146.5,66.5 145.5,66.5 144.5,66.5C 144.296,69.5176 143.963,72.5176 143.5,75.5C 141.5,75.5 139.5,75.5 137.5,75.5C 137.549,71.9219 138.215,68.5885 139.5,65.5 Z"/></g>
<g><path style="opacity:1" fill="#181414" d="M 139.5,65.5 C 140.5,65.5 141.5,65.5 142.5,65.5C 141.841,68.4552 141.508,71.4552 141.5,74.5C 140.325,74.719 139.325,74.3857 138.5,73.5C 139.393,70.9159 139.726,68.2492 139.5,65.5 Z"/></g>
<g><path style="opacity:1" fill="#838281" d="M 42.5,44.5 C 44.1172,45.038 45.7839,45.3713 47.5,45.5C 47.5,45.8333 47.5,46.1667 47.5,46.5C 46.5028,46.4701 45.8361,46.9701 45.5,48C 43.7221,55.3807 43.0554,62.8807 43.5,70.5C 44.5,70.5 45.5,70.5 46.5,70.5C 47.3469,62.5177 48.0135,54.5177 48.5,46.5C 49.7777,46.7822 50.7777,47.4489 51.5,48.5C 49.6767,56.8387 49.3434,65.172 50.5,73.5C 47.3273,72.9583 44.3273,71.9583 41.5,70.5C 41.7678,68.901 41.4345,67.5676 40.5,66.5C 41.0508,63.1933 41.3841,59.8599 41.5,56.5C 42.2721,52.5483 42.6054,48.5483 42.5,44.5 Z"/></g>
<g><path style="opacity:1" fill="#1d1b19" d="M 47.5,46.5 C 47.8333,46.5 48.1667,46.5 48.5,46.5C 48.0135,54.5177 47.3469,62.5177 46.5,70.5C 45.5,70.5 44.5,70.5 43.5,70.5C 43.0554,62.8807 43.7221,55.3807 45.5,48C 45.8361,46.9701 46.5028,46.4701 47.5,46.5 Z"/></g>
<g><path style="opacity:1" fill="#7a7979" d="M 54.5,61.5 C 54.5,63.5 54.5,65.5 54.5,67.5C 54.5,69.8333 54.5,72.1667 54.5,74.5C 53.8333,74.5 53.1667,74.5 52.5,74.5C 51.8333,74.5 51.5,74.1667 51.5,73.5C 53.1307,69.7675 54.1307,65.7675 54.5,61.5 Z"/></g>
<g><path style="opacity:1" fill="#678bbc" d="M 119.5,58.5 C 120.624,62.0036 120.624,65.6703 119.5,69.5C 119.445,72.3598 118.445,74.6931 116.5,76.5C 118.022,70.9525 118.688,65.2859 118.5,59.5C 119.167,59.5 119.5,59.1667 119.5,58.5 Z"/></g>
<g><path style="opacity:1" fill="#28201e" d="M 147.5,72.5 C 147.5,73.5 147.5,74.5 147.5,75.5C 146.167,75.5 144.833,75.5 143.5,75.5C 143.963,72.5176 144.296,69.5176 144.5,66.5C 145.5,66.5 146.5,66.5 147.5,66.5C 147.5,68.5 147.5,70.5 147.5,72.5 Z"/></g>
<g><path style="opacity:1" fill="#b9b9b9" d="M 135.5,23.5 C 143.262,31.4295 150.096,40.0962 156,49.5C 158.276,55.7159 160.109,62.0492 161.5,68.5C 161.07,72.9209 159.737,76.9209 157.5,80.5C 152.334,83.2484 147.334,86.2484 142.5,89.5C 141.596,87.3621 140.929,85.0288 140.5,82.5C 141.754,80.6663 142.421,78.6663 142.5,76.5C 144.582,76.472 146.416,77.1387 148,78.5C 149.675,77.4045 150.842,75.9045 151.5,74C 153.9,73.8142 156.234,73.3142 158.5,72.5C 156.971,69.7907 155.638,66.9573 154.5,64C 154.722,60.5542 154.722,57.2209 154.5,54C 153.283,52.3523 152.45,50.519 152,48.5C 147.644,39.4898 141.811,31.6565 134.5,25C 135.056,24.6174 135.389,24.1174 135.5,23.5 Z"/></g>
<g><path style="opacity:1" fill="#dcdcdc" d="M 52.5,74.5 C 53.1667,74.5 53.8333,74.5 54.5,74.5C 55.9008,74.9709 57.2342,75.6376 58.5,76.5C 62.1592,80.6408 65.1592,85.1408 67.5,90C 66.0997,91.4381 64.433,92.2714 62.5,92.5C 62.5,93.5 62.5,94.5 62.5,95.5C 62.5674,96.9587 62.2341,98.2921 61.5,99.5C 60.7659,100.708 60.4326,102.041 60.5,103.5C 60.5,104.167 60.1667,104.5 59.5,104.5C 59.6633,102.143 59.4966,99.8098 59,97.5C 56.8333,96 57,94.8333 59.5,94C 56.7358,89.1942 54.0691,84.3609 51.5,79.5C 52.3094,77.9291 52.6427,76.2624 52.5,74.5 Z"/></g>
<g><path style="opacity:1" fill="#0e0870" d="M 70.5,69.5 C 70.8333,69.5 71.1667,69.5 71.5,69.5C 76.3555,76.7082 82.6889,78.3748 90.5,74.5C 91.1667,74.5 91.8333,74.5 92.5,74.5C 92.3249,79.5119 92.9915,84.5119 94.5,89.5C 95.791,89.2627 96.791,89.596 97.5,90.5C 93.7657,90.6773 90.0991,90.3439 86.5,89.5C 83.1393,88.316 80.1393,86.4827 77.5,84C 76.9473,82.1222 75.9473,80.6222 74.5,79.5C 73.8897,77.5659 72.8897,75.8993 71.5,74.5C 71.4431,73.391 71.1098,72.391 70.5,71.5C 70.5,70.8333 70.5,70.1667 70.5,69.5 Z"/></g>
<g><path style="opacity:1" fill="#021a7a" d="M 98.5,90.5 C 98.1667,90.5 97.8333,90.5 97.5,90.5C 96.791,89.596 95.791,89.2627 94.5,89.5C 92.9915,84.5119 92.3249,79.5119 92.5,74.5C 92.811,73.5222 93.4777,72.8555 94.5,72.5C 95.4255,73.6405 96.2588,73.6405 97,72.5C 98.8459,75.2045 100.013,78.2045 100.5,81.5C 98.7298,84.1934 98.0632,87.1934 98.5,90.5 Z"/></g>
<g><path style="opacity:1" fill="#ececec" d="M 117.5,5.5 C 123.987,4.34602 130.654,4.17935 137.5,5C 139.78,5.23263 141.78,6.06596 143.5,7.5C 148.875,19.2497 155.042,30.583 162,41.5C 163.154,42.7433 164.488,43.7433 166,44.5C 168.513,50.8552 171.013,57.1885 173.5,63.5C 174.5,63.5 175.5,63.5 176.5,63.5C 176.144,66.5641 176.977,69.2307 179,71.5C 179.837,69.9926 181.004,69.4926 182.5,70C 184.475,74.9036 186.142,79.9036 187.5,85C 186.939,86.676 185.939,88.0094 184.5,89C 186.81,89.4966 189.143,89.6633 191.5,89.5C 191.5,90.1667 191.5,90.8333 191.5,91.5C 189.278,91.178 187.444,91.8446 186,93.5C 182.535,93.0328 180.868,91.0328 181,87.5C 180.163,89.3506 179.329,91.1839 178.5,93C 176.691,95.4087 174.358,96.4087 171.5,96C 170.023,94.1164 168.69,92.1164 167.5,90C 167.833,89.6667 168.167,89.3333 168.5,89C 167.57,87.8061 166.903,86.4728 166.5,85C 167.673,82.4791 167.673,79.9791 166.5,77.5C 165.817,77.8627 165.15,78.1961 164.5,78.5C 166.472,76.7613 168.805,75.428 171.5,74.5C 172.376,74.6309 173.043,74.2975 173.5,73.5C 172.5,72.6667 171.5,71.8333 170.5,71C 171.944,69.2365 172.944,67.2365 173.5,65C 172.207,64.51 170.873,64.3433 169.5,64.5C 168.148,57.7841 165.648,51.4507 162,45.5C 154.232,34.298 147.232,22.6314 141,10.5C 138.78,6.30755 135.28,4.64088 130.5,5.5C 126.167,5.5 121.833,5.5 117.5,5.5 Z"/></g>
<g><path style="opacity:1" fill="#c0c0c1" d="M 71.5,74.5 C 72.8897,75.8993 73.8897,77.5659 74.5,79.5C 74.804,82.5219 75.304,85.5219 76,88.5C 77.6453,88.6932 79.4787,88.8598 81.5,89C 80.5,89.3333 79.5,89.6667 78.5,90C 80.2741,92.3675 81.9408,94.8675 83.5,97.5C 82.9747,98.1924 82.3081,98.6924 81.5,99C 81.8333,99.3333 82.1667,99.6667 82.5,100C 81.5,100.5 80.5,101 79.5,101.5C 78.3777,100.37 77.0443,99.7031 75.5,99.5C 72.1511,98.8305 69.4844,97.1639 67.5,94.5C 69.2385,95.4339 70.9052,95.4339 72.5,94.5C 71.3052,92.2487 70.3052,89.9154 69.5,87.5C 70.5443,85.2324 70.711,82.8991 70,80.5C 68.3247,79.4045 67.158,77.9045 66.5,76C 68.0468,75.6666 69.3801,76.1666 70.5,77.5C 71.3857,76.675 71.719,75.675 71.5,74.5 Z"/></g>
<g><path style="opacity:1" fill="#dbdbdb" d="M 131.5,72.5 C 131.5,73.8333 131.5,75.1667 131.5,76.5C 135.167,76.5 138.833,76.5 142.5,76.5C 142.421,78.6663 141.754,80.6663 140.5,82.5C 140.929,85.0288 141.596,87.3621 142.5,89.5C 139.154,90.846 136.821,93.1793 135.5,96.5C 131.943,98.2787 128.276,100.112 124.5,102C 123.833,103 123.167,104 122.5,105C 115.392,109.93 108.392,115.096 101.5,120.5C 102.72,118.718 103.386,116.718 103.5,114.5C 106.004,114.172 107.838,112.838 109,110.5C 109.388,107.151 109.221,103.817 108.5,100.5C 103.318,100.443 103.318,99.776 108.5,98.5C 107.264,95.6173 105.264,93.4507 102.5,92C 104.167,91.6667 105.833,91.3333 107.5,91C 107.043,90.586 106.709,90.086 106.5,89.5C 107.833,88.5 109.167,87.5 110.5,86.5C 111.645,87.7757 111.645,89.109 110.5,90.5C 111.694,91.6704 112.361,91.337 112.5,89.5C 114.743,90.4469 117.077,90.4469 119.5,89.5C 122.559,89.3326 123.559,87.9993 122.5,85.5C 121.278,87.9783 119.278,88.9783 116.5,88.5C 116.5,87.5 116.5,86.5 116.5,85.5C 118.818,85.3429 120.484,84.1762 121.5,82C 120.813,80.8382 120.647,79.6716 121,78.5C 122.833,79.6667 124.333,81.1667 125.5,83C 126.167,83.6667 126.833,83.6667 127.5,83C 128.027,79.4022 129.36,75.9022 131.5,72.5 Z"/></g>
<g><path style="opacity:1" fill="#7681a8" d="M 105.5,88.5 C 103.68,90.4484 101.346,91.4484 98.5,91.5C 94.8183,91.6653 91.1516,91.4986 87.5,91C 86.944,90.6174 86.6107,90.1174 86.5,89.5C 90.0991,90.3439 93.7657,90.6773 97.5,90.5C 97.8333,90.5 98.1667,90.5 98.5,90.5C 99.8333,90.1667 101.167,89.8333 102.5,89.5C 103.391,88.8902 104.391,88.5569 105.5,88.5 Z"/></g>
<g><path style="opacity:1" fill="#b5b5b5" d="M 74.5,79.5 C 75.9473,80.6222 76.9473,82.1222 77.5,84C 80.1393,86.4827 83.1393,88.316 86.5,89.5C 86.6107,90.1174 86.944,90.6174 87.5,91C 91.1516,91.4986 94.8183,91.6653 98.5,91.5C 100.217,96.8584 101.884,102.192 103.5,107.5C 103.281,108.938 102.781,110.271 102,111.5C 101.333,110.167 100.667,110.167 100,111.5C 100,114.167 100,116.833 100,119.5C 99.6758,117.431 98.8425,117.098 97.5,118.5C 96.7022,120.078 96.2022,121.744 96,123.5C 95.0862,122.346 94.2529,122.513 93.5,124C 93.9574,124.414 94.2907,124.914 94.5,125.5C 93.3881,126.265 92.7214,127.265 92.5,128.5C 87.362,131.237 82.362,134.237 77.5,137.5C 76.325,137.719 75.325,137.386 74.5,136.5C 76.6327,133.872 76.966,131.039 75.5,128C 76.1667,127.667 76.8333,127.333 77.5,127C 74.5793,126.248 72.9126,124.415 72.5,121.5C 73.8149,122.476 75.1482,123.476 76.5,124.5C 77.1067,124.376 77.44,124.043 77.5,123.5C 79.0283,121.721 80.3616,119.721 81.5,117.5C 81.5,117.167 81.5,116.833 81.5,116.5C 83.1991,114.434 84.5324,112.1 85.5,109.5C 85.719,108.325 85.3857,107.325 84.5,106.5C 81.25,104.388 78.25,102.055 75.5,99.5C 77.0443,99.7031 78.3777,100.37 79.5,101.5C 80.5,101 81.5,100.5 82.5,100C 82.1667,99.6667 81.8333,99.3333 81.5,99C 82.3081,98.6924 82.9747,98.1924 83.5,97.5C 81.9408,94.8675 80.2741,92.3675 78.5,90C 79.5,89.6667 80.5,89.3333 81.5,89C 79.4787,88.8598 77.6453,88.6932 76,88.5C 75.304,85.5219 74.804,82.5219 74.5,79.5 Z"/></g>
<g><path style="opacity:1" fill="#231f1e" d="M 67.5,94.5 C 69.4844,97.1639 72.1511,98.8305 75.5,99.5C 78.25,102.055 81.25,104.388 84.5,106.5C 85.3857,107.325 85.719,108.325 85.5,109.5C 84.2618,110.412 82.9285,110.579 81.5,110C 75.8333,106.167 70.1667,102.333 64.5,98.5C 63.6143,97.675 63.281,96.675 63.5,95.5C 64.4033,93.3796 65.7367,93.0462 67.5,94.5 Z"/></g>
<g><path style="opacity:1" fill="#cccdcd" d="M 115.5,79.5 C 115.315,81.1958 114.481,82.5291 113,83.5C 112.505,85.4727 112.338,87.4727 112.5,89.5C 112.361,91.337 111.694,91.6704 110.5,90.5C 111.645,89.109 111.645,87.7757 110.5,86.5C 109.167,87.5 107.833,88.5 106.5,89.5C 106.709,90.086 107.043,90.586 107.5,91C 105.833,91.3333 104.167,91.6667 102.5,92C 105.264,93.4507 107.264,95.6173 108.5,98.5C 103.318,99.776 103.318,100.443 108.5,100.5C 109.221,103.817 109.388,107.151 109,110.5C 107.838,112.838 106.004,114.172 103.5,114.5C 103.386,116.718 102.72,118.718 101.5,120.5C 98.4923,123.211 95.4923,125.878 92.5,128.5C 92.7214,127.265 93.3881,126.265 94.5,125.5C 94.2907,124.914 93.9574,124.414 93.5,124C 94.2529,122.513 95.0862,122.346 96,123.5C 96.2022,121.744 96.7022,120.078 97.5,118.5C 98.8425,117.098 99.6758,117.431 100,119.5C 100,116.833 100,114.167 100,111.5C 100.667,110.167 101.333,110.167 102,111.5C 102.781,110.271 103.281,108.938 103.5,107.5C 101.884,102.192 100.217,96.8584 98.5,91.5C 101.346,91.4484 103.68,90.4484 105.5,88.5C 108.808,85.5285 112.141,82.5285 115.5,79.5 Z"/></g>
<g><path style="opacity:1" fill="#292a29" d="M 61.5,99.5 C 65.3971,101.069 68.7304,103.403 71.5,106.5C 71.5472,108 70.8805,109 69.5,109.5C 66.9873,106.745 63.9873,104.745 60.5,103.5C 60.4326,102.041 60.7659,100.708 61.5,99.5 Z"/></g>
<g><path style="opacity:1" fill="#8c8a89" d="M 62.5,95.5 C 62.8333,95.5 63.1667,95.5 63.5,95.5C 63.281,96.675 63.6143,97.675 64.5,98.5C 70.1667,102.333 75.8333,106.167 81.5,110C 82.9285,110.579 84.2618,110.412 85.5,109.5C 84.5324,112.1 83.1991,114.434 81.5,116.5C 81.4142,115.504 81.7476,114.671 82.5,114C 79.7082,111.01 76.3748,109.177 72.5,108.5C 72.3433,109.873 72.51,111.207 73,112.5C 75.5056,114.863 78.3389,116.53 81.5,117.5C 80.3616,119.721 79.0283,121.721 77.5,123.5C 78.0283,122.153 78.195,120.819 78,119.5C 75.5838,116.577 72.7504,114.243 69.5,112.5C 66.3044,109.404 62.6377,107.07 58.5,105.5C 58.5,104.833 58.8333,104.5 59.5,104.5C 60.1667,104.5 60.5,104.167 60.5,103.5C 63.9873,104.745 66.9873,106.745 69.5,109.5C 70.8805,109 71.5472,108 71.5,106.5C 68.7304,103.403 65.3971,101.069 61.5,99.5C 62.2341,98.2921 62.5674,96.9587 62.5,95.5 Z"/></g>
<g><path style="opacity:1" fill="#3b3b3b" d="M 58.5,105.5 C 62.6377,107.07 66.3044,109.404 69.5,112.5C 67.1278,110.852 65.7944,111.519 65.5,114.5C 64.8333,114.5 64.1667,114.5 63.5,114.5C 62.5,112.833 61.1667,111.5 59.5,110.5C 57.4031,109.121 57.0698,107.455 58.5,105.5 Z"/></g>
<g><path style="opacity:1" fill="#25201e" d="M 81.5,116.5 C 81.5,116.833 81.5,117.167 81.5,117.5C 78.3389,116.53 75.5056,114.863 73,112.5C 72.51,111.207 72.3433,109.873 72.5,108.5C 76.3748,109.177 79.7082,111.01 82.5,114C 81.7476,114.671 81.4142,115.504 81.5,116.5 Z"/></g>
<g><path style="opacity:1" fill="#e8e8e8" d="M 59.5,110.5 C 61.1667,111.5 62.5,112.833 63.5,114.5C 64.8798,124.483 61.5464,132.983 53.5,140C 54.7059,141.018 54.3726,141.518 52.5,141.5C 50.575,139.027 48.7417,139.027 47,141.5C 46.502,144.482 46.3354,147.482 46.5,150.5C 54.0626,147.889 61.7293,145.555 69.5,143.5C 69.5299,144.497 69.0299,145.164 68,145.5C 62.6015,146.804 57.4349,148.637 52.5,151C 49.854,151.497 47.1873,151.664 44.5,151.5C 44.1616,142.454 44.1616,133.454 44.5,124.5C 47.8385,124.505 51.1718,124.505 54.5,124.5C 55.154,122.885 55.654,121.218 56,119.5C 56.3333,120.167 56.6667,120.833 57,121.5C 58.7184,119.798 58.885,117.965 57.5,116C 58.5,115 59.5,114 60.5,113C 59.7476,112.329 59.4142,111.496 59.5,110.5 Z"/></g>
<g><path style="opacity:1" fill="#232120" d="M 69.5,112.5 C 72.7504,114.243 75.5838,116.577 78,119.5C 78.195,120.819 78.0283,122.153 77.5,123.5C 77.44,124.043 77.1067,124.376 76.5,124.5C 75.1482,123.476 73.8149,122.476 72.5,121.5C 69.973,119.395 67.6397,117.061 65.5,114.5C 65.7944,111.519 67.1278,110.852 69.5,112.5 Z"/></g>
<g><path style="opacity:1" fill="#d6d6d6" d="M 63.5,114.5 C 64.1667,114.5 64.8333,114.5 65.5,114.5C 67.6397,117.061 69.973,119.395 72.5,121.5C 72.9126,124.415 74.5793,126.248 77.5,127C 76.8333,127.333 76.1667,127.667 75.5,128C 76.966,131.039 76.6327,133.872 74.5,136.5C 75.325,137.386 76.325,137.719 77.5,137.5C 74.5962,139.055 71.9295,141.055 69.5,143.5C 61.7293,145.555 54.0626,147.889 46.5,150.5C 46.3354,147.482 46.502,144.482 47,141.5C 48.7417,139.027 50.575,139.027 52.5,141.5C 54.3726,141.518 54.7059,141.018 53.5,140C 61.5464,132.983 64.8798,124.483 63.5,114.5 Z"/></g>
</svg>
