<?xml version="1.0" encoding="UTF-8"?>
<!DOCTYPE svg PUBLIC "-//W3C//DTD SVG 1.1//EN" "http://www.w3.org/Graphics/SVG/1.1/DTD/svg11.dtd">
<svg xmlns="http://www.w3.org/2000/svg" version="1.1" width="192px" height="155px" style="shape-rendering:geometricPrecision; text-rendering:geometricPrecision; image-rendering:optimizeQuality; fill-rule:evenodd; clip-rule:evenodd" xmlns:xlink="http://www.w3.org/1999/xlink">
<g><path style="opacity:1" fill="#fefefe" d="M -0.5,-0.5 C 3.16667,-0.5 6.83333,-0.5 10.5,-0.5C 10.1682,9.18959 10.5016,18.8563 11.5,28.5C 13.5,29.5 15.5,30.5 17.5,31.5C 21.164,40.3278 25.4973,48.8278 30.5,57C 35.7864,62.9535 40.2864,69.4535 44,76.5C 46.3169,78.316 48.4835,80.316 50.5,82.5C 48.9567,84.2532 47.9567,86.2532 47.5,88.5C 45.1944,88.9926 42.861,89.3259 40.5,89.5C 36.8333,89.5 33.1667,89.5 29.5,89.5C 20.0549,75.9308 13.8882,60.9308 11,44.5C 10.5,81.1652 10.3333,117.832 10.5,154.5C 6.83333,154.5 3.16667,154.5 -0.5,154.5C -0.5,102.833 -0.5,51.1667 -0.5,-0.5 Z"/></g>
<g><path style="opacity:1" fill="#f5f4f4" d="M 10.5,-0.5 C 70.8333,-0.5 131.167,-0.5 191.5,-0.5C 191.5,51.1667 191.5,102.833 191.5,154.5C 131.167,154.5 70.8333,154.5 10.5,154.5C 10.3333,117.832 10.5,81.1652 11,44.5C 13.8882,60.9308 20.0549,75.9308 29.5,89.5C 28.1472,91.1284 28.4805,92.4617 30.5,93.5C 30.427,95.0269 31.0937,96.0269 32.5,96.5C 36.2661,102.37 39.2661,108.703 41.5,115.5C 41.427,117.027 42.0937,118.027 43.5,118.5C 43.1201,120.698 43.7868,122.365 45.5,123.5C 46.3007,125.042 46.634,126.708 46.5,128.5C 46.9754,132.084 47.9754,135.417 49.5,138.5C 49.5,142.833 49.5,147.167 49.5,151.5C 51.4147,151.784 53.0813,151.451 54.5,150.5C 55.791,150.737 56.791,150.404 57.5,149.5C 63.526,147.985 69.1926,145.652 74.5,142.5C 75.1667,142.5 75.8333,142.5 76.5,142.5C 79.7817,141.699 82.4484,140.032 84.5,137.5C 86.2228,135.782 88.2228,134.449 90.5,133.5C 92.4044,133.262 93.7377,132.262 94.5,130.5C 96.8333,128.5 99.1667,126.5 101.5,124.5C 103.909,123.299 105.909,121.633 107.5,119.5C 111.5,116.833 115.5,114.167 119.5,111.5C 121.749,110.92 123.415,109.587 124.5,107.5C 126.749,106.92 128.415,105.587 129.5,103.5C 129.5,102.833 129.833,102.5 130.5,102.5C 132.404,102.262 133.738,101.262 134.5,99.5C 135.5,97.8333 136.833,96.5 138.5,95.5C 142.833,92.8333 147.167,90.1667 151.5,87.5C 153.027,87.573 154.027,86.9063 154.5,85.5C 156.181,83.9925 158.181,82.9925 160.5,82.5C 163.448,82.2229 166.281,82.5562 169,83.5C 171.167,82 171,80.8333 168.5,80C 169.416,79.7216 170.082,79.2216 170.5,78.5C 175.333,76.7087 180.333,75.7087 185.5,75.5C 185.795,73.2646 185.461,71.2646 184.5,69.5C 184.167,69.5 183.833,69.5 183.5,69.5C 183.5,68.1667 183.5,66.8333 183.5,65.5C 183.573,63.9731 182.906,62.9731 181.5,62.5C 180.89,61.609 180.557,60.609 180.5,59.5C 178.75,55.6654 176.75,51.9988 174.5,48.5C 173.551,46.2228 172.218,44.2228 170.5,42.5C 170.672,41.5084 170.338,40.8417 169.5,40.5C 167.393,39.5318 165.059,39.1984 162.5,39.5C 162.657,38.1266 162.49,36.7932 162,35.5C 155.56,26.6206 150.727,16.9539 147.5,6.5C 137.856,5.47334 128.189,5.30668 118.5,6C 117.944,6.38258 117.611,6.88258 117.5,7.5C 116.292,8.23411 114.959,8.56745 113.5,8.5C 108.634,8.79903 104.301,10.4657 100.5,13.5C 109.54,21.0104 118.54,28.5104 127.5,36C 128.761,39.4312 131.094,41.5979 134.5,42.5C 133.797,44.8726 132.464,46.8726 130.5,48.5C 127.421,49.304 124.421,50.304 121.5,51.5C 120.325,51.719 119.325,51.3857 118.5,50.5C 120.028,49.1387 121.695,47.972 123.5,47C 122.128,46.5983 120.795,46.0983 119.5,45.5C 117.328,42.169 114.995,39.0024 112.5,36C 106.522,33.5261 101.522,29.8595 97.5,25C 94.1522,22.9773 90.8189,20.9773 87.5,19C 82.4384,18.4061 77.7718,19.5727 73.5,22.5C 72.479,23.0016 72.3123,23.6683 73,24.5C 80.698,32.3543 89.198,39.3543 98.5,45.5C 99.5836,46.6651 100.417,47.9984 101,49.5C 101.414,49.0426 101.914,48.7093 102.5,48.5C 103.917,51.7493 105.917,54.5827 108.5,57C 109.99,56.5512 111.324,55.5512 112.5,54C 114.134,53.5065 115.801,53.3398 117.5,53.5C 117.167,54.1667 116.833,54.8333 116.5,55.5C 114.326,55.7497 112.659,56.7497 111.5,58.5C 111.167,58.5 110.833,58.5 110.5,58.5C 108.216,58.9752 106.216,59.9752 104.5,61.5C 103.5,61.5 102.5,61.5 101.5,61.5C 102.598,59.3579 101.764,58.0246 99,57.5C 98.3161,55.641 97.3161,53.9743 96,52.5C 86.3565,43.8509 77.1898,35.0176 68.5,26C 64.5,25.3333 60.5,25.3333 56.5,26C 55.244,26.4169 54.5774,27.2502 54.5,28.5C 52.901,28.2322 51.5676,28.5655 50.5,29.5C 46.0108,29.8867 41.6775,30.8867 37.5,32.5C 34.8127,32.3359 32.146,32.5026 29.5,33C 28.6919,33.3076 28.0253,33.8076 27.5,34.5C 36.7773,48.1037 46.7773,61.1037 57.5,73.5C 59.971,77.126 60.971,81.126 60.5,85.5C 57.5568,85.9802 54.8902,86.9802 52.5,88.5C 51.8333,88.5 51.1667,88.5 50.5,88.5C 49.5,88.5 48.5,88.5 47.5,88.5C 47.9567,86.2532 48.9567,84.2532 50.5,82.5C 48.4835,80.316 46.3169,78.316 44,76.5C 40.2864,69.4535 35.7864,62.9535 30.5,57C 25.4973,48.8278 21.164,40.3278 17.5,31.5C 15.5,30.5 13.5,29.5 11.5,28.5C 10.5016,18.8563 10.1682,9.18959 10.5,-0.5 Z"/></g>
<g><path style="opacity:1" fill="#e9eaea" d="M 162.5,39.5 C 161.167,39.5 159.833,39.5 158.5,39.5C 156.801,39.6602 155.134,39.4935 153.5,39C 154.167,38.6667 154.833,38.3333 155.5,38C 148.912,30.8299 143.412,22.9966 139,14.5C 137.167,12.6667 135.333,10.8333 133.5,9C 133.833,8.66667 134.167,8.33333 134.5,8C 128.843,7.50058 123.176,7.33391 117.5,7.5C 117.611,6.88258 117.944,6.38258 118.5,6C 128.189,5.30668 137.856,5.47334 147.5,6.5C 150.727,16.9539 155.56,26.6206 162,35.5C 162.49,36.7932 162.657,38.1266 162.5,39.5 Z"/></g>
<g><path style="opacity:1" fill="#cdcdcd" d="M 117.5,7.5 C 123.176,7.33391 128.843,7.50058 134.5,8C 134.167,8.33333 133.833,8.66667 133.5,9C 135.333,10.8333 137.167,12.6667 139,14.5C 143.412,22.9966 148.912,30.8299 155.5,38C 154.833,38.3333 154.167,38.6667 153.5,39C 155.134,39.4935 156.801,39.6602 158.5,39.5C 157.5,40.1667 156.5,40.8333 155.5,41.5C 152.505,41.2938 149.838,41.9605 147.5,43.5C 145.585,43.2155 143.919,43.5489 142.5,44.5C 141.5,44.5 140.5,44.5 139.5,44.5C 138.253,42.822 136.586,41.4887 134.5,40.5C 133.424,36.5952 131.424,33.2619 128.5,30.5C 123.111,24.4002 117.277,18.7335 111,13.5C 110.294,11.0448 111.127,9.37809 113.5,8.5C 114.959,8.56745 116.292,8.23411 117.5,7.5 Z"/></g>
<g><path style="opacity:1" fill="#dddddd" d="M 113.5,8.5 C 111.127,9.37809 110.294,11.0448 111,13.5C 117.277,18.7335 123.111,24.4002 128.5,30.5C 131.424,33.2619 133.424,36.5952 134.5,40.5C 136.586,41.4887 138.253,42.822 139.5,44.5C 137.435,44.953 135.768,45.953 134.5,47.5C 133.167,47.8333 131.833,48.1667 130.5,48.5C 132.464,46.8726 133.797,44.8726 134.5,42.5C 131.094,41.5979 128.761,39.4312 127.5,36C 118.54,28.5104 109.54,21.0104 100.5,13.5C 104.301,10.4657 108.634,8.79903 113.5,8.5 Z"/></g>
<g><path style="opacity:1" fill="#fcfcfc" d="M 121.5,51.5 C 121.5,51.8333 121.5,52.1667 121.5,52.5C 120.833,52.8333 120.167,53.1667 119.5,53.5C 118.833,53.5 118.167,53.5 117.5,53.5C 115.801,53.3398 114.134,53.5065 112.5,54C 111.324,55.5512 109.99,56.5512 108.5,57C 105.917,54.5827 103.917,51.7493 102.5,48.5C 101.914,48.7093 101.414,49.0426 101,49.5C 100.417,47.9984 99.5836,46.6651 98.5,45.5C 89.198,39.3543 80.698,32.3543 73,24.5C 72.3123,23.6683 72.479,23.0016 73.5,22.5C 77.7718,19.5727 82.4384,18.4061 87.5,19C 90.8189,20.9773 94.1522,22.9773 97.5,25C 101.522,29.8595 106.522,33.5261 112.5,36C 114.995,39.0024 117.328,42.169 119.5,45.5C 120.795,46.0983 122.128,46.5983 123.5,47C 121.695,47.972 120.028,49.1387 118.5,50.5C 119.325,51.3857 120.325,51.719 121.5,51.5 Z"/></g>
<g><path style="opacity:1" fill="#dadad9" d="M 101.5,61.5 C 102.5,61.5 103.5,61.5 104.5,61.5C 104.5,61.8333 104.5,62.1667 104.5,62.5C 102.046,63.2271 99.7128,64.2271 97.5,65.5C 90.4865,62.8641 85.1532,58.1974 81.5,51.5C 74.4026,45.5771 67.4026,39.4104 60.5,33C 59.552,32.5172 58.552,32.3505 57.5,32.5C 57.5,31.5 57.5,30.5 57.5,29.5C 55.1667,29.5 52.8333,29.5 50.5,29.5C 51.5676,28.5655 52.901,28.2322 54.5,28.5C 58.3583,26.9461 62.0249,27.2795 65.5,29.5C 74.8333,39.1667 84.1667,48.8333 93.5,58.5C 94.7757,59.6446 96.109,59.6446 97.5,58.5C 98.3857,59.325 98.719,60.325 98.5,61.5C 99.5,61.5 100.5,61.5 101.5,61.5 Z"/></g>
<g><path style="opacity:1" fill="#cdcccc" d="M 50.5,29.5 C 52.8333,29.5 55.1667,29.5 57.5,29.5C 57.5,30.5 57.5,31.5 57.5,32.5C 58.552,32.3505 59.552,32.5172 60.5,33C 67.4026,39.4104 74.4026,45.5771 81.5,51.5C 85.1532,58.1974 90.4865,62.8641 97.5,65.5C 96.6935,66.7281 95.6935,67.7281 94.5,68.5C 90.4945,69.4977 87.1612,71.4977 84.5,74.5C 83.5084,74.3284 82.8417,74.6618 82.5,75.5C 80.0326,75.7549 78.0326,76.7549 76.5,78.5C 75.391,78.5569 74.391,78.8902 73.5,79.5C 72.2317,78.213 72.565,77.213 74.5,76.5C 73.1667,75.8333 71.8333,75.1667 70.5,74.5C 71.0253,73.8076 71.6919,73.3076 72.5,73C 61.323,60.3004 49.4897,48.1337 37,36.5C 36.805,35.1807 36.9717,33.8474 37.5,32.5C 41.6775,30.8867 46.0108,29.8867 50.5,29.5 Z"/></g>
<g><path style="opacity:1" fill="#dbdcdc" d="M 37.5,32.5 C 36.9717,33.8474 36.805,35.1807 37,36.5C 49.4897,48.1337 61.323,60.3004 72.5,73C 71.6919,73.3076 71.0253,73.8076 70.5,74.5C 71.8333,75.1667 73.1667,75.8333 74.5,76.5C 72.565,77.213 72.2317,78.213 73.5,79.5C 72.8333,79.5 72.5,79.8333 72.5,80.5C 69.6874,80.0246 67.6874,81.0246 66.5,83.5C 65.391,83.5569 64.391,83.8902 63.5,84.5C 62.391,84.5569 61.391,84.8902 60.5,85.5C 60.971,81.126 59.971,77.126 57.5,73.5C 46.7773,61.1037 36.7773,48.1037 27.5,34.5C 28.0253,33.8076 28.6919,33.3076 29.5,33C 32.146,32.5026 34.8127,32.3359 37.5,32.5 Z"/></g>
<g><path style="opacity:1" fill="#e8e8e8" d="M 101.5,61.5 C 100.5,61.5 99.5,61.5 98.5,61.5C 98.719,60.325 98.3857,59.325 97.5,58.5C 96.109,59.6446 94.7757,59.6446 93.5,58.5C 84.1667,48.8333 74.8333,39.1667 65.5,29.5C 62.0249,27.2795 58.3583,26.9461 54.5,28.5C 54.5774,27.2502 55.244,26.4169 56.5,26C 60.5,25.3333 64.5,25.3333 68.5,26C 77.1898,35.0176 86.3565,43.8509 96,52.5C 97.3161,53.9743 98.3161,55.641 99,57.5C 101.764,58.0246 102.598,59.3579 101.5,61.5 Z"/></g>
<g><path style="opacity:1" fill="#e5b1a8" d="M 158.5,39.5 C 159.833,39.5 161.167,39.5 162.5,39.5C 165.059,39.1984 167.393,39.5318 169.5,40.5C 166.287,40.19 163.287,40.5233 160.5,41.5C 159.833,41.5 159.167,41.5 158.5,41.5C 157.5,41.5 156.5,41.5 155.5,41.5C 156.5,40.8333 157.5,40.1667 158.5,39.5 Z"/></g>
<g><path style="opacity:1" fill="#e75853" d="M 160.5,41.5 C 163.287,40.5233 166.287,40.19 169.5,40.5C 170.338,40.8417 170.672,41.5084 170.5,42.5C 168.621,41.6586 166.621,41.3253 164.5,41.5C 163.833,41.5 163.167,41.5 162.5,41.5C 161.833,41.5 161.167,41.5 160.5,41.5 Z"/></g>
<g><path style="opacity:1" fill="#ba5149" d="M 155.5,41.5 C 156.5,41.5 157.5,41.5 158.5,41.5C 155.997,42.3705 153.33,43.0372 150.5,43.5C 149.5,43.5 148.5,43.5 147.5,43.5C 149.838,41.9605 152.505,41.2938 155.5,41.5 Z"/></g>
<g><path style="opacity:1" fill="#c76c62" d="M 139.5,44.5 C 140.5,44.5 141.5,44.5 142.5,44.5C 141.5,45.1667 140.5,45.8333 139.5,46.5C 138.209,46.2627 137.209,46.596 136.5,47.5C 135.833,47.5 135.167,47.5 134.5,47.5C 135.768,45.953 137.435,44.953 139.5,44.5 Z"/></g>
<g><path style="opacity:1" fill="#b00505" d="M 136.5,47.5 C 137.209,46.596 138.209,46.2627 139.5,46.5C 142.941,46.3011 146.274,46.8011 149.5,48C 148.207,48.49 146.873,48.6567 145.5,48.5C 145.092,51.5993 146.259,53.9326 149,55.5C 149.572,60.3967 150.739,65.0634 152.5,69.5C 151.771,71.9762 151.104,74.4762 150.5,77C 150.896,78.8974 151.896,80.3974 153.5,81.5C 152.311,82.4287 150.978,82.762 149.5,82.5C 149.67,83.8221 149.337,84.9887 148.5,86C 149.448,86.4828 150.448,86.6495 151.5,86.5C 151.5,86.8333 151.5,87.1667 151.5,87.5C 147.167,90.1667 142.833,92.8333 138.5,95.5C 138.5,94.5 138.5,93.5 138.5,92.5C 139.5,92.5 140.5,92.5 141.5,92.5C 141.22,89.6118 142.553,88.1118 145.5,88C 147.756,85.8182 147.756,83.4848 145.5,81C 145.905,80.0546 146.572,79.3879 147.5,79C 146.04,72.2602 144.873,65.4269 144,58.5C 142.557,54.842 140.391,51.6754 137.5,49C 139.932,47.9125 139.598,47.4125 136.5,47.5 Z"/></g>
<g><path style="opacity:1" fill="#a50302" d="M 147.5,43.5 C 148.5,43.5 149.5,43.5 150.5,43.5C 152.965,44.2471 154.965,45.7471 156.5,48C 155.978,48.5613 155.645,49.228 155.5,50C 158.152,55.1542 159.819,60.6542 160.5,66.5C 158.83,69.6525 159.496,72.1525 162.5,74C 159.833,75.3333 159.833,76.6667 162.5,78C 161.5,78.3333 160.5,78.6667 159.5,79C 160.252,79.6708 160.586,80.5041 160.5,81.5C 160.5,81.8333 160.5,82.1667 160.5,82.5C 158.181,82.9925 156.181,83.9925 154.5,85.5C 153.391,85.5569 152.391,85.8902 151.5,86.5C 150.448,86.6495 149.448,86.4828 148.5,86C 149.337,84.9887 149.67,83.8221 149.5,82.5C 150.978,82.762 152.311,82.4287 153.5,81.5C 151.896,80.3974 150.896,78.8974 150.5,77C 151.104,74.4762 151.771,71.9762 152.5,69.5C 150.739,65.0634 149.572,60.3967 149,55.5C 146.259,53.9326 145.092,51.5993 145.5,48.5C 146.873,48.6567 148.207,48.49 149.5,48C 146.274,46.8011 142.941,46.3011 139.5,46.5C 140.5,45.8333 141.5,45.1667 142.5,44.5C 143.919,43.5489 145.585,43.2155 147.5,43.5 Z"/></g>
<g><path style="opacity:1" fill="#b60306" d="M 158.5,41.5 C 159.167,41.5 159.833,41.5 160.5,41.5C 161.167,41.5 161.833,41.5 162.5,41.5C 161.235,42.4793 159.901,43.4793 158.5,44.5C 159.833,45.1667 161.167,45.8333 162.5,46.5C 161.755,50.0765 162.589,53.4098 165,56.5C 166.03,60.7727 166.697,65.106 167,69.5C 168.816,70.3295 170.649,71.1628 172.5,72C 171.015,73.7565 171.348,74.9232 173.5,75.5C 172.306,76.2719 171.306,77.2719 170.5,78.5C 166.993,78.9205 163.659,79.9205 160.5,81.5C 160.586,80.5041 160.252,79.6708 159.5,79C 160.5,78.6667 161.5,78.3333 162.5,78C 159.833,76.6667 159.833,75.3333 162.5,74C 159.496,72.1525 158.83,69.6525 160.5,66.5C 159.819,60.6542 158.152,55.1542 155.5,50C 155.645,49.228 155.978,48.5613 156.5,48C 154.965,45.7471 152.965,44.2471 150.5,43.5C 153.33,43.0372 155.997,42.3705 158.5,41.5 Z"/></g>
<g><path style="opacity:1" fill="#e37c73" d="M 130.5,48.5 C 129.41,49.8571 128.076,50.8571 126.5,51.5C 124.784,51.6287 123.117,51.962 121.5,52.5C 121.5,52.1667 121.5,51.8333 121.5,51.5C 124.421,50.304 127.421,49.304 130.5,48.5 Z"/></g>
<g><path style="opacity:1" fill="#bf0107" d="M 134.5,47.5 C 135.167,47.5 135.833,47.5 136.5,47.5C 139.598,47.4125 139.932,47.9125 137.5,49C 140.391,51.6754 142.557,54.842 144,58.5C 144.873,65.4269 146.04,72.2602 147.5,79C 146.572,79.3879 145.905,80.0546 145.5,81C 147.756,83.4848 147.756,85.8182 145.5,88C 142.553,88.1118 141.22,89.6118 141.5,92.5C 140.5,92.5 139.5,92.5 138.5,92.5C 137.291,90.815 136.291,89.1484 135.5,87.5C 138.912,75.9591 137.746,64.6257 132,53.5C 130.416,52.1387 128.582,51.472 126.5,51.5C 128.076,50.8571 129.41,49.8571 130.5,48.5C 131.833,48.1667 133.167,47.8333 134.5,47.5 Z"/></g>
<g><path style="opacity:1" fill="#e6453f" d="M 174.5,48.5 C 176.75,51.9988 178.75,55.6654 180.5,59.5C 176.643,57.0262 174.643,53.3595 174.5,48.5 Z"/></g>
<g><path style="opacity:1" fill="#ed6c6a" d="M 117.5,53.5 C 118.167,53.5 118.833,53.5 119.5,53.5C 119.5,53.8333 119.5,54.1667 119.5,54.5C 118.609,55.1098 117.609,55.4431 116.5,55.5C 116.833,54.8333 117.167,54.1667 117.5,53.5 Z"/></g>
<g><path style="opacity:1" fill="#e55648" d="M 116.5,55.5 C 115.514,57.4077 113.848,58.4077 111.5,58.5C 112.659,56.7497 114.326,55.7497 116.5,55.5 Z"/></g>
<g><path style="opacity:1" fill="#d90a11" d="M 164.5,41.5 C 166.621,41.3253 168.621,41.6586 170.5,42.5C 172.218,44.2228 173.551,46.2228 174.5,48.5C 174.643,53.3595 176.643,57.0262 180.5,59.5C 180.557,60.609 180.89,61.609 181.5,62.5C 181.427,64.0269 182.094,65.0269 183.5,65.5C 183.5,66.8333 183.5,68.1667 183.5,69.5C 183.5,70.8333 183.5,72.1667 183.5,73.5C 181.473,73.6621 179.473,73.4955 177.5,73C 177.165,71.836 177.165,70.5026 177.5,69C 176.464,67.3831 175.297,67.2164 174,68.5C 173.689,67.2575 174.189,66.2575 175.5,65.5C 174.051,62.268 172.884,58.9346 172,55.5C 171.667,55.8333 171.333,56.1667 171,56.5C 170.252,54.6675 169.252,53.0009 168,51.5C 167.316,50.2161 167.483,49.0495 168.5,48C 166.744,47.7978 165.078,47.2978 163.5,46.5C 164.309,44.9291 164.643,43.2624 164.5,41.5 Z"/></g>
<g><path style="opacity:1" fill="#da000f" d="M 110.5,60.5 C 110.5,59.8333 110.5,59.1667 110.5,58.5C 110.833,58.5 111.167,58.5 111.5,58.5C 113.848,58.4077 115.514,57.4077 116.5,55.5C 117.609,55.4431 118.609,55.1098 119.5,54.5C 120.496,54.5858 121.329,54.2524 122,53.5C 125.044,55.251 128.211,56.751 131.5,58C 130.5,58.3333 129.5,58.6667 128.5,59C 129.643,65.4184 129.81,71.9184 129,78.5C 128.108,81.9518 126.442,84.9518 124,87.5C 123.849,90.1193 123.015,92.4527 121.5,94.5C 116.727,86.2881 113.06,77.6214 110.5,68.5C 106.5,68.1667 106.5,67.8333 110.5,67.5C 109.454,65.1183 109.454,62.7849 110.5,60.5 Z"/></g>
<g><path style="opacity:1" fill="#c9080e" d="M 162.5,41.5 C 163.167,41.5 163.833,41.5 164.5,41.5C 164.643,43.2624 164.309,44.9291 163.5,46.5C 165.078,47.2978 166.744,47.7978 168.5,48C 167.483,49.0495 167.316,50.2161 168,51.5C 169.252,53.0009 170.252,54.6675 171,56.5C 171.333,56.1667 171.667,55.8333 172,55.5C 172.884,58.9346 174.051,62.268 175.5,65.5C 174.189,66.2575 173.689,67.2575 174,68.5C 175.297,67.2164 176.464,67.3831 177.5,69C 177.165,70.5026 177.165,71.836 177.5,73C 179.473,73.4955 181.473,73.6621 183.5,73.5C 183.5,72.1667 183.5,70.8333 183.5,69.5C 183.833,69.5 184.167,69.5 184.5,69.5C 184.5,71.1667 184.5,72.8333 184.5,74.5C 180.821,74.7244 177.154,75.0578 173.5,75.5C 171.348,74.9232 171.015,73.7565 172.5,72C 170.649,71.1628 168.816,70.3295 167,69.5C 166.697,65.106 166.03,60.7727 165,56.5C 162.589,53.4098 161.755,50.0765 162.5,46.5C 161.167,45.8333 159.833,45.1667 158.5,44.5C 159.901,43.4793 161.235,42.4793 162.5,41.5 Z"/></g>
<g><path style="opacity:1" fill="#e46760" d="M 110.5,58.5 C 110.5,59.1667 110.5,59.8333 110.5,60.5C 108.315,60.7036 106.315,61.3702 104.5,62.5C 104.5,62.1667 104.5,61.8333 104.5,61.5C 106.216,59.9752 108.216,58.9752 110.5,58.5 Z"/></g>
<g><path style="opacity:1" fill="#f39096" d="M 181.5,62.5 C 182.906,62.9731 183.573,63.9731 183.5,65.5C 182.094,65.0269 181.427,64.0269 181.5,62.5 Z"/></g>
<g><path style="opacity:1" fill="#cb030c" d="M 126.5,51.5 C 128.582,51.472 130.416,52.1387 132,53.5C 137.746,64.6257 138.912,75.9591 135.5,87.5C 136.291,89.1484 137.291,90.815 138.5,92.5C 138.5,93.5 138.5,94.5 138.5,95.5C 136.833,96.5 135.5,97.8333 134.5,99.5C 132.596,99.7376 131.262,100.738 130.5,102.5C 129.833,102.5 129.5,102.833 129.5,103.5C 127.251,104.08 125.585,105.413 124.5,107.5C 122.251,108.08 120.585,109.413 119.5,111.5C 115.5,114.167 111.5,116.833 107.5,119.5C 105.856,119.286 104.356,119.62 103,120.5C 102.308,119.975 101.808,119.308 101.5,118.5C 106.538,106.155 107.205,93.6551 103.5,81C 103.585,79.8926 103.919,78.8926 104.5,78C 103.406,75.1104 102.24,72.277 101,69.5C 100.667,70.8333 100.333,72.1667 100,73.5C 99.2571,71.5594 99.4238,69.7261 100.5,68C 99.8333,67.6667 99.1667,67.3333 98.5,67C 101.47,66.6921 103.47,65.1921 104.5,62.5C 106.315,61.3702 108.315,60.7036 110.5,60.5C 109.454,62.7849 109.454,65.1183 110.5,67.5C 106.5,67.8333 106.5,68.1667 110.5,68.5C 113.06,77.6214 116.727,86.2881 121.5,94.5C 123.015,92.4527 123.849,90.1193 124,87.5C 126.442,84.9518 128.108,81.9518 129,78.5C 129.81,71.9184 129.643,65.4184 128.5,59C 129.5,58.6667 130.5,58.3333 131.5,58C 128.211,56.751 125.044,55.251 122,53.5C 121.329,54.2524 120.496,54.5858 119.5,54.5C 119.5,54.1667 119.5,53.8333 119.5,53.5C 120.167,53.1667 120.833,52.8333 121.5,52.5C 123.117,51.962 124.784,51.6287 126.5,51.5 Z"/></g>
<g><path style="opacity:1" fill="#ac322b" d="M 94.5,68.5 C 94.5,69.1667 94.5,69.8333 94.5,70.5C 91.3129,72.1784 87.9796,73.5117 84.5,74.5C 87.1612,71.4977 90.4945,69.4977 94.5,68.5 Z"/></g>
<g><path style="opacity:1" fill="#edb5ae" d="M 184.5,69.5 C 185.461,71.2646 185.795,73.2646 185.5,75.5C 180.333,75.7087 175.333,76.7087 170.5,78.5C 171.306,77.2719 172.306,76.2719 173.5,75.5C 177.154,75.0578 180.821,74.7244 184.5,74.5C 184.5,72.8333 184.5,71.1667 184.5,69.5 Z"/></g>
<g><path style="opacity:1" fill="#b80306" d="M 104.5,62.5 C 103.47,65.1921 101.47,66.6921 98.5,67C 99.1667,67.3333 99.8333,67.6667 100.5,68C 99.4238,69.7261 99.2571,71.5594 100,73.5C 100.333,72.1667 100.667,70.8333 101,69.5C 102.24,72.277 103.406,75.1104 104.5,78C 103.919,78.8926 103.585,79.8926 103.5,81C 107.205,93.6551 106.538,106.155 101.5,118.5C 101.808,119.308 102.308,119.975 103,120.5C 104.356,119.62 105.856,119.286 107.5,119.5C 105.909,121.633 103.909,123.299 101.5,124.5C 100.849,123.909 100.182,123.243 99.5,122.5C 98.4937,122.938 98.4937,123.604 99.5,124.5C 98.277,125.614 96.9437,125.781 95.5,125C 95.8333,124.667 96.1667,124.333 96.5,124C 95.4216,123.326 94.7549,122.326 94.5,121C 98.1012,107.432 98.4345,93.7656 95.5,80C 95.6448,78.7741 95.9781,77.6074 96.5,76.5C 95.675,75.6143 94.675,75.281 93.5,75.5C 93.366,73.7085 93.6993,72.0418 94.5,70.5C 94.5,69.8333 94.5,69.1667 94.5,68.5C 95.6935,67.7281 96.6935,66.7281 97.5,65.5C 99.7128,64.2271 102.046,63.2271 104.5,62.5 Z"/></g>
<g><path style="opacity:1" fill="#a70403" d="M 94.5,70.5 C 93.6993,72.0418 93.366,73.7085 93.5,75.5C 94.675,75.281 95.675,75.6143 96.5,76.5C 95.9781,77.6074 95.6448,78.7741 95.5,80C 98.4345,93.7656 98.1012,107.432 94.5,121C 94.7549,122.326 95.4216,123.326 96.5,124C 96.1667,124.333 95.8333,124.667 95.5,125C 96.9437,125.781 98.277,125.614 99.5,124.5C 98.4937,123.604 98.4937,122.938 99.5,122.5C 100.182,123.243 100.849,123.909 101.5,124.5C 99.1667,126.5 96.8333,128.5 94.5,130.5C 92.5956,130.738 91.2623,131.738 90.5,133.5C 88.2228,134.449 86.2228,135.782 84.5,137.5C 82.5,138.167 80.5,138.833 78.5,139.5C 81.6472,132.903 84.1472,125.903 86,118.5C 86.6667,112.167 86.6667,105.833 86,99.5C 84.6357,95.3282 83.6357,90.9949 83,86.5C 82.0975,85.2986 80.9308,84.4652 79.5,84C 79.8333,83.6667 80.1667,83.3333 80.5,83C 78.8739,83.1953 77.2072,83.1953 75.5,83C 78.3747,82.1055 78.7081,81.2722 76.5,80.5C 74.8228,81.1869 73.1561,81.8535 71.5,82.5C 71.8333,81.8333 72.1667,81.1667 72.5,80.5C 72.5,79.8333 72.8333,79.5 73.5,79.5C 74.391,78.8902 75.391,78.5569 76.5,78.5C 78.9674,78.2451 80.9674,77.2451 82.5,75.5C 82.8417,74.6618 83.5084,74.3284 84.5,74.5C 87.9796,73.5117 91.3129,72.1784 94.5,70.5 Z"/></g>
<g><path style="opacity:1" fill="#bb6960" d="M 82.5,75.5 C 80.9674,77.2451 78.9674,78.2451 76.5,78.5C 78.0326,76.7549 80.0326,75.7549 82.5,75.5 Z"/></g>
<g><path style="opacity:1" fill="#ca7166" d="M 72.5,80.5 C 72.1667,81.1667 71.8333,81.8333 71.5,82.5C 70.209,82.2627 69.209,82.596 68.5,83.5C 67.8333,83.5 67.1667,83.5 66.5,83.5C 67.6874,81.0246 69.6874,80.0246 72.5,80.5 Z"/></g>
<g><path style="opacity:1" fill="#ebd9d2" d="M 170.5,78.5 C 170.082,79.2216 169.416,79.7216 168.5,80C 171,80.8333 171.167,82 169,83.5C 166.281,82.5562 163.448,82.2229 160.5,82.5C 160.5,82.1667 160.5,81.8333 160.5,81.5C 163.659,79.9205 166.993,78.9205 170.5,78.5 Z"/></g>
<g><path style="opacity:1" fill="#b50104" d="M 78.5,139.5 C 77.8333,140.5 77.1667,141.5 76.5,142.5C 75.8333,142.5 75.1667,142.5 74.5,142.5C 74.67,141.178 74.3366,140.011 73.5,139C 74.448,138.517 75.448,138.351 76.5,138.5C 77.1495,136.523 77.1495,134.69 76.5,133C 77.8166,131.386 79.4833,130.219 81.5,129.5C 80.689,128.784 80.0223,127.95 79.5,127C 81.0894,116.378 80.5894,105.878 78,95.5C 75.902,93.3657 75.0687,91.0324 75.5,88.5C 74.675,87.6143 73.675,87.281 72.5,87.5C 72.5,86.1667 72.5,84.8333 72.5,83.5C 71.1667,83.5 69.8333,83.5 68.5,83.5C 69.209,82.596 70.209,82.2627 71.5,82.5C 73.1561,81.8535 74.8228,81.1869 76.5,80.5C 78.7081,81.2722 78.3747,82.1055 75.5,83C 77.2072,83.1953 78.8739,83.1953 80.5,83C 80.1667,83.3333 79.8333,83.6667 79.5,84C 80.9308,84.4652 82.0975,85.2986 83,86.5C 83.6357,90.9949 84.6357,95.3282 86,99.5C 86.6667,105.833 86.6667,112.167 86,118.5C 84.1472,125.903 81.6472,132.903 78.5,139.5 Z"/></g>
<g><path style="opacity:1" fill="#e3625b" d="M 63.5,84.5 C 63.5,84.8333 63.5,85.1667 63.5,85.5C 61.8333,86.1667 60.1667,86.8333 58.5,87.5C 56.5648,88.1495 54.5648,88.4828 52.5,88.5C 54.8902,86.9802 57.5568,85.9802 60.5,85.5C 61.391,84.8902 62.391,84.5569 63.5,84.5 Z"/></g>
<g><path style="opacity:1" fill="#cc010b" d="M 63.5,85.5 C 65.9418,85.1192 66.6085,85.7859 65.5,87.5C 67.0152,89.5473 67.8485,91.8807 68,94.5C 70.5314,96.6526 72.1981,99.3193 73,102.5C 73.0512,111.413 73.2179,120.246 73.5,129C 72.552,129.483 71.552,129.649 70.5,129.5C 70.1412,131.766 70.8078,133.599 72.5,135C 66.487,136.666 66.1536,139 71.5,142C 68.7152,142.658 66.0486,143.491 63.5,144.5C 63.5,145.5 63.5,146.5 63.5,147.5C 62.1667,147.5 60.8333,147.5 59.5,147.5C 59.719,146.325 59.3857,145.325 58.5,144.5C 57.5481,146.045 57.2148,147.712 57.5,149.5C 56.791,150.404 55.791,150.737 54.5,150.5C 53.1667,150.5 51.8333,150.5 50.5,150.5C 50.8168,146.298 50.4834,142.298 49.5,138.5C 49.5,136.833 49.5,135.167 49.5,133.5C 50.7595,130.982 52.0928,131.148 53.5,134C 54.5,134.667 55.5,134.667 56.5,134C 58.6937,131.806 60.8604,129.64 63,127.5C 66.0622,118.716 66.2288,109.882 63.5,101C 63.6448,99.7741 63.9781,98.6074 64.5,97.5C 62.4921,94.1617 60.4921,90.8283 58.5,87.5C 60.1667,86.8333 61.8333,86.1667 63.5,85.5 Z"/></g>
<g><path style="opacity:1" fill="#d27e7e" d="M 154.5,85.5 C 154.027,86.9063 153.027,87.573 151.5,87.5C 151.5,87.1667 151.5,86.8333 151.5,86.5C 152.391,85.8902 153.391,85.5569 154.5,85.5 Z"/></g>
<g><path style="opacity:1" fill="#c2050a" d="M 66.5,83.5 C 67.1667,83.5 67.8333,83.5 68.5,83.5C 69.8333,83.5 71.1667,83.5 72.5,83.5C 72.5,84.8333 72.5,86.1667 72.5,87.5C 73.675,87.281 74.675,87.6143 75.5,88.5C 75.0687,91.0324 75.902,93.3657 78,95.5C 80.5894,105.878 81.0894,116.378 79.5,127C 80.0223,127.95 80.689,128.784 81.5,129.5C 79.4833,130.219 77.8166,131.386 76.5,133C 77.1495,134.69 77.1495,136.523 76.5,138.5C 75.448,138.351 74.448,138.517 73.5,139C 74.3366,140.011 74.67,141.178 74.5,142.5C 69.1926,145.652 63.526,147.985 57.5,149.5C 57.2148,147.712 57.5481,146.045 58.5,144.5C 59.3857,145.325 59.719,146.325 59.5,147.5C 60.8333,147.5 62.1667,147.5 63.5,147.5C 63.5,146.5 63.5,145.5 63.5,144.5C 66.0486,143.491 68.7152,142.658 71.5,142C 66.1536,139 66.487,136.666 72.5,135C 70.8078,133.599 70.1412,131.766 70.5,129.5C 71.552,129.649 72.552,129.483 73.5,129C 73.2179,120.246 73.0512,111.413 73,102.5C 72.1981,99.3193 70.5314,96.6526 68,94.5C 67.8485,91.8807 67.0152,89.5473 65.5,87.5C 66.6085,85.7859 65.9418,85.1192 63.5,85.5C 63.5,85.1667 63.5,84.8333 63.5,84.5C 64.391,83.8902 65.391,83.5569 66.5,83.5 Z"/></g>
<g><path style="opacity:1" fill="#f3b9b1" d="M 29.5,89.5 C 33.1667,89.5 36.8333,89.5 40.5,89.5C 40.5,89.8333 40.5,90.1667 40.5,90.5C 37.1667,90.5 33.8333,90.5 30.5,90.5C 30.5,91.5 30.5,92.5 30.5,93.5C 28.4805,92.4617 28.1472,91.1284 29.5,89.5 Z"/></g>
<g><path style="opacity:1" fill="#f18d84" d="M 47.5,88.5 C 48.5,88.5 49.5,88.5 50.5,88.5C 47.4115,89.7846 44.0781,90.4512 40.5,90.5C 40.5,90.1667 40.5,89.8333 40.5,89.5C 42.861,89.3259 45.1944,88.9926 47.5,88.5 Z"/></g>
<g><path style="opacity:1" fill="#ef8580" d="M 30.5,93.5 C 31.9063,93.9731 32.573,94.9731 32.5,96.5C 31.0937,96.0269 30.427,95.0269 30.5,93.5 Z"/></g>
<g><path style="opacity:1" fill="#de0511" d="M 58.5,87.5 C 60.4921,90.8283 62.4921,94.1617 64.5,97.5C 63.9781,98.6074 63.6448,99.7741 63.5,101C 66.2288,109.882 66.0622,118.716 63,127.5C 60.8604,129.64 58.6937,131.806 56.5,134C 55.5,134.667 54.5,134.667 53.5,134C 52.0928,131.148 50.7595,130.982 49.5,133.5C 48.6873,131.739 47.6873,130.072 46.5,128.5C 46.634,126.708 46.3007,125.042 45.5,123.5C 45.2041,121.597 44.5375,119.93 43.5,118.5C 43.573,116.973 42.9063,115.973 41.5,115.5C 39.2661,108.703 36.2661,102.37 32.5,96.5C 32.573,94.9731 31.9063,93.9731 30.5,93.5C 30.5,92.5 30.5,91.5 30.5,90.5C 33.8333,90.5 37.1667,90.5 40.5,90.5C 44.0781,90.4512 47.4115,89.7846 50.5,88.5C 51.1667,88.5 51.8333,88.5 52.5,88.5C 54.5648,88.4828 56.5648,88.1495 58.5,87.5 Z"/></g>
<g><path style="opacity:1" fill="#e5a59d" d="M 134.5,99.5 C 133.738,101.262 132.404,102.262 130.5,102.5C 131.262,100.738 132.596,99.7376 134.5,99.5 Z"/></g>
<g><path style="opacity:1" fill="#e8bcb3" d="M 129.5,103.5 C 128.415,105.587 126.749,106.92 124.5,107.5C 125.585,105.413 127.251,104.08 129.5,103.5 Z"/></g>
<g><path style="opacity:1" fill="#e9b7ad" d="M 124.5,107.5 C 123.415,109.587 121.749,110.92 119.5,111.5C 120.585,109.413 122.251,108.08 124.5,107.5 Z"/></g>
<g><path style="opacity:1" fill="#ec8b82" d="M 41.5,115.5 C 42.9063,115.973 43.573,116.973 43.5,118.5C 42.0937,118.027 41.427,117.027 41.5,115.5 Z"/></g>
<g><path style="opacity:1" fill="#ef9c8f" d="M 43.5,118.5 C 44.5375,119.93 45.2041,121.597 45.5,123.5C 43.7868,122.365 43.1201,120.698 43.5,118.5 Z"/></g>
<g><path style="opacity:1" fill="#da9b98" d="M 94.5,130.5 C 93.7377,132.262 92.4044,133.262 90.5,133.5C 91.2623,131.738 92.5956,130.738 94.5,130.5 Z"/></g>
<g><path style="opacity:1" fill="#e88a86" d="M 46.5,128.5 C 47.6873,130.072 48.6873,131.739 49.5,133.5C 49.5,135.167 49.5,136.833 49.5,138.5C 47.9754,135.417 46.9754,132.084 46.5,128.5 Z"/></g>
<g><path style="opacity:1" fill="#dba5a0" d="M 84.5,137.5 C 82.4484,140.032 79.7817,141.699 76.5,142.5C 77.1667,141.5 77.8333,140.5 78.5,139.5C 80.5,138.833 82.5,138.167 84.5,137.5 Z"/></g>
<g><path style="opacity:1" fill="#dd7a79" d="M 49.5,138.5 C 50.4834,142.298 50.8168,146.298 50.5,150.5C 51.8333,150.5 53.1667,150.5 54.5,150.5C 53.0813,151.451 51.4147,151.784 49.5,151.5C 49.5,147.167 49.5,142.833 49.5,138.5 Z"/></g>
</svg>
