<?xml version="1.0" encoding="UTF-8"?>
<!DOCTYPE svg PUBLIC "-//W3C//DTD SVG 1.1//EN" "http://www.w3.org/Graphics/SVG/1.1/DTD/svg11.dtd">
<svg xmlns="http://www.w3.org/2000/svg" version="1.1" width="192px" height="155px" style="shape-rendering:geometricPrecision; text-rendering:geometricPrecision; image-rendering:optimizeQuality; fill-rule:evenodd; clip-rule:evenodd" xmlns:xlink="http://www.w3.org/1999/xlink">
<g><path style="opacity:1" fill="#a70101" d="M 115.5,4.5 C 118.833,4.5 122.167,4.5 125.5,4.5C 133.718,14.8336 142.051,25.8336 150.5,37.5C 154.144,45.461 157.477,53.461 160.5,61.5C 159.167,61.5 158.5,62.1667 158.5,63.5C 157.596,64.209 157.263,65.209 157.5,66.5C 155.139,66.6741 152.806,67.0074 150.5,67.5C 150.5,68.5 150.5,69.5 150.5,70.5C 152.989,70.2978 155.323,70.7978 157.5,72C 152.975,72.3823 151.309,74.8823 152.5,79.5C 151.128,80.5116 149.795,81.5116 148.5,82.5C 147.833,82.5 147.167,82.5 146.5,82.5C 144.898,80.1532 143.232,77.6532 141.5,75C 142.233,73.2341 142.567,71.4008 142.5,69.5C 143.091,68.8485 143.757,68.1818 144.5,67.5C 143.12,60.7279 141.286,54.0612 139,47.5C 129.414,33.5795 117.581,22.0795 103.5,13C 104.308,12.6924 104.975,12.1924 105.5,11.5C 102.87,10.6185 100.203,9.95186 97.5,9.5C 98.8333,8.5 100.167,7.5 101.5,6.5C 101.833,6.5 102.167,6.5 102.5,6.5C 106.853,5.94119 111.186,5.27453 115.5,4.5 Z"/></g>
<g><path style="opacity:1" fill="#d2000d" d="M 79.5,15.5 C 79.8417,14.6618 80.5084,14.3284 81.5,14.5C 84.0408,15.6489 86.5408,15.6489 89,14.5C 90.0674,15.1905 91.2341,15.6905 92.5,16C 92.1667,16.3333 91.8333,16.6667 91.5,17C 93.8333,18 95.5,19.6667 96.5,22C 108.238,28.4119 118.071,36.9119 126,47.5C 128.449,52.6326 130.282,57.9659 131.5,63.5C 131.514,65.5925 130.848,67.4259 129.5,69C 130.056,69.3826 130.389,69.8826 130.5,70.5C 128.284,70.2746 126.617,71.1079 125.5,73C 122.242,73.2117 119.076,73.7117 116,74.5C 116.16,77.8429 116.66,81.1763 117.5,84.5C 118.5,84.5 119.5,84.5 120.5,84.5C 120.5,85.8333 120.5,87.1667 120.5,88.5C 119.5,88.5 118.5,88.5 117.5,88.5C 117.263,91.6473 116.43,94.6473 115,97.5C 112.193,89.6579 110.359,81.6579 109.5,73.5C 110.167,73.5 110.5,73.1667 110.5,72.5C 112.394,75.9784 113.894,75.3117 115,70.5C 116.916,73.033 118.916,73.033 121,70.5C 121.667,67.5 121.667,64.5 121,61.5C 119.761,57.4186 118.261,53.4186 116.5,49.5C 117.815,48.1054 117.481,47.1054 115.5,46.5C 114.895,49.3043 114.062,51.971 113,54.5C 112.873,52.3659 113.039,50.1993 113.5,48C 113.604,45.8546 112.937,44.0212 111.5,42.5C 102.017,34.3949 92.0172,26.7282 81.5,19.5C 80.269,18.3493 80.269,17.1827 81.5,16C 80.9056,15.5357 80.2389,15.369 79.5,15.5 Z"/></g>
<g><path style="opacity:1" fill="#6bb62b" d="M 9.5,26.5 C 10.1667,26.5 10.8333,26.5 11.5,26.5C 12.6715,27.3446 14.0048,28.0113 15.5,28.5C 18.6746,35.1476 22.508,42.481 27,50.5C 34.008,59.5063 41.008,68.5063 48,77.5C 53.4514,87.7736 55.9514,98.6069 55.5,110C 54.3301,111.587 53.3301,113.253 52.5,115C 54.5127,115.875 54.5127,117.209 52.5,119C 48.5066,119.17 44.5066,119.004 40.5,118.5C 39.6236,118.631 38.9569,118.298 38.5,117.5C 37.8108,115.556 37.3108,113.556 37,111.5C 34.7444,107.932 32.5778,104.265 30.5,100.5C 29.5883,96.7493 27.9216,93.416 25.5,90.5C 22.4541,84.0775 19.1208,77.7441 15.5,71.5C 14.2367,66.0095 12.2367,61.0095 9.5,56.5C 9.02463,52.9161 8.02463,49.5828 6.5,46.5C 6.5,44.8333 6.5,43.1667 6.5,41.5C 6.5,36.5 6.5,31.5 6.5,26.5C 7.5,26.5 8.5,26.5 9.5,26.5 Z"/></g>
<g><path style="opacity:1" fill="#f4f5f4" d="M -0.5,-0.5 C 63.5,-0.5 127.5,-0.5 191.5,-0.5C 191.5,17.1667 191.5,34.8333 191.5,52.5C 190.448,52.3505 189.448,52.5172 188.5,53C 187.743,54.5122 186.743,55.8455 185.5,57C 186.733,60.738 185.733,63.9047 182.5,66.5C 185.413,68.901 185.079,70.2343 181.5,70.5C 180.868,67.2521 180.868,64.0855 181.5,61C 179.962,57.9788 179.462,54.8122 180,51.5C 180.333,51.8333 180.667,52.1667 181,52.5C 183.888,65.9038 185.054,65.5704 184.5,51.5C 183.5,51.5 182.5,51.5 181.5,51.5C 181.468,45.42 180.302,45.0866 178,50.5C 177.077,49.2412 176.243,47.9079 175.5,46.5C 172.399,47.9033 171.233,46.9033 172,43.5C 172.827,42.3379 173.66,41.1712 174.5,40C 174.167,39.5 173.833,39 173.5,38.5C 172.573,40.9456 170.906,41.7789 168.5,41C 169.516,40.4806 170.182,39.6473 170.5,38.5C 168.743,35.3157 167.243,31.9824 166,28.5C 165.667,29.1667 165.333,29.8333 165,30.5C 163.064,28.7826 160.898,27.4493 158.5,26.5C 156.5,23.8333 154.5,21.1667 152.5,18.5C 151.679,14.8733 150.346,11.54 148.5,8.5C 148.34,6.84702 147.674,5.51369 146.5,4.5C 145.391,3.71003 144.058,3.21003 142.5,3C 133.324,2.17602 124.324,2.34269 115.5,3.5C 110.727,3.12432 106.393,4.12432 102.5,6.5C 102.167,6.5 101.833,6.5 101.5,6.5C 98.6726,6.58378 96.006,7.25045 93.5,8.5C 90.509,8.16628 88.1757,9.16628 86.5,11.5C 86.1667,11.5 85.8333,11.5 85.5,11.5C 83.6203,11.2291 82.287,11.8958 81.5,13.5C 79.1016,13.2594 77.1016,13.9261 75.5,15.5C 75.1583,16.3382 74.4916,16.6716 73.5,16.5C 70.6027,17.129 67.936,18.129 65.5,19.5C 64.5084,19.3284 63.8417,19.6618 63.5,20.5C 61.0479,21.0654 58.7146,21.7321 56.5,22.5C 55.5,22.5 54.5,22.5 53.5,22.5C 51.0799,22.7076 48.7466,22.3742 46.5,21.5C 35.555,27.4686 23.8883,29.1352 11.5,26.5C 10.8333,26.5 10.1667,26.5 9.5,26.5C 8.71304,24.8958 7.3797,24.2291 5.5,24.5C 5.1778,30.358 5.51114,36.0247 6.5,41.5C 6.5,43.1667 6.5,44.8333 6.5,46.5C 5.97576,50.4276 6.97576,53.761 9.5,56.5C 9.72609,59.2492 9.39276,61.9159 8.5,64.5C 8.93767,65.5063 9.60433,65.5063 10.5,64.5C 10.9631,67.7822 12.6298,70.1155 15.5,71.5C 19.1208,77.7441 22.4541,84.0775 25.5,90.5C 26.576,93.7345 27.2427,97.0678 27.5,100.5C 28.5,100.5 29.5,100.5 30.5,100.5C 32.5778,104.265 34.7444,107.932 37,111.5C 37.3108,113.556 37.8108,115.556 38.5,117.5C 38.9569,118.298 39.6236,118.631 40.5,118.5C 40.617,123.057 41.617,127.391 43.5,131.5C 43.5,137.167 43.5,142.833 43.5,148.5C 46.0593,148.802 48.3926,148.468 50.5,147.5C 51.8333,147.5 53.1667,147.5 54.5,147.5C 53.7375,148.268 52.7375,148.768 51.5,149C 52.938,149.219 54.2713,149.719 55.5,150.5C 51.9211,150.711 48.4211,150.711 45,150.5C 43.5979,151.645 42.4312,152.978 41.5,154.5C 27.5,154.5 13.5,154.5 -0.5,154.5C -0.5,102.833 -0.5,51.1667 -0.5,-0.5 Z"/></g>
<g><path style="opacity:1" fill="#c9030b" d="M 130.5,4.5 C 135.833,4.5 141.167,4.5 146.5,4.5C 147.674,5.51369 148.34,6.84702 148.5,8.5C 146.952,8.17876 146.285,7.17876 146.5,5.5C 144.54,6.13826 142.707,6.13826 141,5.5C 140.611,10.5029 142.277,14.8362 146,18.5C 146.333,19.8333 146.667,21.1667 147,22.5C 147.667,21.1667 148.333,21.1667 149,22.5C 150.667,26.8333 152.333,31.1667 154,35.5C 155.333,36.1667 156.667,36.8333 158,37.5C 161.006,44.2388 164.006,50.9055 167,57.5C 170.926,59.3743 173.426,62.3743 174.5,66.5C 175.5,66.5 176.5,66.5 177.5,66.5C 176.081,67.4511 174.415,67.7845 172.5,67.5C 172.608,62.265 170.275,60.5983 165.5,62.5C 161.768,52.4834 157.268,42.8167 152,33.5C 150.167,31.8333 148.333,30.1667 146.5,28.5C 142.292,21.2502 137.959,14.0836 133.5,7C 134.167,6.66667 134.833,6.33333 135.5,6C 133.618,5.80192 131.952,5.30192 130.5,4.5 Z"/></g>
<g><path style="opacity:1" fill="#d47f05" d="M 76.5,40.5 C 79.7131,40.19 82.7131,40.5233 85.5,41.5C 80.0472,41.3649 74.7139,42.0315 69.5,43.5C 69.5,43.1667 69.5,42.8333 69.5,42.5C 71.9653,42.233 74.2986,41.5664 76.5,40.5 Z"/></g>
<g><path style="opacity:1" fill="#6c531c" d="M 66.5,36.5 C 68.1042,37.287 68.7709,38.6203 68.5,40.5C 67.3263,39.4863 66.6596,38.153 66.5,36.5 Z"/></g>
<g><path style="opacity:1" fill="#048832" d="M 31.5,30.5 C 33.6547,30.372 35.6547,30.872 37.5,32C 36.5,32.3333 35.5,32.6667 34.5,33C 42.1407,40.1461 50.4741,46.3128 59.5,51.5C 59.5,51.8333 59.5,52.1667 59.5,52.5C 57.521,54.479 55.521,56.479 53.5,58.5C 45.5911,50.3151 37.9245,41.9818 30.5,33.5C 31.1272,32.5832 31.4606,31.5832 31.5,30.5 Z"/></g>
<g><path style="opacity:1" fill="#df3425" d="M 152.5,18.5 C 154.5,21.1667 156.5,23.8333 158.5,26.5C 162.073,32.6412 165.906,38.6412 170,44.5C 170.483,45.448 170.649,46.448 170.5,47.5C 170.427,49.0269 171.094,50.0269 172.5,50.5C 173.674,51.5137 174.34,52.847 174.5,54.5C 172.976,53.8262 171.642,52.8262 170.5,51.5C 169.779,49.314 169.113,47.1474 168.5,45C 166.416,44.2217 164.583,43.055 163,41.5C 162.667,42.1667 162.333,42.8333 162,43.5C 161.971,40.6335 161.138,38.1335 159.5,36C 160.526,33.5355 159.692,31.7022 157,30.5C 156.667,30.8333 156.333,31.1667 156,31.5C 153.89,27.4639 152.723,23.1306 152.5,18.5 Z"/></g>
<g><path style="opacity:1" fill="#c20d09" d="M 76.5,40.5 C 74.2986,41.5664 71.9653,42.233 69.5,42.5C 69.6716,41.5084 69.3382,40.8417 68.5,40.5C 68.7709,38.6203 68.1042,37.287 66.5,36.5C 66.5,35.8333 66.5,35.1667 66.5,34.5C 65.6295,31.8877 64.9628,29.221 64.5,26.5C 64.5,26.1667 64.5,25.8333 64.5,25.5C 65.5754,24.4376 66.5754,24.4376 67.5,25.5C 68.9251,28.8623 70.7585,31.1956 73,32.5C 73.4189,36.8518 74.0855,37.1851 75,33.5C 75.1968,35.8609 76.3635,37.5276 78.5,38.5C 77.7573,39.1818 77.0906,39.8485 76.5,40.5 Z"/></g>
<g><path style="opacity:1" fill="#687722" d="M 63.5,26.5 C 63.8333,26.5 64.1667,26.5 64.5,26.5C 64.9628,29.221 65.6295,31.8877 66.5,34.5C 66.1667,34.5 65.8333,34.5 65.5,34.5C 64.2264,32.0075 63.5597,29.3408 63.5,26.5 Z"/></g>
<g><path style="opacity:1" fill="#2d9830" d="M 63.5,20.5 C 63.5,22.5 63.5,24.5 63.5,26.5C 63.5597,29.3408 64.2264,32.0075 65.5,34.5C 65.631,35.2389 65.4643,35.9056 65,36.5C 63.3022,34.7339 61.9689,32.7339 61,30.5C 60.6667,31.1667 60.3333,31.8333 60,32.5C 59.7811,31.062 59.2811,29.7287 58.5,28.5C 56.1507,27.4571 54.1507,26.1238 52.5,24.5C 54.3797,24.7709 55.713,24.1042 56.5,22.5C 58.7146,21.7321 61.0479,21.0654 63.5,20.5 Z"/></g>
<g><path style="opacity:1" fill="#92c762" d="M 9.5,26.5 C 8.5,26.5 7.5,26.5 6.5,26.5C 6.5,31.5 6.5,36.5 6.5,41.5C 5.51114,36.0247 5.1778,30.358 5.5,24.5C 7.3797,24.2291 8.71304,24.8958 9.5,26.5 Z"/></g>
<g><path style="opacity:1" fill="#078033" d="M 52.5,24.5 C 54.1507,26.1238 56.1507,27.4571 58.5,28.5C 59.2811,29.7287 59.7811,31.062 60,32.5C 60.3333,31.8333 60.6667,31.1667 61,30.5C 61.9689,32.7339 63.3022,34.7339 65,36.5C 65.4643,35.9056 65.631,35.2389 65.5,34.5C 65.8333,34.5 66.1667,34.5 66.5,34.5C 66.5,35.1667 66.5,35.8333 66.5,36.5C 66.6596,38.153 67.3263,39.4863 68.5,40.5C 69.3382,40.8417 69.6716,41.5084 69.5,42.5C 69.5,42.8333 69.5,43.1667 69.5,43.5C 65.8971,45.7631 62.5638,48.4297 59.5,51.5C 50.4741,46.3128 42.1407,40.1461 34.5,33C 35.5,32.6667 36.5,32.3333 37.5,32C 35.6547,30.872 33.6547,30.372 31.5,30.5C 31.5,30.1667 31.5,29.8333 31.5,29.5C 38.9538,29.4781 45.9538,27.8115 52.5,24.5 Z"/></g>
<g><path style="opacity:1" fill="#4ba168" d="M 53.5,22.5 C 54.5,22.5 55.5,22.5 56.5,22.5C 55.713,24.1042 54.3797,24.7709 52.5,24.5C 45.9538,27.8115 38.9538,29.4781 31.5,29.5C 27.5,29.5 23.5,29.5 19.5,29.5C 18.8333,29.5 18.5,29.1667 18.5,28.5C 30.8483,29.3548 42.5149,27.3548 53.5,22.5 Z"/></g>
<g><path style="opacity:1" fill="#ddecde" d="M 53.5,22.5 C 42.5149,27.3548 30.8483,29.3548 18.5,28.5C 17.5,28.5 16.5,28.5 15.5,28.5C 14.0048,28.0113 12.6715,27.3446 11.5,26.5C 23.8883,29.1352 35.555,27.4686 46.5,21.5C 48.7466,22.3742 51.0799,22.7076 53.5,22.5 Z"/></g>
<g><path style="opacity:1" fill="#b45124" d="M 65.5,19.5 C 64.6586,21.3792 64.3253,23.3792 64.5,25.5C 64.5,25.8333 64.5,26.1667 64.5,26.5C 64.1667,26.5 63.8333,26.5 63.5,26.5C 63.5,24.5 63.5,22.5 63.5,20.5C 63.8417,19.6618 64.5084,19.3284 65.5,19.5 Z"/></g>
<g><path style="opacity:1" fill="#ba0006" d="M 125.5,4.5 C 127.167,4.5 128.833,4.5 130.5,4.5C 131.952,5.30192 133.618,5.80192 135.5,6C 134.833,6.33333 134.167,6.66667 133.5,7C 137.959,14.0836 142.292,21.2502 146.5,28.5C 148.333,30.1667 150.167,31.8333 152,33.5C 157.268,42.8167 161.768,52.4834 165.5,62.5C 163.643,63.7652 161.976,63.4318 160.5,61.5C 157.477,53.461 154.144,45.461 150.5,37.5C 142.051,25.8336 133.718,14.8336 125.5,4.5 Z"/></g>
<g><path style="opacity:1" fill="#e15247" d="M 73.5,16.5 C 71.3826,18.6545 68.716,19.6545 65.5,19.5C 67.936,18.129 70.6027,17.129 73.5,16.5 Z"/></g>
<g><path style="opacity:1" fill="#d80b11" d="M 148.5,8.5 C 150.346,11.54 151.679,14.8733 152.5,18.5C 152.723,23.1306 153.89,27.4639 156,31.5C 156.333,31.1667 156.667,30.8333 157,30.5C 159.692,31.7022 160.526,33.5355 159.5,36C 161.138,38.1335 161.971,40.6335 162,43.5C 162.333,42.8333 162.667,42.1667 163,41.5C 164.583,43.055 166.416,44.2217 168.5,45C 169.113,47.1474 169.779,49.314 170.5,51.5C 171.642,52.8262 172.976,53.8262 174.5,54.5C 176.097,56.8478 177.097,59.5145 177.5,62.5C 177.5,63.8333 177.5,65.1667 177.5,66.5C 176.5,66.5 175.5,66.5 174.5,66.5C 173.426,62.3743 170.926,59.3743 167,57.5C 164.006,50.9055 161.006,44.2388 158,37.5C 156.667,36.8333 155.333,36.1667 154,35.5C 152.333,31.1667 150.667,26.8333 149,22.5C 148.333,21.1667 147.667,21.1667 147,22.5C 146.667,21.1667 146.333,19.8333 146,18.5C 142.277,14.8362 140.611,10.5029 141,5.5C 142.707,6.13826 144.54,6.13826 146.5,5.5C 146.285,7.17876 146.952,8.17876 148.5,8.5 Z"/></g>
<g><path style="opacity:1" fill="#c00008" d="M 90.5,10.5 C 91.5,10.5 92.5,10.5 93.5,10.5C 93.7214,11.7348 94.3881,12.7348 95.5,13.5C 94.9747,14.1924 94.3081,14.6924 93.5,15C 95.8907,15.2868 98.2241,15.7868 100.5,16.5C 102.04,20.6101 105.04,22.7768 109.5,23C 114.904,27.4938 120.071,32.3271 125,37.5C 129.765,43.0298 132.932,49.3631 134.5,56.5C 135.5,56.5 136.5,56.5 137.5,56.5C 137.717,59.4353 138.383,62.2687 139.5,65C 139.227,66.5328 138.894,68.0328 138.5,69.5C 135.794,69.5751 133.127,69.9084 130.5,70.5C 130.389,69.8826 130.056,69.3826 129.5,69C 130.848,67.4259 131.514,65.5925 131.5,63.5C 130.282,57.9659 128.449,52.6326 126,47.5C 118.071,36.9119 108.238,28.4119 96.5,22C 95.5,19.6667 93.8333,18 91.5,17C 91.8333,16.6667 92.1667,16.3333 92.5,16C 91.2341,15.6905 90.0674,15.1905 89,14.5C 86.5408,15.6489 84.0408,15.6489 81.5,14.5C 81.5,14.1667 81.5,13.8333 81.5,13.5C 83.153,13.3404 84.4863,12.6737 85.5,11.5C 85.8333,11.5 86.1667,11.5 86.5,11.5C 87.8333,11.1667 89.1667,10.8333 90.5,10.5 Z"/></g>
<g><path style="opacity:1" fill="#b60004" d="M 97.5,9.5 C 100.203,9.95186 102.87,10.6185 105.5,11.5C 104.975,12.1924 104.308,12.6924 103.5,13C 117.581,22.0795 129.414,33.5795 139,47.5C 141.286,54.0612 143.12,60.7279 144.5,67.5C 143.757,68.1818 143.091,68.8485 142.5,69.5C 141.167,69.5 139.833,69.5 138.5,69.5C 138.894,68.0328 139.227,66.5328 139.5,65C 138.383,62.2687 137.717,59.4353 137.5,56.5C 136.5,56.5 135.5,56.5 134.5,56.5C 132.932,49.3631 129.765,43.0298 125,37.5C 120.071,32.3271 114.904,27.4938 109.5,23C 105.04,22.7768 102.04,20.6101 100.5,16.5C 98.2241,15.7868 95.8907,15.2868 93.5,15C 94.3081,14.6924 94.9747,14.1924 95.5,13.5C 94.3881,12.7348 93.7214,11.7348 93.5,10.5C 94.7079,9.76589 96.0413,9.43255 97.5,9.5 Z"/></g>
<g><path style="opacity:1" fill="#dd654f" d="M 81.5,13.5 C 81.5,13.8333 81.5,14.1667 81.5,14.5C 80.5084,14.3284 79.8417,14.6618 79.5,15.5C 78.1667,15.5 76.8333,15.5 75.5,15.5C 77.1016,13.9261 79.1016,13.2594 81.5,13.5 Z"/></g>
<g><path style="opacity:1" fill="#d3765f" d="M 85.5,11.5 C 84.4863,12.6737 83.153,13.3404 81.5,13.5C 82.287,11.8958 83.6203,11.2291 85.5,11.5 Z"/></g>
<g><path style="opacity:1" fill="#ba4030" d="M 101.5,6.5 C 100.167,7.5 98.8333,8.5 97.5,9.5C 96.0413,9.43255 94.7079,9.76589 93.5,10.5C 92.5,10.5 91.5,10.5 90.5,10.5C 91.5,9.83333 92.5,9.16667 93.5,8.5C 96.006,7.25045 98.6726,6.58378 101.5,6.5 Z"/></g>
<g><path style="opacity:1" fill="#d5a590" d="M 93.5,8.5 C 92.5,9.16667 91.5,9.83333 90.5,10.5C 89.1667,10.8333 87.8333,11.1667 86.5,11.5C 88.1757,9.16628 90.509,8.16628 93.5,8.5 Z"/></g>
<g><path style="opacity:1" fill="#b36957" d="M 115.5,3.5 C 115.5,3.83333 115.5,4.16667 115.5,4.5C 111.186,5.27453 106.853,5.94119 102.5,6.5C 106.393,4.12432 110.727,3.12432 115.5,3.5 Z"/></g>
<g><path style="opacity:1" fill="#c85646" d="M 146.5,4.5 C 141.167,4.5 135.833,4.5 130.5,4.5C 128.833,4.5 127.167,4.5 125.5,4.5C 122.167,4.5 118.833,4.5 115.5,4.5C 115.5,4.16667 115.5,3.83333 115.5,3.5C 124.324,2.34269 133.324,2.17602 142.5,3C 144.058,3.21003 145.391,3.71003 146.5,4.5 Z"/></g>
<g><path style="opacity:1" fill="#e0a80c" d="M 85.5,41.5 C 88.9924,41.446 91.9924,42.446 94.5,44.5C 92.7615,43.5661 91.0948,43.5661 89.5,44.5C 90.7277,46.321 92.3944,47.321 94.5,47.5C 94.2627,48.791 94.596,49.791 95.5,50.5C 94.4206,52.543 92.754,53.8763 90.5,54.5C 90.1667,53.8333 89.8333,53.1667 89.5,52.5C 90.4778,52.189 91.1445,51.5223 91.5,50.5C 90.3112,49.5713 88.9778,49.238 87.5,49.5C 86.6618,49.1583 86.3284,48.4916 86.5,47.5C 88.5492,47.2942 88.8825,46.4609 87.5,45C 83.5138,44.5012 79.5138,44.3345 75.5,44.5C 75.5172,46.5648 75.8505,48.5648 76.5,50.5C 75.3406,52.2503 73.674,53.2503 71.5,53.5C 71.4124,50.477 70.4124,47.8103 68.5,45.5C 68.8627,44.8165 69.1961,44.1499 69.5,43.5C 74.7139,42.0315 80.0472,41.3649 85.5,41.5 Z"/></g>
<g><path style="opacity:1" fill="#c32e12" d="M 86.5,47.5 C 82.8183,47.5549 79.485,48.5549 76.5,50.5C 75.8505,48.5648 75.5172,46.5648 75.5,44.5C 79.5138,44.3345 83.5138,44.5012 87.5,45C 88.8825,46.4609 88.5492,47.2942 86.5,47.5 Z"/></g>
<g><path style="opacity:1" fill="#efca09" d="M 94.5,44.5 C 101.228,47.5615 105.894,52.5615 108.5,59.5C 109.229,64.1304 109.563,68.7971 109.5,73.5C 108.463,74.9303 107.796,76.597 107.5,78.5C 105.797,79.6602 105.131,78.9935 105.5,76.5C 105.5,76.1667 105.5,75.8333 105.5,75.5C 106.598,74.3991 106.765,73.0657 106,71.5C 104.187,72.6091 103.354,71.9424 103.5,69.5C 101.336,69.2785 99.6697,68.2785 98.5,66.5C 96.8079,64.7952 95.4746,62.7952 94.5,60.5C 96.8583,60.7475 98.8583,60.0808 100.5,58.5C 101.404,59.209 101.737,60.209 101.5,61.5C 102.833,61.5 104.167,61.5 105.5,61.5C 105.5,60.5 105.5,59.5 105.5,58.5C 104.5,58.5 103.5,58.5 102.5,58.5C 102.5,57.5 102.5,56.5 102.5,55.5C 101.209,55.2627 100.209,55.596 99.5,56.5C 97.597,56.7959 95.9303,57.4625 94.5,58.5C 93.1667,58.5 92.5,57.8333 92.5,56.5C 94.5825,55.4123 96.7492,54.4123 99,53.5C 99.3329,51.0658 98.1662,50.0658 95.5,50.5C 94.596,49.791 94.2627,48.791 94.5,47.5C 92.3944,47.321 90.7277,46.321 89.5,44.5C 91.0948,43.5661 92.7615,43.5661 94.5,44.5 Z"/></g>
<g><path style="opacity:1" fill="#e00510" d="M 75.5,15.5 C 76.8333,15.5 78.1667,15.5 79.5,15.5C 80.2389,15.369 80.9056,15.5357 81.5,16C 80.269,17.1827 80.269,18.3493 81.5,19.5C 92.0172,26.7282 102.017,34.3949 111.5,42.5C 112.937,44.0212 113.604,45.8546 113.5,48C 113.039,50.1993 112.873,52.3659 113,54.5C 114.062,51.971 114.895,49.3043 115.5,46.5C 117.481,47.1054 117.815,48.1054 116.5,49.5C 118.261,53.4186 119.761,57.4186 121,61.5C 121.667,64.5 121.667,67.5 121,70.5C 118.916,73.033 116.916,73.033 115,70.5C 113.894,75.3117 112.394,75.9784 110.5,72.5C 110.665,69.1501 110.498,65.8168 110,62.5C 109.768,61.2625 109.268,60.2625 108.5,59.5C 105.894,52.5615 101.228,47.5615 94.5,44.5C 91.9924,42.446 88.9924,41.446 85.5,41.5C 82.7131,40.5233 79.7131,40.19 76.5,40.5C 77.0906,39.8485 77.7573,39.1818 78.5,38.5C 76.3635,37.5276 75.1968,35.8609 75,33.5C 74.0855,37.1851 73.4189,36.8518 73,32.5C 70.7585,31.1956 68.9251,28.8623 67.5,25.5C 66.5754,24.4376 65.5754,24.4376 64.5,25.5C 64.3253,23.3792 64.6586,21.3792 65.5,19.5C 68.716,19.6545 71.3826,18.6545 73.5,16.5C 74.4916,16.6716 75.1583,16.3382 75.5,15.5 Z"/></g>
<g><path style="opacity:1" fill="#d24315" d="M 87.5,49.5 C 88.9778,49.238 90.3112,49.5713 91.5,50.5C 91.1445,51.5223 90.4778,52.189 89.5,52.5C 88.8333,51.5 88.1667,50.5 87.5,49.5 Z"/></g>
<g><path style="opacity:1" fill="#dd725d" d="M 170.5,47.5 C 171.906,47.9731 172.573,48.9731 172.5,50.5C 171.094,50.0269 170.427,49.0269 170.5,47.5 Z"/></g>
<g><path style="opacity:1" fill="#d0e4bb" d="M 6.5,46.5 C 8.02463,49.5828 9.02463,52.9161 9.5,56.5C 6.97576,53.761 5.97576,50.4276 6.5,46.5 Z"/></g>
<g><path style="opacity:1" fill="#d8460f" d="M 95.5,50.5 C 98.1662,50.0658 99.3329,51.0658 99,53.5C 96.7492,54.4123 94.5825,55.4123 92.5,56.5C 91.5,56.1667 90.8333,55.5 90.5,54.5C 92.754,53.8763 94.4206,52.543 95.5,50.5 Z"/></g>
<g><path style="opacity:1" fill="#48a52c" d="M 25.5,38.5 C 28.9424,41.6413 32.6091,44.6413 36.5,47.5C 37.7612,50.2637 39.5946,52.597 42,54.5C 43.3703,57.9915 44.8703,61.3248 46.5,64.5C 49.5696,65.2429 51.2363,67.2429 51.5,70.5C 52.5,70.5 53.5,70.5 54.5,70.5C 54.8509,66.3164 55.5176,62.3164 56.5,58.5C 55.2354,67.5767 57.0687,75.91 62,83.5C 64.677,86.01 67.177,88.6767 69.5,91.5C 67.3579,92.5978 66.0246,91.7645 65.5,89C 64.5,88.3333 63.5,88.3333 62.5,89C 63.2567,90.5122 64.2567,91.8455 65.5,93C 64.6919,93.3076 64.0253,93.8076 63.5,94.5C 65.3893,98.5636 66.3893,102.897 66.5,107.5C 66.4363,115.983 64.603,123.983 61,131.5C 59.6218,133.213 57.9552,134.547 56,135.5C 55.5172,136.448 55.3505,137.448 55.5,138.5C 52.3161,139.643 48.9827,140.309 45.5,140.5C 45.7678,138.901 45.4345,137.568 44.5,136.5C 44.5,134.833 44.5,133.167 44.5,131.5C 45.404,132.209 45.7373,133.209 45.5,134.5C 50.5057,134.116 54.6724,132.116 58,128.5C 62.2885,118.114 63.2885,107.447 61,96.5C 60.2496,95.8742 59.4162,95.3742 58.5,95C 59.3567,94.3109 60.0233,93.4776 60.5,92.5C 58.8076,90.6414 57.3076,88.6414 56,86.5C 55.6667,87.5 55.3333,88.5 55,89.5C 52.7978,81.4238 48.7978,74.4238 43,68.5C 41.1987,60.2124 36.5321,54.2124 29,50.5C 28.7398,48.3825 27.7398,46.7158 26,45.5C 25.5034,43.1902 25.3367,40.8568 25.5,38.5 Z"/></g>
<g><path style="opacity:1" fill="#ef9a0a" d="M 99.5,56.5 C 100.209,55.596 101.209,55.2627 102.5,55.5C 102.5,56.5 102.5,57.5 102.5,58.5C 103.5,58.5 104.5,58.5 105.5,58.5C 105.5,59.5 105.5,60.5 105.5,61.5C 104.167,61.5 102.833,61.5 101.5,61.5C 101.737,60.209 101.404,59.209 100.5,58.5C 102.031,57.0755 101.698,56.4088 99.5,56.5 Z"/></g>
<g><path style="opacity:1" fill="#368731" d="M 70.5,53.5 C 70.5,53.8333 70.5,54.1667 70.5,54.5C 67.775,54.937 65.775,56.2704 64.5,58.5C 63.1417,59.6256 61.8084,59.6256 60.5,58.5C 61.7411,54.2575 64.4078,51.2575 68.5,49.5C 69.7051,50.5769 70.3718,51.9102 70.5,53.5 Z"/></g>
<g><path style="opacity:1" fill="#24992e" d="M 19.5,29.5 C 23.5,29.5 27.5,29.5 31.5,29.5C 31.5,29.8333 31.5,30.1667 31.5,30.5C 31.4606,31.5832 31.1272,32.5832 30.5,33.5C 37.9245,41.9818 45.5911,50.3151 53.5,58.5C 55.521,56.479 57.521,54.479 59.5,52.5C 58.9044,54.7454 57.9044,56.7454 56.5,58.5C 55.5176,62.3164 54.8509,66.3164 54.5,70.5C 53.5,70.5 52.5,70.5 51.5,70.5C 51.2363,67.2429 49.5696,65.2429 46.5,64.5C 44.8703,61.3248 43.3703,57.9915 42,54.5C 39.5946,52.597 37.7612,50.2637 36.5,47.5C 32.6091,44.6413 28.9424,41.6413 25.5,38.5C 25.5,35.8333 25.5,33.1667 25.5,30.5C 23.2646,30.7947 21.2646,30.4614 19.5,29.5 Z"/></g>
<g><path style="opacity:1" fill="#bab1b1" d="M 87.5,61.5 C 88.1098,62.391 88.4431,63.391 88.5,64.5C 86.7016,63.5371 85.3683,64.2038 84.5,66.5C 84.3019,63.2148 82.6352,61.5482 79.5,61.5C 79.178,63.7224 79.8446,65.5557 81.5,67C 79.5743,67.4224 78.5743,68.5891 78.5,70.5C 78.1667,70.5 77.8333,70.5 77.5,70.5C 76.696,67.4214 75.696,64.4214 74.5,61.5C 74.5,60.8333 74.8333,60.5 75.5,60.5C 77.2303,59.9744 78.5637,58.9744 79.5,57.5C 83.6733,55.6534 86.34,56.9868 87.5,61.5 Z"/></g>
<g><path style="opacity:1" fill="#d54009" d="M 99.5,56.5 C 101.698,56.4088 102.031,57.0755 100.5,58.5C 98.8583,60.0808 96.8583,60.7475 94.5,60.5C 94.5,59.8333 94.5,59.1667 94.5,58.5C 95.9303,57.4625 97.597,56.7959 99.5,56.5 Z"/></g>
<g><path style="opacity:1" fill="#bc7518" d="M 71.5,56.5 C 70.1854,58.1347 70.1854,59.8014 71.5,61.5C 70.675,62.3857 69.675,62.719 68.5,62.5C 64.7499,59.114 65.7499,57.114 71.5,56.5 Z"/></g>
<g><path style="opacity:1" fill="#cc8e18" d="M 91.5,60.5 C 91.8333,61.1667 92.1667,61.8333 92.5,62.5C 91.8333,63.5 91.1667,64.5 90.5,65.5C 90.1667,65.5 89.8333,65.5 89.5,65.5C 89.5,64.8333 89.1667,64.5 88.5,64.5C 88.4431,63.391 88.1098,62.391 87.5,61.5C 88.8333,61.1667 90.1667,60.8333 91.5,60.5 Z"/></g>
<g><path style="opacity:1" fill="#d8e8c7" d="M 9.5,56.5 C 12.2367,61.0095 14.2367,66.0095 15.5,71.5C 12.6298,70.1155 10.9631,67.7822 10.5,64.5C 9.60433,65.5063 8.93767,65.5063 8.5,64.5C 9.39276,61.9159 9.72609,59.2492 9.5,56.5 Z"/></g>
<g><path style="opacity:1" fill="#ae2616" d="M 82.5,51.5 C 83.244,54.8845 84.5774,55.2178 86.5,52.5C 88.653,54.7937 90.3197,57.4604 91.5,60.5C 90.1667,60.8333 88.8333,61.1667 87.5,61.5C 86.34,56.9868 83.6733,55.6534 79.5,57.5C 78.713,55.8958 77.3797,55.2291 75.5,55.5C 75.5,57.1667 75.5,58.8333 75.5,60.5C 74.8333,60.5 74.5,60.8333 74.5,61.5C 74.4347,64.1013 74.4347,66.768 74.5,69.5C 73.8333,69.5 73.1667,69.5 72.5,69.5C 70.3311,67.6597 68.9977,65.3263 68.5,62.5C 69.675,62.719 70.675,62.3857 71.5,61.5C 70.1854,59.8014 70.1854,58.1347 71.5,56.5C 72.5,55.8333 73.5,55.1667 74.5,54.5C 77.1667,53.5 79.8333,52.5 82.5,51.5 Z"/></g>
<g><path style="opacity:1" fill="#c0771b" d="M 79.5,57.5 C 78.5637,58.9744 77.2303,59.9744 75.5,60.5C 75.5,58.8333 75.5,57.1667 75.5,55.5C 77.3797,55.2291 78.713,55.8958 79.5,57.5 Z"/></g>
<g><path style="opacity:1" fill="#c81a1b" d="M 160.5,61.5 C 161.976,63.4318 163.643,63.7652 165.5,62.5C 170.275,60.5983 172.608,62.265 172.5,67.5C 174.415,67.7845 176.081,67.4511 177.5,66.5C 177.5,65.1667 177.5,63.8333 177.5,62.5C 179.04,64.8383 179.706,67.5049 179.5,70.5C 174.761,71.1848 170.095,72.1848 165.5,73.5C 163.058,73.6463 162.391,72.813 163.5,71C 162.25,68.1785 160.583,65.6785 158.5,63.5C 158.5,62.1667 159.167,61.5 160.5,61.5 Z"/></g>
<g><path style="opacity:1" fill="#ba8d83" d="M 74.5,61.5 C 75.696,64.4214 76.696,67.4214 77.5,70.5C 76.391,70.4431 75.391,70.1098 74.5,69.5C 74.4347,66.768 74.4347,64.1013 74.5,61.5 Z"/></g>
<g><path style="opacity:1" fill="#e97207" d="M 108.5,59.5 C 109.268,60.2625 109.768,61.2625 110,62.5C 110.498,65.8168 110.665,69.1501 110.5,72.5C 110.5,73.1667 110.167,73.5 109.5,73.5C 109.563,68.7971 109.229,64.1304 108.5,59.5 Z"/></g>
<g><path style="opacity:1" fill="#596b9d" d="M 88.5,64.5 C 89.1667,64.5 89.5,64.8333 89.5,65.5C 89.5,66.5 89.5,67.5 89.5,68.5C 86.1667,69.8333 82.8333,71.1667 79.5,72.5C 79.1667,71.8333 78.8333,71.1667 78.5,70.5C 78.5743,68.5891 79.5743,67.4224 81.5,67C 79.8446,65.5557 79.178,63.7224 79.5,61.5C 82.6352,61.5482 84.3019,63.2148 84.5,66.5C 85.3683,64.2038 86.7016,63.5371 88.5,64.5 Z"/></g>
<g><path style="opacity:1" fill="#be2416" d="M 92.5,62.5 C 94.873,64.5792 96.2064,67.2459 96.5,70.5C 95.0413,70.5674 93.7079,70.2341 92.5,69.5C 92.5,68.8333 92.1667,68.5 91.5,68.5C 90.8902,67.609 90.5569,66.609 90.5,65.5C 91.1667,64.5 91.8333,63.5 92.5,62.5 Z"/></g>
<g><path style="opacity:1" fill="#c9aa0f" d="M 69.5,43.5 C 69.1961,44.1499 68.8627,44.8165 68.5,45.5C 70.4124,47.8103 71.4124,50.477 71.5,53.5C 71.1667,53.5 70.8333,53.5 70.5,53.5C 70.3718,51.9102 69.7051,50.5769 68.5,49.5C 64.4078,51.2575 61.7411,54.2575 60.5,58.5C 61.8084,59.6256 63.1417,59.6256 64.5,58.5C 66.1125,63.0003 68.1125,67.3337 70.5,71.5C 68.3962,73.0987 66.3962,74.932 64.5,77C 67.2605,77.7218 69.9272,77.5552 72.5,76.5C 73.8333,76.5 74.5,77.1667 74.5,78.5C 71.7855,79.9581 68.7855,80.9581 65.5,81.5C 66.9308,83.9377 68.9308,85.6044 71.5,86.5C 73.4807,88.1436 75.4807,89.8103 77.5,91.5C 77.8333,91.5 78.1667,91.5 78.5,91.5C 77.1225,92.2344 75.6225,92.9011 74,93.5C 73.1841,92.1772 72.0174,91.5106 70.5,91.5C 70.1667,91.5 69.8333,91.5 69.5,91.5C 67.177,88.6767 64.677,86.01 62,83.5C 57.0687,75.91 55.2354,67.5767 56.5,58.5C 57.9044,56.7454 58.9044,54.7454 59.5,52.5C 59.5,52.1667 59.5,51.8333 59.5,51.5C 62.5638,48.4297 65.8971,45.7631 69.5,43.5 Z"/></g>
<g><path style="opacity:1" fill="#bc7324" d="M 72.5,69.5 C 73.1667,69.5 73.8333,69.5 74.5,69.5C 75.391,70.1098 76.391,70.4431 77.5,70.5C 77.8333,70.5 78.1667,70.5 78.5,70.5C 78.8333,71.1667 79.1667,71.8333 79.5,72.5C 79.5,72.8333 79.5,73.1667 79.5,73.5C 77.901,73.2322 76.5676,73.5655 75.5,74.5C 73.953,73.2318 72.953,71.5652 72.5,69.5 Z"/></g>
<g><path style="opacity:1" fill="#d45f07" d="M 99.5,70.5 C 103.31,71.2458 103.31,72.2458 99.5,73.5C 99.5,72.5 99.5,71.5 99.5,70.5 Z"/></g>
<g><path style="opacity:1" fill="#609e21" d="M 60.5,70.5 C 62.288,70.2148 63.9547,70.5481 65.5,71.5C 64.5791,73.756 62.9124,74.756 60.5,74.5C 60.5,73.1667 60.5,71.8333 60.5,70.5 Z"/></g>
<g><path style="opacity:1" fill="#f4f4f4" d="M 158.5,26.5 C 160.898,27.4493 163.064,28.7826 165,30.5C 165.333,29.8333 165.667,29.1667 166,28.5C 167.243,31.9824 168.743,35.3157 170.5,38.5C 170.182,39.6473 169.516,40.4806 168.5,41C 170.906,41.7789 172.573,40.9456 173.5,38.5C 173.833,39 174.167,39.5 174.5,40C 173.66,41.1712 172.827,42.3379 172,43.5C 171.233,46.9033 172.399,47.9033 175.5,46.5C 176.243,47.9079 177.077,49.2412 178,50.5C 180.302,45.0866 181.468,45.42 181.5,51.5C 182.5,51.5 183.5,51.5 184.5,51.5C 185.054,65.5704 183.888,65.9038 181,52.5C 180.667,52.1667 180.333,51.8333 180,51.5C 179.462,54.8122 179.962,57.9788 181.5,61C 180.868,64.0855 180.868,67.2521 181.5,70.5C 185.079,70.2343 185.413,68.901 182.5,66.5C 185.733,63.9047 186.733,60.738 185.5,57C 186.743,55.8455 187.743,54.5122 188.5,53C 189.448,52.5172 190.448,52.3505 191.5,52.5C 191.5,86.5 191.5,120.5 191.5,154.5C 141.5,154.5 91.5,154.5 41.5,154.5C 42.4312,152.978 43.5979,151.645 45,150.5C 48.4211,150.711 51.9211,150.711 55.5,150.5C 54.2713,149.719 52.938,149.219 51.5,149C 52.7375,148.768 53.7375,148.268 54.5,147.5C 55.7095,147.068 56.7095,146.401 57.5,145.5C 61.3362,143.882 65.0029,141.882 68.5,139.5C 70.0618,139.267 71.3951,138.6 72.5,137.5C 73.8333,136.833 75.1667,136.167 76.5,135.5C 78.8477,135.408 80.5144,134.408 81.5,132.5C 84.8333,129.833 88.1667,127.167 91.5,124.5C 95.4819,121.848 99.1486,118.848 102.5,115.5C 104.981,115.226 106.647,113.893 107.5,111.5C 108.167,111.5 108.833,111.5 109.5,111.5C 112.135,110.527 114.135,108.86 115.5,106.5C 118.473,104.194 121.14,101.527 123.5,98.5C 127.5,96.1667 131.5,93.8333 135.5,91.5C 139.68,89.4737 143.68,87.1403 147.5,84.5C 148.298,84.0431 148.631,83.3764 148.5,82.5C 149.795,81.5116 151.128,80.5116 152.5,79.5C 152.833,79.5 153.167,79.5 153.5,79.5C 155.967,79.2451 157.967,78.2451 159.5,76.5C 161.574,75.4861 163.574,74.4861 165.5,73.5C 170.095,72.1848 174.761,71.1848 179.5,70.5C 179.706,67.5049 179.04,64.8383 177.5,62.5C 177.097,59.5145 176.097,56.8478 174.5,54.5C 174.34,52.847 173.674,51.5137 172.5,50.5C 172.573,48.9731 171.906,47.9731 170.5,47.5C 170.649,46.448 170.483,45.448 170,44.5C 165.906,38.6412 162.073,32.6412 158.5,26.5 Z"/></g>
<g><path style="opacity:1" fill="#d07d1e" d="M 92.5,69.5 C 93.7079,70.2341 95.0413,70.5674 96.5,70.5C 97.8333,71.8333 97.8333,73.1667 96.5,74.5C 95.5,74.5 94.5,74.5 93.5,74.5C 93.3713,72.7839 93.038,71.1172 92.5,69.5 Z"/></g>
<g><path style="opacity:1" fill="#e2a30b" d="M 98.5,66.5 C 99.6697,68.2785 101.336,69.2785 103.5,69.5C 103.354,71.9424 104.187,72.6091 106,71.5C 106.765,73.0657 106.598,74.3991 105.5,75.5C 105.631,74.6236 105.298,73.9569 104.5,73.5C 103.06,74.9524 101.394,75.9524 99.5,76.5C 99.5,75.5 99.5,74.5 99.5,73.5C 103.31,72.2458 103.31,71.2458 99.5,70.5C 99.1667,69.1667 98.8333,67.8333 98.5,66.5 Z"/></g>
<g><path style="opacity:1" fill="#af1615" d="M 158.5,63.5 C 160.583,65.6785 162.25,68.1785 163.5,71C 162.391,72.813 163.058,73.6463 165.5,73.5C 163.574,74.4861 161.574,75.4861 159.5,76.5C 157.033,76.7549 155.033,77.7549 153.5,79.5C 153.167,79.5 152.833,79.5 152.5,79.5C 151.309,74.8823 152.975,72.3823 157.5,72C 155.323,70.7978 152.989,70.2978 150.5,70.5C 150.5,69.5 150.5,68.5 150.5,67.5C 152.806,67.0074 155.139,66.6741 157.5,66.5C 157.263,65.209 157.596,64.209 158.5,63.5 Z"/></g>
<g><path style="opacity:1" fill="#4b9529" d="M 70.5,71.5 C 71.9313,72.7804 72.5979,74.4471 72.5,76.5C 69.9272,77.5552 67.2605,77.7218 64.5,77C 66.3962,74.932 68.3962,73.0987 70.5,71.5 Z"/></g>
<g><path style="opacity:1" fill="#cd9e7f" d="M 86.5,47.5 C 86.3284,48.4916 86.6618,49.1583 87.5,49.5C 88.1667,50.5 88.8333,51.5 89.5,52.5C 89.8333,53.1667 90.1667,53.8333 90.5,54.5C 90.8333,55.5 91.5,56.1667 92.5,56.5C 92.5,57.8333 93.1667,58.5 94.5,58.5C 94.5,59.1667 94.5,59.8333 94.5,60.5C 95.4746,62.7952 96.8079,64.7952 98.5,66.5C 98.8333,67.8333 99.1667,69.1667 99.5,70.5C 99.5,71.5 99.5,72.5 99.5,73.5C 99.5,74.5 99.5,75.5 99.5,76.5C 98.5294,78.4832 97.5294,80.4832 96.5,82.5C 95.8333,82.5 95.5,82.8333 95.5,83.5C 94.609,84.1098 93.609,84.4431 92.5,84.5C 91.8333,84.5 91.1667,84.5 90.5,84.5C 91.8333,83.0665 93.3333,81.7332 95,80.5C 96.128,78.6547 96.628,76.6547 96.5,74.5C 97.8333,73.1667 97.8333,71.8333 96.5,70.5C 96.2064,67.2459 94.873,64.5792 92.5,62.5C 92.1667,61.8333 91.8333,61.1667 91.5,60.5C 90.3197,57.4604 88.653,54.7937 86.5,52.5C 85.4617,50.4805 84.1284,50.1472 82.5,51.5C 79.8333,52.5 77.1667,53.5 74.5,54.5C 73.1667,54.5 71.8333,54.5 70.5,54.5C 70.5,54.1667 70.5,53.8333 70.5,53.5C 70.8333,53.5 71.1667,53.5 71.5,53.5C 73.674,53.2503 75.3406,52.2503 76.5,50.5C 79.485,48.5549 82.8183,47.5549 86.5,47.5 Z"/></g>
<g><path style="opacity:1" fill="#d18e0b" d="M 86.5,52.5 C 84.5774,55.2178 83.244,54.8845 82.5,51.5C 84.1284,50.1472 85.4617,50.4805 86.5,52.5 Z"/></g>
<g><path style="opacity:1" fill="#bcbdc8" d="M 89.5,65.5 C 89.8333,65.5 90.1667,65.5 90.5,65.5C 90.5569,66.609 90.8902,67.609 91.5,68.5C 92.4182,73.6702 90.4182,77.0035 85.5,78.5C 84.5481,76.9547 84.2148,75.288 84.5,73.5C 82.8333,73.5 81.1667,73.5 79.5,73.5C 79.5,73.1667 79.5,72.8333 79.5,72.5C 82.8333,71.1667 86.1667,69.8333 89.5,68.5C 89.5,67.5 89.5,66.5 89.5,65.5 Z"/></g>
<g><path style="opacity:1" fill="#4265a1" d="M 85.5,71.5 C 86.5,71.5 87.5,71.5 88.5,71.5C 88.5,72.8333 88.5,74.1667 88.5,75.5C 87.5,75.5 86.5,75.5 85.5,75.5C 85.5,74.1667 85.5,72.8333 85.5,71.5 Z"/></g>
<g><path style="opacity:1" fill="#af9e83" d="M 70.5,54.5 C 71.8333,54.5 73.1667,54.5 74.5,54.5C 73.5,55.1667 72.5,55.8333 71.5,56.5C 65.7499,57.114 64.7499,59.114 68.5,62.5C 68.9977,65.3263 70.3311,67.6597 72.5,69.5C 72.953,71.5652 73.953,73.2318 75.5,74.5C 75.9805,77.8335 77.6472,80.1669 80.5,81.5C 80.9731,82.9063 81.9731,83.573 83.5,83.5C 85.6074,84.4682 87.9407,84.8016 90.5,84.5C 91.1667,84.5 91.8333,84.5 92.5,84.5C 92.1667,85.1667 91.8333,85.8333 91.5,86.5C 89.1667,86.5 86.8333,86.5 84.5,86.5C 83.1667,86.1667 81.8333,85.8333 80.5,85.5C 80.1667,84.5 79.5,83.8333 78.5,83.5C 78.1667,82.5 77.5,81.8333 76.5,81.5C 76.0679,80.2905 75.4013,79.2905 74.5,78.5C 74.5,77.1667 73.8333,76.5 72.5,76.5C 72.5979,74.4471 71.9313,72.7804 70.5,71.5C 68.1125,67.3337 66.1125,63.0003 64.5,58.5C 65.775,56.2704 67.775,54.937 70.5,54.5 Z"/></g>
<g><path style="opacity:1" fill="#ab1c11" d="M 79.5,73.5 C 80.1667,74.8333 80.8333,76.1667 81.5,77.5C 81.1667,78.8333 80.8333,80.1667 80.5,81.5C 77.6472,80.1669 75.9805,77.8335 75.5,74.5C 76.5676,73.5655 77.901,73.2322 79.5,73.5 Z"/></g>
<g><path style="opacity:1" fill="#c8b2a6" d="M 91.5,68.5 C 92.1667,68.5 92.5,68.8333 92.5,69.5C 93.038,71.1172 93.3713,72.7839 93.5,74.5C 91.7152,78.2726 88.7152,79.9393 84.5,79.5C 83.5,78.8333 82.5,78.1667 81.5,77.5C 80.8333,76.1667 80.1667,74.8333 79.5,73.5C 81.1667,73.5 82.8333,73.5 84.5,73.5C 84.2148,75.288 84.5481,76.9547 85.5,78.5C 90.4182,77.0035 92.4182,73.6702 91.5,68.5 Z"/></g>
<g><path style="opacity:1" fill="#bd8974" d="M 159.5,76.5 C 157.967,78.2451 155.967,79.2451 153.5,79.5C 155.033,77.7549 157.033,76.7549 159.5,76.5 Z"/></g>
<g><path style="opacity:1" fill="#bb7316" d="M 81.5,77.5 C 82.5,78.1667 83.5,78.8333 84.5,79.5C 84.7678,81.099 84.4345,82.4324 83.5,83.5C 81.9731,83.573 80.9731,82.9063 80.5,81.5C 80.8333,80.1667 81.1667,78.8333 81.5,77.5 Z"/></g>
<g><path style="opacity:1" fill="#3a942b" d="M 74.5,78.5 C 75.4013,79.2905 76.0679,80.2905 76.5,81.5C 74.5,82.8333 72.8333,84.5 71.5,86.5C 68.9308,85.6044 66.9308,83.9377 65.5,81.5C 68.7855,80.9581 71.7855,79.9581 74.5,78.5 Z"/></g>
<g><path style="opacity:1" fill="#aa1f17" d="M 93.5,74.5 C 94.5,74.5 95.5,74.5 96.5,74.5C 96.628,76.6547 96.128,78.6547 95,80.5C 93.3333,81.7332 91.8333,83.0665 90.5,84.5C 87.9407,84.8016 85.6074,84.4682 83.5,83.5C 84.4345,82.4324 84.7678,81.099 84.5,79.5C 88.7152,79.9393 91.7152,78.2726 93.5,74.5 Z"/></g>
<g><path style="opacity:1" fill="#c83118" d="M 105.5,75.5 C 105.5,75.8333 105.5,76.1667 105.5,76.5C 104.227,79.9781 102.227,83.1448 99.5,86C 97.0658,86.3329 96.0658,85.1662 96.5,82.5C 97.5294,80.4832 98.5294,78.4832 99.5,76.5C 101.394,75.9524 103.06,74.9524 104.5,73.5C 105.298,73.9569 105.631,74.6236 105.5,75.5 Z"/></g>
<g><path style="opacity:1" fill="#3f8f29" d="M 78.5,83.5 C 79.5,83.8333 80.1667,84.5 80.5,85.5C 79.3409,87.3769 77.6742,87.8769 75.5,87C 76.365,85.6412 77.365,84.4745 78.5,83.5 Z"/></g>
<g><path style="opacity:1" fill="#b1a213" d="M 76.5,81.5 C 77.5,81.8333 78.1667,82.5 78.5,83.5C 77.365,84.4745 76.365,85.6412 75.5,87C 77.6742,87.8769 79.3409,87.3769 80.5,85.5C 81.8333,85.8333 83.1667,86.1667 84.5,86.5C 81.9906,87.9213 79.6572,89.5879 77.5,91.5C 75.4807,89.8103 73.4807,88.1436 71.5,86.5C 72.8333,84.5 74.5,82.8333 76.5,81.5 Z"/></g>
<g><path style="opacity:1" fill="#c21418" d="M 138.5,69.5 C 139.833,69.5 141.167,69.5 142.5,69.5C 142.567,71.4008 142.233,73.2341 141.5,75C 143.232,77.6532 144.898,80.1532 146.5,82.5C 142.543,85.1218 138.876,88.1218 135.5,91.5C 131.5,93.8333 127.5,96.1667 123.5,98.5C 123.563,96.1014 123.23,93.6014 122.5,91C 123.167,89 124.5,87.6667 126.5,87C 125.269,85.8173 125.269,84.6507 126.5,83.5C 127.251,84.376 127.751,85.376 128,86.5C 129.226,81.5479 131.393,77.0479 134.5,73C 132.563,72.8784 131.23,72.045 130.5,70.5C 133.127,69.9084 135.794,69.5751 138.5,69.5 Z"/></g>
<g><path style="opacity:1" fill="#d0a414" d="M 105.5,76.5 C 105.131,78.9935 105.797,79.6602 107.5,78.5C 107.075,81.1192 106.075,83.4525 104.5,85.5C 102.196,88.1413 99.8623,90.808 97.5,93.5C 95.0347,93.767 92.7014,94.4336 90.5,95.5C 88.6285,94.6411 86.9618,94.3078 85.5,94.5C 88.0795,93.4512 90.7462,92.7845 93.5,92.5C 93.9275,89.4359 94.5942,86.4359 95.5,83.5C 95.5,82.8333 95.8333,82.5 96.5,82.5C 96.0658,85.1662 97.0658,86.3329 99.5,86C 102.227,83.1448 104.227,79.9781 105.5,76.5 Z"/></g>
<g><path style="opacity:1" fill="#2b863a" d="M 84.5,86.5 C 86.8333,86.5 89.1667,86.5 91.5,86.5C 92.3007,88.0418 92.634,89.7085 92.5,91.5C 87.7875,92.709 83.1208,92.709 78.5,91.5C 78.1667,91.5 77.8333,91.5 77.5,91.5C 79.6572,89.5879 81.9906,87.9213 84.5,86.5 Z"/></g>
<g><path style="opacity:1" fill="#d6b6a8" d="M 146.5,82.5 C 147.167,82.5 147.833,82.5 148.5,82.5C 148.631,83.3764 148.298,84.0431 147.5,84.5C 143.68,87.1403 139.68,89.4737 135.5,91.5C 138.876,88.1218 142.543,85.1218 146.5,82.5 Z"/></g>
<g><path style="opacity:1" fill="#cb0f13" d="M 130.5,70.5 C 131.23,72.045 132.563,72.8784 134.5,73C 131.393,77.0479 129.226,81.5479 128,86.5C 127.751,85.376 127.251,84.376 126.5,83.5C 125.269,84.6507 125.269,85.8173 126.5,87C 124.5,87.6667 123.167,89 122.5,91C 123.23,93.6014 123.563,96.1014 123.5,98.5C 121.14,101.527 118.473,104.194 115.5,106.5C 112.891,107.443 110.891,109.11 109.5,111.5C 108.833,111.5 108.167,111.5 107.5,111.5C 106.312,110.316 105.145,110.316 104,111.5C 103.833,110.667 103.667,109.833 103.5,109C 104.387,104.508 104.553,100.008 104,95.5C 105.205,94.9288 106.372,94.2621 107.5,93.5C 106.092,92.7568 104.759,91.9234 103.5,91C 104.167,90.6667 104.833,90.3333 105.5,90C 104.62,88.6439 104.286,87.1439 104.5,85.5C 106.075,83.4525 107.075,81.1192 107.5,78.5C 107.796,76.597 108.463,74.9303 109.5,73.5C 110.359,81.6579 112.193,89.6579 115,97.5C 116.43,94.6473 117.263,91.6473 117.5,88.5C 118.5,88.5 119.5,88.5 120.5,88.5C 120.5,87.1667 120.5,85.8333 120.5,84.5C 119.5,84.5 118.5,84.5 117.5,84.5C 116.66,81.1763 116.16,77.8429 116,74.5C 119.076,73.7117 122.242,73.2117 125.5,73C 126.617,71.1079 128.284,70.2746 130.5,70.5 Z"/></g>
<g><path style="opacity:1" fill="#b3a111" d="M 95.5,83.5 C 94.5942,86.4359 93.9275,89.4359 93.5,92.5C 90.7462,92.7845 88.0795,93.4512 85.5,94.5C 86.9618,94.3078 88.6285,94.6411 90.5,95.5C 89.791,96.404 88.791,96.7373 87.5,96.5C 83.1311,96.5328 78.7978,96.1995 74.5,95.5C 72.8608,94.5275 71.5274,93.1942 70.5,91.5C 72.0174,91.5106 73.1841,92.1772 74,93.5C 75.6225,92.9011 77.1225,92.2344 78.5,91.5C 83.1208,92.709 87.7875,92.709 92.5,91.5C 92.634,89.7085 92.3007,88.0418 91.5,86.5C 91.8333,85.8333 92.1667,85.1667 92.5,84.5C 93.609,84.4431 94.609,84.1098 95.5,83.5 Z"/></g>
<g><path style="opacity:1" fill="#d3e6c1" d="M 25.5,90.5 C 27.9216,93.416 29.5883,96.7493 30.5,100.5C 29.5,100.5 28.5,100.5 27.5,100.5C 27.2427,97.0678 26.576,93.7345 25.5,90.5 Z"/></g>
<g><path style="opacity:1" fill="#c12318" d="M 104.5,85.5 C 104.286,87.1439 104.62,88.6439 105.5,90C 104.833,90.3333 104.167,90.6667 103.5,91C 104.759,91.9234 106.092,92.7568 107.5,93.5C 106.372,94.2621 105.205,94.9288 104,95.5C 104.553,100.008 104.387,104.508 103.5,109C 103.667,109.833 103.833,110.667 104,111.5C 105.145,110.316 106.312,110.316 107.5,111.5C 106.647,113.893 104.981,115.226 102.5,115.5C 102.795,113.265 102.461,111.265 101.5,109.5C 101.093,103.873 99.7598,98.5392 97.5,93.5C 99.8623,90.808 102.196,88.1413 104.5,85.5 Z"/></g>
<g><path style="opacity:1" fill="#57ac2d" d="M 15.5,28.5 C 16.5,28.5 17.5,28.5 18.5,28.5C 18.5,29.1667 18.8333,29.5 19.5,29.5C 21.2646,30.4614 23.2646,30.7947 25.5,30.5C 25.5,33.1667 25.5,35.8333 25.5,38.5C 25.3367,40.8568 25.5034,43.1902 26,45.5C 27.7398,46.7158 28.7398,48.3825 29,50.5C 36.5321,54.2124 41.1987,60.2124 43,68.5C 48.7978,74.4238 52.7978,81.4238 55,89.5C 55.3333,88.5 55.6667,87.5 56,86.5C 57.3076,88.6414 58.8076,90.6414 60.5,92.5C 60.0233,93.4776 59.3567,94.3109 58.5,95C 59.4162,95.3742 60.2496,95.8742 61,96.5C 63.2885,107.447 62.2885,118.114 58,128.5C 54.6724,132.116 50.5057,134.116 45.5,134.5C 45.7373,133.209 45.404,132.209 44.5,131.5C 44.1667,131.5 43.8333,131.5 43.5,131.5C 41.617,127.391 40.617,123.057 40.5,118.5C 44.5066,119.004 48.5066,119.17 52.5,119C 54.5127,117.209 54.5127,115.875 52.5,115C 53.3301,113.253 54.3301,111.587 55.5,110C 55.9514,98.6069 53.4514,87.7736 48,77.5C 41.008,68.5063 34.008,59.5063 27,50.5C 22.508,42.481 18.6746,35.1476 15.5,28.5 Z"/></g>
<g><path style="opacity:1" fill="#148238" d="M 97.5,93.5 C 99.7598,98.5392 101.093,103.873 101.5,109.5C 99.177,106.278 97.677,102.612 97,98.5C 95.9887,97.6634 94.8221,97.33 93.5,97.5C 93.4802,99.143 94.1468,100.476 95.5,101.5C 94.0465,103.644 94.3799,105.477 96.5,107C 95.5838,107.374 94.7504,107.874 94,108.5C 93.4569,112.227 92.2902,115.727 90.5,119C 91.7002,120.703 91.3668,122.203 89.5,123.5C 89.9569,124.298 90.6236,124.631 91.5,124.5C 88.1667,127.167 84.8333,129.833 81.5,132.5C 79.326,132.75 77.6594,133.75 76.5,135.5C 75.1667,136.167 73.8333,136.833 72.5,137.5C 72.1667,134.5 73.5,133.167 76.5,133.5C 79.1562,124.374 81.4895,115.207 83.5,106C 82.8333,105.667 82.1667,105.333 81.5,105C 82.0611,103.324 83.0611,101.991 84.5,101C 83.5494,100.282 83.3828,99.4491 84,98.5C 85.3024,97.9152 86.469,97.2485 87.5,96.5C 88.791,96.7373 89.791,96.404 90.5,95.5C 92.7014,94.4336 95.0347,93.767 97.5,93.5 Z"/></g>
<g><path style="opacity:1" fill="#d8b89f" d="M 115.5,106.5 C 114.135,108.86 112.135,110.527 109.5,111.5C 110.891,109.11 112.891,107.443 115.5,106.5 Z"/></g>
<g><path style="opacity:1" fill="#2b9833" d="M 101.5,109.5 C 102.461,111.265 102.795,113.265 102.5,115.5C 99.1486,118.848 95.4819,121.848 91.5,124.5C 90.6236,124.631 89.9569,124.298 89.5,123.5C 91.3668,122.203 91.7002,120.703 90.5,119C 92.2902,115.727 93.4569,112.227 94,108.5C 94.7504,107.874 95.5838,107.374 96.5,107C 94.3799,105.477 94.0465,103.644 95.5,101.5C 94.1468,100.476 93.4802,99.143 93.5,97.5C 94.8221,97.33 95.9887,97.6634 97,98.5C 97.677,102.612 99.177,106.278 101.5,109.5 Z"/></g>
<g><path style="opacity:1" fill="#0a8a32" d="M 74.5,95.5 C 78.7978,96.1995 83.1311,96.5328 87.5,96.5C 86.469,97.2485 85.3024,97.9152 84,98.5C 83.3828,99.4491 83.5494,100.282 84.5,101C 83.0611,101.991 82.0611,103.324 81.5,105C 82.1667,105.333 82.8333,105.667 83.5,106C 81.4895,115.207 79.1562,124.374 76.5,133.5C 73.5,133.167 72.1667,134.5 72.5,137.5C 71.3951,138.6 70.0618,139.267 68.5,139.5C 70.8505,133.954 73.0172,128.288 75,122.5C 75.8306,116.141 75.6639,109.807 74.5,103.5C 73.7234,101.219 72.7234,99.0521 71.5,97C 72.5266,96.4867 73.5266,95.9867 74.5,95.5 Z"/></g>
<g><path style="opacity:1" fill="#339d30" d="M 69.5,91.5 C 69.8333,91.5 70.1667,91.5 70.5,91.5C 71.5274,93.1942 72.8608,94.5275 74.5,95.5C 73.5266,95.9867 72.5266,96.4867 71.5,97C 72.7234,99.0521 73.7234,101.219 74.5,103.5C 75.6639,109.807 75.8306,116.141 75,122.5C 73.0172,128.288 70.8505,133.954 68.5,139.5C 65.0029,141.882 61.3362,143.882 57.5,145.5C 54.8478,145.41 52.5145,146.076 50.5,147.5C 48.5328,147.739 46.6995,147.406 45,146.5C 44.5017,143.183 44.335,139.85 44.5,136.5C 45.4345,137.568 45.7678,138.901 45.5,140.5C 48.9827,140.309 52.3161,139.643 55.5,138.5C 55.3505,137.448 55.5172,136.448 56,135.5C 57.9552,134.547 59.6218,133.213 61,131.5C 64.603,123.983 66.4363,115.983 66.5,107.5C 66.3893,102.897 65.3893,98.5636 63.5,94.5C 64.0253,93.8076 64.6919,93.3076 65.5,93C 64.2567,91.8455 63.2567,90.5122 62.5,89C 63.5,88.3333 64.5,88.3333 65.5,89C 66.0246,91.7645 67.3579,92.5978 69.5,91.5 Z"/></g>
<g><path style="opacity:1" fill="#a7cdb5" d="M 81.5,132.5 C 80.5144,134.408 78.8477,135.408 76.5,135.5C 77.6594,133.75 79.326,132.75 81.5,132.5 Z"/></g>
<g><path style="opacity:1" fill="#c1debc" d="M 43.5,131.5 C 43.8333,131.5 44.1667,131.5 44.5,131.5C 44.5,133.167 44.5,134.833 44.5,136.5C 44.335,139.85 44.5017,143.183 45,146.5C 46.6995,147.406 48.5328,147.739 50.5,147.5C 48.3926,148.468 46.0593,148.802 43.5,148.5C 43.5,142.833 43.5,137.167 43.5,131.5 Z"/></g>
<g><path style="opacity:1" fill="#b4deaf" d="M 57.5,145.5 C 56.7095,146.401 55.7095,147.068 54.5,147.5C 53.1667,147.5 51.8333,147.5 50.5,147.5C 52.5145,146.076 54.8478,145.41 57.5,145.5 Z"/></g>
</svg>
