<?xml version="1.0" encoding="UTF-8"?>
<!DOCTYPE svg PUBLIC "-//W3C//DTD SVG 1.1//EN" "http://www.w3.org/Graphics/SVG/1.1/DTD/svg11.dtd">
<svg xmlns="http://www.w3.org/2000/svg" version="1.1" width="192px" height="155px" style="shape-rendering:geometricPrecision; text-rendering:geometricPrecision; image-rendering:optimizeQuality; fill-rule:evenodd; clip-rule:evenodd" xmlns:xlink="http://www.w3.org/1999/xlink">
<g><path style="opacity:1" fill="#f4f4f4" d="M -0.5,-0.5 C 63.5,-0.5 127.5,-0.5 191.5,-0.5C 191.5,51.1667 191.5,102.833 191.5,154.5C 127.5,154.5 63.5,154.5 -0.5,154.5C -0.5,102.833 -0.5,51.1667 -0.5,-0.5 Z"/></g>
<g><path style="opacity:1" fill="#cacbcc" d="M 159.5,30.5 C 151.981,30.175 144.648,30.5084 137.5,31.5C 131.78,32.5775 126.113,33.9109 120.5,35.5C 121.11,34.609 121.443,33.609 121.5,32.5C 122.529,31.8743 123.529,31.041 124.5,30C 118.175,24.0346 112.175,17.8679 106.5,11.5C 110.401,9.72124 114.568,8.72124 119,8.5C 125.553,13.4088 131.553,19.7421 137,27.5C 138.729,25.0693 140.229,25.4026 141.5,28.5C 147.654,29.1668 153.654,29.8334 159.5,30.5 Z"/></g>
<g><path style="opacity:1" fill="#dddede" d="M 163.5,35.5 C 162.407,33.6508 161.074,31.9842 159.5,30.5C 153.654,29.8334 147.654,29.1668 141.5,28.5C 140.229,25.4026 138.729,25.0693 137,27.5C 131.553,19.7421 125.553,13.4088 119,8.5C 114.568,8.72124 110.401,9.72124 106.5,11.5C 112.175,17.8679 118.175,24.0346 124.5,30C 123.529,31.041 122.529,31.8743 121.5,32.5C 111.554,27.5438 103.554,20.5438 97.5,11.5C 103.207,10.1566 108.874,8.65656 114.5,7C 122.167,6.33333 129.833,6.33333 137.5,7C 143.053,10.6055 146.22,15.7721 147,22.5C 149.285,23.8189 151.452,25.3189 153.5,27C 152.833,27.3333 152.167,27.6667 151.5,28C 155.548,28.4339 159.548,28.4339 163.5,28C 162.692,28.3076 162.025,28.8076 161.5,29.5C 163.104,31.1789 163.771,33.1789 163.5,35.5 Z"/></g>
<g><path style="opacity:1" fill="#cececf" d="M 84.5,51.5 C 84.1667,52.1667 83.8333,52.8333 83.5,53.5C 82.8333,54.1667 82.1667,54.8333 81.5,55.5C 80.8333,55.5 80.1667,55.5 79.5,55.5C 77.0326,55.7549 75.0326,56.7549 73.5,58.5C 72.4863,59.6737 71.153,60.3404 69.5,60.5C 65.914,61.2394 62.914,62.906 60.5,65.5C 58.901,65.2322 57.5676,65.5655 56.5,66.5C 53.4021,66.7556 50.4021,67.4222 47.5,68.5C 48.3989,65.9721 49.3989,63.4721 50.5,61C 41.2071,53.7297 33.5405,45.063 27.5,35C 34.7514,33.1166 42.0847,31.4499 49.5,30C 52.1667,29.3333 54.8333,29.3333 57.5,30C 61.3333,33.1667 65.1667,36.3333 69,39.5C 70.6397,42.973 73.1397,45.6397 76.5,47.5C 77.3857,48.325 77.719,49.325 77.5,50.5C 79.861,50.6741 82.1944,51.0074 84.5,51.5 Z"/></g>
<g><path style="opacity:1" fill="#5a629d" d="M 137.5,31.5 C 136.5,32.1667 135.5,32.8333 134.5,33.5C 130.884,33.8993 127.55,34.8993 124.5,36.5C 120.532,37.4332 116.532,38.4332 112.5,39.5C 115.035,37.983 117.702,36.6497 120.5,35.5C 126.113,33.9109 131.78,32.5775 137.5,31.5 Z"/></g>
<g><path style="opacity:1" fill="#e5e6e6" d="M 90.5,48.5 C 89.089,50.539 87.089,51.539 84.5,51.5C 82.1944,51.0074 79.861,50.6741 77.5,50.5C 77.719,49.325 77.3857,48.325 76.5,47.5C 73.1397,45.6397 70.6397,42.973 69,39.5C 65.1667,36.3333 61.3333,33.1667 57.5,30C 54.8333,29.3333 52.1667,29.3333 49.5,30C 42.0847,31.4499 34.7514,33.1166 27.5,35C 33.5405,45.063 41.2071,53.7297 50.5,61C 49.3989,63.4721 48.3989,65.9721 47.5,68.5C 44.4557,70.0114 41.1224,70.678 37.5,70.5C 38.9516,69.6981 40.6183,69.1981 42.5,69C 41.0611,68.0094 40.0611,66.676 39.5,65C 40.5536,63.6124 40.7203,62.1124 40,60.5C 36.651,57.4841 33.651,54.1508 31,50.5C 28.4627,44.7953 25.296,39.462 21.5,34.5C 21.7093,33.914 22.0426,33.414 22.5,33C 34.5888,32.6927 46.2555,30.3594 57.5,26C 59.8333,25.3333 62.1667,25.3333 64.5,26C 72.1369,34.8117 80.8036,42.3117 90.5,48.5 Z"/></g>
<g><path style="opacity:1" fill="#0e1974" d="M 154.5,53.5 C 153.29,53.9321 152.29,54.5987 151.5,55.5C 147.292,55.677 143.626,57.0103 140.5,59.5C 140.167,59.5 139.833,59.5 139.5,59.5C 137.857,56.1655 135.19,53.9988 131.5,53C 132.623,51.9563 133.956,51.2896 135.5,51C 131.92,46.0676 128.254,41.2342 124.5,36.5C 127.55,34.8993 130.884,33.8993 134.5,33.5C 139.797,32.7255 145.13,32.3921 150.5,32.5C 150.336,35.1873 150.503,37.854 151,40.5C 152.999,44.3291 154.833,48.1624 156.5,52C 155.584,52.2784 154.918,52.7784 154.5,53.5 Z"/></g>
<g><path style="opacity:1" fill="#073386" d="M 137.5,31.5 C 143.537,31.1707 149.537,31.5041 155.5,32.5C 156.836,35.4715 158.336,35.8048 160,33.5C 160.393,35.1992 159.893,36.6992 158.5,38C 159.167,39.3333 159.833,40.6667 160.5,42C 160.355,42.772 160.022,43.4387 159.5,44C 161.009,46.4274 162.343,48.9274 163.5,51.5C 160.689,52.475 157.689,53.1417 154.5,53.5C 154.918,52.7784 155.584,52.2784 156.5,52C 154.833,48.1624 152.999,44.3291 151,40.5C 150.503,37.854 150.336,35.1873 150.5,32.5C 145.13,32.3921 139.797,32.7255 134.5,33.5C 135.5,32.8333 136.5,32.1667 137.5,31.5 Z"/></g>
<g><path style="opacity:1" fill="#043b92" d="M 124.5,36.5 C 128.254,41.2342 131.92,46.0676 135.5,51C 133.956,51.2896 132.623,51.9563 131.5,53C 135.19,53.9988 137.857,56.1655 139.5,59.5C 137.371,60.2028 135.371,61.2028 133.5,62.5C 132.833,62.5 132.167,62.5 131.5,62.5C 129.549,62.2267 128.049,62.8934 127,64.5C 125.745,63.7894 124.579,62.956 123.5,62C 124.167,61.6667 124.833,61.3333 125.5,61C 121.649,58.6688 119.816,55.1688 120,50.5C 118.933,49.8095 117.766,49.3095 116.5,49C 116.957,48.586 117.291,48.086 117.5,47.5C 116.726,46.2888 115.893,46.2888 115,47.5C 114.383,46.5509 114.549,45.7175 115.5,45C 112.197,44.2216 111.197,42.3882 112.5,39.5C 116.532,38.4332 120.532,37.4332 124.5,36.5 Z"/></g>
<g><path style="opacity:1" fill="#798ab4" d="M 168.5,44.5 C 170.702,46.4114 172.369,48.7447 173.5,51.5C 172.833,51.5 172.167,51.5 171.5,51.5C 170.688,49.0554 169.688,46.7221 168.5,44.5 Z"/></g>
<g><path style="opacity:1" fill="#1b4b9a" d="M 137.5,31.5 C 144.648,30.5084 151.981,30.175 159.5,30.5C 161.074,31.9842 162.407,33.6508 163.5,35.5C 164.729,38.8211 166.396,41.8211 168.5,44.5C 169.688,46.7221 170.688,49.0554 171.5,51.5C 168.833,51.5 166.167,51.5 163.5,51.5C 162.343,48.9274 161.009,46.4274 159.5,44C 160.022,43.4387 160.355,42.772 160.5,42C 159.833,40.6667 159.167,39.3333 158.5,38C 159.893,36.6992 160.393,35.1992 160,33.5C 158.336,35.8048 156.836,35.4715 155.5,32.5C 149.537,31.5041 143.537,31.1707 137.5,31.5 Z"/></g>
<g><path style="opacity:1" fill="#9b1731" d="M 163.5,51.5 C 166.167,51.5 168.833,51.5 171.5,51.5C 172.167,51.5 172.833,51.5 173.5,51.5C 173.5,51.8333 173.5,52.1667 173.5,52.5C 169.821,52.7244 166.154,53.0578 162.5,53.5C 160.958,54.3007 159.292,54.634 157.5,54.5C 155.565,55.1495 153.565,55.4828 151.5,55.5C 152.29,54.5987 153.29,53.9321 154.5,53.5C 157.689,53.1417 160.689,52.475 163.5,51.5 Z"/></g>
<g><path style="opacity:1" fill="#0f4799" d="M 112.5,39.5 C 111.197,42.3882 112.197,44.2216 115.5,45C 114.549,45.7175 114.383,46.5509 115,47.5C 115.893,46.2888 116.726,46.2888 117.5,47.5C 117.291,48.086 116.957,48.586 116.5,49C 117.766,49.3095 118.933,49.8095 120,50.5C 119.816,55.1688 121.649,58.6688 125.5,61C 124.833,61.3333 124.167,61.6667 123.5,62C 124.579,62.956 125.745,63.7894 127,64.5C 128.049,62.8934 129.549,62.2267 131.5,62.5C 131.167,63.1667 130.833,63.8333 130.5,64.5C 129.391,64.5569 128.391,64.8902 127.5,65.5C 125.973,65.427 124.973,66.0937 124.5,67.5C 123.29,67.9321 122.29,68.5987 121.5,69.5C 117.153,71.6717 113.153,74.3384 109.5,77.5C 108.833,77.5 108.167,77.5 107.5,77.5C 101.739,77.2912 101.406,76.4578 106.5,75C 104.376,73.8783 102.543,72.3783 101,70.5C 99.617,67.1407 98.2836,63.8074 97,60.5C 95.0653,58.8978 92.8987,57.7311 90.5,57C 90.8333,56.6667 91.1667,56.3333 91.5,56C 89.8333,55.6667 88.1667,55.3333 86.5,55C 88.6447,54.2569 88.8114,53.4235 87,52.5C 85.8615,52.9891 84.6948,53.3225 83.5,53.5C 83.8333,52.8333 84.1667,52.1667 84.5,51.5C 87.089,51.539 89.089,50.539 90.5,48.5C 96.5992,45.9512 102.599,43.1179 108.5,40C 109.793,39.51 111.127,39.3433 112.5,39.5 Z"/></g>
<g><path style="opacity:1" fill="#750a2c" d="M 151.5,55.5 C 148.061,57.2043 144.395,58.5376 140.5,59.5C 143.626,57.0103 147.292,55.677 151.5,55.5 Z"/></g>
<g><path style="opacity:1" fill="#d70610" d="M 173.5,52.5 C 174.737,53.9649 175.737,55.6316 176.5,57.5C 176.935,60.1573 177.935,62.4907 179.5,64.5C 179.963,67.4824 180.296,70.4824 180.5,73.5C 178.784,73.6287 177.117,73.962 175.5,74.5C 173.284,74.7254 171.617,73.8921 170.5,72C 170.833,71.6667 171.167,71.3333 171.5,71C 167.736,68.0787 166.736,64.412 168.5,60C 167.04,58.418 165.373,57.0847 163.5,56C 164.167,55.6667 164.833,55.3333 165.5,55C 164.263,54.7679 163.263,54.2679 162.5,53.5C 166.154,53.0578 169.821,52.7244 173.5,52.5 Z"/></g>
<g><path style="opacity:1" fill="#656597" d="M 79.5,55.5 C 77.9674,57.2451 75.9674,58.2451 73.5,58.5C 75.0326,56.7549 77.0326,55.7549 79.5,55.5 Z"/></g>
<g><path style="opacity:1" fill="#a60203" d="M 157.5,54.5 C 157.52,56.143 156.853,57.4763 155.5,58.5C 156.681,60.8034 156.681,63.1368 155.5,65.5C 156.105,69.5942 158.105,72.7609 161.5,75C 159.915,75.0848 158.582,75.2514 157.5,75.5C 159.611,76.6046 160.945,78.2712 161.5,80.5C 160.005,80.9887 158.671,81.6554 157.5,82.5C 155.067,82.2729 153.401,83.2729 152.5,85.5C 151.167,85.8333 149.833,86.1667 148.5,86.5C 147.737,85.7321 146.737,85.2321 145.5,85C 146.925,83.2859 146.592,81.9525 144.5,81C 145.167,78 145.833,75 146.5,72C 145.44,69.2633 144.606,66.43 144,63.5C 143.667,63.8333 143.333,64.1667 143,64.5C 142.255,63.0096 141.088,62.0096 139.5,61.5C 137.547,62.1556 135.547,62.4889 133.5,62.5C 135.371,61.2028 137.371,60.2028 139.5,59.5C 139.833,59.5 140.167,59.5 140.5,59.5C 144.395,58.5376 148.061,57.2043 151.5,55.5C 153.565,55.4828 155.565,55.1495 157.5,54.5 Z"/></g>
<g><path style="opacity:1" fill="#082279" d="M 82.5,57.5 C 83.8845,58.8009 85.3845,58.8009 87,57.5C 91.8739,63.9132 95.7072,70.9132 98.5,78.5C 99.0253,79.1924 99.6919,79.6924 100.5,80C 99.1667,80.3333 97.8333,80.6667 96.5,81C 98.1193,81.2355 99.1193,82.0689 99.5,83.5C 98.1667,84.5 96.8333,85.5 95.5,86.5C 94.8333,86.5 94.1667,86.5 93.5,86.5C 90.9824,84.6434 90.9824,82.8101 93.5,81C 91.3319,77.8259 89.8319,74.3259 89,70.5C 86.5,67.3333 84,64.1667 81.5,61C 82.6341,59.984 82.3008,59.3173 80.5,59C 81.0442,58.2828 81.7109,57.7828 82.5,57.5 Z"/></g>
<g><path style="opacity:1" fill="#b70507" d="M 162.5,53.5 C 163.263,54.2679 164.263,54.7679 165.5,55C 164.833,55.3333 164.167,55.6667 163.5,56C 165.373,57.0847 167.04,58.418 168.5,60C 166.736,64.412 167.736,68.0787 171.5,71C 171.167,71.3333 170.833,71.6667 170.5,72C 171.617,73.8921 173.284,74.7254 175.5,74.5C 175.5,74.8333 175.5,75.1667 175.5,75.5C 170.624,76.6058 165.957,78.2725 161.5,80.5C 160.945,78.2712 159.611,76.6046 157.5,75.5C 158.582,75.2514 159.915,75.0848 161.5,75C 158.105,72.7609 156.105,69.5942 155.5,65.5C 156.681,63.1368 156.681,60.8034 155.5,58.5C 156.853,57.4763 157.52,56.143 157.5,54.5C 159.292,54.634 160.958,54.3007 162.5,53.5 Z"/></g>
<g><path style="opacity:1" fill="#e7a1a2" d="M 176.5,57.5 C 178.448,59.3204 179.448,61.6538 179.5,64.5C 177.935,62.4907 176.935,60.1573 176.5,57.5 Z"/></g>
<g><path style="opacity:1" fill="#912049" d="M 127.5,65.5 C 127.027,66.9063 126.027,67.573 124.5,67.5C 124.973,66.0937 125.973,65.427 127.5,65.5 Z"/></g>
<g><path style="opacity:1" fill="#111470" d="M 79.5,55.5 C 80.1667,55.5 80.8333,55.5 81.5,55.5C 82.3382,55.8417 82.6716,56.5084 82.5,57.5C 81.7109,57.7828 81.0442,58.2828 80.5,59C 82.3008,59.3173 82.6341,59.984 81.5,61C 84,64.1667 86.5,67.3333 89,70.5C 89.8319,74.3259 91.3319,77.8259 93.5,81C 90.9824,82.8101 90.9824,84.6434 93.5,86.5C 92.0043,89.3276 89.671,90.9943 86.5,91.5C 85.2921,90.7659 83.9587,90.4326 82.5,90.5C 80.818,85.4343 78.9846,80.4343 77,75.5C 75.1266,73.2911 72.96,71.4578 70.5,70C 71.3366,68.9887 71.67,67.8221 71.5,66.5C 69.3364,66.2785 67.6697,65.2785 66.5,63.5C 67.9002,62.8999 68.9002,61.8999 69.5,60.5C 71.153,60.3404 72.4863,59.6737 73.5,58.5C 75.9674,58.2451 77.9674,57.2451 79.5,55.5 Z"/></g>
<g><path style="opacity:1" fill="#e36869" d="M 179.5,64.5 C 181.507,67.5698 181.84,70.9031 180.5,74.5C 178.929,75.3094 177.262,75.6427 175.5,75.5C 175.5,75.1667 175.5,74.8333 175.5,74.5C 177.117,73.962 178.784,73.6287 180.5,73.5C 180.296,70.4824 179.963,67.4824 179.5,64.5 Z"/></g>
<g><path style="opacity:1" fill="#c9030c" d="M 135.5,95.5 C 129.167,100.833 122.833,106.167 116.5,111.5C 113.208,113.458 110.208,115.791 107.5,118.5C 104.19,120.801 100.857,123.134 97.5,125.5C 96.1667,125.5 94.8333,125.5 93.5,125.5C 93.9431,119.807 96.2764,115.141 100.5,111.5C 99.93,104.457 99.93,97.4566 100.5,90.5C 101.675,90.719 102.675,90.3857 103.5,89.5C 101.216,88.4182 100.05,86.7516 100,84.5C 101.796,85.767 103.629,85.767 105.5,84.5C 106.838,82.1356 108.171,79.8023 109.5,77.5C 113.153,74.3384 117.153,71.6717 121.5,69.5C 122.29,68.5987 123.29,67.9321 124.5,67.5C 126.027,67.573 127.027,66.9063 127.5,65.5C 128.391,64.8902 129.391,64.5569 130.5,64.5C 132.844,63.3284 135.177,63.3284 137.5,64.5C 138.442,70.1406 139.109,75.8073 139.5,81.5C 140.5,81.5 141.5,81.5 142.5,81.5C 141.167,85.1667 139.833,88.8333 138.5,92.5C 137.5,92.5 136.5,92.5 135.5,92.5C 135.5,93.5 135.5,94.5 135.5,95.5 Z"/></g>
<g><path style="opacity:1" fill="#0d3586" d="M 60.5,65.5 C 58.9669,67.3548 57.3003,69.1881 55.5,71C 56.7155,73.0955 57.5488,72.9288 58,70.5C 59.4711,74.6534 61.8044,78.3201 65,81.5C 66.6677,88.5668 70.8344,93.2334 77.5,95.5C 77.5,96.1667 77.8333,96.5 78.5,96.5C 78.1667,97.1667 77.8333,97.8333 77.5,98.5C 72.3506,100.981 67.0173,102.981 61.5,104.5C 59.3719,103.719 59.2053,102.719 61,101.5C 61.9653,103.26 63.132,103.594 64.5,102.5C 62.9779,99.3604 62.1446,96.0271 62,92.5C 59.3566,88.8763 57.19,85.0429 55.5,81C 55.8333,80.6667 56.1667,80.3333 56.5,80C 53.7683,79.6019 51.935,78.1019 51,75.5C 51.6981,73.2362 51.1981,71.4028 49.5,70C 51.9252,68.7874 54.2585,67.6207 56.5,66.5C 57.5676,65.5655 58.901,65.2322 60.5,65.5 Z"/></g>
<g><path style="opacity:1" fill="#0b2076" d="M 66.5,63.5 C 67.6697,65.2785 69.3364,66.2785 71.5,66.5C 71.67,67.8221 71.3366,68.9887 70.5,70C 72.96,71.4578 75.1266,73.2911 77,75.5C 78.9846,80.4343 80.818,85.4343 82.5,90.5C 83.9587,90.4326 85.2921,90.7659 86.5,91.5C 86.1667,92.1667 85.8333,92.8333 85.5,93.5C 83.3131,94.758 80.9798,95.758 78.5,96.5C 77.8333,96.5 77.5,96.1667 77.5,95.5C 75.1455,84.8121 69.8122,75.8121 61.5,68.5C 61.8333,68.1667 62.1667,67.8333 62.5,67.5C 65.0412,70.4094 66.7078,69.9094 67.5,66C 65.6412,65.3992 65.3079,64.5659 66.5,63.5 Z"/></g>
<g><path style="opacity:1" fill="#0b3083" d="M 107.5,77.5 C 105.14,79.8532 102.473,81.8532 99.5,83.5C 99.1193,82.0689 98.1193,81.2355 96.5,81C 97.8333,80.6667 99.1667,80.3333 100.5,80C 99.6919,79.6924 99.0253,79.1924 98.5,78.5C 95.7072,70.9132 91.8739,63.9132 87,57.5C 85.3845,58.8009 83.8845,58.8009 82.5,57.5C 82.6716,56.5084 82.3382,55.8417 81.5,55.5C 82.1667,54.8333 82.8333,54.1667 83.5,53.5C 84.6948,53.3225 85.8615,52.9891 87,52.5C 88.8114,53.4235 88.6447,54.2569 86.5,55C 88.1667,55.3333 89.8333,55.6667 91.5,56C 91.1667,56.3333 90.8333,56.6667 90.5,57C 92.8987,57.7311 95.0653,58.8978 97,60.5C 98.2836,63.8074 99.617,67.1407 101,70.5C 102.543,72.3783 104.376,73.8783 106.5,75C 101.406,76.4578 101.739,77.2912 107.5,77.5 Z"/></g>
<g><path style="opacity:1" fill="#839dcc" d="M 37.5,71.5 C 37.1583,72.3382 36.4916,72.6716 35.5,72.5C 29.0738,71.88 23.0738,72.5467 17.5,74.5C 16.596,73.791 16.2627,72.791 16.5,71.5C 23.5,71.5 30.5,71.5 37.5,71.5 Z"/></g>
<g><path style="opacity:1" fill="#426eb5" d="M 35.5,72.5 C 30.0149,73.3272 24.3482,73.8272 18.5,74C 19.3972,76.0871 20.0639,78.2537 20.5,80.5C 18.7549,78.9674 17.7549,76.9674 17.5,74.5C 23.0738,72.5467 29.0738,71.88 35.5,72.5 Z"/></g>
<g><path style="opacity:1" fill="#0c4b9d" d="M 56.5,66.5 C 54.2585,67.6207 51.9252,68.7874 49.5,70C 51.1981,71.4028 51.6981,73.2362 51,75.5C 51.935,78.1019 53.7683,79.6019 56.5,80C 56.1667,80.3333 55.8333,80.6667 55.5,81C 57.19,85.0429 59.3566,88.8763 62,92.5C 62.1446,96.0271 62.9779,99.3604 64.5,102.5C 63.132,103.594 61.9653,103.26 61,101.5C 59.2053,102.719 59.3719,103.719 61.5,104.5C 59.7392,105.313 58.0725,106.313 56.5,107.5C 55.8333,107.5 55.1667,107.5 54.5,107.5C 51.8478,107.41 49.5145,108.076 47.5,109.5C 46.1667,109.5 44.8333,109.5 43.5,109.5C 40.9407,109.198 38.6074,109.532 36.5,110.5C 31.6474,100.295 26.314,90.2953 20.5,80.5C 20.0639,78.2537 19.3972,76.0871 18.5,74C 24.3482,73.8272 30.0149,73.3272 35.5,72.5C 36.4916,72.6716 37.1583,72.3382 37.5,71.5C 37.5,71.1667 37.5,70.8333 37.5,70.5C 41.1224,70.678 44.4557,70.0114 47.5,68.5C 50.4021,67.4222 53.4021,66.7556 56.5,66.5 Z"/></g>
<g><path style="opacity:1" fill="#d9000e" d="M 121.5,69.5 C 126.937,70.5462 128.937,73.8795 127.5,79.5C 126.127,79.3433 124.793,79.51 123.5,80C 123.957,80.414 124.291,80.914 124.5,81.5C 122.651,85.1978 120.818,88.8644 119,92.5C 115.523,89.1733 113.023,85.1733 111.5,80.5C 111.938,79.4937 112.604,79.4937 113.5,80.5C 114.386,79.675 114.719,78.675 114.5,77.5C 115.5,77.5 116.5,77.5 117.5,77.5C 117.5,75.8333 117.5,74.1667 117.5,72.5C 119.973,72.9118 121.306,71.9118 121.5,69.5 Z"/></g>
<g><path style="opacity:1" fill="#b60508" d="M 148.5,86.5 C 146.5,88.1667 144.5,89.8333 142.5,91.5C 140.566,92.1103 138.899,93.1103 137.5,94.5C 137.158,95.3382 136.492,95.6716 135.5,95.5C 135.5,94.5 135.5,93.5 135.5,92.5C 136.5,92.5 137.5,92.5 138.5,92.5C 139.833,88.8333 141.167,85.1667 142.5,81.5C 141.5,81.5 140.5,81.5 139.5,81.5C 139.109,75.8073 138.442,70.1406 137.5,64.5C 135.177,63.3284 132.844,63.3284 130.5,64.5C 130.833,63.8333 131.167,63.1667 131.5,62.5C 132.167,62.5 132.833,62.5 133.5,62.5C 135.547,62.4889 137.547,62.1556 139.5,61.5C 141.088,62.0096 142.255,63.0096 143,64.5C 143.333,64.1667 143.667,63.8333 144,63.5C 144.606,66.43 145.44,69.2633 146.5,72C 145.833,75 145.167,78 144.5,81C 146.592,81.9525 146.925,83.2859 145.5,85C 146.737,85.2321 147.737,85.7321 148.5,86.5 Z"/></g>
<g><path style="opacity:1" fill="#062a7e" d="M 69.5,60.5 C 68.9002,61.8999 67.9002,62.8999 66.5,63.5C 65.3079,64.5659 65.6412,65.3992 67.5,66C 66.7078,69.9094 65.0412,70.4094 62.5,67.5C 62.1667,67.8333 61.8333,68.1667 61.5,68.5C 69.8122,75.8121 75.1455,84.8121 77.5,95.5C 70.8344,93.2334 66.6677,88.5668 65,81.5C 61.8044,78.3201 59.4711,74.6534 58,70.5C 57.5488,72.9288 56.7155,73.0955 55.5,71C 57.3003,69.1881 58.9669,67.3548 60.5,65.5C 62.914,62.906 65.914,61.2394 69.5,60.5 Z"/></g>
<g><path style="opacity:1" fill="#be6969" d="M 157.5,82.5 C 156.101,83.8897 154.434,84.8897 152.5,85.5C 153.401,83.2729 155.067,82.2729 157.5,82.5 Z"/></g>
<g><path style="opacity:1" fill="#88041b" d="M 93.5,86.5 C 94.1667,86.5 94.8333,86.5 95.5,86.5C 93.5,88.8333 91.5,91.1667 89.5,93.5C 88.1667,93.5 86.8333,93.5 85.5,93.5C 85.8333,92.8333 86.1667,92.1667 86.5,91.5C 89.671,90.9943 92.0043,89.3276 93.5,86.5 Z"/></g>
<g><path style="opacity:1" fill="#a50504" d="M 93.5,128.5 C 92.6935,129.728 91.6935,130.728 90.5,131.5C 87.2185,133.14 84.2185,135.14 81.5,137.5C 79.1838,138.806 76.8505,140.139 74.5,141.5C 74.5,140.5 74.5,139.5 74.5,138.5C 75.5,138.5 76.5,138.5 77.5,138.5C 77.1878,135.112 78.5211,132.612 81.5,131C 80.8848,128.532 81.7181,126.366 84,124.5C 85.3145,119.33 85.4811,114.163 84.5,109C 86.6165,105.176 86.4498,101.342 84,97.5C 81.9587,97.1982 79.7921,97.5316 77.5,98.5C 77.8333,97.8333 78.1667,97.1667 78.5,96.5C 80.9798,95.758 83.3131,94.758 85.5,93.5C 86.8333,93.5 88.1667,93.5 89.5,93.5C 88.1498,94.6499 88.3164,95.3166 90,95.5C 91.6255,94.7113 93.1255,93.7113 94.5,92.5C 95.5,92.8333 96.1667,93.5 96.5,94.5C 95.0626,103.356 93.396,112.19 91.5,121C 91.7355,121.873 92.0688,122.707 92.5,123.5C 90.6397,124.939 88.973,126.605 87.5,128.5C 89.2195,128.746 91.2195,128.746 93.5,128.5 Z"/></g>
<g><path style="opacity:1" fill="#d38988" d="M 142.5,91.5 C 141.599,93.7271 139.933,94.7271 137.5,94.5C 138.899,93.1103 140.566,92.1103 142.5,91.5 Z"/></g>
<g><path style="opacity:1" fill="#b30208" d="M 107.5,77.5 C 108.167,77.5 108.833,77.5 109.5,77.5C 108.171,79.8023 106.838,82.1356 105.5,84.5C 103.629,85.767 101.796,85.767 100,84.5C 100.05,86.7516 101.216,88.4182 103.5,89.5C 102.675,90.3857 101.675,90.719 100.5,90.5C 99.93,97.4566 99.93,104.457 100.5,111.5C 96.2764,115.141 93.9431,119.807 93.5,125.5C 94.8333,125.5 96.1667,125.5 97.5,125.5C 96.1667,126.5 94.8333,127.5 93.5,128.5C 91.2195,128.746 89.2195,128.746 87.5,128.5C 88.973,126.605 90.6397,124.939 92.5,123.5C 92.0688,122.707 91.7355,121.873 91.5,121C 93.396,112.19 95.0626,103.356 96.5,94.5C 96.1667,93.5 95.5,92.8333 94.5,92.5C 93.1255,93.7113 91.6255,94.7113 90,95.5C 88.3164,95.3166 88.1498,94.6499 89.5,93.5C 91.5,91.1667 93.5,88.8333 95.5,86.5C 96.8333,85.5 98.1667,84.5 99.5,83.5C 102.473,81.8532 105.14,79.8532 107.5,77.5 Z"/></g>
<g><path style="opacity:1" fill="#942947" d="M 54.5,107.5 C 54.5,107.833 54.5,108.167 54.5,108.5C 52.1944,108.993 49.861,109.326 47.5,109.5C 49.5145,108.076 51.8478,107.41 54.5,107.5 Z"/></g>
<g><path style="opacity:1" fill="#963d5b" d="M 43.5,109.5 C 41.1561,109.94 39.1561,110.94 37.5,112.5C 36.6618,112.158 36.3284,111.492 36.5,110.5C 38.6074,109.532 40.9407,109.198 43.5,109.5 Z"/></g>
<g><path style="opacity:1" fill="#d9000f" d="M 54.5,108.5 C 56.5273,108.338 58.5273,108.505 60.5,109C 59.5,109.333 58.5,109.667 57.5,110C 58.1667,110.167 58.8333,110.333 59.5,110.5C 60.8638,109.957 62.1971,109.79 63.5,110C 61.8031,118.01 59.8031,125.844 57.5,133.5C 54.2533,134.428 51.0867,134.762 48,134.5C 47.722,129.809 45.8886,125.976 42.5,123C 43.3279,122.085 44.3279,121.419 45.5,121C 41.5807,119.138 40.5807,116.304 42.5,112.5C 41.1266,112.657 39.7932,112.49 38.5,112C 41.8511,111.943 44.8511,111.109 47.5,109.5C 49.861,109.326 52.1944,108.993 54.5,108.5 Z"/></g>
<g><path style="opacity:1" fill="#ce070f" d="M 60.5,147.5 C 60.0269,148.906 59.0269,149.573 57.5,149.5C 54.8478,149.41 52.5145,150.076 50.5,151.5C 49.5,151.5 48.5,151.5 47.5,151.5C 47.5046,145.209 46.5046,139.209 44.5,133.5C 42.9278,126.196 40.5945,119.196 37.5,112.5C 39.1561,110.94 41.1561,109.94 43.5,109.5C 44.8333,109.5 46.1667,109.5 47.5,109.5C 44.8511,111.109 41.8511,111.943 38.5,112C 39.7932,112.49 41.1266,112.657 42.5,112.5C 40.5807,116.304 41.5807,119.138 45.5,121C 44.3279,121.419 43.3279,122.085 42.5,123C 45.8886,125.976 47.722,129.809 48,134.5C 51.0867,134.762 54.2533,134.428 57.5,133.5C 59.8031,125.844 61.8031,118.01 63.5,110C 62.1971,109.79 60.8638,109.957 59.5,110.5C 58.8333,110.333 58.1667,110.167 57.5,110C 58.5,109.667 59.5,109.333 60.5,109C 58.5273,108.505 56.5273,108.338 54.5,108.5C 54.5,108.167 54.5,107.833 54.5,107.5C 55.1667,107.5 55.8333,107.5 56.5,107.5C 61.5025,106.696 66.0025,106.696 70,107.5C 70.7996,115.133 70.2996,122.8 68.5,130.5C 72.5,131.833 72.5,133.167 68.5,134.5C 66.8562,138.284 64.6895,141.617 62,144.5C 60.4878,143.743 59.1545,142.743 58,141.5C 57.5172,142.448 57.3505,143.448 57.5,144.5C 55.2075,144.756 53.0408,144.423 51,143.5C 48.8735,144.397 48.3735,145.731 49.5,147.5C 53.1339,148.511 56.8006,148.511 60.5,147.5 Z"/></g>
<g><path style="opacity:1" fill="#bd0208" d="M 74.5,141.5 C 70.1003,144.031 65.4336,146.031 60.5,147.5C 56.8006,148.511 53.1339,148.511 49.5,147.5C 48.3735,145.731 48.8735,144.397 51,143.5C 53.0408,144.423 55.2075,144.756 57.5,144.5C 57.3505,143.448 57.5172,142.448 58,141.5C 59.1545,142.743 60.4878,143.743 62,144.5C 64.6895,141.617 66.8562,138.284 68.5,134.5C 72.5,133.167 72.5,131.833 68.5,130.5C 70.2996,122.8 70.7996,115.133 70,107.5C 66.0025,106.696 61.5025,106.696 56.5,107.5C 58.0725,106.313 59.7392,105.313 61.5,104.5C 67.0173,102.981 72.3506,100.981 77.5,98.5C 79.7921,97.5316 81.9587,97.1982 84,97.5C 86.4498,101.342 86.6165,105.176 84.5,109C 85.4811,114.163 85.3145,119.33 84,124.5C 81.7181,126.366 80.8848,128.532 81.5,131C 78.5211,132.612 77.1878,135.112 77.5,138.5C 76.5,138.5 75.5,138.5 74.5,138.5C 74.5,139.5 74.5,140.5 74.5,141.5 Z"/></g>
<g><path style="opacity:1" fill="#e4b6b8" d="M 116.5,111.5 C 114.523,115.151 111.523,117.484 107.5,118.5C 110.208,115.791 113.208,113.458 116.5,111.5 Z"/></g>
<g><path style="opacity:1" fill="#d5a4a1" d="M 90.5,131.5 C 88.2499,134.589 85.2499,136.589 81.5,137.5C 84.2185,135.14 87.2185,133.14 90.5,131.5 Z"/></g>
<g><path style="opacity:1" fill="#d3757a" d="M 57.5,149.5 C 56.0697,150.537 54.403,151.204 52.5,151.5C 51.8333,151.5 51.1667,151.5 50.5,151.5C 52.5145,150.076 54.8478,149.41 57.5,149.5 Z"/></g>
<g><path style="opacity:1" fill="#dec0be" d="M 44.5,133.5 C 46.5046,139.209 47.5046,145.209 47.5,151.5C 48.5,151.5 49.5,151.5 50.5,151.5C 51.1667,151.5 51.8333,151.5 52.5,151.5C 50.2922,153.933 48.1255,153.933 46,151.5C 45.301,145.511 44.801,139.511 44.5,133.5 Z"/></g>
</svg>
