<?xml version="1.0" encoding="UTF-8"?>
<!DOCTYPE svg PUBLIC "-//W3C//DTD SVG 1.1//EN" "http://www.w3.org/Graphics/SVG/1.1/DTD/svg11.dtd">
<svg xmlns="http://www.w3.org/2000/svg" version="1.1" width="192px" height="155px" style="shape-rendering:geometricPrecision; text-rendering:geometricPrecision; image-rendering:optimizeQuality; fill-rule:evenodd; clip-rule:evenodd" xmlns:xlink="http://www.w3.org/1999/xlink">
<g><path style="opacity:1" fill="#fefefe" d="M 186.5,-0.5 C 188.167,-0.5 189.833,-0.5 191.5,-0.5C 191.5,51.1667 191.5,102.833 191.5,154.5C 189.833,154.5 188.167,154.5 186.5,154.5C 186.831,125.329 186.498,96.3285 185.5,67.5C 185.5,66.8333 185.5,66.1667 185.5,65.5C 186.497,43.673 186.831,21.673 186.5,-0.5 Z"/></g>
<g><path style="opacity:1" fill="#027f35" d="M 146.5,30.5 C 154.642,40.1952 159.975,51.3619 162.5,64C 161.556,66.7191 161.223,69.5525 161.5,72.5C 165.449,72.6932 165.449,73.1932 161.5,74C 162.171,74.9862 162.171,76.1529 161.5,77.5C 161.833,78.1667 162.167,78.8333 162.5,79.5C 161.833,79.5 161.5,79.8333 161.5,80.5C 158.757,81.3882 156.09,82.5549 153.5,84C 152.29,85.0391 151.29,86.2058 150.5,87.5C 149.609,88.1098 148.609,88.4431 147.5,88.5C 147.462,85.8187 148.129,83.3187 149.5,81C 149.486,76.6386 149.486,72.3053 149.5,68C 148.921,64.8614 147.921,61.8614 146.5,59C 146.833,58.6667 147.167,58.3333 147.5,58C 145.026,52.8857 142.692,47.719 140.5,42.5C 139.629,39.8877 138.963,37.221 138.5,34.5C 141.994,34.4681 144.661,33.1347 146.5,30.5 Z"/></g>
<g><path style="opacity:1" fill="#098a34" d="M 129.5,6.5 C 131.292,7.30912 133.292,7.80912 135.5,8C 135.043,8.41395 134.709,8.91395 134.5,9.5C 136.506,13.6968 139.339,16.3635 143,17.5C 144.975,21.2106 147.475,24.5439 150.5,27.5C 150.5,27.8333 150.5,28.1667 150.5,28.5C 150.277,31.1142 151.444,32.7809 154,33.5C 154.392,36.6272 155.225,39.6272 156.5,42.5C 159.594,46.4093 162.428,50.4093 165,54.5C 165.243,59.9309 166.076,65.2642 167.5,70.5C 167.278,72.0554 166.611,73.3887 165.5,74.5C 166.325,75.3857 167.325,75.719 168.5,75.5C 168.389,76.1174 168.056,76.6174 167.5,77C 165.527,77.4955 163.527,77.6621 161.5,77.5C 162.171,76.1529 162.171,74.9862 161.5,74C 165.449,73.1932 165.449,72.6932 161.5,72.5C 161.223,69.5525 161.556,66.7191 162.5,64C 159.975,51.3619 154.642,40.1952 146.5,30.5C 143.521,26.8544 140.188,23.521 136.5,20.5C 136.611,19.8826 136.944,19.3826 137.5,19C 134.667,18.8333 133.167,17.3333 133,14.5C 131.846,13.2567 130.512,12.2567 129,11.5C 128.517,10.552 128.351,9.55198 128.5,8.5C 127.325,8.71901 126.325,8.38568 125.5,7.5C 126.689,6.57131 128.022,6.23798 129.5,6.5 Z"/></g>
<g><path style="opacity:1" fill="#189330" d="M 157.5,32.5 C 158.338,32.8417 158.672,33.5084 158.5,34.5C 160.158,42.2326 163.324,49.2326 168,55.5C 168.767,61.5671 170.267,67.4004 172.5,73C 168.774,74.0432 169.107,74.5432 173.5,74.5C 173.158,75.3382 172.492,75.6716 171.5,75.5C 170.5,75.5 169.5,75.5 168.5,75.5C 167.325,75.719 166.325,75.3857 165.5,74.5C 166.611,73.3887 167.278,72.0554 167.5,70.5C 166.076,65.2642 165.243,59.9309 165,54.5C 162.428,50.4093 159.594,46.4093 156.5,42.5C 155.225,39.6272 154.392,36.6272 154,33.5C 151.444,32.7809 150.277,31.1142 150.5,28.5C 151.117,28.3893 151.617,28.056 152,27.5C 152.752,30.4207 154.585,32.0874 157.5,32.5 Z"/></g>
<g><path style="opacity:1" fill="#67b336" d="M 18.5,30.5 C 21.0593,30.1984 23.3926,30.5318 25.5,31.5C 25.1961,32.1499 24.8627,32.8165 24.5,33.5C 25.9501,34.8498 26.6168,36.5165 26.5,38.5C 27.675,38.281 28.675,38.6143 29.5,39.5C 31.0198,41.6621 32.0198,43.9954 32.5,46.5C 33.5,46.5 34.5,46.5 35.5,46.5C 35.2155,48.4147 35.5489,50.0813 36.5,51.5C 36.8699,55.774 37.8699,59.774 39.5,63.5C 39.9358,66.3641 39.1025,68.6975 37,70.5C 35.2161,66.2418 33.3828,62.2418 31.5,58.5C 30.6213,53.4768 28.9546,48.8101 26.5,44.5C 24.4629,40.3372 22.7963,36.0039 21.5,31.5C 20.209,31.7373 19.209,31.404 18.5,30.5 Z"/></g>
<g><path style="opacity:1" fill="#058f33" d="M 140.5,42.5 C 142.692,47.719 145.026,52.8857 147.5,58C 147.167,58.3333 146.833,58.6667 146.5,59C 147.921,61.8614 148.921,64.8614 149.5,68C 149.486,72.3053 149.486,76.6386 149.5,81C 148.129,83.3187 147.462,85.8187 147.5,88.5C 147.167,88.5 146.833,88.5 146.5,88.5C 146.64,86.8762 145.973,85.7096 144.5,85C 145.494,83.6713 146.494,82.338 147.5,81C 146.741,75.8717 146.241,70.705 146,65.5C 143.816,62.1338 142.483,58.4672 142,54.5C 140.643,51.1019 138.81,48.1019 136.5,45.5C 137.833,44.5 139.167,43.5 140.5,42.5 Z"/></g>
<g><path style="opacity:1" fill="#6eb72c" d="M 14.5,27.5 C 15.5,28.1667 16.5,28.8333 17.5,29.5C 15.8333,29.5 14.1667,29.5 12.5,29.5C 12.9801,34.8221 13.3135,40.1554 13.5,45.5C 14.5,45.5 15.5,45.5 16.5,45.5C 16.7845,48.2538 17.4512,50.9205 18.5,53.5C 20.0691,52.286 20.9024,50.6193 21,48.5C 22.4579,50.524 24.2913,50.6907 26.5,49C 25.2721,47.5098 25.2721,46.0098 26.5,44.5C 28.9546,48.8101 30.6213,53.4768 31.5,58.5C 31.7243,63.3971 32.8909,68.0637 35,72.5C 35.3333,72.1667 35.6667,71.8333 36,71.5C 37.8847,73.02 40.0514,74.02 42.5,74.5C 43.9103,77.7751 46.0769,80.4418 49,82.5C 49.6946,85.385 50.5279,88.2184 51.5,91C 50.5709,93.516 50.9042,96.016 52.5,98.5C 53.1924,97.9747 53.6924,97.3081 54,96.5C 55.2692,97.9047 55.7692,99.5714 55.5,101.5C 53.8561,101.286 52.3561,101.62 51,102.5C 49.5,101 48,99.5 46.5,98C 44.765,97.3486 43.0983,97.5153 41.5,98.5C 40.6667,97.5 39.8333,96.5 39,95.5C 38.3333,96.5 38.3333,97.5 39,98.5C 40.353,99.6853 41.5197,101.019 42.5,102.5C 41.7261,103.711 40.8928,103.711 40,102.5C 39.5172,103.448 39.3505,104.448 39.5,105.5C 39.1667,105.5 38.8333,105.5 38.5,105.5C 37.8333,104.167 37.1667,102.833 36.5,101.5C 36.573,99.9731 35.9063,98.9731 34.5,98.5C 32.9925,96.8185 31.9925,94.8185 31.5,92.5C 29.4946,88.7988 27.4946,85.1321 25.5,81.5C 25.2451,79.0326 24.2451,77.0326 22.5,75.5C 22.0652,72.8427 21.0652,70.5093 19.5,68.5C 19.539,65.911 18.539,63.911 16.5,62.5C 16.0733,59.9902 15.4067,57.6568 14.5,55.5C 14.5905,52.8478 13.9238,50.5145 12.5,48.5C 11.6979,41.1958 11.3646,33.8625 11.5,26.5C 12.791,26.2627 13.791,26.596 14.5,27.5 Z"/></g>
<g><path style="opacity:1" fill="#59ab2c" d="M 184.5,70.5 C 184.167,71.1667 183.833,71.8333 183.5,72.5C 182.041,72.4326 180.708,72.7659 179.5,73.5C 179.167,73.5 178.833,73.5 178.5,73.5C 175.057,68.508 172.89,62.508 172,55.5C 168.895,50.5845 166.062,45.5845 163.5,40.5C 164.735,40.2786 165.735,39.6119 166.5,38.5C 167.052,40.0026 167.052,41.6693 166.5,43.5C 167.978,43.238 169.311,43.5713 170.5,44.5C 172.216,50.2619 174.716,55.5952 178,60.5C 178.92,63.1013 179.587,65.7679 180,68.5C 181.33,69.5822 182.83,70.2488 184.5,70.5 Z"/></g>
<g><path style="opacity:1" fill="#2e8b50" d="M 82.5,52.5 C 83.1667,52.5 83.8333,52.5 84.5,52.5C 84.1667,53.1667 83.8333,53.8333 83.5,54.5C 82.3501,53.1498 81.6834,53.3164 81.5,55C 83.2125,57.2719 85.0458,59.4386 87,61.5C 87.6667,63.8333 87.6667,66.1667 87,68.5C 86.1072,69.7112 85.2739,69.7112 84.5,68.5C 86.3646,63.0656 84.6979,59.5656 79.5,58C 83.0692,62.0396 83.4025,66.2062 80.5,70.5C 80.8747,67.0933 79.8747,66.5933 77.5,69C 76.8828,71.277 76.2161,73.4437 75.5,75.5C 75.6633,73.1432 75.4966,70.8098 75,68.5C 74.6174,67.944 74.1174,67.6107 73.5,67.5C 74.7242,65.1803 76.0575,62.847 77.5,60.5C 77.3333,59.8333 77.1667,59.1667 77,58.5C 75.5315,59.9893 74.0315,61.3226 72.5,62.5C 72.1583,61.6618 71.4916,61.3284 70.5,61.5C 70.1667,60.5 69.5,59.8333 68.5,59.5C 67.2702,57.7028 66.6036,55.7028 66.5,53.5C 67.5,54.8333 68.5,54.8333 69.5,53.5C 70.7954,54.0306 71.4621,55.3639 71.5,57.5C 73.1667,57.5 74.8333,57.5 76.5,57.5C 76.2627,56.209 76.596,55.209 77.5,54.5C 79.4109,54.4257 80.5776,53.4257 81,51.5C 81.3826,52.056 81.8826,52.3893 82.5,52.5 Z"/></g>
<g><path style="opacity:1" fill="#86b095" d="M 73.5,67.5 C 72.5489,66.0813 72.2155,64.4147 72.5,62.5C 74.0315,61.3226 75.5315,59.9893 77,58.5C 77.1667,59.1667 77.3333,59.8333 77.5,60.5C 76.0575,62.847 74.7242,65.1803 73.5,67.5 Z"/></g>
<g><path style="opacity:1" fill="#389f2e" d="M 158.5,34.5 C 159.391,35.1098 160.391,35.4431 161.5,35.5C 162.167,36.1667 162.833,36.8333 163.5,37.5C 163.5,38.5 163.5,39.5 163.5,40.5C 166.062,45.5845 168.895,50.5845 172,55.5C 172.89,62.508 175.057,68.508 178.5,73.5C 176.784,73.6287 175.117,73.962 173.5,74.5C 169.107,74.5432 168.774,74.0432 172.5,73C 170.267,67.4004 168.767,61.5671 168,55.5C 163.324,49.2326 160.158,42.2326 158.5,34.5 Z"/></g>
<g><path style="opacity:1" fill="#afc8a5" d="M 52.5,54.5 C 52.8333,54.5 53.1667,54.5 53.5,54.5C 55.099,54.2322 56.4324,54.5655 57.5,55.5C 56.4271,57.3469 56.4271,59.3469 57.5,61.5C 56.6618,61.8417 56.3284,62.5084 56.5,63.5C 54.7973,62.3398 54.1307,63.0065 54.5,65.5C 52.7084,66.4728 51.375,65.8061 50.5,63.5C 50.8243,62.1879 51.4909,61.3546 52.5,61C 51.2453,59.1132 51.2453,57.2799 52.5,55.5C 52.5,55.1667 52.5,54.8333 52.5,54.5 Z"/></g>
<g><path style="opacity:1" fill="#5fa36f" d="M 68.5,59.5 C 69.5,59.8333 70.1667,60.5 70.5,61.5C 69.596,62.209 69.2627,63.209 69.5,64.5C 68.1667,64.5 66.8333,64.5 65.5,64.5C 65.5,65.5 65.5,66.5 65.5,67.5C 62.676,67.0107 61.3426,65.344 61.5,62.5C 62.8333,62.5 64.1667,62.5 65.5,62.5C 65.281,61.325 65.6143,60.325 66.5,59.5C 67.4288,60.5498 68.0954,60.5498 68.5,59.5 Z"/></g>
<g><path style="opacity:1" fill="#6bb52e" d="M 171.5,40.5 C 171.328,41.4916 171.662,42.1583 172.5,42.5C 172.755,44.9674 173.755,46.9674 175.5,48.5C 177.348,50.7331 179.015,53.0664 180.5,55.5C 180.707,58.2406 181.707,60.5739 183.5,62.5C 183.5,62.8333 183.5,63.1667 183.5,63.5C 183.674,65.861 184.007,68.1944 184.5,70.5C 182.83,70.2488 181.33,69.5822 180,68.5C 179.587,65.7679 178.92,63.1013 178,60.5C 174.716,55.5952 172.216,50.2619 170.5,44.5C 169.311,43.5713 167.978,43.238 166.5,43.5C 167.052,41.6693 167.052,40.0026 166.5,38.5C 165.735,39.6119 164.735,40.2786 163.5,40.5C 163.5,39.5 163.5,38.5 163.5,37.5C 165.117,36.962 166.784,36.6287 168.5,36.5C 168.088,38.9726 169.088,40.3059 171.5,40.5 Z"/></g>
<g><path style="opacity:1" fill="#a3ca7c" d="M 16.5,62.5 C 18.539,63.911 19.539,65.911 19.5,68.5C 17.7549,66.9674 16.7549,64.9674 16.5,62.5 Z"/></g>
<g><path style="opacity:1" fill="#199a34" d="M 136.5,45.5 C 138.81,48.1019 140.643,51.1019 142,54.5C 142.483,58.4672 143.816,62.1338 146,65.5C 146.241,70.705 146.741,75.8717 147.5,81C 146.494,82.338 145.494,83.6713 144.5,85C 145.973,85.7096 146.64,86.8762 146.5,88.5C 146.5,88.8333 146.5,89.1667 146.5,89.5C 144.589,90.075 142.922,91.075 141.5,92.5C 141.279,91.2652 140.612,90.2652 139.5,89.5C 142.094,82.376 142.927,75.0426 142,67.5C 139.805,61.1244 137.638,54.7911 135.5,48.5C 134.041,48.5674 132.708,48.2341 131.5,47.5C 132.853,46.4739 133.853,45.1405 134.5,43.5C 135.158,42.6016 135.824,41.6016 136.5,40.5C 137.052,42.0026 137.052,43.6693 136.5,45.5 Z"/></g>
<g><path style="opacity:1" fill="#b9c8bb" d="M 70.5,61.5 C 71.4916,61.3284 72.1583,61.6618 72.5,62.5C 72.2155,64.4147 72.5489,66.0813 73.5,67.5C 74.1174,67.6107 74.6174,67.944 75,68.5C 75.4966,70.8098 75.6633,73.1432 75.5,75.5C 75.5,76.1667 75.5,76.8333 75.5,77.5C 73.9991,78.7515 72.3325,79.7515 70.5,80.5C 68.3023,80.5912 67.9689,79.9245 69.5,78.5C 73.0557,76.9131 74.2223,74.2464 73,70.5C 72.2082,73.1064 70.7082,75.1064 68.5,76.5C 67.6618,76.1583 67.3284,75.4916 67.5,74.5C 68.4959,74.5858 69.3292,74.2524 70,73.5C 70.4935,71.8659 70.6602,70.1992 70.5,68.5C 68.5853,68.7845 66.9187,68.4511 65.5,67.5C 65.5,66.5 65.5,65.5 65.5,64.5C 66.8333,64.5 68.1667,64.5 69.5,64.5C 69.2627,63.209 69.596,62.209 70.5,61.5 Z"/></g>
<g><path style="opacity:1" fill="#89bc8a" d="M 56.5,63.5 C 58.5184,64.9326 60.1851,64.5992 61.5,62.5C 61.3426,65.344 62.676,67.0107 65.5,67.5C 66.9187,68.4511 68.5853,68.7845 70.5,68.5C 70.6602,70.1992 70.4935,71.8659 70,73.5C 69.3292,74.2524 68.4959,74.5858 67.5,74.5C 68.9418,73.1805 69.6085,71.5138 69.5,69.5C 68.1667,69.5 66.8333,69.5 65.5,69.5C 65.5,71.1667 65.5,72.8333 65.5,74.5C 64.3951,73.3995 63.0618,72.7329 61.5,72.5C 62.6256,71.1417 62.6256,69.8084 61.5,68.5C 59.8513,69.6477 58.3513,70.981 57,72.5C 56.0226,69.741 56.856,67.741 59.5,66.5C 57.8311,65.0271 56.1645,64.6938 54.5,65.5C 54.1307,63.0065 54.7973,62.3398 56.5,63.5 Z"/></g>
<g><path style="opacity:1" fill="#2d9841" d="M 67.5,74.5 C 66.8333,74.5 66.1667,74.5 65.5,74.5C 65.5,72.8333 65.5,71.1667 65.5,69.5C 66.8333,69.5 68.1667,69.5 69.5,69.5C 69.6085,71.5138 68.9418,73.1805 67.5,74.5 Z"/></g>
<g><path style="opacity:1" fill="#088037" d="M 97.5,66.5 C 96.3915,67.29 95.0581,67.79 93.5,68C 98.1548,72.377 100.488,77.877 100.5,84.5C 101.978,84.238 103.311,84.5713 104.5,85.5C 103.675,86.3857 102.675,86.719 101.5,86.5C 101.285,88.1788 101.952,89.1788 103.5,89.5C 100.571,91.9816 97.5707,94.4816 94.5,97C 92.257,98.1362 89.9237,98.9695 87.5,99.5C 88.562,96.3974 87.8953,93.5641 85.5,91C 86.0814,90.1074 86.4148,89.1074 86.5,88C 84.6179,85.686 82.6179,83.3526 80.5,81C 81.2718,79.779 82.2718,78.779 83.5,78C 82.9152,76.6976 82.2485,75.531 81.5,74.5C 81.5,74.1667 81.5,73.8333 81.5,73.5C 83.5273,73.6621 85.5273,73.4955 87.5,73C 89.4761,70.8535 90.8094,68.3535 91.5,65.5C 93.4086,66.3482 95.4086,66.6816 97.5,66.5 Z"/></g>
<g><path style="opacity:1" fill="#c1dcb2" d="M 127.5,76.5 C 129.253,74.7775 131.253,73.2775 133.5,72C 131.126,71.2568 129.126,71.7568 127.5,73.5C 127.5,72.5 127.5,71.5 127.5,70.5C 129.415,70.7845 131.081,70.4511 132.5,69.5C 134.16,67.7516 136.16,67.2516 138.5,68C 139.517,69.0495 139.684,70.2161 139,71.5C 135.64,74.4343 131.806,76.101 127.5,76.5 Z"/></g>
<g><path style="opacity:1" fill="#a0c870" d="M 183.5,63.5 C 184.167,64.1667 184.833,64.8333 185.5,65.5C 185.5,66.1667 185.5,66.8333 185.5,67.5C 185.923,69.7812 185.256,71.4479 183.5,72.5C 183.833,71.8333 184.167,71.1667 184.5,70.5C 184.007,68.1944 183.674,65.861 183.5,63.5 Z"/></g>
<g><path style="opacity:1" fill="#b7d799" d="M 19.5,68.5 C 21.0652,70.5093 22.0652,72.8427 22.5,75.5C 20.1663,73.8243 19.1663,71.491 19.5,68.5 Z"/></g>
<g><path style="opacity:1" fill="#99b8a3" d="M 83.5,54.5 C 84.9228,56.5449 86.9228,57.5449 89.5,57.5C 89.5,58.8333 90.1667,59.5 91.5,59.5C 90.0464,62.3999 91.0464,63.7332 94.5,63.5C 94.8432,61.5168 94.1765,60.1834 92.5,59.5C 93.209,58.596 94.209,58.2627 95.5,58.5C 95.5,60.5 95.5,62.5 95.5,64.5C 96.5,64.5 97.5,64.5 98.5,64.5C 98.5,64.8333 98.5,65.1667 98.5,65.5C 98.5,66.1667 98.1667,66.5 97.5,66.5C 95.4086,66.6816 93.4086,66.3482 91.5,65.5C 90.8094,68.3535 89.4761,70.8535 87.5,73C 85.5273,73.4955 83.5273,73.6621 81.5,73.5C 80.6618,73.1583 80.3284,72.4916 80.5,71.5C 80.5,71.1667 80.5,70.8333 80.5,70.5C 83.4025,66.2062 83.0692,62.0396 79.5,58C 84.6979,59.5656 86.3646,63.0656 84.5,68.5C 85.2739,69.7112 86.1072,69.7112 87,68.5C 87.6667,66.1667 87.6667,63.8333 87,61.5C 85.0458,59.4386 83.2125,57.2719 81.5,55C 81.6834,53.3164 82.3501,53.1498 83.5,54.5 Z"/></g>
<g><path style="opacity:1" fill="#56ab2c" d="M 48.5,62.5 C 48.7031,64.0443 49.3698,65.3777 50.5,66.5C 47.8645,68.064 48.0311,69.3974 51,70.5C 51.065,68.1167 51.8983,67.45 53.5,68.5C 53.7572,71.6028 54.2572,74.6028 55,77.5C 57.2049,78.4118 59.0382,79.7451 60.5,81.5C 61.5,81.8333 62.1667,82.5 62.5,83.5C 61.0783,83.7086 59.745,84.2086 58.5,85C 60.3289,85.2735 61.8289,86.1068 63,87.5C 68.5623,100.972 69.2289,114.639 65,128.5C 64.2155,130.286 63.0488,131.786 61.5,133C 58.4209,133.619 55.9209,135.119 54,137.5C 52.6412,136.635 51.4745,135.635 50.5,134.5C 50.5,133.833 50.1667,133.5 49.5,133.5C 48.3428,130.727 47.6761,127.727 47.5,124.5C 47.8005,121.683 49.1339,121.016 51.5,122.5C 54.1092,121.77 56.7759,121.27 59.5,121C 61.1171,118.63 62.1171,115.964 62.5,113C 61.7312,107.204 61.2312,101.371 61,95.5C 59.084,89.8063 56.2507,84.8063 52.5,80.5C 51.5481,78.9547 51.2148,77.288 51.5,75.5C 50.448,75.6495 49.448,75.4828 48.5,75C 47.1667,73 45.8333,71 44.5,69C 43.552,68.5172 42.552,68.3505 41.5,68.5C 41.6495,69.552 41.4828,70.552 41,71.5C 40.8171,68.6353 40.3171,65.9686 39.5,63.5C 37.8699,59.774 36.8699,55.774 36.5,51.5C 36.4346,51.0618 36.6012,50.7284 37,50.5C 37.6517,52.7231 39.1517,53.8898 41.5,54C 43.9975,56.859 46.3308,59.6924 48.5,62.5 Z"/></g>
<g><path style="opacity:1" fill="#4ea637" d="M 48.5,62.5 C 49.1667,62.8333 49.8333,63.1667 50.5,63.5C 51.375,65.8061 52.7084,66.4728 54.5,65.5C 56.1645,64.6938 57.8311,65.0271 59.5,66.5C 56.856,67.741 56.0226,69.741 57,72.5C 58.3513,70.981 59.8513,69.6477 61.5,68.5C 62.6256,69.8084 62.6256,71.1417 61.5,72.5C 61.595,74.7857 62.2616,76.7857 63.5,78.5C 63.44,79.0431 63.1067,79.3764 62.5,79.5C 61.8333,78.5 61.1667,77.5 60.5,76.5C 59.5661,78.0948 59.5661,79.7615 60.5,81.5C 59.0382,79.7451 57.2049,78.4118 55,77.5C 54.2572,74.6028 53.7572,71.6028 53.5,68.5C 51.8983,67.45 51.065,68.1167 51,70.5C 48.0311,69.3974 47.8645,68.064 50.5,66.5C 49.3698,65.3777 48.7031,64.0443 48.5,62.5 Z"/></g>
<g><path style="opacity:1" fill="#67b32f" d="M 102.5,47.5 C 104.965,49.314 107.632,50.6473 110.5,51.5C 110.838,54.1569 110.171,56.4902 108.5,58.5C 108.833,58.8333 109.167,59.1667 109.5,59.5C 111.146,58.2214 112.313,56.5547 113,54.5C 113.671,53.7476 114.504,53.4142 115.5,53.5C 116.791,53.7373 117.791,53.404 118.5,52.5C 119.434,51.4324 119.768,50.099 119.5,48.5C 121.167,48.5 122.833,48.5 124.5,48.5C 124.977,51.5027 126.144,54.5027 128,57.5C 128.789,61.0915 128.622,64.5915 127.5,68C 128.905,69.2692 130.571,69.7692 132.5,69.5C 131.081,70.4511 129.415,70.7845 127.5,70.5C 127.5,71.5 127.5,72.5 127.5,73.5C 124.904,74.1763 122.904,75.6763 121.5,78C 120.552,78.4828 119.552,78.6495 118.5,78.5C 117.022,78.762 115.689,78.4287 114.5,77.5C 114.709,76.914 115.043,76.414 115.5,76C 113.723,72.949 112.057,69.7823 110.5,66.5C 109.914,66.7093 109.414,67.0426 109,67.5C 108.506,65.8659 108.34,64.1992 108.5,62.5C 107.5,62.5 106.5,62.5 105.5,62.5C 106.368,59.3273 106.368,56.3273 105.5,53.5C 104.797,51.2843 103.464,49.451 101.5,48C 101.728,47.6012 102.062,47.4346 102.5,47.5 Z"/></g>
<g><path style="opacity:1" fill="#b1c9a9" d="M 61.5,72.5 C 63.0618,72.7329 64.3951,73.3995 65.5,74.5C 66.1667,74.5 66.8333,74.5 67.5,74.5C 67.3284,75.4916 67.6618,76.1583 68.5,76.5C 67.7375,77.2679 66.7375,77.7679 65.5,78C 66.7932,78.49 68.1266,78.6567 69.5,78.5C 67.9689,79.9245 68.3023,80.5912 70.5,80.5C 70.5,80.8333 70.5,81.1667 70.5,81.5C 69.5,81.5 68.5,81.5 67.5,81.5C 66.0736,80.6588 64.7403,79.6588 63.5,78.5C 62.2616,76.7857 61.595,74.7857 61.5,72.5 Z"/></g>
<g><path style="opacity:1" fill="#69a87b" d="M 80.5,71.5 C 80.3284,72.4916 80.6618,73.1583 81.5,73.5C 81.5,73.8333 81.5,74.1667 81.5,74.5C 80.596,75.209 80.2627,76.209 80.5,77.5C 79.5,77.5 78.5,77.5 77.5,77.5C 77.461,74.911 78.461,72.911 80.5,71.5 Z"/></g>
<g><path style="opacity:1" fill="#b3d7ab" d="M 178.5,73.5 C 178.833,73.5 179.167,73.5 179.5,73.5C 177.316,75.5848 174.649,76.5848 171.5,76.5C 171.5,76.1667 171.5,75.8333 171.5,75.5C 172.492,75.6716 173.158,75.3382 173.5,74.5C 175.117,73.962 176.784,73.6287 178.5,73.5 Z"/></g>
<g><path style="opacity:1" fill="#5da969" d="M 69.5,78.5 C 68.1266,78.6567 66.7932,78.49 65.5,78C 66.7375,77.7679 67.7375,77.2679 68.5,76.5C 70.7082,75.1064 72.2082,73.1064 73,70.5C 74.2223,74.2464 73.0557,76.9131 69.5,78.5 Z"/></g>
<g><path style="opacity:1" fill="#43a32d" d="M 104.5,62.5 C 104.833,62.5 105.167,62.5 105.5,62.5C 106.5,62.5 107.5,62.5 108.5,62.5C 108.34,64.1992 108.506,65.8659 109,67.5C 109.414,67.0426 109.914,66.7093 110.5,66.5C 112.057,69.7823 113.723,72.949 115.5,76C 115.043,76.414 114.709,76.914 114.5,77.5C 115.689,78.4287 117.022,78.762 118.5,78.5C 115.048,81.3993 111.382,84.0659 107.5,86.5C 105.952,86.1788 105.285,85.1788 105.5,83.5C 106.675,83.719 107.675,83.3857 108.5,82.5C 107.726,81.2888 106.893,81.2888 106,82.5C 105.694,80.0937 104.861,77.927 103.5,76C 103.833,75 104.167,74 104.5,73C 103.491,71.8319 102.491,70.6652 101.5,69.5C 102.363,68.2736 102.363,66.9403 101.5,65.5C 101.5,64.5 101.5,63.5 101.5,62.5C 102.5,62.5 103.5,62.5 104.5,62.5 Z"/></g>
<g><path style="opacity:1" fill="#d6e4c7" d="M 127.5,76.5 C 126.5,76.8333 125.833,77.5 125.5,78.5C 120.707,80.5506 116.707,83.5506 113.5,87.5C 113.167,87.5 112.833,87.5 112.5,87.5C 112.631,86.6236 112.298,85.9569 111.5,85.5C 110.378,86.6302 109.044,87.2969 107.5,87.5C 107.5,87.1667 107.5,86.8333 107.5,86.5C 111.382,84.0659 115.048,81.3993 118.5,78.5C 119.552,78.6495 120.552,78.4828 121.5,78C 122.904,75.6763 124.904,74.1763 127.5,73.5C 129.126,71.7568 131.126,71.2568 133.5,72C 131.253,73.2775 129.253,74.7775 127.5,76.5 Z"/></g>
<g><path style="opacity:1" fill="#119031" d="M 98.5,65.5 C 99.5,65.5 100.5,65.5 101.5,65.5C 102.363,66.9403 102.363,68.2736 101.5,69.5C 102.491,70.6652 103.491,71.8319 104.5,73C 104.167,74 103.833,75 103.5,76C 104.861,77.927 105.694,80.0937 106,82.5C 106.893,81.2888 107.726,81.2888 108.5,82.5C 107.675,83.3857 106.675,83.719 105.5,83.5C 105.285,85.1788 105.952,86.1788 107.5,86.5C 107.5,86.8333 107.5,87.1667 107.5,87.5C 106.395,88.6005 105.062,89.2671 103.5,89.5C 101.952,89.1788 101.285,88.1788 101.5,86.5C 102.675,86.719 103.675,86.3857 104.5,85.5C 103.311,84.5713 101.978,84.238 100.5,84.5C 100.488,77.877 98.1548,72.377 93.5,68C 95.0581,67.79 96.3915,67.29 97.5,66.5C 98.1667,66.5 98.5,66.1667 98.5,65.5 Z"/></g>
<g><path style="opacity:1" fill="#409c5d" d="M 168.5,75.5 C 169.5,75.5 170.5,75.5 171.5,75.5C 171.5,75.8333 171.5,76.1667 171.5,76.5C 168.743,78.0857 165.743,79.0857 162.5,79.5C 162.167,78.8333 161.833,78.1667 161.5,77.5C 163.527,77.6621 165.527,77.4955 167.5,77C 168.056,76.6174 168.389,76.1174 168.5,75.5 Z"/></g>
<g><path style="opacity:1" fill="#f5f5f4" d="M 185.5,67.5 C 186.498,96.3285 186.831,125.329 186.5,154.5C 139.167,154.5 91.8333,154.5 44.5,154.5C 41.5342,141.668 40.8675,128.668 42.5,115.5C 43.6873,117.072 44.6873,118.739 45.5,120.5C 45.6596,122.153 46.3263,123.486 47.5,124.5C 47.6761,127.727 48.3428,130.727 49.5,133.5C 49.7599,139.172 50.0932,144.839 50.5,150.5C 53.5533,150.889 56.22,150.223 58.5,148.5C 60.2161,148.371 61.8828,148.038 63.5,147.5C 66.8515,147.47 69.5182,146.137 71.5,143.5C 72.209,142.596 73.209,142.263 74.5,142.5C 77.8116,142.851 80.145,141.518 81.5,138.5C 82.2623,136.738 83.5956,135.738 85.5,135.5C 87.0269,135.573 88.0269,134.906 88.5,133.5C 90.0269,133.573 91.0269,132.906 91.5,131.5C 95.8328,130.609 99.1662,128.276 101.5,124.5C 105.704,122.967 109.037,120.3 111.5,116.5C 112.262,114.738 113.596,113.738 115.5,113.5C 118.089,112.581 120.089,110.914 121.5,108.5C 127.557,105.471 132.891,101.471 137.5,96.5C 140.933,94.695 143.933,92.3617 146.5,89.5C 146.5,89.1667 146.5,88.8333 146.5,88.5C 146.833,88.5 147.167,88.5 147.5,88.5C 148.609,88.4431 149.609,88.1098 150.5,87.5C 154.54,85.7142 158.207,83.3809 161.5,80.5C 161.5,79.8333 161.833,79.5 162.5,79.5C 165.743,79.0857 168.743,78.0857 171.5,76.5C 174.649,76.5848 177.316,75.5848 179.5,73.5C 180.708,72.7659 182.041,72.4326 183.5,72.5C 185.256,71.4479 185.923,69.7812 185.5,67.5 Z"/></g>
<g><path style="opacity:1" fill="#068735" d="M 80.5,70.5 C 80.5,70.8333 80.5,71.1667 80.5,71.5C 78.461,72.911 77.461,74.911 77.5,77.5C 78.5,77.5 79.5,77.5 80.5,77.5C 80.2627,76.209 80.596,75.209 81.5,74.5C 82.2485,75.531 82.9152,76.6976 83.5,78C 82.2718,78.779 81.2718,79.779 80.5,81C 82.6179,83.3526 84.6179,85.686 86.5,88C 86.4148,89.1074 86.0814,90.1074 85.5,91C 87.8953,93.5641 88.562,96.3974 87.5,99.5C 87.5,100.167 87.1667,100.5 86.5,100.5C 86.1583,99.6618 85.4916,99.3284 84.5,99.5C 82.1229,96.274 81.1229,92.6073 81.5,88.5C 80.5,88.5 79.5,88.5 78.5,88.5C 77.9729,85.7686 77.1396,83.1019 76,80.5C 74.9887,81.3366 73.8221,81.67 72.5,81.5C 74.2294,80.7638 75.2294,79.4305 75.5,77.5C 75.5,76.8333 75.5,76.1667 75.5,75.5C 76.2161,73.4437 76.8828,71.277 77.5,69C 79.8747,66.5933 80.8747,67.0933 80.5,70.5 Z"/></g>
<g><path style="opacity:1" fill="#4eab31" d="M 131.5,41.5 C 130.709,43.6907 130.709,45.6907 131.5,47.5C 127.957,48.4414 127.624,50.1081 130.5,52.5C 131.086,52.2907 131.586,51.9574 132,51.5C 132.882,54.7895 133.548,58.1228 134,61.5C 135.074,62.6184 136.24,63.6184 137.5,64.5C 137.291,65.086 136.957,65.586 136.5,66C 137.766,66.3095 138.933,66.8095 140,67.5C 140.818,70.2272 140.652,72.8938 139.5,75.5C 137.947,76.439 136.613,77.6057 135.5,79C 134.31,82.4548 133.31,85.9548 132.5,89.5C 131.284,90.0959 129.951,90.2626 128.5,90C 125.088,95.4001 120.921,96.2335 116,92.5C 115.665,90.4971 114.832,88.8304 113.5,87.5C 117.521,85.2877 121.521,83.2877 125.5,81.5C 125.5,80.5 125.5,79.5 125.5,78.5C 125.833,77.5 126.5,76.8333 127.5,76.5C 131.806,76.101 135.64,74.4343 139,71.5C 139.684,70.2161 139.517,69.0495 138.5,68C 136.16,67.2516 134.16,67.7516 132.5,69.5C 130.571,69.7692 128.905,69.2692 127.5,68C 128.622,64.5915 128.789,61.0915 128,57.5C 126.144,54.5027 124.977,51.5027 124.5,48.5C 125.492,48.6716 126.158,48.3382 126.5,47.5C 125.848,43.4399 127.515,41.4399 131.5,41.5 Z"/></g>
<g><path style="opacity:1" fill="#f4f5f4" d="M -0.5,-0.5 C 61.8333,-0.5 124.167,-0.5 186.5,-0.5C 186.831,21.673 186.497,43.673 185.5,65.5C 184.833,64.8333 184.167,64.1667 183.5,63.5C 183.5,63.1667 183.5,62.8333 183.5,62.5C 183.693,59.1889 182.693,56.5223 180.5,54.5C 179.002,50.8318 177.002,47.4985 174.5,44.5C 174.167,43.5 173.5,42.8333 172.5,42.5C 171.662,42.1583 171.328,41.4916 171.5,40.5C 168.346,34.1942 164.68,28.1942 160.5,22.5C 160.663,20.1432 160.497,17.8098 160,15.5C 159,14.8333 158,14.1667 157,13.5C 156.604,10.3036 155.438,7.47027 153.5,5C 149.514,4.50115 145.514,4.33449 141.5,4.5C 132.766,3.86496 124.433,4.53163 116.5,6.5C 114.379,6.32526 112.379,6.65859 110.5,7.5C 107.848,7.40953 105.515,8.07619 103.5,9.5C 98.085,10.1938 93.085,11.8605 88.5,14.5C 85.5185,14.1824 83.1852,15.1824 81.5,17.5C 74.5168,19.0892 67.8502,21.4225 61.5,24.5C 57.6424,24.7701 54.309,26.1034 51.5,28.5C 50.5,28.5 49.5,28.5 48.5,28.5C 46.139,28.6741 43.8056,29.0074 41.5,29.5C 32.3835,29.9284 23.3835,29.2617 14.5,27.5C 13.791,26.596 12.791,26.2627 11.5,26.5C 11.3646,33.8625 11.6979,41.1958 12.5,48.5C 12.4095,51.1522 13.0762,53.4855 14.5,55.5C 15.4067,57.6568 16.0733,59.9902 16.5,62.5C 16.7549,64.9674 17.7549,66.9674 19.5,68.5C 19.1663,71.491 20.1663,73.8243 22.5,75.5C 23.038,77.1172 23.3713,78.7839 23.5,80.5C 25.2014,85.2631 27.8681,89.2631 31.5,92.5C 31.9925,94.8185 32.9925,96.8185 34.5,98.5C 34.427,100.027 35.0937,101.027 36.5,101.5C 37.1667,102.833 37.8333,104.167 38.5,105.5C 40.3774,108.592 41.7107,111.925 42.5,115.5C 40.8675,128.668 41.5342,141.668 44.5,154.5C 29.5,154.5 14.5,154.5 -0.5,154.5C -0.5,102.833 -0.5,51.1667 -0.5,-0.5 Z"/></g>
<g><path style="opacity:1" fill="#7db86f" d="M 97.5,58.5 C 97.8333,58.5 98.1667,58.5 98.5,58.5C 98.281,59.675 98.6143,60.675 99.5,61.5C 100.842,59.9951 102.508,59.3285 104.5,59.5C 104.5,60.5 104.5,61.5 104.5,62.5C 103.5,62.5 102.5,62.5 101.5,62.5C 101.5,63.5 101.5,64.5 101.5,65.5C 100.5,65.5 99.5,65.5 98.5,65.5C 98.5,65.1667 98.5,64.8333 98.5,64.5C 98.9382,64.5654 99.2716,64.3988 99.5,64C 96.5409,62.9543 95.8742,61.1209 97.5,58.5 Z"/></g>
<g><path style="opacity:1" fill="#489e59" d="M 91.5,59.5 C 91.8333,59.5 92.1667,59.5 92.5,59.5C 94.1765,60.1834 94.8432,61.5168 94.5,63.5C 91.0464,63.7332 90.0464,62.3999 91.5,59.5 Z"/></g>
<g><path style="opacity:1" fill="#d3d5d0" d="M 61.5,62.5 C 60.1851,64.5992 58.5184,64.9326 56.5,63.5C 56.3284,62.5084 56.6618,61.8417 57.5,61.5C 59.0683,60.5269 60.735,60.3603 62.5,61C 61.944,61.3826 61.6107,61.8826 61.5,62.5 Z"/></g>
<g><path style="opacity:1" fill="#d8d9d4" d="M 90.5,55.5 C 91.7564,55.9038 92.9231,56.5705 94,57.5C 96.1842,54.5434 97.3508,54.8767 97.5,58.5C 95.8742,61.1209 96.5409,62.9543 99.5,64C 99.2716,64.3988 98.9382,64.5654 98.5,64.5C 97.5,64.5 96.5,64.5 95.5,64.5C 95.5,62.5 95.5,60.5 95.5,58.5C 94.209,58.2627 93.209,58.596 92.5,59.5C 92.1667,59.5 91.8333,59.5 91.5,59.5C 90.1667,59.5 89.5,58.8333 89.5,57.5C 89.8333,56.8333 90.1667,56.1667 90.5,55.5 Z"/></g>
<g><path style="opacity:1" fill="#64ae62" d="M 52.5,55.5 C 51.2453,57.2799 51.2453,59.1132 52.5,61C 51.4909,61.3546 50.8243,62.1879 50.5,63.5C 49.8333,63.1667 49.1667,62.8333 48.5,62.5C 49.0818,60.002 49.0818,57.6687 48.5,55.5C 48.4701,54.5028 48.9701,53.8361 50,53.5C 51.0111,54.0556 51.8444,54.7222 52.5,55.5 Z"/></g>
<g><path style="opacity:1" fill="#a5bfa8" d="M 64.5,50.5 C 65.1667,51.5 65.8333,52.5 66.5,53.5C 66.6036,55.7028 67.2702,57.7028 68.5,59.5C 68.0954,60.5498 67.4288,60.5498 66.5,59.5C 65.6143,60.325 65.281,61.325 65.5,62.5C 64.1667,62.5 62.8333,62.5 61.5,62.5C 61.6107,61.8826 61.944,61.3826 62.5,61C 60.735,60.3603 59.0683,60.5269 57.5,61.5C 56.4271,59.3469 56.4271,57.3469 57.5,55.5C 58.8057,56.9678 60.3057,58.3012 62,59.5C 62.1405,57.7445 61.6405,56.0778 60.5,54.5C 61.6099,52.7996 62.9432,51.4663 64.5,50.5 Z"/></g>
<g><path style="opacity:1" fill="#3ea130" d="M 25.5,31.5 C 25.8333,31.5 26.1667,31.5 26.5,31.5C 33.5778,33.2612 37.5778,37.9279 38.5,45.5C 39.5,45.5 40.5,45.5 41.5,45.5C 41.5168,50.5083 43.8501,53.8416 48.5,55.5C 49.0818,57.6687 49.0818,60.002 48.5,62.5C 46.3308,59.6924 43.9975,56.859 41.5,54C 39.1517,53.8898 37.6517,52.7231 37,50.5C 36.6012,50.7284 36.4346,51.0618 36.5,51.5C 35.5489,50.0813 35.2155,48.4147 35.5,46.5C 34.5,46.5 33.5,46.5 32.5,46.5C 32.0198,43.9954 31.0198,41.6621 29.5,39.5C 28.675,38.6143 27.675,38.281 26.5,38.5C 26.6168,36.5165 25.9501,34.8498 24.5,33.5C 24.8627,32.8165 25.1961,32.1499 25.5,31.5 Z"/></g>
<g><path style="opacity:1" fill="#d8e9c9" d="M 180.5,54.5 C 182.693,56.5223 183.693,59.1889 183.5,62.5C 181.707,60.5739 180.707,58.2406 180.5,55.5C 180.5,55.1667 180.5,54.8333 180.5,54.5 Z"/></g>
<g><path style="opacity:1" fill="#4aa157" d="M 90.5,48.5 C 90.8333,48.5 91.1667,48.5 91.5,48.5C 91.702,50.9496 91.3686,53.283 90.5,55.5C 90.1667,56.1667 89.8333,56.8333 89.5,57.5C 86.9228,57.5449 84.9228,56.5449 83.5,54.5C 83.8333,53.8333 84.1667,53.1667 84.5,52.5C 85.6824,49.9908 87.6824,48.6574 90.5,48.5 Z"/></g>
<g><path style="opacity:1" fill="#499768" d="M 72.5,47.5 C 74.4799,48.4839 76.1466,49.8173 77.5,51.5C 77.5,52.5 77.5,53.5 77.5,54.5C 76.596,55.209 76.2627,56.209 76.5,57.5C 74.8333,57.5 73.1667,57.5 71.5,57.5C 71.4621,55.3639 70.7954,54.0306 69.5,53.5C 69.1489,51.1305 68.9822,48.7972 69,46.5C 70.7565,45.015 71.9232,45.3484 72.5,47.5 Z"/></g>
<g><path style="opacity:1" fill="#afd78d" d="M 12.5,48.5 C 13.9238,50.5145 14.5905,52.8478 14.5,55.5C 13.0762,53.4855 12.4095,51.1522 12.5,48.5 Z"/></g>
<g><path style="opacity:1" fill="#74b550" d="M 90.5,40.5 C 93.4013,41.5361 95.9013,43.2028 98,45.5C 100.154,48.9716 102.487,52.305 105,55.5C 105.464,54.9056 105.631,54.2389 105.5,53.5C 106.368,56.3273 106.368,59.3273 105.5,62.5C 105.167,62.5 104.833,62.5 104.5,62.5C 104.5,61.5 104.5,60.5 104.5,59.5C 102.508,59.3285 100.842,59.9951 99.5,61.5C 98.6143,60.675 98.281,59.675 98.5,58.5C 100.279,57.3303 101.279,55.6636 101.5,53.5C 99.4012,54.2309 97.4012,54.2309 95.5,53.5C 97.484,51.9536 97.8174,50.2869 96.5,48.5C 95.1667,48.5 93.8333,48.5 92.5,48.5C 92.1667,48.5 91.8333,48.5 91.5,48.5C 91.1667,48.5 90.8333,48.5 90.5,48.5C 91.8647,46.2492 91.5314,44.2492 89.5,42.5C 89.3284,41.5084 89.6618,40.8417 90.5,40.5 Z"/></g>
<g><path style="opacity:1" fill="#61a574" d="M 64.5,50.5 C 62.9432,51.4663 61.6099,52.7996 60.5,54.5C 61.6405,56.0778 62.1405,57.7445 62,59.5C 60.3057,58.3012 58.8057,56.9678 57.5,55.5C 56.4324,54.5655 55.099,54.2322 53.5,54.5C 54.9228,53.5515 56.4228,52.5515 58,51.5C 60.411,53.1534 61.5777,52.4867 61.5,49.5C 62.791,49.2627 63.791,49.596 64.5,50.5 Z"/></g>
<g><path style="opacity:1" fill="#bcdb9b" d="M 101.5,44.5 C 103.394,45.0476 105.06,46.0476 106.5,47.5C 107.107,47.3764 107.44,47.0431 107.5,46.5C 108.429,47.9361 109.595,49.2695 111,50.5C 111.464,49.9056 111.631,49.2389 111.5,48.5C 112.338,48.1583 112.672,47.4916 112.5,46.5C 113.131,48.9344 114.131,51.2677 115.5,53.5C 114.504,53.4142 113.671,53.7476 113,54.5C 112.313,56.5547 111.146,58.2214 109.5,59.5C 109.167,59.1667 108.833,58.8333 108.5,58.5C 110.171,56.4902 110.838,54.1569 110.5,51.5C 107.632,50.6473 104.965,49.314 102.5,47.5C 102.443,46.391 102.11,45.391 101.5,44.5 Z"/></g>
<g><path style="opacity:1" fill="#bed4b4" d="M 91.5,48.5 C 91.8333,48.5 92.1667,48.5 92.5,48.5C 92.2011,50.604 92.5344,52.604 93.5,54.5C 94.3318,51.7647 95.3318,49.7647 96.5,48.5C 97.8174,50.2869 97.484,51.9536 95.5,53.5C 97.4012,54.2309 99.4012,54.2309 101.5,53.5C 101.279,55.6636 100.279,57.3303 98.5,58.5C 98.1667,58.5 97.8333,58.5 97.5,58.5C 97.3508,54.8767 96.1842,54.5434 94,57.5C 92.9231,56.5705 91.7564,55.9038 90.5,55.5C 91.3686,53.283 91.702,50.9496 91.5,48.5 Z"/></g>
<g><path style="opacity:1" fill="#dbded6" d="M 92.5,48.5 C 93.8333,48.5 95.1667,48.5 96.5,48.5C 95.3318,49.7647 94.3318,51.7647 93.5,54.5C 92.5344,52.604 92.2011,50.604 92.5,48.5 Z"/></g>
<g><path style="opacity:1" fill="#99b9a0" d="M 77.5,45.5 C 79.4305,45.7706 80.7638,46.7706 81.5,48.5C 82.209,49.404 83.209,49.7373 84.5,49.5C 83.4489,50.2223 82.7822,51.2223 82.5,52.5C 81.8826,52.3893 81.3826,52.056 81,51.5C 80.5776,53.4257 79.4109,54.4257 77.5,54.5C 77.5,53.5 77.5,52.5 77.5,51.5C 77.5,49.5 77.5,47.5 77.5,45.5 Z"/></g>
<g><path style="opacity:1" fill="#bfdea3" d="M 174.5,44.5 C 177.002,47.4985 179.002,50.8318 180.5,54.5C 180.5,54.8333 180.5,55.1667 180.5,55.5C 179.015,53.0664 177.348,50.7331 175.5,48.5C 175.167,47.1667 174.833,45.8333 174.5,44.5 Z"/></g>
<g><path style="opacity:1" fill="#94b39e" d="M 72.5,47.5 C 72.8186,49.7505 72.3186,51.7505 71,53.5C 70.8333,52.5 70.6667,51.5 70.5,50.5C 70.6399,48.9704 71.3065,47.9704 72.5,47.5 Z"/></g>
<g><path style="opacity:1" fill="#339e44" d="M 84.5,47.5 C 84.5,48.1667 84.5,48.8333 84.5,49.5C 83.209,49.7373 82.209,49.404 81.5,48.5C 81.8041,46.2043 82.8041,45.871 84.5,47.5 Z"/></g>
<g><path style="opacity:1" fill="#90c461" d="M 172.5,42.5 C 173.5,42.8333 174.167,43.5 174.5,44.5C 174.833,45.8333 175.167,47.1667 175.5,48.5C 173.755,46.9674 172.755,44.9674 172.5,42.5 Z"/></g>
<g><path style="opacity:1" fill="#b8d797" d="M 120.5,45.5 C 119.624,45.3691 118.957,45.7025 118.5,46.5C 120.631,47.1687 122.631,47.8354 124.5,48.5C 122.833,48.5 121.167,48.5 119.5,48.5C 119.768,50.099 119.434,51.4324 118.5,52.5C 118.179,50.9519 117.179,50.2852 115.5,50.5C 115.5,49.1667 115.5,47.8333 115.5,46.5C 116.531,45.645 117.697,44.9783 119,44.5C 119.765,44.5699 120.265,44.9033 120.5,45.5 Z"/></g>
<g><path style="opacity:1" fill="#a6c89e" d="M 81.5,40.5 C 83.4628,41.9599 85.2962,43.6266 87,45.5C 87.4643,44.9056 87.631,44.2389 87.5,43.5C 88.782,44.7082 88.782,46.0416 87.5,47.5C 86.914,47.2907 86.414,46.9574 86,46.5C 85.7679,47.7375 85.2679,48.7375 84.5,49.5C 84.5,48.8333 84.5,48.1667 84.5,47.5C 83.242,45.3131 82.242,42.9798 81.5,40.5 Z"/></g>
<g><path style="opacity:1" fill="#73ae6f" d="M 81.5,40.5 C 82.242,42.9798 83.242,45.3131 84.5,47.5C 82.8041,45.871 81.8041,46.2043 81.5,48.5C 80.7638,46.7706 79.4305,45.7706 77.5,45.5C 77.5,44.8333 77.5,44.1667 77.5,43.5C 78.8333,43.5 79.5,42.8333 79.5,41.5C 80.1667,41.1667 80.8333,40.8333 81.5,40.5 Z"/></g>
<g><path style="opacity:1" fill="#79bc4c" d="M 107.5,33.5 C 108.222,34.5511 109.222,35.2178 110.5,35.5C 110.694,37.9118 112.027,38.9118 114.5,38.5C 114.157,36.5168 114.824,35.1834 116.5,34.5C 116.833,35.1667 117.167,35.8333 117.5,36.5C 114.597,40.8188 115.93,42.8188 121.5,42.5C 122.715,43.779 122.382,44.779 120.5,45.5C 120.265,44.9033 119.765,44.5699 119,44.5C 117.697,44.9783 116.531,45.645 115.5,46.5C 112.052,42.5959 109.386,38.2626 107.5,33.5 Z"/></g>
<g><path style="opacity:1" fill="#c6d1be" d="M 89.5,42.5 C 91.5314,44.2492 91.8647,46.2492 90.5,48.5C 87.6824,48.6574 85.6824,49.9908 84.5,52.5C 83.8333,52.5 83.1667,52.5 82.5,52.5C 82.7822,51.2223 83.4489,50.2223 84.5,49.5C 85.2679,48.7375 85.7679,47.7375 86,46.5C 86.414,46.9574 86.914,47.2907 87.5,47.5C 88.782,46.0416 88.782,44.7082 87.5,43.5C 87.1667,42.8333 86.8333,42.1667 86.5,41.5C 86.369,40.7611 86.5357,40.0944 87,39.5C 87.8518,40.5707 88.6851,41.5707 89.5,42.5 Z"/></g>
<g><path style="opacity:1" fill="#78b75e" d="M 81.5,40.5 C 82.7931,40.1254 84.1264,39.7921 85.5,39.5C 85.3284,40.4916 85.6618,41.1583 86.5,41.5C 86.8333,42.1667 87.1667,42.8333 87.5,43.5C 87.631,44.2389 87.4643,44.9056 87,45.5C 85.2962,43.6266 83.4628,41.9599 81.5,40.5 Z"/></g>
<g><path style="opacity:1" fill="#118c36" d="M 61.5,25.5 C 62.1667,25.5 62.8333,25.5 63.5,25.5C 63.2639,28.2257 64.0972,30.559 66,32.5C 69.6667,35.539 73,38.8723 76,42.5C 76.4643,41.9056 76.631,41.2389 76.5,40.5C 77.609,40.5569 78.609,40.8902 79.5,41.5C 79.5,42.8333 78.8333,43.5 77.5,43.5C 75.1511,47.5809 73.1511,47.2476 71.5,42.5C 70.675,41.6143 69.675,41.281 68.5,41.5C 68.719,40.325 68.3857,39.325 67.5,38.5C 63.1998,36.3576 59.0332,34.0243 55,31.5C 54.4209,30.0715 54.5876,28.7382 55.5,27.5C 57.4214,26.6373 59.4214,25.9707 61.5,25.5 Z"/></g>
<g><path style="opacity:1" fill="#77bc69" d="M 128.5,35.5 C 130.088,37.1133 131.088,39.1133 131.5,41.5C 127.515,41.4399 125.848,43.4399 126.5,47.5C 125.376,44.3313 123.709,41.3313 121.5,38.5C 121.833,38.1667 122.167,37.8333 122.5,37.5C 123.833,38.5 125.167,39.5 126.5,40.5C 128.519,39.8671 128.853,38.8671 127.5,37.5C 128.338,37.1583 128.672,36.4916 128.5,35.5 Z"/></g>
<g><path style="opacity:1" fill="#a6ce8a" d="M 117.5,36.5 C 119.822,37.8021 121.155,39.8021 121.5,42.5C 115.93,42.8188 114.597,40.8188 117.5,36.5 Z"/></g>
<g><path style="opacity:1" fill="#6ab629" d="M 17.5,29.5 C 18.1667,29.5 18.5,29.8333 18.5,30.5C 19.209,31.404 20.209,31.7373 21.5,31.5C 22.7963,36.0039 24.4629,40.3372 26.5,44.5C 25.2721,46.0098 25.2721,47.5098 26.5,49C 24.2913,50.6907 22.4579,50.524 21,48.5C 20.9024,50.6193 20.0691,52.286 18.5,53.5C 17.4512,50.9205 16.7845,48.2538 16.5,45.5C 15.5,45.5 14.5,45.5 13.5,45.5C 13.3135,40.1554 12.9801,34.8221 12.5,29.5C 14.1667,29.5 15.8333,29.5 17.5,29.5 Z"/></g>
<g><path style="opacity:1" fill="#d6e5c5" d="M 101.5,44.5 C 102.11,45.391 102.443,46.391 102.5,47.5C 102.062,47.4346 101.728,47.6012 101.5,48C 103.464,49.451 104.797,51.2843 105.5,53.5C 105.631,54.2389 105.464,54.9056 105,55.5C 102.487,52.305 100.154,48.9716 98,45.5C 95.9013,43.2028 93.4013,41.5361 90.5,40.5C 89.4937,39.6043 89.4937,38.9377 90.5,38.5C 91.7564,38.0962 92.9231,37.4295 94,36.5C 96.1211,37.958 97.4544,39.958 98,42.5C 98.8159,43.8228 99.9826,44.4894 101.5,44.5 Z"/></g>
<g><path style="opacity:1" fill="#afd199" d="M 87.5,37.5 C 88.791,37.2627 89.791,37.596 90.5,38.5C 89.4937,38.9377 89.4937,39.6043 90.5,40.5C 89.6618,40.8417 89.3284,41.5084 89.5,42.5C 88.6851,41.5707 87.8518,40.5707 87,39.5C 86.5357,40.0944 86.369,40.7611 86.5,41.5C 85.6618,41.1583 85.3284,40.4916 85.5,39.5C 85.5,39.1667 85.5,38.8333 85.5,38.5C 86.4916,38.6716 87.1583,38.3382 87.5,37.5 Z"/></g>
<g><path style="opacity:1" fill="#1a9235" d="M 26.5,31.5 C 30.1667,31.5 33.8333,31.5 37.5,31.5C 38.968,32.7791 39.6347,34.4458 39.5,36.5C 40.5,36.5 41.5,36.5 42.5,36.5C 42.1488,41.0405 44.1488,43.5405 48.5,44C 50.0383,45.9321 51.205,48.0988 52,50.5C 52.9653,48.7397 54.132,48.4063 55.5,49.5C 54.0476,50.9397 53.0476,52.6064 52.5,54.5C 52.5,54.8333 52.5,55.1667 52.5,55.5C 51.8444,54.7222 51.0111,54.0556 50,53.5C 48.9701,53.8361 48.4701,54.5028 48.5,55.5C 43.8501,53.8416 41.5168,50.5083 41.5,45.5C 40.5,45.5 39.5,45.5 38.5,45.5C 37.5778,37.9279 33.5778,33.2612 26.5,31.5 Z"/></g>
<g><path style="opacity:1" fill="#8ac352" d="M 99.5,32.5 C 98.9935,33.8589 97.9935,34.8589 96.5,35.5C 97.714,37.7542 99.3806,38.0875 101.5,36.5C 103.075,40.0781 105.075,43.4114 107.5,46.5C 107.44,47.0431 107.107,47.3764 106.5,47.5C 105.06,46.0476 103.394,45.0476 101.5,44.5C 99.9826,44.4894 98.8159,43.8228 98,42.5C 97.4544,39.958 96.1211,37.958 94,36.5C 92.9231,37.4295 91.7564,38.0962 90.5,38.5C 89.791,37.596 88.791,37.2627 87.5,37.5C 88.3495,31.9132 90.6829,31.2465 94.5,35.5C 95.9047,34.0063 97.5713,33.0063 99.5,32.5 Z"/></g>
<g><path style="opacity:1" fill="#9cc67a" d="M 111.5,32.5 C 113.403,32.7959 115.07,33.4625 116.5,34.5C 114.824,35.1834 114.157,36.5168 114.5,38.5C 112.027,38.9118 110.694,37.9118 110.5,35.5C 111.11,34.609 111.443,33.609 111.5,32.5 Z"/></g>
<g><path style="opacity:1" fill="#d0e0c7" d="M 112.5,27.5 C 113.5,27.5 114.5,27.5 115.5,27.5C 115.472,29.5824 116.139,31.4157 117.5,33C 118.332,33.6877 118.998,33.521 119.5,32.5C 117.667,31.0316 117.334,29.3649 118.5,27.5C 119.288,28.7701 120.288,29.7701 121.5,30.5C 122.092,34.0889 124.092,36.4222 127.5,37.5C 128.853,38.8671 128.519,39.8671 126.5,40.5C 125.167,39.5 123.833,38.5 122.5,37.5C 122.167,37.8333 121.833,38.1667 121.5,38.5C 123.709,41.3313 125.376,44.3313 126.5,47.5C 126.158,48.3382 125.492,48.6716 124.5,48.5C 122.631,47.8354 120.631,47.1687 118.5,46.5C 118.957,45.7025 119.624,45.3691 120.5,45.5C 122.382,44.779 122.715,43.779 121.5,42.5C 121.155,39.8021 119.822,37.8021 117.5,36.5C 117.167,35.8333 116.833,35.1667 116.5,34.5C 115.07,33.4625 113.403,32.7959 111.5,32.5C 110.067,30.4816 110.401,28.8149 112.5,27.5 Z"/></g>
<g><path style="opacity:1" fill="#d1e3bc" d="M 102.5,30.5 C 104.933,30.2729 106.599,31.2729 107.5,33.5C 109.386,38.2626 112.052,42.5959 115.5,46.5C 115.5,47.8333 115.5,49.1667 115.5,50.5C 117.179,50.2852 118.179,50.9519 118.5,52.5C 117.791,53.404 116.791,53.7373 115.5,53.5C 114.131,51.2677 113.131,48.9344 112.5,46.5C 109.798,43.1186 107.465,39.4519 105.5,35.5C 104.641,34.2258 103.974,34.3925 103.5,36C 105.586,40.5763 108.253,44.743 111.5,48.5C 111.631,49.2389 111.464,49.9056 111,50.5C 109.595,49.2695 108.429,47.9361 107.5,46.5C 105.075,43.4114 103.075,40.0781 101.5,36.5C 100.174,34.8049 100.507,33.4716 102.5,32.5C 102.5,31.8333 102.5,31.1667 102.5,30.5 Z"/></g>
<g><path style="opacity:1" fill="#97ca69" d="M 112.5,46.5 C 112.672,47.4916 112.338,48.1583 111.5,48.5C 108.253,44.743 105.586,40.5763 103.5,36C 103.974,34.3925 104.641,34.2258 105.5,35.5C 107.465,39.4519 109.798,43.1186 112.5,46.5 Z"/></g>
<g><path style="opacity:1" fill="#a8d281" d="M 99.5,32.5 C 100.5,32.5 101.5,32.5 102.5,32.5C 100.507,33.4716 100.174,34.8049 101.5,36.5C 99.3806,38.0875 97.714,37.7542 96.5,35.5C 97.9935,34.8589 98.9935,33.8589 99.5,32.5 Z"/></g>
<g><path style="opacity:1" fill="#79b945" d="M 154.5,11.5 C 156.494,15.1307 158.494,18.7974 160.5,22.5C 164.68,28.1942 168.346,34.1942 171.5,40.5C 169.088,40.3059 168.088,38.9726 168.5,36.5C 166.784,36.6287 165.117,36.962 163.5,37.5C 162.833,36.8333 162.167,36.1667 161.5,35.5C 159.765,31.8041 158.432,27.8041 157.5,23.5C 156.64,21.7284 155.307,20.3951 153.5,19.5C 154.274,18.2888 155.107,18.2888 156,19.5C 156.167,19 156.333,18.5 156.5,18C 154.987,16.1208 154.321,13.9541 154.5,11.5 Z"/></g>
<g><path style="opacity:1" fill="#158943" d="M 136.5,20.5 C 140.188,23.521 143.521,26.8544 146.5,30.5C 144.661,33.1347 141.994,34.4681 138.5,34.5C 138.963,37.221 139.629,39.8877 140.5,42.5C 139.167,43.5 137.833,44.5 136.5,45.5C 137.052,43.6693 137.052,42.0026 136.5,40.5C 135.824,41.6016 135.158,42.6016 134.5,43.5C 132.923,38.4249 130.59,33.7582 127.5,29.5C 129.109,29.9059 130.443,29.9059 131.5,29.5C 130.577,26.5534 129.911,23.5534 129.5,20.5C 131.833,20.5 134.167,20.5 136.5,20.5 Z"/></g>
<g><path style="opacity:1" fill="#48aa58" d="M 123.5,29.5 C 125.614,31.0189 127.28,33.0189 128.5,35.5C 128.672,36.4916 128.338,37.1583 127.5,37.5C 124.092,36.4222 122.092,34.0889 121.5,30.5C 121.842,29.6618 122.508,29.3284 123.5,29.5 Z"/></g>
<g><path style="opacity:1" fill="#66b42c" d="M 85.5,16.5 C 87.604,16.2011 89.604,16.5344 91.5,17.5C 93.7723,20.7272 96.6057,23.3938 100,25.5C 100.483,26.448 100.649,27.448 100.5,28.5C 101.873,28.3433 103.207,28.51 104.5,29C 103.584,29.2784 102.918,29.7784 102.5,30.5C 102.5,31.1667 102.5,31.8333 102.5,32.5C 101.5,32.5 100.5,32.5 99.5,32.5C 97.5713,33.0063 95.9047,34.0063 94.5,35.5C 90.6829,31.2465 88.3495,31.9132 87.5,37.5C 87.1583,38.3382 86.4916,38.6716 85.5,38.5C 84.3063,35.9824 83.1396,35.9824 82,38.5C 81.2797,36.8876 81.4464,35.3876 82.5,34C 81.1667,33.6667 79.8333,33.3333 78.5,33C 75.2711,29.6014 71.9378,26.4347 68.5,23.5C 73.2272,22.2436 77.5606,20.2436 81.5,17.5C 83.099,17.7678 84.4324,17.4345 85.5,16.5 Z"/></g>
<g><path style="opacity:1" fill="#1d952f" d="M 65.5,24.5 C 65.1961,25.1499 64.8627,25.8165 64.5,26.5C 70.6796,29.3429 74.6796,34.0096 76.5,40.5C 76.631,41.2389 76.4643,41.9056 76,42.5C 73,38.8723 69.6667,35.539 66,32.5C 64.0972,30.559 63.2639,28.2257 63.5,25.5C 63.8417,24.6618 64.5084,24.3284 65.5,24.5 Z"/></g>
<g><path style="opacity:1" fill="#abc9ae" d="M 122.5,24.5 C 125.2,25.1998 126.867,26.8664 127.5,29.5C 130.59,33.7582 132.923,38.4249 134.5,43.5C 133.853,45.1405 132.853,46.4739 131.5,47.5C 130.709,45.6907 130.709,43.6907 131.5,41.5C 131.088,39.1133 130.088,37.1133 128.5,35.5C 127.28,33.0189 125.614,31.0189 123.5,29.5C 122.962,27.8828 122.629,26.2161 122.5,24.5 Z"/></g>
<g><path style="opacity:1" fill="#0a8039" d="M 55.5,27.5 C 54.5876,28.7382 54.4209,30.0715 55,31.5C 59.0332,34.0243 63.1998,36.3576 67.5,38.5C 68.3857,39.325 68.719,40.325 68.5,41.5C 69.675,41.281 70.675,41.6143 71.5,42.5C 73.1511,47.2476 75.1511,47.5809 77.5,43.5C 77.5,44.1667 77.5,44.8333 77.5,45.5C 77.5,47.5 77.5,49.5 77.5,51.5C 76.1466,49.8173 74.4799,48.4839 72.5,47.5C 71.9232,45.3484 70.7565,45.015 69,46.5C 68.9822,48.7972 69.1489,51.1305 69.5,53.5C 68.5,54.8333 67.5,54.8333 66.5,53.5C 65.8333,52.5 65.1667,51.5 64.5,50.5C 63.791,49.596 62.791,49.2627 61.5,49.5C 61.5777,52.4867 60.411,53.1534 58,51.5C 56.4228,52.5515 54.9228,53.5515 53.5,54.5C 53.1667,54.5 52.8333,54.5 52.5,54.5C 53.0476,52.6064 54.0476,50.9397 55.5,49.5C 54.132,48.4063 52.9653,48.7397 52,50.5C 51.205,48.0988 50.0383,45.9321 48.5,44C 44.1488,43.5405 42.1488,41.0405 42.5,36.5C 41.5,36.5 40.5,36.5 39.5,36.5C 39.6347,34.4458 38.968,32.7791 37.5,31.5C 38.5676,30.5655 39.901,30.2322 41.5,30.5C 44.1522,30.5905 46.4855,29.9238 48.5,28.5C 49.5,28.5 50.5,28.5 51.5,28.5C 52.8333,28.1667 54.1667,27.8333 55.5,27.5 Z"/></g>
<g><path style="opacity:1" fill="#44a330" d="M 68.5,23.5 C 71.9378,26.4347 75.2711,29.6014 78.5,33C 79.8333,33.3333 81.1667,33.6667 82.5,34C 81.4464,35.3876 81.2797,36.8876 82,38.5C 83.1396,35.9824 84.3063,35.9824 85.5,38.5C 85.5,38.8333 85.5,39.1667 85.5,39.5C 84.1264,39.7921 82.7931,40.1254 81.5,40.5C 80.8333,40.8333 80.1667,41.1667 79.5,41.5C 78.609,40.8902 77.609,40.5569 76.5,40.5C 74.6796,34.0096 70.6796,29.3429 64.5,26.5C 64.8627,25.8165 65.1961,25.1499 65.5,24.5C 66.391,23.8902 67.391,23.5569 68.5,23.5 Z"/></g>
<g><path style="opacity:1" fill="#60aa80" d="M 48.5,28.5 C 46.4855,29.9238 44.1522,30.5905 41.5,30.5C 41.5,30.1667 41.5,29.8333 41.5,29.5C 43.8056,29.0074 46.139,28.6741 48.5,28.5 Z"/></g>
<g><path style="opacity:1" fill="#3ea02c" d="M 137.5,6.5 C 140.167,6.5 142.833,6.5 145.5,6.5C 146.436,9.6301 147.77,12.6301 149.5,15.5C 148.572,16.7678 148.405,18.1011 149,19.5C 154.525,22.038 157.358,26.3714 157.5,32.5C 154.585,32.0874 152.752,30.4207 152,27.5C 151.617,28.056 151.117,28.3893 150.5,28.5C 150.5,28.1667 150.5,27.8333 150.5,27.5C 148.294,21.5916 145.96,15.7582 143.5,10C 141.777,8.25087 139.777,7.0842 137.5,6.5 Z"/></g>
<g><path style="opacity:1" fill="#79b87e" d="M 121.5,24.5 C 121.833,24.5 122.167,24.5 122.5,24.5C 122.629,26.2161 122.962,27.8828 123.5,29.5C 122.508,29.3284 121.842,29.6618 121.5,30.5C 120.288,29.7701 119.288,28.7701 118.5,27.5C 117.334,29.3649 117.667,31.0316 119.5,32.5C 118.998,33.521 118.332,33.6877 117.5,33C 116.139,31.4157 115.472,29.5824 115.5,27.5C 114.5,27.5 113.5,27.5 112.5,27.5C 112.5,27.1667 112.5,26.8333 112.5,26.5C 115.089,25.8727 117.589,25.8727 120,26.5C 121.03,26.1639 121.53,25.4972 121.5,24.5 Z"/></g>
<g><path style="opacity:1" fill="#aed6a7" d="M 14.5,27.5 C 23.3835,29.2617 32.3835,29.9284 41.5,29.5C 41.5,29.8333 41.5,30.1667 41.5,30.5C 39.901,30.2322 38.5676,30.5655 37.5,31.5C 33.8333,31.5 30.1667,31.5 26.5,31.5C 26.1667,31.5 25.8333,31.5 25.5,31.5C 23.3926,30.5318 21.0593,30.1984 18.5,30.5C 18.5,29.8333 18.1667,29.5 17.5,29.5C 16.5,28.8333 15.5,28.1667 14.5,27.5 Z"/></g>
<g><path style="opacity:1" fill="#83bf94" d="M 61.5,24.5 C 61.5,24.8333 61.5,25.1667 61.5,25.5C 59.4214,25.9707 57.4214,26.6373 55.5,27.5C 54.1667,27.8333 52.8333,28.1667 51.5,28.5C 54.309,26.1034 57.6424,24.7701 61.5,24.5 Z"/></g>
<g><path style="opacity:1" fill="#209530" d="M 129.5,6.5 C 130.167,6.5 130.833,6.5 131.5,6.5C 133.5,6.5 135.5,6.5 137.5,6.5C 139.777,7.0842 141.777,8.25087 143.5,10C 145.96,15.7582 148.294,21.5916 150.5,27.5C 147.475,24.5439 144.975,21.2106 143,17.5C 139.339,16.3635 136.506,13.6968 134.5,9.5C 134.709,8.91395 135.043,8.41395 135.5,8C 133.292,7.80912 131.292,7.30912 129.5,6.5 Z"/></g>
<g><path style="opacity:1" fill="#49ac33" d="M 95.5,13.5 C 97.8418,13.7748 97.8418,14.6081 95.5,16C 97.2852,17.1628 99.2852,17.8295 101.5,18C 100.833,18.3333 100.167,18.6667 99.5,19C 100.743,20.1545 101.743,21.4878 102.5,23C 105.561,23.8489 108.228,25.3489 110.5,27.5C 111.183,27.1373 111.85,26.8039 112.5,26.5C 112.5,26.8333 112.5,27.1667 112.5,27.5C 110.401,28.8149 110.067,30.4816 111.5,32.5C 111.443,33.609 111.11,34.609 110.5,35.5C 109.222,35.2178 108.222,34.5511 107.5,33.5C 106.599,31.2729 104.933,30.2729 102.5,30.5C 102.918,29.7784 103.584,29.2784 104.5,29C 103.207,28.51 101.873,28.3433 100.5,28.5C 100.649,27.448 100.483,26.448 100,25.5C 96.6057,23.3938 93.7723,20.7272 91.5,17.5C 89.604,16.5344 87.604,16.2011 85.5,16.5C 86.5,15.8333 87.5,15.1667 88.5,14.5C 90.861,14.3259 93.1944,13.9926 95.5,13.5 Z"/></g>
<g><path style="opacity:1" fill="#26a332" d="M 95.5,13.5 C 95.8417,12.6618 96.5084,12.3284 97.5,12.5C 98.9778,12.238 100.311,12.5713 101.5,13.5C 100.45,15.1017 101.117,15.935 103.5,16C 104.975,18.3092 106.642,20.4759 108.5,22.5C 109.72,23.7111 110.887,23.7111 112,22.5C 112.49,23.7932 112.657,25.1266 112.5,26.5C 111.85,26.8039 111.183,27.1373 110.5,27.5C 108.228,25.3489 105.561,23.8489 102.5,23C 101.743,21.4878 100.743,20.1545 99.5,19C 100.167,18.6667 100.833,18.3333 101.5,18C 99.2852,17.8295 97.2852,17.1628 95.5,16C 97.8418,14.6081 97.8418,13.7748 95.5,13.5 Z"/></g>
<g><path style="opacity:1" fill="#97c777" d="M 81.5,17.5 C 77.5606,20.2436 73.2272,22.2436 68.5,23.5C 67.391,23.5569 66.391,23.8902 65.5,24.5C 64.5084,24.3284 63.8417,24.6618 63.5,25.5C 62.8333,25.5 62.1667,25.5 61.5,25.5C 61.5,25.1667 61.5,24.8333 61.5,24.5C 67.8502,21.4225 74.5168,19.0892 81.5,17.5 Z"/></g>
<g><path style="opacity:1" fill="#99cd7f" d="M 88.5,14.5 C 87.5,15.1667 86.5,15.8333 85.5,16.5C 84.4324,17.4345 83.099,17.7678 81.5,17.5C 83.1852,15.1824 85.5185,14.1824 88.5,14.5 Z"/></g>
<g><path style="opacity:1" fill="#81c483" d="M 103.5,9.5 C 101.5,10.5 99.5,11.5 97.5,12.5C 96.5084,12.3284 95.8417,12.6618 95.5,13.5C 93.1944,13.9926 90.861,14.3259 88.5,14.5C 93.085,11.8605 98.085,10.1938 103.5,9.5 Z"/></g>
<g><path style="opacity:1" fill="#60af36" d="M 131.5,6.5 C 131.5,6.16667 131.5,5.83333 131.5,5.5C 134.833,5.5 138.167,5.5 141.5,5.5C 145.182,5.3347 148.848,5.50137 152.5,6C 154.155,7.44425 154.822,9.27759 154.5,11.5C 154.321,13.9541 154.987,16.1208 156.5,18C 156.333,18.5 156.167,19 156,19.5C 155.107,18.2888 154.274,18.2888 153.5,19.5C 155.307,20.3951 156.64,21.7284 157.5,23.5C 158.432,27.8041 159.765,31.8041 161.5,35.5C 160.391,35.4431 159.391,35.1098 158.5,34.5C 158.672,33.5084 158.338,32.8417 157.5,32.5C 157.358,26.3714 154.525,22.038 149,19.5C 148.405,18.1011 148.572,16.7678 149.5,15.5C 147.77,12.6301 146.436,9.6301 145.5,6.5C 142.833,6.5 140.167,6.5 137.5,6.5C 135.5,6.5 133.5,6.5 131.5,6.5 Z"/></g>
<g><path style="opacity:1" fill="#0a8f37" d="M 110.5,8.5 C 113.71,14.205 118.376,18.3717 124.5,21C 122.937,21.7589 121.937,22.9256 121.5,24.5C 121.53,25.4972 121.03,26.1639 120,26.5C 117.589,25.8727 115.089,25.8727 112.5,26.5C 112.657,25.1266 112.49,23.7932 112,22.5C 110.887,23.7111 109.72,23.7111 108.5,22.5C 106.642,20.4759 104.975,18.3092 103.5,16C 101.117,15.935 100.45,15.1017 101.5,13.5C 100.311,12.5713 98.9778,12.238 97.5,12.5C 99.5,11.5 101.5,10.5 103.5,9.5C 105.861,9.32588 108.194,8.99255 110.5,8.5 Z"/></g>
<g><path style="opacity:1" fill="#088037" d="M 131.5,5.5 C 131.5,5.83333 131.5,6.16667 131.5,6.5C 130.833,6.5 130.167,6.5 129.5,6.5C 128.022,6.23798 126.689,6.57131 125.5,7.5C 126.325,8.38568 127.325,8.71901 128.5,8.5C 128.351,9.55198 128.517,10.552 129,11.5C 130.512,12.2567 131.846,13.2567 133,14.5C 133.167,17.3333 134.667,18.8333 137.5,19C 136.944,19.3826 136.611,19.8826 136.5,20.5C 134.167,20.5 131.833,20.5 129.5,20.5C 129.911,23.5534 130.577,26.5534 131.5,29.5C 130.443,29.9059 129.109,29.9059 127.5,29.5C 126.867,26.8664 125.2,25.1998 122.5,24.5C 122.167,24.5 121.833,24.5 121.5,24.5C 121.937,22.9256 122.937,21.7589 124.5,21C 118.376,18.3717 113.71,14.205 110.5,8.5C 110.5,8.16667 110.5,7.83333 110.5,7.5C 112.379,6.65859 114.379,6.32526 116.5,6.5C 121.473,5.83626 126.473,5.50292 131.5,5.5 Z"/></g>
<g><path style="opacity:1" fill="#6ab686" d="M 110.5,7.5 C 110.5,7.83333 110.5,8.16667 110.5,8.5C 108.194,8.99255 105.861,9.32588 103.5,9.5C 105.515,8.07619 107.848,7.40953 110.5,7.5 Z"/></g>
<g><path style="opacity:1" fill="#d4e7c8" d="M 141.5,5.5 C 141.5,5.16667 141.5,4.83333 141.5,4.5C 145.514,4.33449 149.514,4.50115 153.5,5C 155.438,7.47027 156.604,10.3036 157,13.5C 158,14.1667 159,14.8333 160,15.5C 160.497,17.8098 160.663,20.1432 160.5,22.5C 158.494,18.7974 156.494,15.1307 154.5,11.5C 154.822,9.27759 154.155,7.44425 152.5,6C 148.848,5.50137 145.182,5.3347 141.5,5.5 Z"/></g>
<g><path style="opacity:1" fill="#8ac39d" d="M 141.5,4.5 C 141.5,4.83333 141.5,5.16667 141.5,5.5C 138.167,5.5 134.833,5.5 131.5,5.5C 126.473,5.50292 121.473,5.83626 116.5,6.5C 124.433,4.53163 132.766,3.86496 141.5,4.5 Z"/></g>
<g><path style="opacity:1" fill="#b1d591" d="M 22.5,75.5 C 24.2451,77.0326 25.2451,79.0326 25.5,81.5C 24.8333,81.1667 24.1667,80.8333 23.5,80.5C 23.3713,78.7839 23.038,77.1172 22.5,75.5 Z"/></g>
<g><path style="opacity:1" fill="#5aa668" d="M 75.5,77.5 C 75.2294,79.4305 74.2294,80.7638 72.5,81.5C 71.8333,81.5 71.1667,81.5 70.5,81.5C 70.5,81.1667 70.5,80.8333 70.5,80.5C 72.3325,79.7515 73.9991,78.7515 75.5,77.5 Z"/></g>
<g><path style="opacity:1" fill="#7bb956" d="M 125.5,78.5 C 125.5,79.5 125.5,80.5 125.5,81.5C 121.521,83.2877 117.521,85.2877 113.5,87.5C 116.707,83.5506 120.707,80.5506 125.5,78.5 Z"/></g>
<g><path style="opacity:1" fill="#d1e8c5" d="M 23.5,80.5 C 24.1667,80.8333 24.8333,81.1667 25.5,81.5C 27.4946,85.1321 29.4946,88.7988 31.5,92.5C 27.8681,89.2631 25.2014,85.2631 23.5,80.5 Z"/></g>
<g><path style="opacity:1" fill="#9dc68c" d="M 63.5,78.5 C 64.7403,79.6588 66.0736,80.6588 67.5,81.5C 65.9891,82.5025 64.3224,83.1692 62.5,83.5C 62.1667,82.5 61.5,81.8333 60.5,81.5C 59.5661,79.7615 59.5661,78.0948 60.5,76.5C 61.1667,77.5 61.8333,78.5 62.5,79.5C 63.1067,79.3764 63.44,79.0431 63.5,78.5 Z"/></g>
<g><path style="opacity:1" fill="#9acdad" d="M 161.5,80.5 C 158.207,83.3809 154.54,85.7142 150.5,87.5C 151.29,86.2058 152.29,85.0391 153.5,84C 156.09,82.5549 158.757,81.3882 161.5,80.5 Z"/></g>
<g><path style="opacity:1" fill="#65b32a" d="M 31.5,58.5 C 33.3828,62.2418 35.2161,66.2418 37,70.5C 39.1025,68.6975 39.9358,66.3641 39.5,63.5C 40.3171,65.9686 40.8171,68.6353 41,71.5C 41.4828,70.552 41.6495,69.552 41.5,68.5C 42.552,68.3505 43.552,68.5172 44.5,69C 45.8333,71 47.1667,73 48.5,75C 49.448,75.4828 50.448,75.6495 51.5,75.5C 51.2148,77.288 51.5481,78.9547 52.5,80.5C 56.2507,84.8063 59.084,89.8063 61,95.5C 61.2312,101.371 61.7312,107.204 62.5,113C 62.1171,115.964 61.1171,118.63 59.5,121C 56.7759,121.27 54.1092,121.77 51.5,122.5C 49.1339,121.016 47.8005,121.683 47.5,124.5C 46.3263,123.486 45.6596,122.153 45.5,120.5C 44.6426,117.451 44.6426,114.451 45.5,111.5C 43.0511,109.923 41.0511,107.923 39.5,105.5C 39.3505,104.448 39.5172,103.448 40,102.5C 40.8928,103.711 41.7261,103.711 42.5,102.5C 41.5197,101.019 40.353,99.6853 39,98.5C 38.3333,97.5 38.3333,96.5 39,95.5C 39.8333,96.5 40.6667,97.5 41.5,98.5C 43.0983,97.5153 44.765,97.3486 46.5,98C 48,99.5 49.5,101 51,102.5C 52.3561,101.62 53.8561,101.286 55.5,101.5C 55.7692,99.5714 55.2692,97.9047 54,96.5C 53.6924,97.3081 53.1924,97.9747 52.5,98.5C 50.9042,96.016 50.5709,93.516 51.5,91C 50.5279,88.2184 49.6946,85.385 49,82.5C 46.0769,80.4418 43.9103,77.7751 42.5,74.5C 40.0514,74.02 37.8847,73.02 36,71.5C 35.6667,71.8333 35.3333,72.1667 35,72.5C 32.8909,68.0637 31.7243,63.3971 31.5,58.5 Z"/></g>
<g><path style="opacity:1" fill="#9ecea0" d="M 146.5,89.5 C 143.933,92.3617 140.933,94.695 137.5,96.5C 137.167,96.5 136.833,96.5 136.5,96.5C 137.585,94.4131 139.251,93.0798 141.5,92.5C 142.922,91.075 144.589,90.075 146.5,89.5 Z"/></g>
<g><path style="opacity:1" fill="#b6c8b9" d="M 112.5,87.5 C 109.568,88.7997 107.234,90.7997 105.5,93.5C 100.057,96.3919 94.7235,99.5586 89.5,103C 86.457,103.862 85.457,103.029 86.5,100.5C 87.1667,100.5 87.5,100.167 87.5,99.5C 89.9237,98.9695 92.257,98.1362 94.5,97C 97.5707,94.4816 100.571,91.9816 103.5,89.5C 105.062,89.2671 106.395,88.6005 107.5,87.5C 109.044,87.2969 110.378,86.6302 111.5,85.5C 112.298,85.9569 112.631,86.6236 112.5,87.5 Z"/></g>
<g><path style="opacity:1" fill="#3aa130" d="M 131.5,47.5 C 132.708,48.2341 134.041,48.5674 135.5,48.5C 137.638,54.7911 139.805,61.1244 142,67.5C 142.927,75.0426 142.094,82.376 139.5,89.5C 140.612,90.2652 141.279,91.2652 141.5,92.5C 139.251,93.0798 137.585,94.4131 136.5,96.5C 131.278,100.271 126.278,104.271 121.5,108.5C 118.911,109.419 116.911,111.086 115.5,113.5C 113.596,113.738 112.262,114.738 111.5,116.5C 108.833,118.167 106.167,119.833 103.5,121.5C 102.722,120.844 102.056,120.011 101.5,119C 104.084,110.899 106.084,102.733 107.5,94.5C 107.043,93.7025 106.376,93.3691 105.5,93.5C 107.234,90.7997 109.568,88.7997 112.5,87.5C 112.833,87.5 113.167,87.5 113.5,87.5C 114.832,88.8304 115.665,90.4971 116,92.5C 120.921,96.2335 125.088,95.4001 128.5,90C 129.951,90.2626 131.284,90.0959 132.5,89.5C 133.31,85.9548 134.31,82.4548 135.5,79C 136.613,77.6057 137.947,76.439 139.5,75.5C 140.652,72.8938 140.818,70.2272 140,67.5C 138.933,66.8095 137.766,66.3095 136.5,66C 136.957,65.586 137.291,65.086 137.5,64.5C 136.24,63.6184 135.074,62.6184 134,61.5C 133.548,58.1228 132.882,54.7895 132,51.5C 131.586,51.9574 131.086,52.2907 130.5,52.5C 127.624,50.1081 127.957,48.4414 131.5,47.5 Z"/></g>
<g><path style="opacity:1" fill="#109231" d="M 84.5,99.5 C 83.4271,101.653 83.4271,103.653 84.5,105.5C 83.9423,106.79 82.9423,107.623 81.5,108C 82.1271,109.738 82.4604,111.571 82.5,113.5C 81.8259,120.894 80.8259,128.228 79.5,135.5C 78.7659,136.708 78.4326,138.041 78.5,139.5C 77.391,139.557 76.391,139.89 75.5,140.5C 77.9982,132.892 79.6648,125.059 80.5,117C 80.0726,107.134 78.406,97.3003 75.5,87.5C 71.686,87.3491 70.0193,85.3491 70.5,81.5C 71.1667,81.5 71.8333,81.5 72.5,81.5C 73.8221,81.67 74.9887,81.3366 76,80.5C 77.1396,83.1019 77.9729,85.7686 78.5,88.5C 79.5,88.5 80.5,88.5 81.5,88.5C 81.1229,92.6073 82.1229,96.274 84.5,99.5 Z"/></g>
<g><path style="opacity:1" fill="#cae4c5" d="M 136.5,96.5 C 136.833,96.5 137.167,96.5 137.5,96.5C 132.891,101.471 127.557,105.471 121.5,108.5C 126.278,104.271 131.278,100.271 136.5,96.5 Z"/></g>
<g><path style="opacity:1" fill="#b5d695" d="M 34.5,98.5 C 35.9063,98.9731 36.573,99.9731 36.5,101.5C 35.0937,101.027 34.427,100.027 34.5,98.5 Z"/></g>
<g><path style="opacity:1" fill="#0e8139" d="M 105.5,93.5 C 105.141,95.4846 104.308,96.1513 103,95.5C 102.439,98.2794 101.606,100.946 100.5,103.5C 99.0779,103.75 98.0779,104.583 97.5,106C 97.0574,107.518 97.7241,108.685 99.5,109.5C 98.0211,113.054 96.8545,116.72 96,120.5C 95.4257,122.492 94.259,123.992 92.5,125C 93.305,126.113 93.9717,127.279 94.5,128.5C 93.1667,129.167 92.1667,130.167 91.5,131.5C 89.9731,131.427 88.9731,132.094 88.5,133.5C 86.9731,133.427 85.9731,134.094 85.5,135.5C 83.5956,135.738 82.2623,136.738 81.5,138.5C 80.391,138.557 79.391,138.89 78.5,139.5C 78.4326,138.041 78.7659,136.708 79.5,135.5C 81.2676,133.492 82.9343,131.326 84.5,129C 84.1667,128.667 83.8333,128.333 83.5,128C 84.8565,123.035 86.5232,118.201 88.5,113.5C 87.1413,111.694 87.4746,110.194 89.5,109C 88.1854,107.605 88.5188,106.605 90.5,106C 88.5273,105.505 86.5273,105.338 84.5,105.5C 83.4271,103.653 83.4271,101.653 84.5,99.5C 85.4916,99.3284 86.1583,99.6618 86.5,100.5C 85.457,103.029 86.457,103.862 89.5,103C 94.7235,99.5586 100.057,96.3919 105.5,93.5 Z"/></g>
<g><path style="opacity:1" fill="#3da22e" d="M 62.5,83.5 C 64.825,85.4362 67.4916,86.7695 70.5,87.5C 72.1985,95.4254 74.1985,103.259 76.5,111C 76.0629,116.979 75.2295,123.146 74,129.5C 71.4575,130.876 71.2908,132.043 73.5,133C 72.8333,133.667 72.1667,134.333 71.5,135C 72.4239,135.85 72.4239,136.85 71.5,138C 72.3557,139.595 73.6891,140.428 75.5,140.5C 75.1667,141.167 74.8333,141.833 74.5,142.5C 73.209,142.263 72.209,142.596 71.5,143.5C 68.5902,144.425 65.9236,145.759 63.5,147.5C 61.8828,148.038 60.2161,148.371 58.5,148.5C 56.139,148.674 53.8056,149.007 51.5,149.5C 51.5874,144.463 51.254,139.463 50.5,134.5C 51.4745,135.635 52.6412,136.635 54,137.5C 55.9209,135.119 58.4209,133.619 61.5,133C 63.0488,131.786 64.2155,130.286 65,128.5C 69.2289,114.639 68.5623,100.972 63,87.5C 61.8289,86.1068 60.3289,85.2735 58.5,85C 59.745,84.2086 61.0783,83.7086 62.5,83.5 Z"/></g>
<g><path style="opacity:1" fill="#048933" d="M 84.5,105.5 C 86.5273,105.338 88.5273,105.505 90.5,106C 88.5188,106.605 88.1854,107.605 89.5,109C 87.4746,110.194 87.1413,111.694 88.5,113.5C 86.5232,118.201 84.8565,123.035 83.5,128C 83.8333,128.333 84.1667,128.667 84.5,129C 82.9343,131.326 81.2676,133.492 79.5,135.5C 80.8259,128.228 81.8259,120.894 82.5,113.5C 82.4604,111.571 82.1271,109.738 81.5,108C 82.9423,107.623 83.9423,106.79 84.5,105.5 Z"/></g>
<g><path style="opacity:1" fill="#7cba4c" d="M 38.5,105.5 C 38.8333,105.5 39.1667,105.5 39.5,105.5C 41.0511,107.923 43.0511,109.923 45.5,111.5C 44.6426,114.451 44.6426,117.451 45.5,120.5C 44.6873,118.739 43.6873,117.072 42.5,115.5C 41.7107,111.925 40.3774,108.592 38.5,105.5 Z"/></g>
<g><path style="opacity:1" fill="#b2d7ae" d="M 121.5,108.5 C 120.089,110.914 118.089,112.581 115.5,113.5C 116.911,111.086 118.911,109.419 121.5,108.5 Z"/></g>
<g><path style="opacity:1" fill="#0e8b36" d="M 100.5,103.5 C 101.61,107.503 101.61,111.67 100.5,116C 99.4253,118.51 98.4253,121.01 97.5,123.5C 98.8333,123.5 100.167,123.5 101.5,123.5C 101.5,123.833 101.5,124.167 101.5,124.5C 99.1667,125.833 96.8333,127.167 94.5,128.5C 93.9717,127.279 93.305,126.113 92.5,125C 94.259,123.992 95.4257,122.492 96,120.5C 96.8545,116.72 98.0211,113.054 99.5,109.5C 97.7241,108.685 97.0574,107.518 97.5,106C 98.0779,104.583 99.0779,103.75 100.5,103.5 Z"/></g>
<g><path style="opacity:1" fill="#179431" d="M 105.5,93.5 C 106.376,93.3691 107.043,93.7025 107.5,94.5C 106.084,102.733 104.084,110.899 101.5,119C 102.056,120.011 102.722,120.844 103.5,121.5C 103.167,122.5 102.5,123.167 101.5,123.5C 100.167,123.5 98.8333,123.5 97.5,123.5C 98.4253,121.01 99.4253,118.51 100.5,116C 101.61,111.67 101.61,107.503 100.5,103.5C 101.606,100.946 102.439,98.2794 103,95.5C 104.308,96.1513 105.141,95.4846 105.5,93.5 Z"/></g>
<g><path style="opacity:1" fill="#289b2e" d="M 67.5,81.5 C 68.5,81.5 69.5,81.5 70.5,81.5C 70.0193,85.3491 71.686,87.3491 75.5,87.5C 78.406,97.3003 80.0726,107.134 80.5,117C 79.6648,125.059 77.9982,132.892 75.5,140.5C 73.6891,140.428 72.3557,139.595 71.5,138C 72.4239,136.85 72.4239,135.85 71.5,135C 72.1667,134.333 72.8333,133.667 73.5,133C 71.2908,132.043 71.4575,130.876 74,129.5C 75.2295,123.146 76.0629,116.979 76.5,111C 74.1985,103.259 72.1985,95.4254 70.5,87.5C 67.4916,86.7695 64.825,85.4362 62.5,83.5C 64.3224,83.1692 65.9891,82.5025 67.5,81.5 Z"/></g>
<g><path style="opacity:1" fill="#b8deb6" d="M 111.5,116.5 C 109.037,120.3 105.704,122.967 101.5,124.5C 101.5,124.167 101.5,123.833 101.5,123.5C 102.5,123.167 103.167,122.5 103.5,121.5C 106.167,119.833 108.833,118.167 111.5,116.5 Z"/></g>
<g><path style="opacity:1" fill="#b7dcbc" d="M 101.5,124.5 C 99.1662,128.276 95.8328,130.609 91.5,131.5C 92.1667,130.167 93.1667,129.167 94.5,128.5C 96.8333,127.167 99.1667,125.833 101.5,124.5 Z"/></g>
<g><path style="opacity:1" fill="#92c5a5" d="M 91.5,131.5 C 91.0269,132.906 90.0269,133.573 88.5,133.5C 88.9731,132.094 89.9731,131.427 91.5,131.5 Z"/></g>
<g><path style="opacity:1" fill="#98c4aa" d="M 88.5,133.5 C 88.0269,134.906 87.0269,135.573 85.5,135.5C 85.9731,134.094 86.9731,133.427 88.5,133.5 Z"/></g>
<g><path style="opacity:1" fill="#c6e4cf" d="M 81.5,138.5 C 80.145,141.518 77.8116,142.851 74.5,142.5C 74.8333,141.833 75.1667,141.167 75.5,140.5C 76.391,139.89 77.391,139.557 78.5,139.5C 79.391,138.89 80.391,138.557 81.5,138.5 Z"/></g>
<g><path style="opacity:1" fill="#93c88b" d="M 49.5,133.5 C 50.1667,133.5 50.5,133.833 50.5,134.5C 51.254,139.463 51.5874,144.463 51.5,149.5C 53.8056,149.007 56.139,148.674 58.5,148.5C 56.22,150.223 53.5533,150.889 50.5,150.5C 50.0932,144.839 49.7599,139.172 49.5,133.5 Z"/></g>
<g><path style="opacity:1" fill="#bbddb9" d="M 71.5,143.5 C 69.5182,146.137 66.8515,147.47 63.5,147.5C 65.9236,145.759 68.5902,144.425 71.5,143.5 Z"/></g>
</svg>
