<?xml version="1.0" encoding="UTF-8"?>
<!DOCTYPE svg PUBLIC "-//W3C//DTD SVG 1.1//EN" "http://www.w3.org/Graphics/SVG/1.1/DTD/svg11.dtd">
<svg xmlns="http://www.w3.org/2000/svg" version="1.1" width="64px" height="52px" style="shape-rendering:geometricPrecision; text-rendering:geometricPrecision; image-rendering:optimizeQuality; fill-rule:evenodd; clip-rule:evenodd" xmlns:xlink="http://www.w3.org/1999/xlink">
<g><path style="opacity:0.989" fill="#f5f5f4" d="M -0.5,-0.5 C 20.8333,-0.5 42.1667,-0.5 63.5,-0.5C 63.5,16.8333 63.5,34.1667 63.5,51.5C 42.1667,51.5 20.8333,51.5 -0.5,51.5C -0.5,34.1667 -0.5,16.8333 -0.5,-0.5 Z"/></g>
<g><path style="opacity:1" fill="#47a932" d="M 31.5,4.5 C 35.3324,5.65465 38.3324,7.98799 40.5,11.5C 35.5276,10.5784 30.5276,10.4117 25.5,11C 24.944,11.3826 24.6107,11.8826 24.5,12.5C 24.5,13.1667 24.1667,13.5 23.5,13.5C 22.925,11.5887 21.925,9.92203 20.5,8.5C 23.9503,6.79216 27.617,5.45882 31.5,4.5 Z"/></g>
<g><path style="opacity:1" fill="#1d8a3a" d="M 49.5,2.5 C 48.325,2.28099 47.325,2.61432 46.5,3.5C 48.5448,5.75876 50.2115,8.25876 51.5,11C 51.1639,12.0299 50.4972,12.5299 49.5,12.5C 46.4299,12.6323 43.4299,12.299 40.5,11.5C 38.3324,7.98799 35.3324,5.65465 31.5,4.5C 37.2717,1.51975 43.2717,0.853081 49.5,2.5 Z"/></g>
<g><path style="opacity:1" fill="#1b8a33" d="M 20.5,8.5 C 21.925,9.92203 22.925,11.5887 23.5,13.5C 21.7349,16.7089 19.7349,19.7089 17.5,22.5C 16.3569,22.0919 15.3569,21.4252 14.5,20.5C 12.1414,17.1486 9.80811,13.8153 7.5,10.5C 12.0054,10.7295 16.3387,10.0628 20.5,8.5 Z"/></g>
<g><path style="opacity:1" fill="#e9cb10" d="M 40.5,11.5 C 43.4299,12.299 46.4299,12.6323 49.5,12.5C 50.1667,13.1667 50.8333,13.8333 51.5,14.5C 45.9442,19.9279 41.6109,26.2613 38.5,33.5C 36.5,33.5 34.5,33.5 32.5,33.5C 32.8333,32.8333 33.1667,32.1667 33.5,31.5C 34.1667,31.1667 34.8333,30.8333 35.5,30.5C 40.1127,27.947 41.7793,24.2803 40.5,19.5C 40.6716,18.5084 40.3382,17.8417 39.5,17.5C 36.5063,13.1688 32.5063,11.8354 27.5,13.5C 26.391,13.4431 25.391,13.1098 24.5,12.5C 24.6107,11.8826 24.944,11.3826 25.5,11C 30.5276,10.4117 35.5276,10.5784 40.5,11.5 Z"/></g>
<g><path style="opacity:1" fill="#64b131" d="M 49.5,2.5 C 53.663,8.82047 57.3297,15.4871 60.5,22.5C 60.2528,23.7133 59.5862,24.38 58.5,24.5C 57.2887,21.0743 55.7887,17.741 54,14.5C 53.2303,13.4019 52.397,13.4019 51.5,14.5C 50.8333,13.8333 50.1667,13.1667 49.5,12.5C 50.4972,12.5299 51.1639,12.0299 51.5,11C 50.2115,8.25876 48.5448,5.75876 46.5,3.5C 47.325,2.61432 48.325,2.28099 49.5,2.5 Z"/></g>
<g><path style="opacity:1" fill="#1f3d8c" d="M 39.5,17.5 C 33.7418,17.2729 28.4085,18.6062 23.5,21.5C 23.2776,17.9441 24.6109,15.2774 27.5,13.5C 32.5063,11.8354 36.5063,13.1688 39.5,17.5 Z"/></g>
<g><path style="opacity:1" fill="#789e92" d="M 39.5,17.5 C 40.3382,17.8417 40.6716,18.5084 40.5,19.5C 36.9581,19.1872 33.6248,19.5206 30.5,20.5C 28.0202,21.242 25.6869,22.242 23.5,23.5C 23.5,22.8333 23.5,22.1667 23.5,21.5C 28.4085,18.6062 33.7418,17.2729 39.5,17.5 Z"/></g>
<g><path style="opacity:1" fill="#d0a70e" d="M 24.5,12.5 C 25.391,13.1098 26.391,13.4431 27.5,13.5C 24.6109,15.2774 23.2776,17.9441 23.5,21.5C 23.5,22.1667 23.5,22.8333 23.5,23.5C 24.9132,28.5428 28.2466,31.2094 33.5,31.5C 33.1667,32.1667 32.8333,32.8333 32.5,33.5C 30.1667,33.5 27.8333,33.5 25.5,33.5C 25.5,32.1667 25.5,30.8333 25.5,29.5C 24.5,29.5 23.5,29.5 22.5,29.5C 21.6837,26.8927 20.0171,24.8927 17.5,23.5C 17.5,23.1667 17.5,22.8333 17.5,22.5C 19.7349,19.7089 21.7349,16.7089 23.5,13.5C 24.1667,13.5 24.5,13.1667 24.5,12.5 Z"/></g>
<g><path style="opacity:1" fill="#1f2478" d="M 30.5,20.5 C 33.2763,20.0889 33.943,20.9223 32.5,23C 34.1997,25.2309 35.1997,27.7309 35.5,30.5C 34.8333,30.8333 34.1667,31.1667 33.5,31.5C 28.2466,31.2094 24.9132,28.5428 23.5,23.5C 25.6869,22.242 28.0202,21.242 30.5,20.5 Z"/></g>
<g><path style="opacity:1" fill="#2a509a" d="M 30.5,20.5 C 33.6248,19.5206 36.9581,19.1872 40.5,19.5C 41.7793,24.2803 40.1127,27.947 35.5,30.5C 35.1997,27.7309 34.1997,25.2309 32.5,23C 33.943,20.9223 33.2763,20.0889 30.5,20.5 Z"/></g>
<g><path style="opacity:1" fill="#e8c602" d="M 17.5,23.5 C 20.0171,24.8927 21.6837,26.8927 22.5,29.5C 23.5,29.5 24.5,29.5 25.5,29.5C 25.5,30.8333 25.5,32.1667 25.5,33.5C 20.8044,33.2443 16.471,31.911 12.5,29.5C 14.2194,27.4559 15.8861,25.4559 17.5,23.5 Z"/></g>
<g><path style="opacity:1" fill="#309933" d="M 58.5,24.5 C 48.539,29.9383 39.2057,36.4383 30.5,44C 27.9679,45.7653 25.3013,47.2653 22.5,48.5C 23.9757,44.041 24.6424,39.3743 24.5,34.5C 29.3633,34.8195 34.03,34.4861 38.5,33.5C 41.6109,26.2613 45.9442,19.9279 51.5,14.5C 52.397,13.4019 53.2303,13.4019 54,14.5C 55.7887,17.741 57.2887,21.0743 58.5,24.5 Z"/></g>
<g><path style="opacity:1" fill="#5faf2e" d="M 7.5,10.5 C 9.80811,13.8153 12.1414,17.1486 14.5,20.5C 15.3569,21.4252 16.3569,22.0919 17.5,22.5C 17.5,22.8333 17.5,23.1667 17.5,23.5C 15.8861,25.4559 14.2194,27.4559 12.5,29.5C 16.471,31.911 20.8044,33.2443 25.5,33.5C 27.8333,33.5 30.1667,33.5 32.5,33.5C 34.5,33.5 36.5,33.5 38.5,33.5C 34.03,34.4861 29.3633,34.8195 24.5,34.5C 24.6424,39.3743 23.9757,44.041 22.5,48.5C 20.2986,49.5664 17.9653,50.233 15.5,50.5C 15.7367,46.7267 15.2367,43.0601 14,39.5C 9.53135,32.2289 5.86468,24.5623 3,16.5C 2.18591,14.0982 2.35258,11.7649 3.5,9.5C 4.73619,10.2458 6.06953,10.5792 7.5,10.5 Z"/></g>
</svg>
