<?xml version="1.0" encoding="UTF-8"?>
<!DOCTYPE svg PUBLIC "-//W3C//DTD SVG 1.1//EN" "http://www.w3.org/Graphics/SVG/1.1/DTD/svg11.dtd">
<svg xmlns="http://www.w3.org/2000/svg" version="1.1" width="64px" height="52px" style="shape-rendering:geometricPrecision; text-rendering:geometricPrecision; image-rendering:optimizeQuality; fill-rule:evenodd; clip-rule:evenodd" xmlns:xlink="http://www.w3.org/1999/xlink">
<g><path style="opacity:0.985" fill="#f4f3f2" d="M -0.5,-0.5 C 19.8333,-0.5 40.1667,-0.5 60.5,-0.5C 60.7912,5.92302 60.4578,12.2564 59.5,18.5C 58.8333,17.8333 58.1667,17.1667 57.5,16.5C 56.1667,14.1667 54.8333,11.8333 53.5,9.5C 51.8196,7.47257 50.6529,5.13923 50,2.5C 48.6439,1.61983 47.1439,1.28649 45.5,1.5C 41.9581,1.18723 38.6248,1.52056 35.5,2.5C 29.4671,3.7315 23.8004,5.7315 18.5,8.5C 16.8828,9.038 15.2161,9.37133 13.5,9.5C 10.5,9.5 7.5,9.5 4.5,9.5C 4.2648,8.90326 3.7648,8.56993 3,8.5C 1.8261,9.54417 0.659436,10.5442 -0.5,11.5C -0.5,7.5 -0.5,3.5 -0.5,-0.5 Z"/></g>
<g><path style="opacity:1" fill="#121110" d="M 45.5,1.5 C 47.2723,3.94128 48.6056,6.60795 49.5,9.5C 47.5,9.5 45.5,9.5 43.5,9.5C 40.2358,7.90587 37.5691,5.57253 35.5,2.5C 38.6248,1.52056 41.9581,1.18723 45.5,1.5 Z"/></g>
<g><path style="opacity:1" fill="#5c534f" d="M 45.5,1.5 C 47.1439,1.28649 48.6439,1.61983 50,2.5C 50.6529,5.13923 51.8196,7.47257 53.5,9.5C 52.5,9.5 51.5,9.5 50.5,9.5C 50.1667,9.5 49.8333,9.5 49.5,9.5C 48.6056,6.60795 47.2723,3.94128 45.5,1.5 Z"/></g>
<g><path style="opacity:1" fill="#615e5d" d="M 35.5,2.5 C 37.5691,5.57253 40.2358,7.90587 43.5,9.5C 41.5,10.5 39.5,11.5 37.5,12.5C 34.5152,13.3257 31.8485,14.659 29.5,16.5C 29.1667,16.5 28.8333,16.5 28.5,16.5C 26.0063,12.6616 22.673,9.99493 18.5,8.5C 23.8004,5.7315 29.4671,3.7315 35.5,2.5 Z"/></g>
<g><path style="opacity:1" fill="#171615" d="M 18.5,8.5 C 22.673,9.99493 26.0063,12.6616 28.5,16.5C 24.4773,19.0128 20.1439,20.6795 15.5,21.5C 14.207,20.158 13.3736,18.4913 13,16.5C 11.8904,14.9632 10.3904,14.2965 8.5,14.5C 8.5,13.1667 8.5,11.8333 8.5,10.5C 10.4147,10.7845 12.0813,10.4511 13.5,9.5C 15.2161,9.37133 16.8828,9.038 18.5,8.5 Z"/></g>
<g><path style="opacity:1" fill="#747371" d="M 4.5,9.5 C 7.5,9.5 10.5,9.5 13.5,9.5C 12.0813,10.4511 10.4147,10.7845 8.5,10.5C 7.35089,10.7911 6.68423,11.6244 6.5,13C 6.66667,13.8333 6.83333,14.6667 7,15.5C 9.17923,17.3482 11.0126,19.5148 12.5,22C 10.1902,22.4966 7.85684,22.6633 5.5,22.5C 3.82991,19.6519 2.82991,16.4853 2.5,13C 2.60826,11.3189 3.27493,10.1522 4.5,9.5 Z"/></g>
<g><path style="opacity:0.989" fill="#f5f4f1" d="M 4.5,9.5 C 3.27493,10.1522 2.60826,11.3189 2.5,13C 2.82991,16.4853 3.82991,19.6519 5.5,22.5C 5.5,22.8333 5.5,23.1667 5.5,23.5C 7.5,27.5 9.5,31.5 11.5,35.5C 14.2475,39.7448 15.5809,44.4115 15.5,49.5C 16.8333,49.5 18.1667,49.5 19.5,49.5C 17.8333,50.1667 16.1667,50.8333 14.5,51.5C 9.5,51.5 4.5,51.5 -0.5,51.5C -0.5,38.1667 -0.5,24.8333 -0.5,11.5C 0.659436,10.5442 1.8261,9.54417 3,8.5C 3.7648,8.56993 4.2648,8.90326 4.5,9.5 Z"/></g>
<g><path style="opacity:1" fill="#ae0704" d="M 43.5,9.5 C 45.5,9.5 47.5,9.5 49.5,9.5C 49.8333,9.5 50.1667,9.5 50.5,9.5C 51.063,12.2948 52.3963,14.6282 54.5,16.5C 51.6027,17.129 48.936,18.129 46.5,19.5C 45.8333,19.5 45.1667,19.5 44.5,19.5C 43.8669,15.5335 41.5336,13.2001 37.5,12.5C 39.5,11.5 41.5,10.5 43.5,9.5 Z"/></g>
<g><path style="opacity:1" fill="#d91d12" d="M 50.5,9.5 C 51.5,9.5 52.5,9.5 53.5,9.5C 54.8333,11.8333 56.1667,14.1667 57.5,16.5C 56.5,16.5 55.5,16.5 54.5,16.5C 52.3963,14.6282 51.063,12.2948 50.5,9.5 Z"/></g>
<g><path style="opacity:1" fill="#605654" d="M 8.5,10.5 C 8.5,11.8333 8.5,13.1667 8.5,14.5C 10.3904,14.2965 11.8904,14.9632 13,16.5C 13.3736,18.4913 14.207,20.158 15.5,21.5C 15.5,21.8333 15.5,22.1667 15.5,22.5C 12.2356,23.3242 8.90227,23.6576 5.5,23.5C 5.5,23.1667 5.5,22.8333 5.5,22.5C 7.85684,22.6633 10.1902,22.4966 12.5,22C 11.0126,19.5148 9.17923,17.3482 7,15.5C 6.83333,14.6667 6.66667,13.8333 6.5,13C 6.68423,11.6244 7.35089,10.7911 8.5,10.5 Z"/></g>
<g><path style="opacity:1" fill="#d80b0e" d="M 37.5,12.5 C 41.5336,13.2001 43.8669,15.5335 44.5,19.5C 41.1667,21.8333 37.8333,24.1667 34.5,26.5C 34.1667,26.5 33.8333,26.5 33.5,26.5C 32.3656,23.0989 31.0323,19.7656 29.5,16.5C 31.8485,14.659 34.5152,13.3257 37.5,12.5 Z"/></g>
<g><path style="opacity:1" fill="#cba00f" d="M 54.5,16.5 C 53.1667,19.5 53.1667,22.5 54.5,25.5C 52.8185,27.0075 50.8185,28.0075 48.5,28.5C 49.0545,24.9878 48.3878,21.9878 46.5,19.5C 48.936,18.129 51.6027,17.129 54.5,16.5 Z"/></g>
<g><path style="opacity:1" fill="#ae0904" d="M 28.5,16.5 C 28.8333,16.5 29.1667,16.5 29.5,16.5C 31.0323,19.7656 32.3656,23.0989 33.5,26.5C 30.5165,29.3258 27.1832,31.6591 23.5,33.5C 23.1667,33.5 22.8333,33.5 22.5,33.5C 21.153,29.7882 19.8196,26.1216 18.5,22.5C 17.5,22.5 16.5,22.5 15.5,22.5C 15.5,22.1667 15.5,21.8333 15.5,21.5C 20.1439,20.6795 24.4773,19.0128 28.5,16.5 Z"/></g>
<g><path style="opacity:1" fill="#e8c417" d="M 54.5,16.5 C 55.5,16.5 56.5,16.5 57.5,16.5C 58.1667,17.1667 58.8333,17.8333 59.5,18.5C 60.1495,20.4352 60.4828,22.4352 60.5,24.5C 58.4352,24.5172 56.4352,24.8505 54.5,25.5C 53.1667,22.5 53.1667,19.5 54.5,16.5 Z"/></g>
<g><path style="opacity:1" fill="#df0d11" d="M 15.5,22.5 C 16.5,22.5 17.5,22.5 18.5,22.5C 19.8196,26.1216 21.153,29.7882 22.5,33.5C 19.0388,35.0911 15.3721,35.7578 11.5,35.5C 9.5,31.5 7.5,27.5 5.5,23.5C 8.90227,23.6576 12.2356,23.3242 15.5,22.5 Z"/></g>
<g><path style="opacity:0.995" fill="#f6f6f6" d="M 60.5,-0.5 C 61.5,-0.5 62.5,-0.5 63.5,-0.5C 63.5,16.8333 63.5,34.1667 63.5,51.5C 47.1667,51.5 30.8333,51.5 14.5,51.5C 16.1667,50.8333 17.8333,50.1667 19.5,49.5C 20.6715,48.6554 22.0048,47.9887 23.5,47.5C 26.672,45.7481 29.672,43.7481 32.5,41.5C 37.8579,37.1366 43.1912,32.8032 48.5,28.5C 50.8185,28.0075 52.8185,27.0075 54.5,25.5C 56.4352,24.8505 58.4352,24.5172 60.5,24.5C 60.4828,22.4352 60.1495,20.4352 59.5,18.5C 60.4578,12.2564 60.7912,5.92302 60.5,-0.5 Z"/></g>
<g><path style="opacity:1" fill="#eac60b" d="M 44.5,19.5 C 45.1667,19.5 45.8333,19.5 46.5,19.5C 48.3878,21.9878 49.0545,24.9878 48.5,28.5C 43.1912,32.8032 37.8579,37.1366 32.5,41.5C 33.1667,36.5 33.8333,31.5 34.5,26.5C 37.8333,24.1667 41.1667,21.8333 44.5,19.5 Z"/></g>
<g><path style="opacity:1" fill="#cea407" d="M 33.5,26.5 C 33.8333,26.5 34.1667,26.5 34.5,26.5C 33.8333,31.5 33.1667,36.5 32.5,41.5C 29.672,43.7481 26.672,45.7481 23.5,47.5C 24.0282,44.3331 24.6949,41.1664 25.5,38C 25.4313,36.0145 24.7647,34.5145 23.5,33.5C 27.1832,31.6591 30.5165,29.3258 33.5,26.5 Z"/></g>
<g><path style="opacity:1" fill="#eac60b" d="M 22.5,33.5 C 22.8333,33.5 23.1667,33.5 23.5,33.5C 24.7647,34.5145 25.4313,36.0145 25.5,38C 24.6949,41.1664 24.0282,44.3331 23.5,47.5C 22.0048,47.9887 20.6715,48.6554 19.5,49.5C 18.1667,49.5 16.8333,49.5 15.5,49.5C 15.5809,44.4115 14.2475,39.7448 11.5,35.5C 15.3721,35.7578 19.0388,35.0911 22.5,33.5 Z"/></g>
</svg>
