<?xml version="1.0" encoding="UTF-8"?>
<!DOCTYPE svg PUBLIC "-//W3C//DTD SVG 1.1//EN" "http://www.w3.org/Graphics/SVG/1.1/DTD/svg11.dtd">
<svg xmlns="http://www.w3.org/2000/svg" version="1.1" width="64px" height="52px" style="shape-rendering:geometricPrecision; text-rendering:geometricPrecision; image-rendering:optimizeQuality; fill-rule:evenodd; clip-rule:evenodd" xmlns:xlink="http://www.w3.org/1999/xlink">
<g><path style="opacity:0.987" fill="#f5f3f3" d="M -0.5,-0.5 C 15.5,-0.5 31.5,-0.5 47.5,-0.5C 45.1667,0.166667 42.8333,0.833333 40.5,1.5C 35.8354,2.0569 31.5021,3.39024 27.5,5.5C 24.8427,5.93482 22.5093,6.93482 20.5,8.5C 16.8993,9.46333 13.2326,10.13 9.5,10.5C 7.70848,10.634 6.04181,10.3007 4.5,9.5C 4.44001,8.95691 4.10667,8.62358 3.5,8.5C 2.20308,10.9732 2.20308,13.3066 3.5,15.5C 3.62867,17.2161 3.962,18.8828 4.5,20.5C 7.07038,27.3106 10.4037,33.6439 14.5,39.5C 14.8333,41.5 15.1667,43.5 15.5,45.5C 15.0773,47.7812 15.744,49.4479 17.5,50.5C 17.5,50.8333 17.5,51.1667 17.5,51.5C 11.5,51.5 5.5,51.5 -0.5,51.5C -0.5,34.1667 -0.5,16.8333 -0.5,-0.5 Z"/></g>
<g><path style="opacity:1" fill="#b3100a" d="M 40.5,1.5 C 43.8984,1.17964 47.2317,1.51298 50.5,2.5C 51.1744,4.19548 51.8411,5.86215 52.5,7.5C 47.1059,7.12417 42.1059,8.12417 37.5,10.5C 37.1667,10.5 36.8333,10.5 36.5,10.5C 36.5,9.16667 36.5,7.83333 36.5,6.5C 33.5176,6.03714 30.5176,5.70381 27.5,5.5C 31.5021,3.39024 35.8354,2.0569 40.5,1.5 Z"/></g>
<g><path style="opacity:1" fill="#d80a0f" d="M 27.5,5.5 C 30.5176,5.70381 33.5176,6.03714 36.5,6.5C 36.5,7.83333 36.5,9.16667 36.5,10.5C 34.0462,11.2271 31.7128,12.2271 29.5,13.5C 28.609,14.1098 27.609,14.4431 26.5,14.5C 24.1112,12.7779 22.1112,10.7779 20.5,8.5C 22.5093,6.93482 24.8427,5.93482 27.5,5.5 Z"/></g>
<g><path style="opacity:1" fill="#cda001" d="M 52.5,7.5 C 51.2825,8.16145 49.9492,8.82811 48.5,9.5C 50.956,12.1713 52.6227,15.1713 53.5,18.5C 51.5739,19.4861 49.5739,20.4861 47.5,21.5C 46.2611,18.4111 44.7611,15.4111 43,12.5C 41.5557,10.8446 39.7224,10.178 37.5,10.5C 42.1059,8.12417 47.1059,7.12417 52.5,7.5 Z"/></g>
<g><path style="opacity:1" fill="#eb787d" d="M 4.5,9.5 C 3.53862,11.2646 3.20528,13.2646 3.5,15.5C 2.20308,13.3066 2.20308,10.9732 3.5,8.5C 4.10667,8.62358 4.44001,8.95691 4.5,9.5 Z"/></g>
<g><path style="opacity:1" fill="#dc1210" d="M 4.5,9.5 C 6.04181,10.3007 7.70848,10.634 9.5,10.5C 11.3568,13.4136 13.0235,16.4136 14.5,19.5C 14.5,19.8333 14.5,20.1667 14.5,20.5C 11.1667,20.5 7.83333,20.5 4.5,20.5C 3.962,18.8828 3.62867,17.2161 3.5,15.5C 3.20528,13.2646 3.53862,11.2646 4.5,9.5 Z"/></g>
<g><path style="opacity:1" fill="#ae0903" d="M 20.5,8.5 C 22.1112,10.7779 24.1112,12.7779 26.5,14.5C 23.0169,17.2367 19.0169,18.9034 14.5,19.5C 13.0235,16.4136 11.3568,13.4136 9.5,10.5C 13.2326,10.13 16.8993,9.46333 20.5,8.5 Z"/></g>
<g><path style="opacity:1" fill="#e4c00f" d="M 52.5,7.5 C 55.2781,10.7214 57.2781,14.3881 58.5,18.5C 56.8333,18.5 55.1667,18.5 53.5,18.5C 52.6227,15.1713 50.956,12.1713 48.5,9.5C 49.9492,8.82811 51.2825,8.16145 52.5,7.5 Z"/></g>
<g><path style="opacity:1" fill="#d0a30b" d="M 29.5,13.5 C 29.3505,14.552 29.5172,15.552 30,16.5C 32.698,20.0247 35.5314,23.3581 38.5,26.5C 35.1967,30.1558 31.1967,32.8225 26.5,34.5C 26.1667,34.5 25.8333,34.5 25.5,34.5C 25.5,33.1667 24.8333,32.5 23.5,32.5C 23.5,32.1667 23.5,31.8333 23.5,31.5C 23.3691,30.6236 23.7025,29.9569 24.5,29.5C 26.8026,31.7395 29.136,31.7395 31.5,29.5C 32.9953,29.5852 33.9953,28.9185 34.5,27.5C 33.4074,24.3117 31.574,21.645 29,19.5C 28.6924,20.3081 28.1924,20.9747 27.5,21.5C 25.0738,18.0434 22.7405,18.3767 20.5,22.5C 20.9569,23.2975 21.6236,23.6309 22.5,23.5C 21.2086,24.4728 21.2086,25.4728 22.5,26.5C 22.0431,27.2975 21.3764,27.6309 20.5,27.5C 19.1905,24.5492 17.1905,22.2159 14.5,20.5C 14.5,20.1667 14.5,19.8333 14.5,19.5C 19.0169,18.9034 23.0169,17.2367 26.5,14.5C 27.609,14.4431 28.609,14.1098 29.5,13.5 Z"/></g>
<g><path style="opacity:1" fill="#f5d701" d="M 36.5,10.5 C 36.8333,10.5 37.1667,10.5 37.5,10.5C 39.7224,10.178 41.5557,10.8446 43,12.5C 44.7611,15.4111 46.2611,18.4111 47.5,21.5C 44.3116,22.9252 41.3116,24.5919 38.5,26.5C 35.5314,23.3581 32.698,20.0247 30,16.5C 29.5172,15.552 29.3505,14.552 29.5,13.5C 31.7128,12.2271 34.0462,11.2271 36.5,10.5 Z"/></g>
<g><path style="opacity:1" fill="#ad6721" d="M 31.5,29.5 C 31.2942,27.4508 30.4609,27.1175 29,28.5C 28.5172,27.552 28.3505,26.552 28.5,25.5C 29.5345,23.183 28.5345,22.183 25.5,22.5C 24.391,22.5569 23.391,22.8902 22.5,23.5C 21.6236,23.6309 20.9569,23.2975 20.5,22.5C 22.7405,18.3767 25.0738,18.0434 27.5,21.5C 28.1924,20.9747 28.6924,20.3081 29,19.5C 31.574,21.645 33.4074,24.3117 34.5,27.5C 33.9953,28.9185 32.9953,29.5852 31.5,29.5 Z"/></g>
<g><path style="opacity:1" fill="#a93768" d="M 25.5,22.5 C 28.5345,22.183 29.5345,23.183 28.5,25.5C 27.7784,25.9175 27.2784,26.5842 27,27.5C 25.9914,25.9751 25.4914,24.3084 25.5,22.5 Z"/></g>
<g><path style="opacity:0.992" fill="#f5f4f4" d="M 47.5,-0.5 C 52.8333,-0.5 58.1667,-0.5 63.5,-0.5C 63.5,16.8333 63.5,34.1667 63.5,51.5C 48.1667,51.5 32.8333,51.5 17.5,51.5C 17.5,51.1667 17.5,50.8333 17.5,50.5C 18.1667,50.5 18.5,50.1667 18.5,49.5C 22.1337,48.7077 25.4671,47.2077 28.5,45C 36.5,39 44.5,33 52.5,27C 55.022,25.6591 57.6887,24.8257 60.5,24.5C 60.9465,21.9899 60.2798,19.9899 58.5,18.5C 57.2781,14.3881 55.2781,10.7214 52.5,7.5C 51.8411,5.86215 51.1744,4.19548 50.5,2.5C 47.2317,1.51298 43.8984,1.17964 40.5,1.5C 42.8333,0.833333 45.1667,0.166667 47.5,-0.5 Z"/></g>
<g><path style="opacity:1" fill="#ad511a" d="M 25.5,22.5 C 25.4914,24.3084 25.9914,25.9751 27,27.5C 27.2784,26.5842 27.7784,25.9175 28.5,25.5C 28.3505,26.552 28.5172,27.552 29,28.5C 30.4609,27.1175 31.2942,27.4508 31.5,29.5C 29.136,31.7395 26.8026,31.7395 24.5,29.5C 23.7025,29.9569 23.3691,30.6236 23.5,31.5C 21.5544,30.9653 20.5544,29.632 20.5,27.5C 21.3764,27.6309 22.0431,27.2975 22.5,26.5C 21.2086,25.4728 21.2086,24.4728 22.5,23.5C 23.391,22.8902 24.391,22.5569 25.5,22.5 Z"/></g>
<g><path style="opacity:1" fill="#f5da0a" d="M 4.5,20.5 C 7.83333,20.5 11.1667,20.5 14.5,20.5C 17.1905,22.2159 19.1905,24.5492 20.5,27.5C 20.5544,29.632 21.5544,30.9653 23.5,31.5C 23.5,31.8333 23.5,32.1667 23.5,32.5C 24.8333,32.5 25.5,33.1667 25.5,34.5C 25.8333,34.5 26.1667,34.5 26.5,34.5C 23.0484,37.2184 19.0484,38.8851 14.5,39.5C 10.4037,33.6439 7.07038,27.3106 4.5,20.5 Z"/></g>
<g><path style="opacity:1" fill="#567478" d="M 23.5,32.5 C 24.8333,32.5 25.5,33.1667 25.5,34.5C 24.1667,34.5 23.5,33.8333 23.5,32.5 Z"/></g>
<g><path style="opacity:1" fill="#c00e0b" d="M 53.5,18.5 C 55.1667,18.5 56.8333,18.5 58.5,18.5C 60.2798,19.9899 60.9465,21.9899 60.5,24.5C 57.6887,24.8257 55.022,25.6591 52.5,27C 44.5,33 36.5,39 28.5,45C 25.4671,47.2077 22.1337,48.7077 18.5,49.5C 17.0221,48.5525 16.0221,47.2191 15.5,45.5C 15.1667,43.5 14.8333,41.5 14.5,39.5C 19.0484,38.8851 23.0484,37.2184 26.5,34.5C 31.1967,32.8225 35.1967,30.1558 38.5,26.5C 41.3116,24.5919 44.3116,22.9252 47.5,21.5C 49.5739,20.4861 51.5739,19.4861 53.5,18.5 Z"/></g>
<g><path style="opacity:1" fill="#dd7376" d="M 15.5,45.5 C 16.0221,47.2191 17.0221,48.5525 18.5,49.5C 18.5,50.1667 18.1667,50.5 17.5,50.5C 15.744,49.4479 15.0773,47.7812 15.5,45.5 Z"/></g>
</svg>
