<?xml version="1.0" encoding="UTF-8"?>
<!DOCTYPE svg PUBLIC "-//W3C//DTD SVG 1.1//EN" "http://www.w3.org/Graphics/SVG/1.1/DTD/svg11.dtd">
<svg xmlns="http://www.w3.org/2000/svg" version="1.1" width="64px" height="52px" style="shape-rendering:geometricPrecision; text-rendering:geometricPrecision; image-rendering:optimizeQuality; fill-rule:evenodd; clip-rule:evenodd" xmlns:xlink="http://www.w3.org/1999/xlink">
<g><path style="opacity:0.99" fill="#f4f4f4" d="M -0.5,-0.5 C 20.8333,-0.5 42.1667,-0.5 63.5,-0.5C 63.5,16.8333 63.5,34.1667 63.5,51.5C 42.1667,51.5 20.8333,51.5 -0.5,51.5C -0.5,34.1667 -0.5,16.8333 -0.5,-0.5 Z"/></g>
<g><path style="opacity:1" fill="#ae1009" d="M 49.5,2.5 C 48.1266,2.34332 46.7932,2.50999 45.5,3C 46.7875,4.40952 47.9542,5.90952 49,7.5C 51.1317,13.4245 52.965,19.4245 54.5,25.5C 51.8695,27.1526 49.2028,28.8193 46.5,30.5C 46.9587,25.1518 46.292,19.9851 44.5,15C 41.1528,11.9858 38.1528,8.65246 35.5,5C 34.5632,4.30831 33.8966,4.47498 33.5,5.5C 32.475,5.10343 32.3083,4.43677 33,3.5C 34.0674,2.80945 35.2341,2.30945 36.5,2C 41.0204,1.18636 45.3537,1.35303 49.5,2.5 Z"/></g>
<g><path style="opacity:1" fill="#c6c6c9" d="M 15.5,9.5 C 16.5676,8.56552 17.901,8.23219 19.5,8.5C 18.6971,9.42317 18.5304,10.4232 19,11.5C 20.1475,10.5419 21.1475,10.8753 22,12.5C 24.6364,16.4792 27.3031,20.4792 30,24.5C 31.3507,30.0716 31.8507,35.7383 31.5,41.5C 31.5,42.1667 31.1667,42.5 30.5,42.5C 30.6488,39.3926 30.1488,36.3926 29,33.5C 24.7116,26.2174 20.8782,18.7174 17.5,11C 17.1639,9.97008 16.4972,9.47008 15.5,9.5 Z"/></g>
<g><path style="opacity:1" fill="#d01212" d="M 49.5,2.5 C 53.4088,9.31549 57.0755,16.3155 60.5,23.5C 58.5891,24.4767 56.5891,25.1433 54.5,25.5C 52.965,19.4245 51.1317,13.4245 49,7.5C 47.9542,5.90952 46.7875,4.40952 45.5,3C 46.7932,2.50999 48.1266,2.34332 49.5,2.5 Z"/></g>
<g><path style="opacity:1" fill="#0e287c" d="M 15.5,9.5 C 16.4972,9.47008 17.1639,9.97008 17.5,11C 20.8782,18.7174 24.7116,26.2174 29,33.5C 30.1488,36.3926 30.6488,39.3926 30.5,42.5C 28.7952,44.1921 26.7952,45.5254 24.5,46.5C 24.9504,40.9742 24.4504,35.3076 23,29.5C 17.6043,23.9393 12.771,17.9393 8.5,11.5C 9.49162,11.6716 10.1583,11.3382 10.5,10.5C 12.2161,10.3713 13.8828,10.038 15.5,9.5 Z"/></g>
<g><path style="opacity:1" fill="#e5e5e4" d="M 19.5,8.5 C 24.0849,12.5159 28.9182,16.1826 34,19.5C 35.7831,22.3435 37.2831,25.3435 38.5,28.5C 39.8498,27.0499 41.5165,26.3832 43.5,26.5C 44.1429,28.0764 45.1429,29.4097 46.5,30.5C 41.7861,34.5458 36.7861,38.2125 31.5,41.5C 31.8507,35.7383 31.3507,30.0716 30,24.5C 27.3031,20.4792 24.6364,16.4792 22,12.5C 21.1475,10.8753 20.1475,10.5419 19,11.5C 18.5304,10.4232 18.6971,9.42317 19.5,8.5 Z"/></g>
<g><path style="opacity:1" fill="#043a8d" d="M 8.5,11.5 C 12.771,17.9393 17.6043,23.9393 23,29.5C 24.4504,35.3076 24.9504,40.9742 24.5,46.5C 21.9164,48.4725 18.9164,49.4725 15.5,49.5C 15.5,48.1667 15.5,46.8333 15.5,45.5C 17.3264,44.3402 18.6597,42.1735 19.5,39C 19.1289,36.1443 18.6289,33.3109 18,30.5C 15.0807,24.3225 11.4141,18.6559 7,13.5C 6.47189,12.184 6.97189,11.5173 8.5,11.5 Z"/></g>
<g><path style="opacity:1" fill="#064a9d" d="M 10.5,10.5 C 10.1583,11.3382 9.49162,11.6716 8.5,11.5C 6.97189,11.5173 6.47189,12.184 7,13.5C 11.4141,18.6559 15.0807,24.3225 18,30.5C 18.6289,33.3109 19.1289,36.1443 19.5,39C 18.6597,42.1735 17.3264,44.3402 15.5,45.5C 11.6466,36.1183 7.47989,26.7849 3,17.5C 2.1816,14.7728 2.34827,12.1062 3.5,9.5C 5.7466,10.3742 8.07994,10.7076 10.5,10.5 Z"/></g>
<g><path style="opacity:1" fill="#c50b0c" d="M 46.5,30.5 C 45.1429,29.4097 44.1429,28.0764 43.5,26.5C 40.9226,21.4059 38.0892,16.4059 35,11.5C 34.187,9.56429 33.687,7.56429 33.5,5.5C 33.8966,4.47498 34.5632,4.30831 35.5,5C 38.1528,8.65246 41.1528,11.9858 44.5,15C 46.292,19.9851 46.9587,25.1518 46.5,30.5 Z"/></g>
</svg>
