<?xml version="1.0" encoding="UTF-8"?>
<!DOCTYPE svg PUBLIC "-//W3C//DTD SVG 1.1//EN" "http://www.w3.org/Graphics/SVG/1.1/DTD/svg11.dtd">
<svg xmlns="http://www.w3.org/2000/svg" version="1.1" width="64px" height="52px" style="shape-rendering:geometricPrecision; text-rendering:geometricPrecision; image-rendering:optimizeQuality; fill-rule:evenodd; clip-rule:evenodd" xmlns:xlink="http://www.w3.org/1999/xlink">
<g><path style="opacity:0.99" fill="#f3f3f4" d="M -0.5,-0.5 C 20.8333,-0.5 42.1667,-0.5 63.5,-0.5C 63.5,16.8333 63.5,34.1667 63.5,51.5C 42.1667,51.5 20.8333,51.5 -0.5,51.5C -0.5,34.1667 -0.5,16.8333 -0.5,-0.5 Z"/></g>
<g><path style="opacity:1" fill="#212b80" d="M 52.5,4.5 C 49.8333,5.16667 47.1667,5.83333 44.5,6.5C 41.8478,6.40953 39.5145,7.07619 37.5,8.5C 36.8333,8.5 36.1667,8.5 35.5,8.5C 35.0618,8.56544 34.7284,8.39877 34.5,8C 35.1667,7.66667 35.8333,7.33333 36.5,7C 35.5842,6.72158 34.9175,6.22158 34.5,5.5C 39.7788,2.83344 45.4454,2.00011 51.5,3C 52.056,3.38258 52.3893,3.88258 52.5,4.5 Z"/></g>
<g><path style="opacity:1" fill="#788db7" d="M 52.5,4.5 C 53.0431,4.55999 53.3764,4.89333 53.5,5.5C 52.3112,6.42869 50.9778,6.76202 49.5,6.5C 47.8333,6.5 46.1667,6.5 44.5,6.5C 47.1667,5.83333 49.8333,5.16667 52.5,4.5 Z"/></g>
<g><path style="opacity:1" fill="#1a4798" d="M 34.5,5.5 C 34.9175,6.22158 35.5842,6.72158 36.5,7C 35.8333,7.33333 35.1667,7.66667 34.5,8C 34.7284,8.39877 35.0618,8.56544 35.5,8.5C 33.5739,9.48615 31.5739,10.4861 29.5,11.5C 27.9505,12.4408 26.2838,13.1075 24.5,13.5C 23.642,10.705 21.642,10.0383 18.5,11.5C 23.5574,8.98009 28.8907,6.98009 34.5,5.5 Z"/></g>
<g><path style="opacity:1" fill="#cccdcf" d="M 44.5,6.5 C 46.1667,6.5 47.8333,6.5 49.5,6.5C 51.4578,12.7886 55.4578,17.1219 61.5,19.5C 56.8195,19.1188 52.4862,20.1188 48.5,22.5C 46.2011,18.2718 44.7011,13.6051 44,8.5C 41.9734,8.01368 39.8067,8.01368 37.5,8.5C 39.5145,7.07619 41.8478,6.40953 44.5,6.5 Z"/></g>
<g><path style="opacity:1" fill="#141b72" d="M 24.5,13.5 C 23.2196,14.9313 21.5529,15.5979 19.5,15.5C 17.5447,15.2014 16.2114,14.2014 15.5,12.5C 16.391,11.8902 17.391,11.5569 18.5,11.5C 21.642,10.0383 23.642,10.705 24.5,13.5 Z"/></g>
<g><path style="opacity:1" fill="#144293" d="M 15.5,12.5 C 16.2114,14.2014 17.5447,15.2014 19.5,15.5C 14.7134,17.6908 9.71338,18.0242 4.5,16.5C 4.5,15.1667 4.5,13.8333 4.5,12.5C 8.16667,12.5 11.8333,12.5 15.5,12.5 Z"/></g>
<g><path style="opacity:1" fill="#3a61a7" d="M 38.5,28.5 C 37.5084,28.6716 36.8417,28.3382 36.5,27.5C 37.0431,27.44 37.3764,27.1067 37.5,26.5C 35.8554,25.3037 34.1887,24.3037 32.5,23.5C 34.9477,23.9153 36.2811,22.9153 36.5,20.5C 35.5103,17.8313 33.8436,17.1646 31.5,18.5C 30.1667,17.1667 30.1667,15.8333 31.5,14.5C 33.5699,15.5073 35.5699,15.174 37.5,13.5C 37.8717,16.4665 39.205,18.7998 41.5,20.5C 39.1351,22.5877 38.1351,25.2544 38.5,28.5 Z"/></g>
<g><path style="opacity:1" fill="#edeff0" d="M 48.5,22.5 C 45.7089,24.7349 42.7089,26.7349 39.5,28.5C 39.1667,28.5 38.8333,28.5 38.5,28.5C 38.1351,25.2544 39.1351,22.5877 41.5,20.5C 39.205,18.7998 37.8717,16.4665 37.5,13.5C 35.5699,15.174 33.5699,15.5073 31.5,14.5C 30.8333,14.5 30.5,14.1667 30.5,13.5C 30.1667,12.8333 29.8333,12.1667 29.5,11.5C 31.5739,10.4861 33.5739,9.48615 35.5,8.5C 36.1667,8.5 36.8333,8.5 37.5,8.5C 39.8067,8.01368 41.9734,8.01368 44,8.5C 44.7011,13.6051 46.2011,18.2718 48.5,22.5 Z"/></g>
<g><path style="opacity:1" fill="#d1d2d8" d="M 32.5,23.5 C 30.4031,22.1214 30.0698,20.4547 31.5,18.5C 33.8436,17.1646 35.5103,17.8313 36.5,20.5C 36.2811,22.9153 34.9477,23.9153 32.5,23.5 Z"/></g>
<g><path style="opacity:1" fill="#d0d1d4" d="M 29.5,11.5 C 29.8333,12.1667 30.1667,12.8333 30.5,13.5C 29.9865,16.5827 28.3198,18.9161 25.5,20.5C 26.3467,21.8448 27.5134,22.8448 29,23.5C 29.2022,25.2556 29.7022,26.9223 30.5,28.5C 32.281,26.4537 34.281,26.1204 36.5,27.5C 36.8417,28.3382 37.5084,28.6716 38.5,28.5C 38.8333,28.5 39.1667,28.5 39.5,28.5C 35.0492,32.6103 30.0492,35.9437 24.5,38.5C 25.1079,37.2003 25.7745,35.8669 26.5,34.5C 25.1702,29.0278 23.1702,23.8612 20.5,19C 21.1667,18.6667 21.8333,18.3333 22.5,18C 18.63,16.8629 16.7967,18.3629 17,22.5C 16.5,21.5 16,20.5 15.5,19.5C 11.411,19.1119 7.74434,18.1119 4.5,16.5C 9.71338,18.0242 14.7134,17.6908 19.5,15.5C 21.5529,15.5979 23.2196,14.9313 24.5,13.5C 26.2838,13.1075 27.9505,12.4408 29.5,11.5 Z"/></g>
<g><path style="opacity:1" fill="#282d7d" d="M 30.5,13.5 C 30.5,14.1667 30.8333,14.5 31.5,14.5C 30.1667,15.8333 30.1667,17.1667 31.5,18.5C 30.0698,20.4547 30.4031,22.1214 32.5,23.5C 34.1887,24.3037 35.8554,25.3037 37.5,26.5C 37.3764,27.1067 37.0431,27.44 36.5,27.5C 34.281,26.1204 32.281,26.4537 30.5,28.5C 29.7022,26.9223 29.2022,25.2556 29,23.5C 27.5134,22.8448 26.3467,21.8448 25.5,20.5C 28.3198,18.9161 29.9865,16.5827 30.5,13.5 Z"/></g>
<g><path style="opacity:1" fill="#19378a" d="M 61.5,19.5 C 61.1898,21.1436 60.1898,22.1436 58.5,22.5C 48.2532,27.24 38.9199,33.4066 30.5,41C 26.5256,43.6595 22.1923,45.1595 17.5,45.5C 17.7373,44.209 17.404,43.209 16.5,42.5C 18.7009,40.5823 21.3676,39.2489 24.5,38.5C 30.0492,35.9437 35.0492,32.6103 39.5,28.5C 42.7089,26.7349 45.7089,24.7349 48.5,22.5C 52.4862,20.1188 56.8195,19.1188 61.5,19.5 Z"/></g>
<g><path style="opacity:1" fill="#dadbdf" d="M 58.5,22.5 C 48.3749,30.4387 38.0416,38.272 27.5,46C 26.2713,46.7811 24.938,47.2811 23.5,47.5C 21.2178,46.7766 18.8845,46.4433 16.5,46.5C 16.5,45.1667 16.5,43.8333 16.5,42.5C 17.404,43.209 17.7373,44.209 17.5,45.5C 22.1923,45.1595 26.5256,43.6595 30.5,41C 38.9199,33.4066 48.2532,27.24 58.5,22.5 Z"/></g>
</svg>
