<?xml version="1.0" encoding="UTF-8"?>
<!DOCTYPE svg PUBLIC "-//W3C//DTD SVG 1.1//EN" "http://www.w3.org/Graphics/SVG/1.1/DTD/svg11.dtd">
<svg xmlns="http://www.w3.org/2000/svg" version="1.1" width="64px" height="52px" style="shape-rendering:geometricPrecision; text-rendering:geometricPrecision; image-rendering:optimizeQuality; fill-rule:evenodd; clip-rule:evenodd" xmlns:xlink="http://www.w3.org/1999/xlink">
<g><path style="opacity:0.989" fill="#f3f2f2" d="M -0.5,-0.5 C 20.8333,-0.5 42.1667,-0.5 63.5,-0.5C 63.5,6.83333 63.5,14.1667 63.5,21.5C 62.7784,21.0825 62.2784,20.4158 62,19.5C 61.6012,19.7284 61.4346,20.0618 61.5,20.5C 57.3856,14.6058 54.0523,8.27245 51.5,1.5C 49.1667,1.5 46.8333,1.5 44.5,1.5C 41.4816,1.33537 38.4816,1.50204 35.5,2C 34.944,2.38258 34.6107,2.88258 34.5,3.5C 34.687,5.56429 35.187,7.56429 36,9.5C 39.4256,15.4088 42.5923,21.4088 45.5,27.5C 45.5,28.5 45.5,29.5 45.5,30.5C 43.6096,30.2965 42.1096,30.9632 41,32.5C 36.8734,30.0293 34.8734,26.3626 35,21.5C 30.8267,17.6595 26.9934,13.4928 23.5,9C 22.2068,8.50999 20.8734,8.34332 19.5,8.5C 15.5341,9.16213 11.5341,9.49546 7.5,9.5C 6.41683,9.46056 5.41683,9.12723 4.5,8.5C 3.35647,13.2884 3.85647,17.955 6,22.5C 8.41211,27.6587 11.0788,32.6587 14,37.5C 15.4301,40.3527 16.2634,43.3527 16.5,46.5C 16.5,47.5 16.5,48.5 16.5,49.5C 18.5648,49.4828 20.5648,49.1495 22.5,48.5C 22.2178,49.7777 21.5511,50.7777 20.5,51.5C 13.5,51.5 6.5,51.5 -0.5,51.5C -0.5,34.1667 -0.5,16.8333 -0.5,-0.5 Z"/></g>
<g><path style="opacity:1" fill="#d01213" d="M 44.5,1.5 C 46.8333,1.5 49.1667,1.5 51.5,1.5C 54.0523,8.27245 57.3856,14.6058 61.5,20.5C 61.5,21.8333 61.5,23.1667 61.5,24.5C 60.1667,24.5 58.8333,24.5 57.5,24.5C 56.6646,19.6684 54.998,15.0018 52.5,10.5C 49.0743,8.08007 46.4076,5.08007 44.5,1.5 Z"/></g>
<g><path style="opacity:1" fill="#14960f" d="M 7.5,9.5 C 7.5,10.1667 7.83333,10.5 8.5,10.5C 12.4942,17.8209 16.9942,24.8209 22,31.5C 22.7262,36.2387 22.3929,40.9053 21,45.5C 20.3333,46.1667 19.6667,46.8333 19,47.5C 18.3292,46.7476 17.4959,46.4142 16.5,46.5C 16.2634,43.3527 15.4301,40.3527 14,37.5C 11.0788,32.6587 8.41211,27.6587 6,22.5C 3.85647,17.955 3.35647,13.2884 4.5,8.5C 5.41683,9.12723 6.41683,9.46056 7.5,9.5 Z"/></g>
<g><path style="opacity:1" fill="#a90604" d="M 44.5,1.5 C 46.4076,5.08007 49.0743,8.08007 52.5,10.5C 54.998,15.0018 56.6646,19.6684 57.5,24.5C 53.9473,26.0353 50.614,28.0353 47.5,30.5C 46.6618,30.1583 46.3284,29.4916 46.5,28.5C 47.7479,27.6661 48.4146,26.3328 48.5,24.5C 48.6442,18.8281 46.9775,13.8281 43.5,9.5C 40.4645,7.44832 37.4645,5.44832 34.5,3.5C 34.6107,2.88258 34.944,2.38258 35.5,2C 38.4816,1.50204 41.4816,1.33537 44.5,1.5 Z"/></g>
<g><path style="opacity:1" fill="#157632" d="M 19.5,8.5 C 19.5,9.16667 19.5,9.83333 19.5,10.5C 22.5201,18.874 26.3534,26.874 31,34.5C 31.977,36.74 32.477,39.0733 32.5,41.5C 31.0552,43.0627 29.3885,44.396 27.5,45.5C 27.7273,30.2889 21.3939,18.6222 8.5,10.5C 7.83333,10.5 7.5,10.1667 7.5,9.5C 11.5341,9.49546 15.5341,9.16213 19.5,8.5 Z"/></g>
<g><path style="opacity:1" fill="#b3b4b4" d="M 19.5,10.5 C 31.4306,17.0278 36.4306,27.0278 34.5,40.5C 33.8333,40.8333 33.1667,41.1667 32.5,41.5C 32.477,39.0733 31.977,36.74 31,34.5C 26.3534,26.874 22.5201,18.874 19.5,10.5 Z"/></g>
<g><path style="opacity:0.992" fill="#f5f4f4" d="M 63.5,21.5 C 63.5,31.5 63.5,41.5 63.5,51.5C 49.1667,51.5 34.8333,51.5 20.5,51.5C 21.5511,50.7777 22.2178,49.7777 22.5,48.5C 24.2202,47.6923 25.8869,46.6923 27.5,45.5C 29.3885,44.396 31.0552,43.0627 32.5,41.5C 33.1667,41.1667 33.8333,40.8333 34.5,40.5C 38.8574,37.1357 43.1907,33.8024 47.5,30.5C 50.614,28.0353 53.9473,26.0353 57.5,24.5C 58.8333,24.5 60.1667,24.5 61.5,24.5C 61.5,23.1667 61.5,21.8333 61.5,20.5C 61.4346,20.0618 61.6012,19.7284 62,19.5C 62.2784,20.4158 62.7784,21.0825 63.5,21.5 Z"/></g>
<g><path style="opacity:1" fill="#be0308" d="M 34.5,3.5 C 37.4645,5.44832 40.4645,7.44832 43.5,9.5C 46.9775,13.8281 48.6442,18.8281 48.5,24.5C 48.4146,26.3328 47.7479,27.6661 46.5,28.5C 46.5,27.8333 46.1667,27.5 45.5,27.5C 42.5923,21.4088 39.4256,15.4088 36,9.5C 35.187,7.56429 34.687,5.56429 34.5,3.5 Z"/></g>
<g><path style="opacity:1" fill="#d1d0d0" d="M 19.5,8.5 C 20.8734,8.34332 22.2068,8.50999 23.5,9C 26.9934,13.4928 30.8267,17.6595 35,21.5C 34.8734,26.3626 36.8734,30.0293 41,32.5C 42.1096,30.9632 43.6096,30.2965 45.5,30.5C 45.5,29.5 45.5,28.5 45.5,27.5C 46.1667,27.5 46.5,27.8333 46.5,28.5C 46.3284,29.4916 46.6618,30.1583 47.5,30.5C 43.1907,33.8024 38.8574,37.1357 34.5,40.5C 36.4306,27.0278 31.4306,17.0278 19.5,10.5C 19.5,9.83333 19.5,9.16667 19.5,8.5 Z"/></g>
<g><path style="opacity:1" fill="#04852a" d="M 8.5,10.5 C 21.3939,18.6222 27.7273,30.2889 27.5,45.5C 25.8869,46.6923 24.2202,47.6923 22.5,48.5C 20.5648,49.1495 18.5648,49.4828 16.5,49.5C 16.5,48.5 16.5,47.5 16.5,46.5C 17.4959,46.4142 18.3292,46.7476 19,47.5C 19.6667,46.8333 20.3333,46.1667 21,45.5C 22.3929,40.9053 22.7262,36.2387 22,31.5C 16.9942,24.8209 12.4942,17.8209 8.5,10.5 Z"/></g>
</svg>
