<?xml version="1.0" encoding="UTF-8"?>
<!DOCTYPE svg PUBLIC "-//W3C//DTD SVG 1.1//EN" "http://www.w3.org/Graphics/SVG/1.1/DTD/svg11.dtd">
<svg xmlns="http://www.w3.org/2000/svg" version="1.1" width="64px" height="52px" style="shape-rendering:geometricPrecision; text-rendering:geometricPrecision; image-rendering:optimizeQuality; fill-rule:evenodd; clip-rule:evenodd" xmlns:xlink="http://www.w3.org/1999/xlink">
<g><path style="opacity:0.991" fill="#f3f3f3" d="M -0.5,-0.5 C 20.8333,-0.5 42.1667,-0.5 63.5,-0.5C 63.5,16.8333 63.5,34.1667 63.5,51.5C 42.1667,51.5 20.8333,51.5 -0.5,51.5C -0.5,34.1667 -0.5,16.8333 -0.5,-0.5 Z"/></g>
<g><path style="opacity:1" fill="#bababa" d="M 50.5,28.5 C 50.0167,22.9686 48.5167,17.6352 46,12.5C 41.9517,9.61544 38.4517,6.2821 35.5,2.5C 38.7926,1.24945 42.1259,1.24945 45.5,2.5C 49.5369,6.21463 52.8703,10.548 55.5,15.5C 59.2975,22.1234 57.6308,26.4568 50.5,28.5 Z"/></g>
<g><path style="opacity:1" fill="#d40a10" d="M 42.5,25.5 C 41.1149,27.8835 39.1149,29.5501 36.5,30.5C 34.8822,27.4437 33.3822,24.1104 32,20.5C 29.91,18.5837 28.0767,16.5837 26.5,14.5C 26.8333,13.8333 27.1667,13.1667 27.5,12.5C 39.0269,9.7252 44.0269,14.0585 42.5,25.5 Z"/></g>
<g><path style="opacity:1" fill="#c5c4c4" d="M 27.5,12.5 C 27.1667,13.1667 26.8333,13.8333 26.5,14.5C 21.875,21.1708 23.2083,26.6708 30.5,31C 32.4727,31.4955 34.4727,31.6621 36.5,31.5C 36.5,34.1667 36.5,36.8333 36.5,39.5C 33.1957,41.8236 29.8624,44.157 26.5,46.5C 26.0223,40.8884 26.0223,35.2217 26.5,29.5C 24.289,29.0332 22.289,28.0332 20.5,26.5C 17.155,21.492 13.8217,16.492 10.5,11.5C 16.5007,7.21824 22.1674,7.55158 27.5,12.5 Z"/></g>
<g><path style="opacity:1" fill="#a70705" d="M 26.5,14.5 C 28.0767,16.5837 29.91,18.5837 32,20.5C 33.3822,24.1104 34.8822,27.4437 36.5,30.5C 36.5,30.8333 36.5,31.1667 36.5,31.5C 34.4727,31.6621 32.4727,31.4955 30.5,31C 23.2083,26.6708 21.875,21.1708 26.5,14.5 Z"/></g>
<g><path style="opacity:1" fill="#dddcdc" d="M 35.5,2.5 C 38.4517,6.2821 41.9517,9.61544 46,12.5C 48.5167,17.6352 50.0167,22.9686 50.5,28.5C 45.8576,32.136 41.1909,35.8027 36.5,39.5C 36.5,36.8333 36.5,34.1667 36.5,31.5C 36.5,31.1667 36.5,30.8333 36.5,30.5C 39.1149,29.5501 41.1149,27.8835 42.5,25.5C 43.8221,25.67 44.9887,25.3366 46,24.5C 47.5738,18.3972 45.7404,13.5638 40.5,10C 37.7583,8.92963 35.2583,7.42963 33,5.5C 32.4808,3.51064 33.3141,2.51064 35.5,2.5 Z"/></g>
</svg>
