<?xml version="1.0" encoding="UTF-8"?>
<!DOCTYPE svg PUBLIC "-//W3C//DTD SVG 1.1//EN" "http://www.w3.org/Graphics/SVG/1.1/DTD/svg11.dtd">
<svg xmlns="http://www.w3.org/2000/svg" version="1.1" width="64px" height="52px" style="shape-rendering:geometricPrecision; text-rendering:geometricPrecision; image-rendering:optimizeQuality; fill-rule:evenodd; clip-rule:evenodd" xmlns:xlink="http://www.w3.org/1999/xlink">
<g><path style="opacity:0.992" fill="#f3f3f3" d="M -0.5,-0.5 C 20.8333,-0.5 42.1667,-0.5 63.5,-0.5C 63.5,16.8333 63.5,34.1667 63.5,51.5C 42.1667,51.5 20.8333,51.5 -0.5,51.5C -0.5,34.1667 -0.5,16.8333 -0.5,-0.5 Z"/></g>
<g><path style="opacity:1" fill="#c1c0c0" d="M 25.5,41.5 C 26.3606,39.6137 27.3606,37.7804 28.5,36C 26.3228,34.4851 24.1561,32.9851 22,31.5C 20.9889,32.0556 20.1556,32.7222 19.5,33.5C 18.6544,30.4518 17.6544,27.4518 16.5,24.5C 18.2655,21.8774 18.9321,18.8774 18.5,15.5C 16.7376,15.6427 15.0709,15.3094 13.5,14.5C 12.8182,15.2427 12.1515,15.9094 11.5,16.5C 11.1231,14.742 10.4565,13.0754 9.5,11.5C 16.059,6.70216 21.3923,7.70216 25.5,14.5C 23.1496,16.2133 22.1496,18.5466 22.5,21.5C 23.436,24.9594 25.436,27.7928 28.5,30C 30.0657,30.765 31.3991,30.5983 32.5,29.5C 34.5138,29.6085 36.1805,28.9418 37.5,27.5C 39.1017,29.9816 41.4351,30.815 44.5,30C 45.8437,27.8564 45.5104,26.0231 43.5,24.5C 45.5,24.5 47.5,24.5 49.5,24.5C 49.6741,22.139 50.0074,19.8056 50.5,17.5C 48.5,17.5 46.5,17.5 44.5,17.5C 44.7678,19.099 44.4345,20.4324 43.5,21.5C 43.0173,18.342 42.0173,15.342 40.5,12.5C 42.3841,12.2882 43.7174,11.2882 44.5,9.5C 42.8333,8.33333 41.1667,7.16667 39.5,6C 36.8285,5.51522 35.4952,6.68188 35.5,9.5C 33.7451,8.03819 32.4118,6.20486 31.5,4C 35.5194,1.66225 39.8527,0.99558 44.5,2C 49.426,8.624 53.0926,15.9573 55.5,24C 45.903,30.59 36.5696,37.59 27.5,45C 26.5,45.6667 25.5,45.6667 24.5,45C 25.3366,43.9887 25.67,42.8221 25.5,41.5 Z"/></g>
<g><path style="opacity:1" fill="#49403e" d="M 40.5,12.5 C 38.9991,11.2485 37.3325,10.2485 35.5,9.5C 35.4952,6.68188 36.8285,5.51522 39.5,6C 41.1667,7.16667 42.8333,8.33333 44.5,9.5C 43.7174,11.2882 42.3841,12.2882 40.5,12.5 Z"/></g>
<g><path style="opacity:1" fill="#c31212" d="M 38.5,17.5 C 36.7909,17.6079 34.7909,17.7746 32.5,18C 30.9837,19.897 30.317,22.0637 30.5,24.5C 26.8054,26.243 24.1387,25.243 22.5,21.5C 22.1496,18.5466 23.1496,16.2133 25.5,14.5C 30.7243,11.5737 35.0577,12.5737 38.5,17.5 Z"/></g>
<g><path style="opacity:1" fill="#51504f" d="M 16.5,24.5 C 12.4655,23.4664 10.7988,20.7997 11.5,16.5C 12.1515,15.9094 12.8182,15.2427 13.5,14.5C 15.0709,15.3094 16.7376,15.6427 18.5,15.5C 18.9321,18.8774 18.2655,21.8774 16.5,24.5 Z"/></g>
<g><path style="opacity:1" fill="#1a408f" d="M 38.5,17.5 C 39.8789,20.8826 39.5456,24.2159 37.5,27.5C 36.1805,28.9418 34.5138,29.6085 32.5,29.5C 32.5979,27.4471 31.9313,25.7804 30.5,24.5C 30.317,22.0637 30.9837,19.897 32.5,18C 34.7909,17.7746 36.7909,17.6079 38.5,17.5 Z"/></g>
<g><path style="opacity:1" fill="#504a49" d="M 43.5,24.5 C 43.5,23.5 43.5,22.5 43.5,21.5C 44.4345,20.4324 44.7678,19.099 44.5,17.5C 46.5,17.5 48.5,17.5 50.5,17.5C 50.0074,19.8056 49.6741,22.139 49.5,24.5C 47.5,24.5 45.5,24.5 43.5,24.5 Z"/></g>
<g><path style="opacity:1" fill="#191274" d="M 22.5,21.5 C 24.1387,25.243 26.8054,26.243 30.5,24.5C 31.9313,25.7804 32.5979,27.4471 32.5,29.5C 31.3991,30.5983 30.0657,30.765 28.5,30C 25.436,27.7928 23.436,24.9594 22.5,21.5 Z"/></g>
<g><path style="opacity:1" fill="#514f4e" d="M 25.5,41.5 C 23.4946,39.666 21.3279,37.9993 19,36.5C 18.5304,35.4232 18.6971,34.4232 19.5,33.5C 20.1556,32.7222 20.9889,32.0556 22,31.5C 24.1561,32.9851 26.3228,34.4851 28.5,36C 27.3606,37.7804 26.3606,39.6137 25.5,41.5 Z"/></g>
</svg>
