<?xml version="1.0" encoding="UTF-8"?>
<!DOCTYPE svg PUBLIC "-//W3C//DTD SVG 1.1//EN" "http://www.w3.org/Graphics/SVG/1.1/DTD/svg11.dtd">
<svg xmlns="http://www.w3.org/2000/svg" version="1.1" width="64px" height="52px" style="shape-rendering:geometricPrecision; text-rendering:geometricPrecision; image-rendering:optimizeQuality; fill-rule:evenodd; clip-rule:evenodd" xmlns:xlink="http://www.w3.org/1999/xlink">
<g><path style="opacity:0.99" fill="#f6f5f4" d="M -0.5,-0.5 C 20.8333,-0.5 42.1667,-0.5 63.5,-0.5C 63.5,16.8333 63.5,34.1667 63.5,51.5C 42.1667,51.5 20.8333,51.5 -0.5,51.5C -0.5,34.1667 -0.5,16.8333 -0.5,-0.5 Z"/></g>
<g><path style="opacity:1" fill="#d1d0d0" d="M 56.5,13.5 C 55.1667,13.5 53.8333,13.5 52.5,13.5C 50.4352,13.5172 48.4352,13.8505 46.5,14.5C 42.6612,10.8286 38.6612,7.32865 34.5,4C 38.6346,2.56919 42.968,2.06919 47.5,2.5C 47.3433,3.87344 47.51,5.20677 48,6.5C 49.6591,7.81679 50.8257,9.48346 51.5,11.5C 53.2914,12.1698 54.9581,12.8365 56.5,13.5 Z"/></g>
<g><path style="opacity:1" fill="#d5d4d4" d="M 32.5,21.5 C 32.5,22.1667 32.1667,22.5 31.5,22.5C 28.0336,24.6397 24.3669,26.3064 20.5,27.5C 17.5557,23.5423 14.5557,19.5423 11.5,15.5C 10.675,14.6143 9.67504,14.281 8.5,14.5C 8.5,13.1667 8.5,11.8333 8.5,10.5C 12.8606,9.5766 17.1939,9.5766 21.5,10.5C 25.521,13.8544 29.1877,17.521 32.5,21.5 Z"/></g>
<g><path style="opacity:1" fill="#a8120a" d="M 52.5,13.5 C 52.0183,14.4163 51.685,15.4163 51.5,16.5C 52.7951,19.7156 53.4618,23.0489 53.5,26.5C 52.205,27.4884 50.8717,28.4884 49.5,29.5C 49.3995,25.669 49.2328,21.669 49,17.5C 47.8873,16.695 46.7206,16.0283 45.5,15.5C 45.5,14.8333 45.8333,14.5 46.5,14.5C 48.4352,13.8505 50.4352,13.5172 52.5,13.5 Z"/></g>
<g><path style="opacity:1" fill="#c40e0d" d="M 45.5,15.5 C 46.7206,16.0283 47.8873,16.695 49,17.5C 49.2328,21.669 49.3995,25.669 49.5,29.5C 46.5,31.5 43.5,33.5 40.5,35.5C 42.2727,31.6971 43.606,27.6971 44.5,23.5C 44.1338,20.7441 42.8005,18.7441 40.5,17.5C 41.7804,16.0687 43.4471,15.4021 45.5,15.5 Z"/></g>
<g><path style="opacity:1" fill="#c40e0e" d="M 52.5,13.5 C 53.8333,13.5 55.1667,13.5 56.5,13.5C 58.6805,16.5277 60.3472,19.861 61.5,23.5C 58.9742,24.8972 56.3076,25.8972 53.5,26.5C 53.4618,23.0489 52.7951,19.7156 51.5,16.5C 51.685,15.4163 52.0183,14.4163 52.5,13.5 Z"/></g>
<g><path style="opacity:1" fill="#ae0c07" d="M 31.5,22.5 C 32.4104,28.0198 32.4104,33.5198 31.5,39C 31.6842,40.3756 32.3509,41.2089 33.5,41.5C 30.7089,43.7349 27.7089,45.7349 24.5,47.5C 26.4717,40.7341 25.6383,34.4007 22,28.5C 21.3333,29.1667 20.6667,29.8333 20,30.5C 19.3292,29.7476 18.4959,29.4142 17.5,29.5C 18.5,28.8333 19.5,28.1667 20.5,27.5C 24.3669,26.3064 28.0336,24.6397 31.5,22.5 Z"/></g>
<g><path style="opacity:1" fill="#ee837e" d="M 14.5,29.5 C 13.1667,30.1667 11.8333,30.8333 10.5,31.5C 9.95691,31.44 9.62358,31.1067 9.5,30.5C 11.0453,29.5481 12.712,29.2148 14.5,29.5 Z"/></g>
<g><path style="opacity:1" fill="#c9050c" d="M 40.5,17.5 C 42.8005,18.7441 44.1338,20.7441 44.5,23.5C 43.606,27.6971 42.2727,31.6971 40.5,35.5C 38.3932,37.7267 36.0599,39.7267 33.5,41.5C 32.3509,41.2089 31.6842,40.3756 31.5,39C 32.4104,33.5198 32.4104,28.0198 31.5,22.5C 32.1667,22.5 32.5,22.1667 32.5,21.5C 35.1932,20.1534 37.8599,18.8201 40.5,17.5 Z"/></g>
<g><path style="opacity:1" fill="#d5040e" d="M 24.5,47.5 C 22.0465,49.0598 19.3798,50.0598 16.5,50.5C 16.1066,43.6534 14.1066,37.3201 10.5,31.5C 11.8333,30.8333 13.1667,30.1667 14.5,29.5C 15.5,29.5 16.5,29.5 17.5,29.5C 18.4959,29.4142 19.3292,29.7476 20,30.5C 20.6667,29.8333 21.3333,29.1667 22,28.5C 25.6383,34.4007 26.4717,40.7341 24.5,47.5 Z"/></g>
</svg>
