<?xml version="1.0" encoding="UTF-8"?>
<!DOCTYPE svg PUBLIC "-//W3C//DTD SVG 1.1//EN" "http://www.w3.org/Graphics/SVG/1.1/DTD/svg11.dtd">
<svg xmlns="http://www.w3.org/2000/svg" version="1.1" width="64px" height="52px" style="shape-rendering:geometricPrecision; text-rendering:geometricPrecision; image-rendering:optimizeQuality; fill-rule:evenodd; clip-rule:evenodd" xmlns:xlink="http://www.w3.org/1999/xlink">
<g><path style="opacity:0.993" fill="#f4f4f3" d="M 39.5,0.5 C 39.5,0.166667 39.5,-0.166667 39.5,-0.5C 47.5,-0.5 55.5,-0.5 63.5,-0.5C 63.5,16.8333 63.5,34.1667 63.5,51.5C 46.5,51.5 29.5,51.5 12.5,51.5C 13.5,50.8333 14.5,50.1667 15.5,49.5C 18.6223,48.4388 21.6223,47.1054 24.5,45.5C 26.8051,44.0106 29.1384,42.5106 31.5,41C 32.8228,40.1841 33.4894,39.0174 33.5,37.5C 38.8327,35.1609 43.4994,31.8275 47.5,27.5C 51.3017,25.6005 55.3017,24.2672 59.5,23.5C 59.7373,22.209 59.404,21.209 58.5,20.5C 55.4029,13.9695 52.0696,7.63616 48.5,1.5C 45.7131,0.523331 42.7131,0.189998 39.5,0.5 Z"/></g>
<g><path style="opacity:1" fill="#d10d0f" d="M 48.5,1.5 C 52.0696,7.63616 55.4029,13.9695 58.5,20.5C 58.631,21.2389 58.4643,21.9056 58,22.5C 54.2518,19.3251 51.5852,15.3251 50,10.5C 47.9431,7.53807 45.7765,4.70473 43.5,2C 45.1341,1.50649 46.8008,1.33982 48.5,1.5 Z"/></g>
<g><path style="opacity:1" fill="#168634" d="M 20.5,6.5 C 21.1667,8.83333 21.8333,11.1667 22.5,13.5C 22.5,13.8333 22.5,14.1667 22.5,14.5C 20.457,15.5794 19.1237,17.246 18.5,19.5C 17.8826,19.6107 17.3826,19.944 17,20.5C 13.5756,17.2482 10.7423,13.5815 8.5,9.5C 12.6731,9.12339 16.6731,8.12339 20.5,6.5 Z"/></g>
<g><path style="opacity:1" fill="#ae0b07" d="M 39.5,0.5 C 42.7131,0.189998 45.7131,0.523331 48.5,1.5C 46.8008,1.33982 45.1341,1.50649 43.5,2C 45.7765,4.70473 47.9431,7.53807 50,10.5C 51.5852,15.3251 54.2518,19.3251 58,22.5C 58.4643,21.9056 58.631,21.2389 58.5,20.5C 59.404,21.209 59.7373,22.209 59.5,23.5C 55.3017,24.2672 51.3017,25.6005 47.5,27.5C 47.2488,25.8297 46.5822,24.3297 45.5,23C 46.0585,22.2753 46.3918,21.4419 46.5,20.5C 43.2258,13.6263 38.5592,7.95959 32.5,3.5C 30.5466,4.15558 28.5466,4.48891 26.5,4.5C 30.5021,2.39024 34.8354,1.0569 39.5,0.5 Z"/></g>
<g><path style="opacity:0.988" fill="#f3f4f2" d="M -0.5,-0.5 C 12.8333,-0.5 26.1667,-0.5 39.5,-0.5C 39.5,-0.166667 39.5,0.166667 39.5,0.5C 34.8354,1.0569 30.5021,2.39024 26.5,4.5C 24.4214,4.97065 22.4214,5.63732 20.5,6.5C 16.6731,8.12339 12.6731,9.12339 8.5,9.5C 7.83333,9.5 7.16667,9.5 6.5,9.5C 4.88277,8.962 3.2161,8.62867 1.5,8.5C 1.33591,11.1873 1.50258,13.854 2,16.5C 6.73532,25.9655 10.902,35.6322 14.5,45.5C 14.2322,47.099 14.5655,48.4324 15.5,49.5C 14.5,50.1667 13.5,50.8333 12.5,51.5C 8.16667,51.5 3.83333,51.5 -0.5,51.5C -0.5,34.1667 -0.5,16.8333 -0.5,-0.5 Z"/></g>
<g><path style="opacity:1" fill="#e8b00e" d="M 22.5,13.5 C 29.9282,12.0386 34.5948,14.872 36.5,22C 36.2019,25.4294 34.8685,28.2627 32.5,30.5C 31.6618,30.1583 31.3284,29.4916 31.5,28.5C 33.1207,28.2131 34.1207,27.2131 34.5,25.5C 33.3895,25.6242 32.0562,25.2909 30.5,24.5C 30.5,24.1667 30.5,23.8333 30.5,23.5C 32.5492,23.2942 32.8825,22.4609 31.5,21C 32.1667,20.3333 32.8333,19.6667 33.5,19C 31.5032,15.5052 28.5032,14.0052 24.5,14.5C 24.7373,15.791 24.404,16.791 23.5,17.5C 23.4431,16.391 23.1098,15.391 22.5,14.5C 22.5,14.1667 22.5,13.8333 22.5,13.5 Z"/></g>
<g><path style="opacity:1" fill="#9593a8" d="M 30.5,23.5 C 30.5,23.8333 30.5,24.1667 30.5,24.5C 29.9976,26.0847 28.9976,26.5847 27.5,26C 23.8971,23.1876 23.8971,20.6876 27.5,18.5C 28.7629,20.0287 29.7629,21.6954 30.5,23.5 Z"/></g>
<g><path style="opacity:1" fill="#c15834" d="M 30.5,23.5 C 29.7629,21.6954 28.7629,20.0287 27.5,18.5C 23.8971,20.6876 23.8971,23.1876 27.5,26C 28.9976,26.5847 29.9976,26.0847 30.5,24.5C 32.0562,25.2909 33.3895,25.6242 34.5,25.5C 34.1207,27.2131 33.1207,28.2131 31.5,28.5C 29.8585,28.5936 28.0251,28.2603 26,27.5C 24.8706,24.735 23.3706,22.235 21.5,20C 22.0556,18.9889 22.7222,18.1556 23.5,17.5C 24.404,16.791 24.7373,15.791 24.5,14.5C 28.5032,14.0052 31.5032,15.5052 33.5,19C 32.8333,19.6667 32.1667,20.3333 31.5,21C 32.8825,22.4609 32.5492,23.2942 30.5,23.5 Z"/></g>
<g><path style="opacity:1" fill="#a0a020" d="M 22.5,14.5 C 23.1098,15.391 23.4431,16.391 23.5,17.5C 22.7222,18.1556 22.0556,18.9889 21.5,20C 23.3706,22.235 24.8706,24.735 26,27.5C 28.0251,28.2603 29.8585,28.5936 31.5,28.5C 31.3284,29.4916 31.6618,30.1583 32.5,30.5C 32.5,30.8333 32.5,31.1667 32.5,31.5C 30.1944,31.9926 27.861,32.3259 25.5,32.5C 20.3566,29.774 18.0233,25.4407 18.5,19.5C 19.1237,17.246 20.457,15.5794 22.5,14.5 Z"/></g>
<g><path style="opacity:1" fill="#ce0e11" d="M 47.5,27.5 C 43.4994,31.8275 38.8327,35.1609 33.5,37.5C 33.4828,35.4352 33.1495,33.4352 32.5,31.5C 32.5,31.1667 32.5,30.8333 32.5,30.5C 34.8685,28.2627 36.2019,25.4294 36.5,22C 34.5948,14.872 29.9282,12.0386 22.5,13.5C 21.8333,11.1667 21.1667,8.83333 20.5,6.5C 22.4214,5.63732 24.4214,4.97065 26.5,4.5C 28.5466,4.48891 30.5466,4.15558 32.5,3.5C 38.5592,7.95959 43.2258,13.6263 46.5,20.5C 46.3918,21.4419 46.0585,22.2753 45.5,23C 46.5822,24.3297 47.2488,25.8297 47.5,27.5 Z"/></g>
<g><path style="opacity:1" fill="#158637" d="M 32.5,31.5 C 33.1495,33.4352 33.4828,35.4352 33.5,37.5C 33.4894,39.0174 32.8228,40.1841 31.5,41C 29.1384,42.5106 26.8051,44.0106 24.5,45.5C 25.1995,41.2022 25.5328,36.8689 25.5,32.5C 27.861,32.3259 30.1944,31.9926 32.5,31.5 Z"/></g>
<g><path style="opacity:1" fill="#64b22c" d="M 6.5,9.5 C 7.91096,14.426 10.7443,18.426 15,21.5C 21.1829,28.8111 22.0163,36.6444 17.5,45C 16.552,45.4828 15.552,45.6495 14.5,45.5C 10.902,35.6322 6.73532,25.9655 2,16.5C 1.50258,13.854 1.33591,11.1873 1.5,8.5C 3.2161,8.62867 4.88277,8.962 6.5,9.5 Z"/></g>
<g><path style="opacity:1" fill="#369e31" d="M 6.5,9.5 C 7.16667,9.5 7.83333,9.5 8.5,9.5C 10.7423,13.5815 13.5756,17.2482 17,20.5C 17.3826,19.944 17.8826,19.6107 18.5,19.5C 18.0233,25.4407 20.3566,29.774 25.5,32.5C 25.5328,36.8689 25.1995,41.2022 24.5,45.5C 21.6223,47.1054 18.6223,48.4388 15.5,49.5C 14.5655,48.4324 14.2322,47.099 14.5,45.5C 15.552,45.6495 16.552,45.4828 17.5,45C 22.0163,36.6444 21.1829,28.8111 15,21.5C 10.7443,18.426 7.91096,14.426 6.5,9.5 Z"/></g>
</svg>
