<?xml version="1.0" encoding="UTF-8"?>
<!DOCTYPE svg PUBLIC "-//W3C//DTD SVG 1.1//EN" "http://www.w3.org/Graphics/SVG/1.1/DTD/svg11.dtd">
<svg xmlns="http://www.w3.org/2000/svg" version="1.1" width="64px" height="52px" style="shape-rendering:geometricPrecision; text-rendering:geometricPrecision; image-rendering:optimizeQuality; fill-rule:evenodd; clip-rule:evenodd" xmlns:xlink="http://www.w3.org/1999/xlink">
<g><path style="opacity:0.991" fill="#f3f2f2" d="M -0.5,-0.5 C 20.8333,-0.5 42.1667,-0.5 63.5,-0.5C 63.5,16.8333 63.5,34.1667 63.5,51.5C 42.1667,51.5 20.8333,51.5 -0.5,51.5C -0.5,34.1667 -0.5,16.8333 -0.5,-0.5 Z"/></g>
<g><path style="opacity:1" fill="#d2d2d2" d="M 30.5,15.5 C 29.1667,16.5 27.8333,17.5 26.5,18.5C 24.1815,18.9925 22.1815,19.9925 20.5,21.5C 18.7839,21.6287 17.1172,21.962 15.5,22.5C 13.0967,18.7151 10.43,15.0484 7.5,11.5C 11.3992,10.0159 15.3992,9.5159 19.5,10C 22.8327,12.4989 26.4994,14.3322 30.5,15.5 Z"/></g>
<g><path style="opacity:1" fill="#1b2177" d="M 44.5,10.5 C 47.1667,10.5 49.8333,10.5 52.5,10.5C 52.8333,12.5 53.1667,14.5 53.5,16.5C 54.5,16.5 55.5,16.5 56.5,16.5C 57.1667,16.5 57.5,16.8333 57.5,17.5C 53.3425,17.3316 49.3425,17.9983 45.5,19.5C 43.6205,17.0744 42.2872,14.4077 41.5,11.5C 42.209,10.596 43.209,10.2627 44.5,10.5 Z"/></g>
<g><path style="opacity:1" fill="#375aa3" d="M 44.5,10.5 C 50.7063,8.10049 54.7063,10.1005 56.5,16.5C 55.5,16.5 54.5,16.5 53.5,16.5C 53.1667,14.5 52.8333,12.5 52.5,10.5C 49.8333,10.5 47.1667,10.5 44.5,10.5 Z"/></g>
<g><path style="opacity:1" fill="#174193" d="M 41.5,11.5 C 42.2872,14.4077 43.6205,17.0744 45.5,19.5C 44.8333,20.1667 44.1667,20.8333 43.5,21.5C 39.6733,23.246 36.0066,25.246 32.5,27.5C 31.5936,23.7987 29.5936,20.7987 26.5,18.5C 27.8333,17.5 29.1667,16.5 30.5,15.5C 34.069,13.8815 37.7356,12.5481 41.5,11.5 Z"/></g>
<g><path style="opacity:1" fill="#131972" d="M 26.5,18.5 C 29.5936,20.7987 31.5936,23.7987 32.5,27.5C 30.8816,29.316 28.8816,30.6493 26.5,31.5C 25.113,28.9472 23.2797,26.6139 21,24.5C 20.5172,23.552 20.3505,22.552 20.5,21.5C 22.1815,19.9925 24.1815,18.9925 26.5,18.5 Z"/></g>
<g><path style="opacity:1" fill="#b90b0c" d="M 57.5,17.5 C 58.8714,19.2592 59.8714,21.2592 60.5,23.5C 55.0372,25.3967 50.0372,28.0634 45.5,31.5C 46.069,27.6707 45.4023,24.3373 43.5,21.5C 44.1667,20.8333 44.8333,20.1667 45.5,19.5C 49.3425,17.9983 53.3425,17.3316 57.5,17.5 Z"/></g>
<g><path style="opacity:1" fill="#114395" d="M 20.5,21.5 C 20.3505,22.552 20.5172,23.552 21,24.5C 23.2797,26.6139 25.113,28.9472 26.5,31.5C 22.4621,34.6841 17.7955,36.3507 12.5,36.5C 9.68871,32.8915 7.35538,28.8915 5.5,24.5C 8.97732,23.8328 12.3107,23.1661 15.5,22.5C 17.1172,21.962 18.7839,21.6287 20.5,21.5 Z"/></g>
<g><path style="opacity:1" fill="#c4040b" d="M 43.5,21.5 C 45.4023,24.3373 46.069,27.6707 45.5,31.5C 39.1966,36.3245 32.8633,41.1578 26.5,46C 23.0288,48.0719 19.3621,49.5719 15.5,50.5C 15.3279,45.6518 14.3279,40.9852 12.5,36.5C 17.7955,36.3507 22.4621,34.6841 26.5,31.5C 28.8816,30.6493 30.8816,29.316 32.5,27.5C 36.0066,25.246 39.6733,23.246 43.5,21.5 Z"/></g>
</svg>
