<?xml version="1.0" encoding="UTF-8"?>
<!DOCTYPE svg PUBLIC "-//W3C//DTD SVG 1.1//EN" "http://www.w3.org/Graphics/SVG/1.1/DTD/svg11.dtd">
<svg xmlns="http://www.w3.org/2000/svg" version="1.1" width="64px" height="52px" style="shape-rendering:geometricPrecision; text-rendering:geometricPrecision; image-rendering:optimizeQuality; fill-rule:evenodd; clip-rule:evenodd" xmlns:xlink="http://www.w3.org/1999/xlink">
<g><path style="opacity:0.989" fill="#f3f4f3" d="M -0.5,-0.5 C 17.5,-0.5 35.5,-0.5 53.5,-0.5C 53.6495,0.551975 53.4828,1.55198 53,2.5C 52.31,1.26166 51.81,1.26166 51.5,2.5C 49.6208,1.65859 47.6208,1.32526 45.5,1.5C 45.1667,1.5 44.8333,1.5 44.5,1.5C 40.1829,1.08339 36.1829,1.75006 32.5,3.5C 31.5084,3.32842 30.8417,3.66175 30.5,4.5C 27.5568,4.98023 24.8902,5.98023 22.5,7.5C 17.3369,9.18293 12.0036,9.8496 6.5,9.5C 5.85013,9.19607 5.18346,8.86273 4.5,8.5C 3.34524,11.4459 3.17858,14.4459 4,17.5C 8.4782,26.7819 12.6449,36.1152 16.5,45.5C 16.5,46.8333 16.5,48.1667 16.5,49.5C 17.1667,50.1667 17.8333,50.8333 18.5,51.5C 12.1667,51.5 5.83333,51.5 -0.5,51.5C -0.5,34.1667 -0.5,16.8333 -0.5,-0.5 Z"/></g>
<g><path style="opacity:0.988" fill="#fcfcfb" d="M 53.5,-0.5 C 56.8333,-0.5 60.1667,-0.5 63.5,-0.5C 63.5,16.8333 63.5,34.1667 63.5,51.5C 60.8333,51.5 58.1667,51.5 55.5,51.5C 54.3747,49.8712 53.0414,48.3712 51.5,47C 53.1613,46.0054 54.4946,44.672 55.5,43C 54.8333,42.3333 54.1667,41.6667 53.5,41C 55.0996,36.3021 57.5996,32.1354 61,28.5C 61.346,26.7818 61.846,25.1151 62.5,23.5C 62.3764,22.8933 62.0431,22.56 61.5,22.5C 58.1667,15.8333 54.8333,9.16667 51.5,2.5C 51.81,1.26166 52.31,1.26166 53,2.5C 53.4828,1.55198 53.6495,0.551975 53.5,-0.5 Z"/></g>
<g><path style="opacity:1" fill="#109336" d="M 30.5,4.5 C 30.8417,3.66175 31.5084,3.32842 32.5,3.5C 35.961,2.88945 38.6277,4.05612 40.5,7C 39.5842,7.27842 38.9175,7.77842 38.5,8.5C 37.8333,8.5 37.1667,8.5 36.5,8.5C 35.0499,6.39011 33.0499,5.05678 30.5,4.5 Z"/></g>
<g><path style="opacity:1" fill="#209430" d="M 44.5,1.5 C 44.8333,1.5 45.1667,1.5 45.5,1.5C 46.6843,2.68787 46.6843,3.85453 45.5,5C 49.349,8.68179 53.0156,12.5151 56.5,16.5C 57.7853,19.0205 58.4519,21.6872 58.5,24.5C 57.2921,25.2341 55.9587,25.5674 54.5,25.5C 53.8283,21.8117 52.9949,18.1451 52,14.5C 47.3912,11.2712 44.8912,6.93782 44.5,1.5 Z"/></g>
<g><path style="opacity:1" fill="#66b533" d="M 30.5,4.5 C 33.0499,5.05678 35.0499,6.39011 36.5,8.5C 37.2423,10.4258 38.2423,12.2591 39.5,14C 38.8333,14.6667 38.1667,14.6667 37.5,14C 36.4677,12.3732 35.1344,11.2066 33.5,10.5C 31.597,10.7959 29.9303,11.4625 28.5,12.5C 26.5398,10.8437 24.5398,9.17704 22.5,7.5C 24.8902,5.98023 27.5568,4.98023 30.5,4.5 Z"/></g>
<g><path style="opacity:1" fill="#99c969" d="M 33.5,10.5 C 33.9802,13.0046 34.9802,15.3379 36.5,17.5C 36.3764,18.1067 36.0431,18.44 35.5,18.5C 34.8333,18.5 34.1667,18.5 33.5,18.5C 33.5,18.1667 33.5,17.8333 33.5,17.5C 34.525,17.1034 34.6917,16.4368 34,15.5C 32.7365,13.393 30.9032,12.393 28.5,12.5C 29.9303,11.4625 31.597,10.7959 33.5,10.5 Z"/></g>
<g><path style="opacity:1" fill="#098237" d="M 44.5,1.5 C 44.8912,6.93782 47.3912,11.2712 52,14.5C 52.9949,18.1451 53.8283,21.8117 54.5,25.5C 53.1007,26.8897 51.4341,27.8897 49.5,28.5C 49.665,25.1501 49.4983,21.8168 49,18.5C 48.7216,17.5842 48.2216,16.9175 47.5,16.5C 46.609,15.8902 45.609,15.5569 44.5,15.5C 44.5542,11.2196 42.5542,8.88629 38.5,8.5C 38.9175,7.77842 39.5842,7.27842 40.5,7C 38.6277,4.05612 35.961,2.88945 32.5,3.5C 36.1829,1.75006 40.1829,1.08339 44.5,1.5 Z"/></g>
<g><path style="opacity:1" fill="#99c487" d="M 28.5,12.5 C 30.9032,12.393 32.7365,13.393 34,15.5C 34.6917,16.4368 34.525,17.1034 33.5,17.5C 32.5041,17.5858 31.6708,17.2524 31,16.5C 30.5814,17.6721 29.9147,18.6721 29,19.5C 27.6283,18.0899 26.795,16.4233 26.5,14.5C 27.1667,13.8333 27.8333,13.1667 28.5,12.5 Z"/></g>
<g><path style="opacity:1" fill="#a9d098" d="M 36.5,8.5 C 37.1667,8.5 37.8333,8.5 38.5,8.5C 42.5542,8.88629 44.5542,11.2196 44.5,15.5C 43.8485,14.9094 43.1818,14.2427 42.5,13.5C 40.5,15.5 38.5,17.5 36.5,19.5C 35.8933,19.3764 35.56,19.0431 35.5,18.5C 36.0431,18.44 36.3764,18.1067 36.5,17.5C 34.9802,15.3379 33.9802,13.0046 33.5,10.5C 35.1344,11.2066 36.4677,12.3732 37.5,14C 38.1667,14.6667 38.8333,14.6667 39.5,14C 38.2423,12.2591 37.2423,10.4258 36.5,8.5 Z"/></g>
<g><path style="opacity:1" fill="#32993a" d="M 22.5,7.5 C 24.5398,9.17704 26.5398,10.8437 28.5,12.5C 27.8333,13.1667 27.1667,13.8333 26.5,14.5C 25.6618,14.8417 25.3284,15.5084 25.5,16.5C 23.8049,15.1736 22.4716,15.5069 21.5,17.5C 21.5654,17.0618 21.3988,16.7284 21,16.5C 19.2663,17.2489 17.433,17.7489 15.5,18C 16.3366,19.0113 16.67,20.1779 16.5,21.5C 14.067,19.3824 12.4003,16.7157 11.5,13.5C 9.78998,12.1128 8.12331,10.7794 6.5,9.5C 12.0036,9.8496 17.3369,9.18293 22.5,7.5 Z"/></g>
<g><path style="opacity:1" fill="#61af37" d="M 45.5,1.5 C 47.6208,1.32526 49.6208,1.65859 51.5,2.5C 54.8333,9.16667 58.1667,15.8333 61.5,22.5C 61.0269,23.9063 60.0269,24.573 58.5,24.5C 58.4519,21.6872 57.7853,19.0205 56.5,16.5C 53.0156,12.5151 49.349,8.68179 45.5,5C 46.6843,3.85453 46.6843,2.68787 45.5,1.5 Z"/></g>
<g><path style="opacity:1" fill="#68b42e" d="M 6.5,9.5 C 8.12331,10.7794 9.78998,12.1128 11.5,13.5C 12.4003,16.7157 14.067,19.3824 16.5,21.5C 18.3417,23.1898 19.675,25.1898 20.5,27.5C 20.8333,27.5 21.1667,27.5 21.5,27.5C 21.5,33.1667 21.5,38.8333 21.5,44.5C 19.7839,44.6287 18.1172,44.962 16.5,45.5C 12.6449,36.1152 8.4782,26.7819 4,17.5C 3.17858,14.4459 3.34524,11.4459 4.5,8.5C 5.18346,8.86273 5.85013,9.19607 6.5,9.5 Z"/></g>
<g><path style="opacity:1" fill="#60b235" d="M 44.5,15.5 C 44.8499,18.0408 44.8499,20.3742 44.5,22.5C 42.1307,23.69 40.1307,25.3567 38.5,27.5C 37.391,27.5569 36.391,27.8902 35.5,28.5C 34.3485,26.2209 33.3485,23.8876 32.5,21.5C 32.2627,20.209 32.596,19.209 33.5,18.5C 34.1667,18.5 34.8333,18.5 35.5,18.5C 35.56,19.0431 35.8933,19.3764 36.5,19.5C 38.5,17.5 40.5,15.5 42.5,13.5C 43.1818,14.2427 43.8485,14.9094 44.5,15.5 Z"/></g>
<g><path style="opacity:1" fill="#4c9a62" d="M 25.5,16.5 C 27.2131,19.1181 27.5465,21.7848 26.5,24.5C 25.1497,23.5169 24.1497,22.1836 23.5,20.5C 21.5188,21.1054 21.1854,22.1054 22.5,23.5C 21.1468,24.5237 20.4802,25.857 20.5,27.5C 19.675,25.1898 18.3417,23.1898 16.5,21.5C 17.8221,21.33 18.9887,21.6634 20,22.5C 20.4652,21.0692 21.2986,19.9025 22.5,19C 21.944,18.6174 21.6107,18.1174 21.5,17.5C 22.4716,15.5069 23.8049,15.1736 25.5,16.5 Z"/></g>
<g><path style="opacity:1" fill="#9fc09f" d="M 21.5,17.5 C 21.6107,18.1174 21.944,18.6174 22.5,19C 21.2986,19.9025 20.4652,21.0692 20,22.5C 18.9887,21.6634 17.8221,21.33 16.5,21.5C 16.67,20.1779 16.3366,19.0113 15.5,18C 17.433,17.7489 19.2663,17.2489 21,16.5C 21.3988,16.7284 21.5654,17.0618 21.5,17.5 Z"/></g>
<g><path style="opacity:1" fill="#7aae8a" d="M 26.5,14.5 C 26.795,16.4233 27.6283,18.0899 29,19.5C 29.9147,18.6721 30.5814,17.6721 31,16.5C 31.6708,17.2524 32.5041,17.5858 33.5,17.5C 33.5,17.8333 33.5,18.1667 33.5,18.5C 32.596,19.209 32.2627,20.209 32.5,21.5C 30.7844,22.9708 28.7844,23.9708 26.5,24.5C 27.5465,21.7848 27.2131,19.1181 25.5,16.5C 25.3284,15.5084 25.6618,14.8417 26.5,14.5 Z"/></g>
<g><path style="opacity:1" fill="#0a8535" d="M 32.5,21.5 C 33.3485,23.8876 34.3485,26.2209 35.5,28.5C 33.3533,30.4695 31.02,32.3029 28.5,34C 30.2816,34.1218 31.9482,33.6218 33.5,32.5C 33.722,35.3903 33.0553,38.057 31.5,40.5C 31.6236,41.1067 31.9569,41.44 32.5,41.5C 30.4687,43.5224 28.1354,45.1891 25.5,46.5C 27.2532,39.7987 26.5865,33.4654 23.5,27.5C 24.3065,26.2719 25.3065,25.2719 26.5,24.5C 28.7844,23.9708 30.7844,22.9708 32.5,21.5 Z"/></g>
<g><path style="opacity:1" fill="#94bd9a" d="M 26.5,24.5 C 25.3065,25.2719 24.3065,26.2719 23.5,27.5C 22.8333,27.5 22.1667,27.5 21.5,27.5C 21.1667,27.5 20.8333,27.5 20.5,27.5C 20.4802,25.857 21.1468,24.5237 22.5,23.5C 21.1854,22.1054 21.5188,21.1054 23.5,20.5C 24.1497,22.1836 25.1497,23.5169 26.5,24.5 Z"/></g>
<g><path style="opacity:1" fill="#c0dcab" d="M 44.5,22.5 C 46.8418,22.7748 46.8418,23.6081 44.5,25C 42.3716,25.6552 40.3716,26.4886 38.5,27.5C 40.1307,25.3567 42.1307,23.69 44.5,22.5 Z"/></g>
<g><path style="opacity:0.996" fill="#f3f4f3" d="M 61.5,22.5 C 62.0431,22.56 62.3764,22.8933 62.5,23.5C 61.846,25.1151 61.346,26.7818 61,28.5C 57.5996,32.1354 55.0996,36.3021 53.5,41C 54.1667,41.6667 54.8333,42.3333 55.5,43C 54.4946,44.672 53.1613,46.0054 51.5,47C 53.0414,48.3712 54.3747,49.8712 55.5,51.5C 43.1667,51.5 30.8333,51.5 18.5,51.5C 17.8333,50.8333 17.1667,50.1667 16.5,49.5C 19.7916,49.3531 22.7916,48.3531 25.5,46.5C 28.1354,45.1891 30.4687,43.5224 32.5,41.5C 37.5384,38.3132 42.2051,34.6465 46.5,30.5C 47.7095,30.0679 48.7095,29.4013 49.5,28.5C 51.4341,27.8897 53.1007,26.8897 54.5,25.5C 55.9587,25.5674 57.2921,25.2341 58.5,24.5C 60.0269,24.573 61.0269,23.9063 61.5,22.5 Z"/></g>
<g><path style="opacity:1" fill="#0f9133" d="M 47.5,16.5 C 48.2216,16.9175 48.7216,17.5842 49,18.5C 49.4983,21.8168 49.665,25.1501 49.5,28.5C 48.7095,29.4013 47.7095,30.0679 46.5,30.5C 47.3136,25.8809 47.6469,21.2142 47.5,16.5 Z"/></g>
<g><path style="opacity:1" fill="#9bbea2" d="M 38.5,27.5 C 37.027,29.3947 35.3603,31.0613 33.5,32.5C 31.9482,33.6218 30.2816,34.1218 28.5,34C 31.02,32.3029 33.3533,30.4695 35.5,28.5C 36.391,27.8902 37.391,27.5569 38.5,27.5 Z"/></g>
<g><path style="opacity:1" fill="#3ca231" d="M 44.5,15.5 C 45.609,15.5569 46.609,15.8902 47.5,16.5C 47.6469,21.2142 47.3136,25.8809 46.5,30.5C 42.2051,34.6465 37.5384,38.3132 32.5,41.5C 31.9569,41.44 31.6236,41.1067 31.5,40.5C 33.0553,38.057 33.722,35.3903 33.5,32.5C 35.3603,31.0613 37.027,29.3947 38.5,27.5C 40.3716,26.4886 42.3716,25.6552 44.5,25C 46.8418,23.6081 46.8418,22.7748 44.5,22.5C 44.8499,20.3742 44.8499,18.0408 44.5,15.5 Z"/></g>
<g><path style="opacity:1" fill="#3aa12e" d="M 21.5,27.5 C 22.1667,27.5 22.8333,27.5 23.5,27.5C 26.5865,33.4654 27.2532,39.7987 25.5,46.5C 22.7916,48.3531 19.7916,49.3531 16.5,49.5C 16.5,48.1667 16.5,46.8333 16.5,45.5C 18.1172,44.962 19.7839,44.6287 21.5,44.5C 21.5,38.8333 21.5,33.1667 21.5,27.5 Z"/></g>
</svg>
